<?xml version="1.0" encoding="utf-8" standalone="no"?>
<!DOCTYPE svg PUBLIC "-//W3C//DTD SVG 1.1//EN"
  "http://www.w3.org/Graphics/SVG/1.1/DTD/svg11.dtd">
<!-- Created with matplotlib (http://matplotlib.org/) -->
<svg height="360pt" version="1.1" viewBox="0 0 360 360" width="360pt" xmlns="http://www.w3.org/2000/svg" xmlns:xlink="http://www.w3.org/1999/xlink">
 <defs>
  <style type="text/css">
*{stroke-linecap:butt;stroke-linejoin:round;}
  </style>
 </defs>
 <g id="figure_1">
  <g id="patch_1">
   <path d="M 0 360 
L 360 360 
L 360 0 
L 0 0 
z
" style="fill:#ffffff;"/>
  </g>
  <g id="axes_1">
   <g id="patch_2">
    <path d="M 45.9 320.4 
L 323.1 320.4 
L 323.1 43.2 
L 45.9 43.2 
z
" style="fill:#eaeaf2;"/>
   </g>
   <g id="patch_3">
    <path clip-path="url(#p7be127875a)" d="M 184.5 195.66 
C 188.175715 195.66 191.701377 194.199623 194.3005 191.6005 
C 196.899623 189.001377 198.36 185.475715 198.36 181.8 
C 198.36 178.124285 196.899623 174.598623 194.3005 171.9995 
C 191.701377 169.400377 188.175715 167.94 184.5 167.94 
C 180.824285 167.94 177.298623 169.400377 174.6995 171.9995 
C 172.100377 174.598623 170.64 178.124285 170.64 181.8 
C 170.64 185.475715 172.100377 189.001377 174.6995 191.6005 
C 177.298623 194.199623 180.824285 195.66 184.5 195.66 
z
" style="fill:#008000;opacity:0.6;stroke:#000000;stroke-linejoin:miter;"/>
   </g>
   <g id="patch_4">
    <path clip-path="url(#p7be127875a)" d="M 208.8936 605.6388 
C 236.461462 605.6388 262.903928 594.685972 282.39735 575.19255 
C 301.890772 555.699128 312.8436 529.256662 312.8436 501.6888 
C 312.8436 474.120938 301.890772 447.678472 282.39735 428.18505 
C 262.903928 408.691628 236.461462 397.7388 208.8936 397.7388 
C 181.325738 397.7388 154.883272 408.691628 135.38985 428.18505 
C 115.896428 447.678472 104.9436 474.120938 104.9436 501.6888 
C 104.9436 529.256662 115.896428 555.699128 135.38985 575.19255 
C 154.883272 594.685972 181.325738 605.6388 208.8936 605.6388 
z
" style="opacity:0.1;stroke:#000000;stroke-linejoin:miter;"/>
   </g>
   <g id="patch_5">
    <path clip-path="url(#p7be127875a)" d="M 208.8936 536.3388 
C 218.082887 536.3388 226.897043 532.687857 233.39485 526.19005 
C 239.892657 519.692243 243.5436 510.878087 243.5436 501.6888 
C 243.5436 492.499513 239.892657 483.685357 233.39485 477.18755 
C 226.897043 470.689743 218.082887 467.0388 208.8936 467.0388 
C 199.704313 467.0388 190.890157 470.689743 184.39235 477.18755 
C 177.894543 483.685357 174.2436 492.499513 174.2436 501.6888 
C 174.2436 510.878087 177.894543 519.692243 184.39235 526.19005 
C 190.890157 532.687857 199.704313 536.3388 208.8936 536.3388 
z
" style="fill:#ff0000;opacity:0.2;stroke:#ff0000;stroke-linejoin:miter;"/>
   </g>
   <g id="line2d_1">
    <path clip-path="url(#p7be127875a)" d="M 80.093214 361 
L 78.673858 355.26593 
L 76.073052 344.256122 
L 70.89011 323.991608 
L 69.420953 317.455815 
L 68.440729 312.09995 
L 67.865702 307.771239 
L 66.008621 291.833931 
L 64.775737 283.310884 
L 62.858037 273.060646 
L 60.868692 264.352418 
L 58.572162 255.144552 
L 57.995809 251.142657 
L 57.181607 245.776631 
L 56.674133 242.411409 
L 56.431075 238.936115 
L 56.124827 236.133744 
L 55.081297 229.196578 
L 54.75124 226.453301 
L 54.465202 225.106086 
L 53.932208 223.8191 
L 53.932208 223.8191 
" style="fill:none;stroke:#000000;stroke-linecap:square;stroke-width:1.5;"/>
   </g>
   <g id="line2d_2">
    <path clip-path="url(#p7be127875a)" d="M 76.739969 361 
L 75.608825 356.610436 
L 74.40341 351.296642 
L 73.50089 346.29001 
L 72.932401 341.465829 
L 72.591368 336.69064 
L 72.366802 329.735043 
L 72.312861 322.642733 
L 72.556134 320.048134 
L 73.88749 310.938978 
L 74.080453 306.850931 
L 73.990619 304.226066 
L 73.6871 301.557039 
L 73.02657 298.11881 
L 72.184704 294.159545 
L 71.934413 291.903879 
L 71.955335 289.692112 
L 72.317202 286.774896 
L 73.564147 278.74392 
L 73.815149 275.753001 
L 73.832268 273.433449 
L 73.656218 271.039757 
L 73.042348 266.948765 
L 72.621429 263.67206 
L 72.50335 261.253232 
L 72.60736 258.877481 
L 72.843114 257.315438 
L 73.237913 255.770525 
L 73.793422 254.240513 
L 74.884345 251.958428 
L 76.405369 248.929836 
L 77.278376 246.656681 
L 77.686974 245.127729 
L 77.915482 243.587982 
L 77.98827 241.237461 
L 77.98827 241.237461 
" style="fill:none;stroke:#ff0000;stroke-linecap:square;stroke-width:1.5;"/>
   </g>
   <g id="line2d_3">
    <path clip-path="url(#p7be127875a)" d="M 77.229888 361 
L 77.448724 354.698349 
L 77.545791 349.505191 
L 77.33395 345.713848 
L 76.894718 342.03644 
L 75.247195 330.476998 
L 75.184139 328.324618 
L 75.279182 326.238533 
L 75.536404 324.213287 
L 76.19932 321.282091 
L 78.559484 312.966392 
L 78.960721 310.160455 
L 79.999651 300.149452 
L 80.745429 295.032433 
L 80.948359 292.135888 
L 80.864765 289.430706 
L 80.423081 286.107988 
L 80.048375 283.008462 
L 80.035315 280.738434 
L 80.462327 272.372649 
L 80.156316 268.593884 
L 79.971846 265.566687 
L 80.046918 263.285164 
L 80.401644 260.317307 
L 81.233486 255.143222 
L 81.716387 253.447529 
L 82.449688 251.826623 
L 83.934479 248.810794 
L 85.282628 245.818298 
L 87.063557 242.62801 
L 87.44129 241.305056 
L 89.240003 232.250228 
L 89.318128 229.125815 
L 89.32601 224.522017 
L 89.087153 222.662505 
L 89.087153 222.662505 
" style="fill:none;stroke:#008000;stroke-linecap:square;stroke-width:1.5;"/>
   </g>
   <g id="line2d_4">
    <path clip-path="url(#p7be127875a)" d="M 84.450954 361 
L 79.531678 328.231823 
L 78.584507 321.698328 
L 78.082043 316.427324 
L 77.725565 310.332349 
L 77.532162 302.597319 
L 77.527367 296.187634 
L 77.772895 291.796137 
L 78.429065 282.915592 
L 78.774585 275.829682 
L 79.777871 263.221295 
L 80.43571 259.233358 
L 81.320032 254.746376 
L 82.135166 251.833595 
L 82.727749 249.471215 
L 84.512888 239.797974 
L 84.624212 235.8221 
L 84.569938 232.95769 
L 84.283064 230.686934 
L 83.64683 227.882605 
L 82.847923 224.527573 
L 82.575192 222.234279 
L 82.18384 216.897351 
L 82.18384 216.897351 
" style="fill:none;stroke:#0000ff;stroke-linecap:square;stroke-width:1.5;"/>
   </g>
   <g id="patch_6">
    <path d="M 45.9 320.4 
L 45.9 43.2 
" style="fill:none;stroke:#000000;stroke-linecap:square;stroke-linejoin:miter;stroke-width:0.8;"/>
   </g>
   <g id="patch_7">
    <path d="M 323.1 320.4 
L 323.1 43.2 
" style="fill:none;stroke:#000000;stroke-linecap:square;stroke-linejoin:miter;stroke-width:0.8;"/>
   </g>
   <g id="patch_8">
    <path d="M 45.9 320.4 
L 323.1 320.4 
" style="fill:none;stroke:#000000;stroke-linecap:square;stroke-linejoin:miter;stroke-width:0.8;"/>
   </g>
   <g id="patch_9">
    <path d="M 45.9 43.2 
L 323.1 43.2 
" style="fill:none;stroke:#000000;stroke-linecap:square;stroke-linejoin:miter;stroke-width:0.8;"/>
   </g>
   <g id="text_1">
    <!-- Target -->
    <defs>
     <path d="M 0.484375 72.90625 
L 67.671875 72.90625 
L 67.671875 58.6875 
L 43.5 58.6875 
L 43.5 0 
L 24.703125 0 
L 24.703125 58.6875 
L 0.484375 58.6875 
z
" id="DejaVuSans-Bold-54"/>
     <path d="M 32.90625 24.609375 
Q 27.4375 24.609375 24.671875 22.75 
Q 21.921875 20.90625 21.921875 17.28125 
Q 21.921875 13.96875 24.140625 12.078125 
Q 26.375 10.203125 30.328125 10.203125 
Q 35.25 10.203125 38.625 13.734375 
Q 42 17.28125 42 22.609375 
L 42 24.609375 
z
M 59.625 31.203125 
L 59.625 0 
L 42 0 
L 42 8.109375 
Q 38.484375 3.125 34.078125 0.84375 
Q 29.6875 -1.421875 23.390625 -1.421875 
Q 14.890625 -1.421875 9.59375 3.53125 
Q 4.296875 8.5 4.296875 16.40625 
Q 4.296875 26.03125 10.90625 30.515625 
Q 17.53125 35.015625 31.6875 35.015625 
L 42 35.015625 
L 42 36.375 
Q 42 40.53125 38.71875 42.453125 
Q 35.453125 44.390625 28.515625 44.390625 
Q 22.90625 44.390625 18.0625 43.265625 
Q 13.234375 42.140625 9.078125 39.890625 
L 9.078125 53.21875 
Q 14.703125 54.59375 20.359375 55.296875 
Q 26.03125 56 31.6875 56 
Q 46.484375 56 53.046875 50.171875 
Q 59.625 44.34375 59.625 31.203125 
z
" id="DejaVuSans-Bold-61"/>
     <path d="M 49.03125 39.796875 
Q 46.734375 40.875 44.453125 41.375 
Q 42.1875 41.890625 39.890625 41.890625 
Q 33.15625 41.890625 29.515625 37.5625 
Q 25.875 33.25 25.875 25.203125 
L 25.875 0 
L 8.40625 0 
L 8.40625 54.6875 
L 25.875 54.6875 
L 25.875 45.703125 
Q 29.25 51.078125 33.609375 53.53125 
Q 37.984375 56 44.09375 56 
Q 44.96875 56 45.984375 55.921875 
Q 47.015625 55.859375 48.96875 55.609375 
z
" id="DejaVuSans-Bold-72"/>
     <path d="M 45.609375 9.28125 
Q 42 4.5 37.640625 2.25 
Q 33.296875 0 27.59375 0 
Q 17.578125 0 11.03125 7.875 
Q 4.5 15.765625 4.5 27.984375 
Q 4.5 40.234375 11.03125 48.0625 
Q 17.578125 55.90625 27.59375 55.90625 
Q 33.296875 55.90625 37.640625 53.65625 
Q 42 51.421875 45.609375 46.578125 
L 45.609375 54.6875 
L 63.1875 54.6875 
L 63.1875 5.515625 
Q 63.1875 -7.671875 54.859375 -14.625 
Q 46.53125 -21.578125 30.71875 -21.578125 
Q 25.59375 -21.578125 20.796875 -20.796875 
Q 16.015625 -20.015625 11.1875 -18.40625 
L 11.1875 -4.78125 
Q 15.765625 -7.421875 20.15625 -8.71875 
Q 24.5625 -10.015625 29 -10.015625 
Q 37.59375 -10.015625 41.59375 -6.25 
Q 45.609375 -2.484375 45.609375 5.515625 
z
M 34.078125 43.3125 
Q 28.65625 43.3125 25.625 39.296875 
Q 22.609375 35.296875 22.609375 27.984375 
Q 22.609375 20.453125 25.53125 16.578125 
Q 28.46875 12.703125 34.078125 12.703125 
Q 39.546875 12.703125 42.578125 16.703125 
Q 45.609375 20.703125 45.609375 27.984375 
Q 45.609375 35.296875 42.578125 39.296875 
Q 39.546875 43.3125 34.078125 43.3125 
z
" id="DejaVuSans-Bold-67"/>
     <path d="M 62.984375 27.484375 
L 62.984375 22.515625 
L 22.125 22.515625 
Q 22.75 16.359375 26.5625 13.28125 
Q 30.375 10.203125 37.203125 10.203125 
Q 42.71875 10.203125 48.5 11.84375 
Q 54.296875 13.484375 60.40625 16.796875 
L 60.40625 3.328125 
Q 54.203125 0.984375 48 -0.21875 
Q 41.796875 -1.421875 35.59375 -1.421875 
Q 20.75 -1.421875 12.515625 6.125 
Q 4.296875 13.671875 4.296875 27.296875 
Q 4.296875 40.671875 12.375 48.328125 
Q 20.453125 56 34.625 56 
Q 47.515625 56 55.25 48.234375 
Q 62.984375 40.484375 62.984375 27.484375 
z
M 45.015625 33.296875 
Q 45.015625 38.28125 42.109375 41.328125 
Q 39.203125 44.390625 34.515625 44.390625 
Q 29.4375 44.390625 26.265625 41.53125 
Q 23.09375 38.671875 22.3125 33.296875 
z
" id="DejaVuSans-Bold-65"/>
     <path d="M 27.484375 70.21875 
L 27.484375 54.6875 
L 45.515625 54.6875 
L 45.515625 42.1875 
L 27.484375 42.1875 
L 27.484375 19 
Q 27.484375 15.1875 29 13.84375 
Q 30.515625 12.5 35.015625 12.5 
L 44 12.5 
L 44 0 
L 29 0 
Q 18.65625 0 14.328125 4.3125 
Q 10.015625 8.640625 10.015625 19 
L 10.015625 42.1875 
L 1.3125 42.1875 
L 1.3125 54.6875 
L 10.015625 54.6875 
L 10.015625 70.21875 
z
" id="DejaVuSans-Bold-74"/>
    </defs>
    <g transform="translate(137.996094 37.2)scale(0.25 -0.25)">
     <use xlink:href="#DejaVuSans-Bold-54"/>
     <use x="68.025391" xlink:href="#DejaVuSans-Bold-61"/>
     <use x="135.505859" xlink:href="#DejaVuSans-Bold-72"/>
     <use x="184.822266" xlink:href="#DejaVuSans-Bold-67"/>
     <use x="256.404297" xlink:href="#DejaVuSans-Bold-65"/>
     <use x="324.226562" xlink:href="#DejaVuSans-Bold-74"/>
    </g>
   </g>
  </g>
 </g>
 <defs>
  <clipPath id="p7be127875a">
   <rect height="277.2" width="277.2" x="45.9" y="43.2"/>
  </clipPath>
 </defs>
</svg>
