<?xml version="1.0" encoding="utf-8" standalone="no"?>
<!DOCTYPE svg PUBLIC "-//W3C//DTD SVG 1.1//EN"
  "http://www.w3.org/Graphics/SVG/1.1/DTD/svg11.dtd">
<!-- Created with matplotlib (http://matplotlib.org/) -->
<svg height="360pt" version="1.1" viewBox="0 0 360 360" width="360pt" xmlns="http://www.w3.org/2000/svg" xmlns:xlink="http://www.w3.org/1999/xlink">
 <defs>
  <style type="text/css">
*{stroke-linecap:butt;stroke-linejoin:round;}
  </style>
 </defs>
 <g id="figure_1">
  <g id="patch_1">
   <path d="M 0 360 
L 360 360 
L 360 0 
L 0 0 
z
" style="fill:#ffffff;"/>
  </g>
  <g id="axes_1">
   <g id="patch_2">
    <path d="M 45.9 320.4 
L 323.1 320.4 
L 323.1 43.2 
L 45.9 43.2 
z
" style="fill:#eaeaf2;"/>
   </g>
   <g id="patch_3">
    <path clip-path="url(#p3ba397c492)" d="M 184.5 195.66 
C 188.175715 195.66 191.701377 194.199623 194.3005 191.6005 
C 196.899623 189.001377 198.36 185.475715 198.36 181.8 
C 198.36 178.124285 196.899623 174.598623 194.3005 171.9995 
C 191.701377 169.400377 188.175715 167.94 184.5 167.94 
C 180.824285 167.94 177.298623 169.400377 174.6995 171.9995 
C 172.100377 174.598623 170.64 178.124285 170.64 181.8 
C 170.64 185.475715 172.100377 189.001377 174.6995 191.6005 
C 177.298623 194.199623 180.824285 195.66 184.5 195.66 
z
" style="fill:#008000;opacity:0.6;stroke:#000000;stroke-linejoin:miter;"/>
   </g>
   <g id="patch_4">
    <path clip-path="url(#p3ba397c492)" d="M 208.8936 605.6388 
C 236.461462 605.6388 262.903928 594.685972 282.39735 575.19255 
C 301.890772 555.699128 312.8436 529.256662 312.8436 501.6888 
C 312.8436 474.120938 301.890772 447.678472 282.39735 428.18505 
C 262.903928 408.691628 236.461462 397.7388 208.8936 397.7388 
C 181.325738 397.7388 154.883272 408.691628 135.38985 428.18505 
C 115.896428 447.678472 104.9436 474.120938 104.9436 501.6888 
C 104.9436 529.256662 115.896428 555.699128 135.38985 575.19255 
C 154.883272 594.685972 181.325738 605.6388 208.8936 605.6388 
z
" style="opacity:0.1;stroke:#000000;stroke-linejoin:miter;"/>
   </g>
   <g id="patch_5">
    <path clip-path="url(#p3ba397c492)" d="M 208.8936 536.3388 
C 218.082887 536.3388 226.897043 532.687857 233.39485 526.19005 
C 239.892657 519.692243 243.5436 510.878087 243.5436 501.6888 
C 243.5436 492.499513 239.892657 483.685357 233.39485 477.18755 
C 226.897043 470.689743 218.082887 467.0388 208.8936 467.0388 
C 199.704313 467.0388 190.890157 470.689743 184.39235 477.18755 
C 177.894543 483.685357 174.2436 492.499513 174.2436 501.6888 
C 174.2436 510.878087 177.894543 519.692243 184.39235 526.19005 
C 190.890157 532.687857 199.704313 536.3388 208.8936 536.3388 
z
" style="fill:#ff0000;opacity:0.2;stroke:#ff0000;stroke-linejoin:miter;"/>
   </g>
   <g id="line2d_1">
    <path clip-path="url(#p3ba397c492)" d="M 65.577996 361 
L 66.661016 356.261695 
L 68.664204 348.746527 
L 70.856482 341.414438 
L 73.224002 334.232087 
L 79.382127 316.762094 
L 81.162163 312.194499 
L 85.467212 302.09477 
L 92.458051 286.841803 
L 97.005872 277.293957 
L 101.678533 267.984528 
L 105.231403 260.911945 
L 112.00612 247.151614 
L 115.126891 241.577951 
L 118.868053 235.418486 
L 122.079631 230.432008 
L 125.429635 225.762898 
L 128.878092 221.411318 
L 138.496116 209.912506 
L 143.815883 204.414 
L 150.182633 197.952709 
L 163.63626 183.70954 
L 163.63626 183.70954 
" style="fill:none;stroke:#000000;stroke-linecap:square;stroke-width:1.5;"/>
   </g>
   <g id="line2d_2">
    <path clip-path="url(#p3ba397c492)" d="M 92.031782 361 
L 92.153101 356.235123 
L 92.357709 353.626104 
L 92.751143 351.049146 
L 93.404216 348.519101 
L 94.351057 346.048142 
L 95.533451 343.646839 
L 97.538781 340.164885 
L 99.514837 336.769732 
L 100.660151 334.514682 
L 101.620704 332.244944 
L 102.408474 329.95084 
L 103.037165 327.625089 
L 103.753557 324.075853 
L 104.677518 319.289489 
L 105.381555 316.927179 
L 108.344045 308.875343 
L 108.893421 306.565641 
L 109.838594 300.734803 
L 110.809492 294.970249 
L 111.589092 291.595587 
L 112.61367 288.295793 
L 113.896054 285.065978 
L 114.946637 282.961001 
L 116.768983 279.918331 
L 120.629821 274.312295 
L 123.086715 270.910442 
L 125.639707 267.768287 
L 128.30555 264.860318 
L 131.103643 262.167974 
L 133.389631 260.294854 
L 136.557758 258.019584 
L 140.556656 255.373123 
L 144.708372 252.668885 
L 147.785394 250.378007 
L 150.575468 247.971604 
L 152.424071 246.097794 
L 156.43857 241.808632 
L 158.910138 239.576618 
L 161.461006 237.561821 
L 164.713883 235.295088 
L 171.43132 230.781369 
L 172.921241 229.540949 
L 174.234666 228.151019 
L 175.397082 226.616842 
L 176.398687 224.968066 
L 177.212001 223.212147 
L 177.852054 221.346557 
L 178.333297 219.36157 
L 178.799328 216.548024 
L 178.867215 215.061444 
L 178.817554 208.260218 
L 178.734548 205.20139 
L 178.456966 204.352195 
L 178.456966 204.352195 
" style="fill:none;stroke:#ff0000;stroke-linecap:square;stroke-width:1.5;"/>
   </g>
   <g id="line2d_3">
    <path clip-path="url(#p3ba397c492)" d="M 90.594363 361 
L 95.710619 353.779532 
L 97.586662 350.591021 
L 99.237687 347.365478 
L 100.648013 344.081266 
L 101.79706 340.720057 
L 103.041288 336.147663 
L 104.313765 331.568571 
L 105.476499 328.183096 
L 106.81967 324.834259 
L 108.838847 320.42332 
L 111.064621 316.105758 
L 113.484054 311.918057 
L 115.448978 308.897157 
L 117.726352 305.994143 
L 121.724251 301.402962 
L 124.973058 298.08666 
L 127.468987 295.834147 
L 133.768788 290.396371 
L 135.618721 288.338703 
L 137.191926 286.209911 
L 138.514852 284.035829 
L 142.122816 277.358536 
L 144.689346 271.701752 
L 146.118035 269.24685 
L 147.748675 266.874435 
L 149.498312 264.644306 
L 151.394673 262.576926 
L 153.871596 259.978537 
L 154.850982 258.635934 
L 156.055399 256.50598 
L 157.07293 254.253452 
L 157.868485 251.87382 
L 160.009793 244.198615 
L 161.427457 239.87951 
L 161.984037 237.269919 
L 162.231131 234.693806 
L 162.513791 231.408257 
L 162.855454 229.874292 
L 163.6423 227.715445 
L 164.938812 225.03244 
L 166.146696 222.388561 
L 166.843291 220.311537 
L 167.542384 217.404479 
L 168.360156 212.823389 
L 169.084932 210.601113 
L 170.353996 207.029929 
L 170.674448 205.572997 
L 170.909423 203.321605 
L 171.132821 198.213172 
L 170.894432 191.991959 
L 171.126302 190.023755 
L 171.022925 189.321054 
L 171.022925 189.321054 
" style="fill:none;stroke:#008000;stroke-linecap:square;stroke-width:1.5;"/>
   </g>
   <g id="line2d_4">
    <path clip-path="url(#p3ba397c492)" d="M 108.40703 361 
L 109.049932 357.994941 
L 110.055139 353.278978 
L 111.073072 349.764832 
L 115.596877 335.906638 
L 117.365919 331.389747 
L 121.412736 321.460642 
L 123.421587 316.00376 
L 125.914006 308.443204 
L 128.897219 302.402446 
L 131.796685 295.44764 
L 134.049945 291.574573 
L 138.291276 284.152569 
L 140.607779 279.63509 
L 142.900669 275.179872 
L 144.8747 271.672863 
L 148.371714 264.650886 
L 154.08107 252.67534 
L 157.299495 246.438353 
L 160.246126 241.381364 
L 164.612789 232.984634 
L 174.645571 216.721601 
L 176.030054 214.55027 
L 176.807722 212.850031 
L 178.630976 208.471447 
L 181.603552 202.597837 
L 183.66214 196.445375 
L 183.630216 195.9265 
L 183.630216 195.9265 
" style="fill:none;stroke:#0000ff;stroke-linecap:square;stroke-width:1.5;"/>
   </g>
   <g id="patch_6">
    <path d="M 45.9 320.4 
L 45.9 43.2 
" style="fill:none;stroke:#000000;stroke-linecap:square;stroke-linejoin:miter;stroke-width:0.8;"/>
   </g>
   <g id="patch_7">
    <path d="M 323.1 320.4 
L 323.1 43.2 
" style="fill:none;stroke:#000000;stroke-linecap:square;stroke-linejoin:miter;stroke-width:0.8;"/>
   </g>
   <g id="patch_8">
    <path d="M 45.9 320.4 
L 323.1 320.4 
" style="fill:none;stroke:#000000;stroke-linecap:square;stroke-linejoin:miter;stroke-width:0.8;"/>
   </g>
   <g id="patch_9">
    <path d="M 45.9 43.2 
L 323.1 43.2 
" style="fill:none;stroke:#000000;stroke-linecap:square;stroke-linejoin:miter;stroke-width:0.8;"/>
   </g>
   <g id="text_1">
    <!-- Target -->
    <defs>
     <path d="M 0.484375 72.90625 
L 67.671875 72.90625 
L 67.671875 58.6875 
L 43.5 58.6875 
L 43.5 0 
L 24.703125 0 
L 24.703125 58.6875 
L 0.484375 58.6875 
z
" id="DejaVuSans-Bold-54"/>
     <path d="M 32.90625 24.609375 
Q 27.4375 24.609375 24.671875 22.75 
Q 21.921875 20.90625 21.921875 17.28125 
Q 21.921875 13.96875 24.140625 12.078125 
Q 26.375 10.203125 30.328125 10.203125 
Q 35.25 10.203125 38.625 13.734375 
Q 42 17.28125 42 22.609375 
L 42 24.609375 
z
M 59.625 31.203125 
L 59.625 0 
L 42 0 
L 42 8.109375 
Q 38.484375 3.125 34.078125 0.84375 
Q 29.6875 -1.421875 23.390625 -1.421875 
Q 14.890625 -1.421875 9.59375 3.53125 
Q 4.296875 8.5 4.296875 16.40625 
Q 4.296875 26.03125 10.90625 30.515625 
Q 17.53125 35.015625 31.6875 35.015625 
L 42 35.015625 
L 42 36.375 
Q 42 40.53125 38.71875 42.453125 
Q 35.453125 44.390625 28.515625 44.390625 
Q 22.90625 44.390625 18.0625 43.265625 
Q 13.234375 42.140625 9.078125 39.890625 
L 9.078125 53.21875 
Q 14.703125 54.59375 20.359375 55.296875 
Q 26.03125 56 31.6875 56 
Q 46.484375 56 53.046875 50.171875 
Q 59.625 44.34375 59.625 31.203125 
z
" id="DejaVuSans-Bold-61"/>
     <path d="M 49.03125 39.796875 
Q 46.734375 40.875 44.453125 41.375 
Q 42.1875 41.890625 39.890625 41.890625 
Q 33.15625 41.890625 29.515625 37.5625 
Q 25.875 33.25 25.875 25.203125 
L 25.875 0 
L 8.40625 0 
L 8.40625 54.6875 
L 25.875 54.6875 
L 25.875 45.703125 
Q 29.25 51.078125 33.609375 53.53125 
Q 37.984375 56 44.09375 56 
Q 44.96875 56 45.984375 55.921875 
Q 47.015625 55.859375 48.96875 55.609375 
z
" id="DejaVuSans-Bold-72"/>
     <path d="M 45.609375 9.28125 
Q 42 4.5 37.640625 2.25 
Q 33.296875 0 27.59375 0 
Q 17.578125 0 11.03125 7.875 
Q 4.5 15.765625 4.5 27.984375 
Q 4.5 40.234375 11.03125 48.0625 
Q 17.578125 55.90625 27.59375 55.90625 
Q 33.296875 55.90625 37.640625 53.65625 
Q 42 51.421875 45.609375 46.578125 
L 45.609375 54.6875 
L 63.1875 54.6875 
L 63.1875 5.515625 
Q 63.1875 -7.671875 54.859375 -14.625 
Q 46.53125 -21.578125 30.71875 -21.578125 
Q 25.59375 -21.578125 20.796875 -20.796875 
Q 16.015625 -20.015625 11.1875 -18.40625 
L 11.1875 -4.78125 
Q 15.765625 -7.421875 20.15625 -8.71875 
Q 24.5625 -10.015625 29 -10.015625 
Q 37.59375 -10.015625 41.59375 -6.25 
Q 45.609375 -2.484375 45.609375 5.515625 
z
M 34.078125 43.3125 
Q 28.65625 43.3125 25.625 39.296875 
Q 22.609375 35.296875 22.609375 27.984375 
Q 22.609375 20.453125 25.53125 16.578125 
Q 28.46875 12.703125 34.078125 12.703125 
Q 39.546875 12.703125 42.578125 16.703125 
Q 45.609375 20.703125 45.609375 27.984375 
Q 45.609375 35.296875 42.578125 39.296875 
Q 39.546875 43.3125 34.078125 43.3125 
z
" id="DejaVuSans-Bold-67"/>
     <path d="M 62.984375 27.484375 
L 62.984375 22.515625 
L 22.125 22.515625 
Q 22.75 16.359375 26.5625 13.28125 
Q 30.375 10.203125 37.203125 10.203125 
Q 42.71875 10.203125 48.5 11.84375 
Q 54.296875 13.484375 60.40625 16.796875 
L 60.40625 3.328125 
Q 54.203125 0.984375 48 -0.21875 
Q 41.796875 -1.421875 35.59375 -1.421875 
Q 20.75 -1.421875 12.515625 6.125 
Q 4.296875 13.671875 4.296875 27.296875 
Q 4.296875 40.671875 12.375 48.328125 
Q 20.453125 56 34.625 56 
Q 47.515625 56 55.25 48.234375 
Q 62.984375 40.484375 62.984375 27.484375 
z
M 45.015625 33.296875 
Q 45.015625 38.28125 42.109375 41.328125 
Q 39.203125 44.390625 34.515625 44.390625 
Q 29.4375 44.390625 26.265625 41.53125 
Q 23.09375 38.671875 22.3125 33.296875 
z
" id="DejaVuSans-Bold-65"/>
     <path d="M 27.484375 70.21875 
L 27.484375 54.6875 
L 45.515625 54.6875 
L 45.515625 42.1875 
L 27.484375 42.1875 
L 27.484375 19 
Q 27.484375 15.1875 29 13.84375 
Q 30.515625 12.5 35.015625 12.5 
L 44 12.5 
L 44 0 
L 29 0 
Q 18.65625 0 14.328125 4.3125 
Q 10.015625 8.640625 10.015625 19 
L 10.015625 42.1875 
L 1.3125 42.1875 
L 1.3125 54.6875 
L 10.015625 54.6875 
L 10.015625 70.21875 
z
" id="DejaVuSans-Bold-74"/>
    </defs>
    <g transform="translate(137.996094 37.2)scale(0.25 -0.25)">
     <use xlink:href="#DejaVuSans-Bold-54"/>
     <use x="68.025391" xlink:href="#DejaVuSans-Bold-61"/>
     <use x="135.505859" xlink:href="#DejaVuSans-Bold-72"/>
     <use x="184.822266" xlink:href="#DejaVuSans-Bold-67"/>
     <use x="256.404297" xlink:href="#DejaVuSans-Bold-65"/>
     <use x="324.226562" xlink:href="#DejaVuSans-Bold-74"/>
    </g>
   </g>
  </g>
 </g>
 <defs>
  <clipPath id="p3ba397c492">
   <rect height="277.2" width="277.2" x="45.9" y="43.2"/>
  </clipPath>
 </defs>
</svg>
