<?xml version="1.0" encoding="utf-8" standalone="no"?>
<!DOCTYPE svg PUBLIC "-//W3C//DTD SVG 1.1//EN"
  "http://www.w3.org/Graphics/SVG/1.1/DTD/svg11.dtd">
<!-- Created with matplotlib (http://matplotlib.org/) -->
<svg height="360pt" version="1.1" viewBox="0 0 360 360" width="360pt" xmlns="http://www.w3.org/2000/svg" xmlns:xlink="http://www.w3.org/1999/xlink">
 <defs>
  <style type="text/css">
*{stroke-linecap:butt;stroke-linejoin:round;}
  </style>
 </defs>
 <g id="figure_1">
  <g id="patch_1">
   <path d="M 0 360 
L 360 360 
L 360 0 
L 0 0 
z
" style="fill:#ffffff;"/>
  </g>
  <g id="axes_1">
   <g id="patch_2">
    <path d="M 45.9 320.4 
L 323.1 320.4 
L 323.1 43.2 
L 45.9 43.2 
z
" style="fill:#eaeaf2;"/>
   </g>
   <g id="patch_3">
    <path clip-path="url(#p72806dee3e)" d="M 184.5 195.66 
C 188.175715 195.66 191.701377 194.199623 194.3005 191.6005 
C 196.899623 189.001377 198.36 185.475715 198.36 181.8 
C 198.36 178.124285 196.899623 174.598623 194.3005 171.9995 
C 191.701377 169.400377 188.175715 167.94 184.5 167.94 
C 180.824285 167.94 177.298623 169.400377 174.6995 171.9995 
C 172.100377 174.598623 170.64 178.124285 170.64 181.8 
C 170.64 185.475715 172.100377 189.001377 174.6995 191.6005 
C 177.298623 194.199623 180.824285 195.66 184.5 195.66 
z
" style="fill:#008000;opacity:0.6;stroke:#000000;stroke-linejoin:miter;"/>
   </g>
   <g id="patch_4">
    <path clip-path="url(#p72806dee3e)" d="M 208.8936 605.6388 
C 236.461462 605.6388 262.903928 594.685972 282.39735 575.19255 
C 301.890772 555.699128 312.8436 529.256662 312.8436 501.6888 
C 312.8436 474.120938 301.890772 447.678472 282.39735 428.18505 
C 262.903928 408.691628 236.461462 397.7388 208.8936 397.7388 
C 181.325738 397.7388 154.883272 408.691628 135.38985 428.18505 
C 115.896428 447.678472 104.9436 474.120938 104.9436 501.6888 
C 104.9436 529.256662 115.896428 555.699128 135.38985 575.19255 
C 154.883272 594.685972 181.325738 605.6388 208.8936 605.6388 
z
" style="opacity:0.1;stroke:#000000;stroke-linejoin:miter;"/>
   </g>
   <g id="patch_5">
    <path clip-path="url(#p72806dee3e)" d="M 208.8936 536.3388 
C 218.082887 536.3388 226.897043 532.687857 233.39485 526.19005 
C 239.892657 519.692243 243.5436 510.878087 243.5436 501.6888 
C 243.5436 492.499513 239.892657 483.685357 233.39485 477.18755 
C 226.897043 470.689743 218.082887 467.0388 208.8936 467.0388 
C 199.704313 467.0388 190.890157 470.689743 184.39235 477.18755 
C 177.894543 483.685357 174.2436 492.499513 174.2436 501.6888 
C 174.2436 510.878087 177.894543 519.692243 184.39235 526.19005 
C 190.890157 532.687857 199.704313 536.3388 208.8936 536.3388 
z
" style="fill:#ff0000;opacity:0.2;stroke:#ff0000;stroke-linejoin:miter;"/>
   </g>
   <g id="line2d_1">
    <path clip-path="url(#p72806dee3e)" d="M 57.286782 361 
L 58.548113 357.015856 
L 60.380514 351.933933 
L 62.464369 347.041091 
L 65.821472 339.97469 
L 68.251886 335.422843 
L 70.268141 332.099425 
L 74.359867 325.646782 
L 77.936101 319.262215 
L 81.179956 314.020102 
L 83.986287 309.908748 
L 87.01902 305.892302 
L 92.559396 299.087422 
L 96.627648 294.384257 
L 101.786767 288.94292 
L 116.889541 273.590115 
L 131.761886 258.526576 
L 140.360585 249.49483 
L 147.641816 241.52097 
L 153.735859 234.524633 
L 159.311157 227.773022 
L 163.873168 221.910943 
L 167.993859 216.257436 
L 171.665256 210.8181 
L 174.545897 206.167511 
L 177.061779 201.694541 
L 179.209183 197.403 
L 180.783371 193.799621 
L 181.891704 190.813409 
L 182.458268 188.838903 
L 182.458268 188.838903 
" style="fill:none;stroke:#000000;stroke-linecap:square;stroke-width:1.5;"/>
   </g>
   <g id="line2d_2">
    <path clip-path="url(#p72806dee3e)" d="M 75.08115 361 
L 74.477761 355.317542 
L 73.534789 345.539511 
L 73.420714 342.773489 
L 73.510747 340.033902 
L 73.783489 337.338763 
L 74.233824 334.693979 
L 75.162722 330.820542 
L 77.02344 324.57766 
L 78.940023 318.543896 
L 79.843934 316.20123 
L 80.981384 313.907205 
L 82.364543 311.677944 
L 84.720664 308.451641 
L 88.075921 304.343668 
L 92.392468 299.475626 
L 97.65194 293.962351 
L 103.522251 287.858598 
L 112.252415 278.69617 
L 134.483413 256.870476 
L 137.274936 253.896992 
L 139.655914 250.873967 
L 142.033422 247.836585 
L 147.714659 241.219211 
L 150.665119 237.646562 
L 154.60834 232.930218 
L 156.272072 231.276331 
L 157.430312 230.354533 
L 158.656516 229.58007 
L 160.632657 228.668372 
L 162.769578 228.010435 
L 165.804953 227.384186 
L 170.482785 226.745575 
L 176.577626 225.982043 
L 178.543593 225.540801 
L 183.450071 224.190473 
L 190.636518 222.491645 
L 190.636518 222.491645 
" style="fill:none;stroke:#ff0000;stroke-linecap:square;stroke-width:1.5;"/>
   </g>
   <g id="line2d_3">
    <path clip-path="url(#p72806dee3e)" d="M 80.61564 361 
L 85.408127 355.963594 
L 86.96312 353.944821 
L 88.250583 351.883634 
L 89.237261 349.762911 
L 89.872472 347.58083 
L 90.246544 345.341486 
L 91.246464 337.278793 
L 92.296826 331.507205 
L 92.460735 329.174974 
L 92.393658 325.618664 
L 92.319068 322.003744 
L 92.562198 319.585338 
L 93.18063 317.184285 
L 94.127028 314.82851 
L 95.303139 312.530166 
L 97.965632 308.089215 
L 99.859766 304.86363 
L 101.390671 301.688458 
L 102.608195 298.522767 
L 103.83483 295.366835 
L 104.877334 293.293805 
L 106.155255 291.257374 
L 108.366723 288.273995 
L 112.255076 283.489155 
L 117.747242 277.113884 
L 126.235976 267.666876 
L 137.153625 255.584796 
L 138.223277 253.974496 
L 138.94652 252.296591 
L 139.383547 250.537067 
L 139.790688 247.766594 
L 140.534035 240.933331 
L 141.092474 238.997567 
L 141.891993 237.119277 
L 143.79264 233.561803 
L 145.786646 230.266775 
L 148.396926 226.407053 
L 151.903018 221.197754 
L 155.721412 215.458964 
L 157.45401 212.651378 
L 158.478468 210.510632 
L 159.243707 208.340468 
L 160.965214 202.870028 
L 161.622358 201.762964 
L 162.899154 200.382135 
L 164.337563 199.227847 
L 169.944486 195.279171 
L 172.096523 193.297337 
L 173.982665 191.234409 
L 175.626123 189.120348 
L 177.288503 186.596215 
L 177.288503 186.596215 
" style="fill:none;stroke:#008000;stroke-linecap:square;stroke-width:1.5;"/>
   </g>
   <g id="line2d_4">
    <path clip-path="url(#p72806dee3e)" d="M 67.400082 361 
L 70.499471 357.650232 
L 74.540177 353.572379 
L 79.660859 348.731595 
L 87.585423 341.382427 
L 88.941462 339.541314 
L 89.880078 337.650439 
L 90.461177 335.689625 
L 90.767341 333.65143 
L 91.346937 327.152972 
L 91.947936 323.780967 
L 92.545952 321.516582 
L 93.319719 319.253883 
L 94.256393 317.004732 
L 95.926935 313.676603 
L 98.439084 309.343857 
L 101.773307 304.086992 
L 103.919487 301.025083 
L 107.018816 297.070582 
L 111.833558 291.38288 
L 120.659913 281.545884 
L 128.374393 273.073745 
L 134.357536 266.530123 
L 147.09558 252.595154 
L 152.885751 245.967675 
L 163.846783 232.663377 
L 168.411491 226.700338 
L 172.542978 220.954477 
L 176.231368 215.428943 
L 179.131282 210.705612 
L 181.669707 206.162788 
L 183.842486 201.803808 
L 185.440947 198.143153 
L 186.754779 194.628054 
L 187.3389 192.650859 
L 187.807401 190.152333 
L 187.867 189.647727 
L 187.867 189.647727 
" style="fill:none;stroke:#0000ff;stroke-linecap:square;stroke-width:1.5;"/>
   </g>
   <g id="patch_6">
    <path d="M 45.9 320.4 
L 45.9 43.2 
" style="fill:none;stroke:#000000;stroke-linecap:square;stroke-linejoin:miter;stroke-width:0.8;"/>
   </g>
   <g id="patch_7">
    <path d="M 323.1 320.4 
L 323.1 43.2 
" style="fill:none;stroke:#000000;stroke-linecap:square;stroke-linejoin:miter;stroke-width:0.8;"/>
   </g>
   <g id="patch_8">
    <path d="M 45.9 320.4 
L 323.1 320.4 
" style="fill:none;stroke:#000000;stroke-linecap:square;stroke-linejoin:miter;stroke-width:0.8;"/>
   </g>
   <g id="patch_9">
    <path d="M 45.9 43.2 
L 323.1 43.2 
" style="fill:none;stroke:#000000;stroke-linecap:square;stroke-linejoin:miter;stroke-width:0.8;"/>
   </g>
   <g id="text_1">
    <!-- Target -->
    <defs>
     <path d="M 0.484375 72.90625 
L 67.671875 72.90625 
L 67.671875 58.6875 
L 43.5 58.6875 
L 43.5 0 
L 24.703125 0 
L 24.703125 58.6875 
L 0.484375 58.6875 
z
" id="DejaVuSans-Bold-54"/>
     <path d="M 32.90625 24.609375 
Q 27.4375 24.609375 24.671875 22.75 
Q 21.921875 20.90625 21.921875 17.28125 
Q 21.921875 13.96875 24.140625 12.078125 
Q 26.375 10.203125 30.328125 10.203125 
Q 35.25 10.203125 38.625 13.734375 
Q 42 17.28125 42 22.609375 
L 42 24.609375 
z
M 59.625 31.203125 
L 59.625 0 
L 42 0 
L 42 8.109375 
Q 38.484375 3.125 34.078125 0.84375 
Q 29.6875 -1.421875 23.390625 -1.421875 
Q 14.890625 -1.421875 9.59375 3.53125 
Q 4.296875 8.5 4.296875 16.40625 
Q 4.296875 26.03125 10.90625 30.515625 
Q 17.53125 35.015625 31.6875 35.015625 
L 42 35.015625 
L 42 36.375 
Q 42 40.53125 38.71875 42.453125 
Q 35.453125 44.390625 28.515625 44.390625 
Q 22.90625 44.390625 18.0625 43.265625 
Q 13.234375 42.140625 9.078125 39.890625 
L 9.078125 53.21875 
Q 14.703125 54.59375 20.359375 55.296875 
Q 26.03125 56 31.6875 56 
Q 46.484375 56 53.046875 50.171875 
Q 59.625 44.34375 59.625 31.203125 
z
" id="DejaVuSans-Bold-61"/>
     <path d="M 49.03125 39.796875 
Q 46.734375 40.875 44.453125 41.375 
Q 42.1875 41.890625 39.890625 41.890625 
Q 33.15625 41.890625 29.515625 37.5625 
Q 25.875 33.25 25.875 25.203125 
L 25.875 0 
L 8.40625 0 
L 8.40625 54.6875 
L 25.875 54.6875 
L 25.875 45.703125 
Q 29.25 51.078125 33.609375 53.53125 
Q 37.984375 56 44.09375 56 
Q 44.96875 56 45.984375 55.921875 
Q 47.015625 55.859375 48.96875 55.609375 
z
" id="DejaVuSans-Bold-72"/>
     <path d="M 45.609375 9.28125 
Q 42 4.5 37.640625 2.25 
Q 33.296875 0 27.59375 0 
Q 17.578125 0 11.03125 7.875 
Q 4.5 15.765625 4.5 27.984375 
Q 4.5 40.234375 11.03125 48.0625 
Q 17.578125 55.90625 27.59375 55.90625 
Q 33.296875 55.90625 37.640625 53.65625 
Q 42 51.421875 45.609375 46.578125 
L 45.609375 54.6875 
L 63.1875 54.6875 
L 63.1875 5.515625 
Q 63.1875 -7.671875 54.859375 -14.625 
Q 46.53125 -21.578125 30.71875 -21.578125 
Q 25.59375 -21.578125 20.796875 -20.796875 
Q 16.015625 -20.015625 11.1875 -18.40625 
L 11.1875 -4.78125 
Q 15.765625 -7.421875 20.15625 -8.71875 
Q 24.5625 -10.015625 29 -10.015625 
Q 37.59375 -10.015625 41.59375 -6.25 
Q 45.609375 -2.484375 45.609375 5.515625 
z
M 34.078125 43.3125 
Q 28.65625 43.3125 25.625 39.296875 
Q 22.609375 35.296875 22.609375 27.984375 
Q 22.609375 20.453125 25.53125 16.578125 
Q 28.46875 12.703125 34.078125 12.703125 
Q 39.546875 12.703125 42.578125 16.703125 
Q 45.609375 20.703125 45.609375 27.984375 
Q 45.609375 35.296875 42.578125 39.296875 
Q 39.546875 43.3125 34.078125 43.3125 
z
" id="DejaVuSans-Bold-67"/>
     <path d="M 62.984375 27.484375 
L 62.984375 22.515625 
L 22.125 22.515625 
Q 22.75 16.359375 26.5625 13.28125 
Q 30.375 10.203125 37.203125 10.203125 
Q 42.71875 10.203125 48.5 11.84375 
Q 54.296875 13.484375 60.40625 16.796875 
L 60.40625 3.328125 
Q 54.203125 0.984375 48 -0.21875 
Q 41.796875 -1.421875 35.59375 -1.421875 
Q 20.75 -1.421875 12.515625 6.125 
Q 4.296875 13.671875 4.296875 27.296875 
Q 4.296875 40.671875 12.375 48.328125 
Q 20.453125 56 34.625 56 
Q 47.515625 56 55.25 48.234375 
Q 62.984375 40.484375 62.984375 27.484375 
z
M 45.015625 33.296875 
Q 45.015625 38.28125 42.109375 41.328125 
Q 39.203125 44.390625 34.515625 44.390625 
Q 29.4375 44.390625 26.265625 41.53125 
Q 23.09375 38.671875 22.3125 33.296875 
z
" id="DejaVuSans-Bold-65"/>
     <path d="M 27.484375 70.21875 
L 27.484375 54.6875 
L 45.515625 54.6875 
L 45.515625 42.1875 
L 27.484375 42.1875 
L 27.484375 19 
Q 27.484375 15.1875 29 13.84375 
Q 30.515625 12.5 35.015625 12.5 
L 44 12.5 
L 44 0 
L 29 0 
Q 18.65625 0 14.328125 4.3125 
Q 10.015625 8.640625 10.015625 19 
L 10.015625 42.1875 
L 1.3125 42.1875 
L 1.3125 54.6875 
L 10.015625 54.6875 
L 10.015625 70.21875 
z
" id="DejaVuSans-Bold-74"/>
    </defs>
    <g transform="translate(137.996094 37.2)scale(0.25 -0.25)">
     <use xlink:href="#DejaVuSans-Bold-54"/>
     <use x="68.025391" xlink:href="#DejaVuSans-Bold-61"/>
     <use x="135.505859" xlink:href="#DejaVuSans-Bold-72"/>
     <use x="184.822266" xlink:href="#DejaVuSans-Bold-67"/>
     <use x="256.404297" xlink:href="#DejaVuSans-Bold-65"/>
     <use x="324.226562" xlink:href="#DejaVuSans-Bold-74"/>
    </g>
   </g>
  </g>
 </g>
 <defs>
  <clipPath id="p72806dee3e">
   <rect height="277.2" width="277.2" x="45.9" y="43.2"/>
  </clipPath>
 </defs>
</svg>
