<?xml version="1.0" encoding="utf-8" standalone="no"?>
<!DOCTYPE svg PUBLIC "-//W3C//DTD SVG 1.1//EN"
  "http://www.w3.org/Graphics/SVG/1.1/DTD/svg11.dtd">
<!-- Created with matplotlib (http://matplotlib.org/) -->
<svg height="360pt" version="1.1" viewBox="0 0 360 360" width="360pt" xmlns="http://www.w3.org/2000/svg" xmlns:xlink="http://www.w3.org/1999/xlink">
 <defs>
  <style type="text/css">
*{stroke-linecap:butt;stroke-linejoin:round;}
  </style>
 </defs>
 <g id="figure_1">
  <g id="patch_1">
   <path d="M 0 360 
L 360 360 
L 360 0 
L 0 0 
z
" style="fill:#ffffff;"/>
  </g>
  <g id="axes_1">
   <g id="patch_2">
    <path d="M 45.9 320.4 
L 323.1 320.4 
L 323.1 43.2 
L 45.9 43.2 
z
" style="fill:#eaeaf2;"/>
   </g>
   <g id="patch_3">
    <path clip-path="url(#p893b9cb821)" d="M 184.5 195.66 
C 188.175715 195.66 191.701377 194.199623 194.3005 191.6005 
C 196.899623 189.001377 198.36 185.475715 198.36 181.8 
C 198.36 178.124285 196.899623 174.598623 194.3005 171.9995 
C 191.701377 169.400377 188.175715 167.94 184.5 167.94 
C 180.824285 167.94 177.298623 169.400377 174.6995 171.9995 
C 172.100377 174.598623 170.64 178.124285 170.64 181.8 
C 170.64 185.475715 172.100377 189.001377 174.6995 191.6005 
C 177.298623 194.199623 180.824285 195.66 184.5 195.66 
z
" style="fill:#008000;opacity:0.6;stroke:#000000;stroke-linejoin:miter;"/>
   </g>
   <g id="patch_4">
    <path clip-path="url(#p893b9cb821)" d="M 208.8936 605.6388 
C 236.461462 605.6388 262.903928 594.685972 282.39735 575.19255 
C 301.890772 555.699128 312.8436 529.256662 312.8436 501.6888 
C 312.8436 474.120938 301.890772 447.678472 282.39735 428.18505 
C 262.903928 408.691628 236.461462 397.7388 208.8936 397.7388 
C 181.325738 397.7388 154.883272 408.691628 135.38985 428.18505 
C 115.896428 447.678472 104.9436 474.120938 104.9436 501.6888 
C 104.9436 529.256662 115.896428 555.699128 135.38985 575.19255 
C 154.883272 594.685972 181.325738 605.6388 208.8936 605.6388 
z
" style="opacity:0.1;stroke:#000000;stroke-linejoin:miter;"/>
   </g>
   <g id="patch_5">
    <path clip-path="url(#p893b9cb821)" d="M 208.8936 536.3388 
C 218.082887 536.3388 226.897043 532.687857 233.39485 526.19005 
C 239.892657 519.692243 243.5436 510.878087 243.5436 501.6888 
C 243.5436 492.499513 239.892657 483.685357 233.39485 477.18755 
C 226.897043 470.689743 218.082887 467.0388 208.8936 467.0388 
C 199.704313 467.0388 190.890157 470.689743 184.39235 477.18755 
C 177.894543 483.685357 174.2436 492.499513 174.2436 501.6888 
C 174.2436 510.878087 177.894543 519.692243 184.39235 526.19005 
C 190.890157 532.687857 199.704313 536.3388 208.8936 536.3388 
z
" style="fill:#ff0000;opacity:0.2;stroke:#ff0000;stroke-linejoin:miter;"/>
   </g>
   <g id="line2d_1">
    <path clip-path="url(#p893b9cb821)" d="M 60.579762 361 
L 61.846817 357.40686 
L 63.384112 353.613232 
L 65.598686 348.735153 
L 67.964091 344.029946 
L 70.515096 339.47998 
L 73.298932 335.079695 
L 77.024269 329.768659 
L 82.307471 322.587853 
L 85.528991 318.620001 
L 94.270974 308.065391 
L 98.981565 302.461861 
L 103.911382 297.010027 
L 112.947056 287.378314 
L 122.117136 278.256551 
L 137.756619 262.692161 
L 146.314237 253.858256 
L 153.550408 246.064104 
L 159.596807 239.227976 
L 165.117862 232.632459 
L 169.625341 226.906695 
L 173.686095 221.385082 
L 176.914197 216.652595 
L 179.778201 212.089307 
L 182.273852 207.698955 
L 184.397456 203.485198 
L 185.947918 199.945805 
L 187.019719 197.005016 
L 187.669512 194.552709 
L 187.938694 193.073895 
L 187.938694 193.073895 
" style="fill:none;stroke:#000000;stroke-linecap:square;stroke-width:1.5;"/>
   </g>
   <g id="line2d_2">
    <path clip-path="url(#p893b9cb821)" d="M 40.8405 361 
L 37.351213 356.546641 
L 34.908895 352.872551 
L 33.875673 351.066666 
L 32.992 349.293732 
L 32.296394 347.559285 
L 31.832022 345.868949 
L 31.615339 344.223018 
L 31.628229 342.619468 
L 31.835641 341.056827 
L 32.191645 339.532442 
L 33.210682 336.594916 
L 34.496257 333.796376 
L 35.94927 331.123257 
L 38.33104 327.318021 
L 40.875197 323.719303 
L 44.435712 319.178568 
L 48.125843 314.86912 
L 52.851364 309.729243 
L 58.605997 303.830297 
L 66.295603 296.307313 
L 70.642416 292.094507 
L 71.855628 290.574778 
L 72.6795 289.122245 
L 74.304818 285.609843 
L 75.293703 284.249677 
L 76.574962 282.917488 
L 78.847508 280.951865 
L 82.446711 278.244074 
L 88.33997 273.921844 
L 91.057623 271.678444 
L 97.070921 266.269601 
L 106.528836 257.694394 
L 111.394104 253.063543 
L 131.637309 232.248465 
L 136.763613 226.566787 
L 137.849128 225.149189 
L 138.699403 223.696753 
L 139.310578 222.191645 
L 139.727189 220.626055 
L 142.033768 208.173139 
L 142.345164 205.887741 
L 142.732659 204.40837 
L 143.324341 202.950944 
L 144.481319 200.81102 
L 147.670253 195.539867 
L 148.894852 193.929854 
L 150.239932 192.554525 
L 151.709702 191.361761 
L 153.790176 189.964949 
L 155.90845 188.584624 
L 156.80563 187.786527 
L 157.874708 186.427618 
L 159.966754 183.093852 
L 160.216592 182.044136 
L 160.256352 180.914181 
L 160.219449 180.326571 
L 160.219449 180.326571 
" style="fill:none;stroke:#ff0000;stroke-linecap:square;stroke-width:1.5;"/>
   </g>
   <g id="line2d_3">
    <path clip-path="url(#p893b9cb821)" d="M 38.467852 361 
L 38.423126 360.240298 
L 38.4574 358.683268 
L 38.638932 357.165549 
L 38.972546 355.686937 
L 39.443526 354.245305 
L 40.686851 351.462412 
L 42.181758 348.802143 
L 44.683743 345.014386 
L 47.36431 341.433212 
L 51.101298 336.917539 
L 55.893411 331.604802 
L 61.554223 325.59954 
L 64.233033 322.670373 
L 67.348851 318.824261 
L 69.769051 315.972032 
L 73.352432 312.196093 
L 79.09387 306.626261 
L 93.292192 293.272 
L 107.66846 279.675976 
L 110.107536 277.168368 
L 112.21759 274.624594 
L 114.009566 272.019046 
L 118.565579 264.861189 
L 121.384092 261.345067 
L 126.308937 255.381484 
L 127.483558 253.684326 
L 128.441518 251.959355 
L 129.544118 249.29852 
L 130.574293 246.571551 
L 131.510056 244.765341 
L 133.77925 241.251222 
L 135.326594 238.653427 
L 138.573101 232.702038 
L 141.330708 228.669071 
L 144.58213 224.166894 
L 146.210274 222.188527 
L 148.525208 219.791479 
L 156.654957 211.872269 
L 160.244847 208.262574 
L 161.952963 206.505744 
L 162.862019 205.198657 
L 164.928824 201.417652 
L 166.61754 199.489201 
L 168.282053 197.557317 
L 169.324192 196.046083 
L 172.218237 191.114227 
L 172.310498 190.04532 
L 172.129363 188.898048 
L 171.938515 188.293801 
L 171.938515 188.293801 
" style="fill:none;stroke:#008000;stroke-linecap:square;stroke-width:1.5;"/>
   </g>
   <g id="line2d_4">
    <path clip-path="url(#p893b9cb821)" d="M 34.169743 361 
L 33.434759 358.918702 
L 32.474784 355.523656 
L 31.829411 352.232785 
L 31.505849 349.048408 
L 31.55254 345.97667 
L 31.750453 344.487464 
L 32.096053 343.032872 
L 33.146127 340.21048 
L 34.496878 337.498648 
L 36.022657 334.890605 
L 38.50595 331.151811 
L 41.13406 327.59066 
L 44.779241 323.066405 
L 49.47724 317.690728 
L 55.226834 311.542592 
L 61.985224 304.667622 
L 72.524754 294.305664 
L 97.03436 270.303318 
L 107.875047 259.307427 
L 116.485385 250.275963 
L 124.549092 241.503576 
L 131.385093 233.763944 
L 137.73367 226.259188 
L 143.58069 219.000122 
L 148.403592 212.685922 
L 152.801394 206.5871 
L 156.766375 200.711044 
L 160.291548 195.064832 
L 163.700031 189.118619 
L 166.059858 184.593876 
L 167.818966 180.783221 
L 169.680136 176.154929 
L 170.548462 173.72203 
L 170.548462 173.72203 
" style="fill:none;stroke:#0000ff;stroke-linecap:square;stroke-width:1.5;"/>
   </g>
   <g id="patch_6">
    <path d="M 45.9 320.4 
L 45.9 43.2 
" style="fill:none;stroke:#000000;stroke-linecap:square;stroke-linejoin:miter;stroke-width:0.8;"/>
   </g>
   <g id="patch_7">
    <path d="M 323.1 320.4 
L 323.1 43.2 
" style="fill:none;stroke:#000000;stroke-linecap:square;stroke-linejoin:miter;stroke-width:0.8;"/>
   </g>
   <g id="patch_8">
    <path d="M 45.9 320.4 
L 323.1 320.4 
" style="fill:none;stroke:#000000;stroke-linecap:square;stroke-linejoin:miter;stroke-width:0.8;"/>
   </g>
   <g id="patch_9">
    <path d="M 45.9 43.2 
L 323.1 43.2 
" style="fill:none;stroke:#000000;stroke-linecap:square;stroke-linejoin:miter;stroke-width:0.8;"/>
   </g>
   <g id="text_1">
    <!-- Target -->
    <defs>
     <path d="M 0.484375 72.90625 
L 67.671875 72.90625 
L 67.671875 58.6875 
L 43.5 58.6875 
L 43.5 0 
L 24.703125 0 
L 24.703125 58.6875 
L 0.484375 58.6875 
z
" id="DejaVuSans-Bold-54"/>
     <path d="M 32.90625 24.609375 
Q 27.4375 24.609375 24.671875 22.75 
Q 21.921875 20.90625 21.921875 17.28125 
Q 21.921875 13.96875 24.140625 12.078125 
Q 26.375 10.203125 30.328125 10.203125 
Q 35.25 10.203125 38.625 13.734375 
Q 42 17.28125 42 22.609375 
L 42 24.609375 
z
M 59.625 31.203125 
L 59.625 0 
L 42 0 
L 42 8.109375 
Q 38.484375 3.125 34.078125 0.84375 
Q 29.6875 -1.421875 23.390625 -1.421875 
Q 14.890625 -1.421875 9.59375 3.53125 
Q 4.296875 8.5 4.296875 16.40625 
Q 4.296875 26.03125 10.90625 30.515625 
Q 17.53125 35.015625 31.6875 35.015625 
L 42 35.015625 
L 42 36.375 
Q 42 40.53125 38.71875 42.453125 
Q 35.453125 44.390625 28.515625 44.390625 
Q 22.90625 44.390625 18.0625 43.265625 
Q 13.234375 42.140625 9.078125 39.890625 
L 9.078125 53.21875 
Q 14.703125 54.59375 20.359375 55.296875 
Q 26.03125 56 31.6875 56 
Q 46.484375 56 53.046875 50.171875 
Q 59.625 44.34375 59.625 31.203125 
z
" id="DejaVuSans-Bold-61"/>
     <path d="M 49.03125 39.796875 
Q 46.734375 40.875 44.453125 41.375 
Q 42.1875 41.890625 39.890625 41.890625 
Q 33.15625 41.890625 29.515625 37.5625 
Q 25.875 33.25 25.875 25.203125 
L 25.875 0 
L 8.40625 0 
L 8.40625 54.6875 
L 25.875 54.6875 
L 25.875 45.703125 
Q 29.25 51.078125 33.609375 53.53125 
Q 37.984375 56 44.09375 56 
Q 44.96875 56 45.984375 55.921875 
Q 47.015625 55.859375 48.96875 55.609375 
z
" id="DejaVuSans-Bold-72"/>
     <path d="M 45.609375 9.28125 
Q 42 4.5 37.640625 2.25 
Q 33.296875 0 27.59375 0 
Q 17.578125 0 11.03125 7.875 
Q 4.5 15.765625 4.5 27.984375 
Q 4.5 40.234375 11.03125 48.0625 
Q 17.578125 55.90625 27.59375 55.90625 
Q 33.296875 55.90625 37.640625 53.65625 
Q 42 51.421875 45.609375 46.578125 
L 45.609375 54.6875 
L 63.1875 54.6875 
L 63.1875 5.515625 
Q 63.1875 -7.671875 54.859375 -14.625 
Q 46.53125 -21.578125 30.71875 -21.578125 
Q 25.59375 -21.578125 20.796875 -20.796875 
Q 16.015625 -20.015625 11.1875 -18.40625 
L 11.1875 -4.78125 
Q 15.765625 -7.421875 20.15625 -8.71875 
Q 24.5625 -10.015625 29 -10.015625 
Q 37.59375 -10.015625 41.59375 -6.25 
Q 45.609375 -2.484375 45.609375 5.515625 
z
M 34.078125 43.3125 
Q 28.65625 43.3125 25.625 39.296875 
Q 22.609375 35.296875 22.609375 27.984375 
Q 22.609375 20.453125 25.53125 16.578125 
Q 28.46875 12.703125 34.078125 12.703125 
Q 39.546875 12.703125 42.578125 16.703125 
Q 45.609375 20.703125 45.609375 27.984375 
Q 45.609375 35.296875 42.578125 39.296875 
Q 39.546875 43.3125 34.078125 43.3125 
z
" id="DejaVuSans-Bold-67"/>
     <path d="M 62.984375 27.484375 
L 62.984375 22.515625 
L 22.125 22.515625 
Q 22.75 16.359375 26.5625 13.28125 
Q 30.375 10.203125 37.203125 10.203125 
Q 42.71875 10.203125 48.5 11.84375 
Q 54.296875 13.484375 60.40625 16.796875 
L 60.40625 3.328125 
Q 54.203125 0.984375 48 -0.21875 
Q 41.796875 -1.421875 35.59375 -1.421875 
Q 20.75 -1.421875 12.515625 6.125 
Q 4.296875 13.671875 4.296875 27.296875 
Q 4.296875 40.671875 12.375 48.328125 
Q 20.453125 56 34.625 56 
Q 47.515625 56 55.25 48.234375 
Q 62.984375 40.484375 62.984375 27.484375 
z
M 45.015625 33.296875 
Q 45.015625 38.28125 42.109375 41.328125 
Q 39.203125 44.390625 34.515625 44.390625 
Q 29.4375 44.390625 26.265625 41.53125 
Q 23.09375 38.671875 22.3125 33.296875 
z
" id="DejaVuSans-Bold-65"/>
     <path d="M 27.484375 70.21875 
L 27.484375 54.6875 
L 45.515625 54.6875 
L 45.515625 42.1875 
L 27.484375 42.1875 
L 27.484375 19 
Q 27.484375 15.1875 29 13.84375 
Q 30.515625 12.5 35.015625 12.5 
L 44 12.5 
L 44 0 
L 29 0 
Q 18.65625 0 14.328125 4.3125 
Q 10.015625 8.640625 10.015625 19 
L 10.015625 42.1875 
L 1.3125 42.1875 
L 1.3125 54.6875 
L 10.015625 54.6875 
L 10.015625 70.21875 
z
" id="DejaVuSans-Bold-74"/>
    </defs>
    <g transform="translate(137.996094 37.2)scale(0.25 -0.25)">
     <use xlink:href="#DejaVuSans-Bold-54"/>
     <use x="68.025391" xlink:href="#DejaVuSans-Bold-61"/>
     <use x="135.505859" xlink:href="#DejaVuSans-Bold-72"/>
     <use x="184.822266" xlink:href="#DejaVuSans-Bold-67"/>
     <use x="256.404297" xlink:href="#DejaVuSans-Bold-65"/>
     <use x="324.226562" xlink:href="#DejaVuSans-Bold-74"/>
    </g>
   </g>
  </g>
 </g>
 <defs>
  <clipPath id="p893b9cb821">
   <rect height="277.2" width="277.2" x="45.9" y="43.2"/>
  </clipPath>
 </defs>
</svg>
