<?xml version="1.0" encoding="utf-8" standalone="no"?>
<!DOCTYPE svg PUBLIC "-//W3C//DTD SVG 1.1//EN"
  "http://www.w3.org/Graphics/SVG/1.1/DTD/svg11.dtd">
<!-- Created with matplotlib (http://matplotlib.org/) -->
<svg height="360pt" version="1.1" viewBox="0 0 360 360" width="360pt" xmlns="http://www.w3.org/2000/svg" xmlns:xlink="http://www.w3.org/1999/xlink">
 <defs>
  <style type="text/css">
*{stroke-linecap:butt;stroke-linejoin:round;}
  </style>
 </defs>
 <g id="figure_1">
  <g id="patch_1">
   <path d="M 0 360 
L 360 360 
L 360 0 
L 0 0 
z
" style="fill:#ffffff;"/>
  </g>
  <g id="axes_1">
   <g id="patch_2">
    <path d="M 45.9 320.4 
L 323.1 320.4 
L 323.1 43.2 
L 45.9 43.2 
z
" style="fill:#eaeaf2;"/>
   </g>
   <g id="patch_3">
    <path clip-path="url(#p7403cf46e4)" d="M 184.5 195.66 
C 188.175715 195.66 191.701377 194.199623 194.3005 191.6005 
C 196.899623 189.001377 198.36 185.475715 198.36 181.8 
C 198.36 178.124285 196.899623 174.598623 194.3005 171.9995 
C 191.701377 169.400377 188.175715 167.94 184.5 167.94 
C 180.824285 167.94 177.298623 169.400377 174.6995 171.9995 
C 172.100377 174.598623 170.64 178.124285 170.64 181.8 
C 170.64 185.475715 172.100377 189.001377 174.6995 191.6005 
C 177.298623 194.199623 180.824285 195.66 184.5 195.66 
z
" style="fill:#008000;opacity:0.6;stroke:#000000;stroke-linejoin:miter;"/>
   </g>
   <g id="patch_4">
    <path clip-path="url(#p7403cf46e4)" d="M 208.8936 605.6388 
C 236.461462 605.6388 262.903928 594.685972 282.39735 575.19255 
C 301.890772 555.699128 312.8436 529.256662 312.8436 501.6888 
C 312.8436 474.120938 301.890772 447.678472 282.39735 428.18505 
C 262.903928 408.691628 236.461462 397.7388 208.8936 397.7388 
C 181.325738 397.7388 154.883272 408.691628 135.38985 428.18505 
C 115.896428 447.678472 104.9436 474.120938 104.9436 501.6888 
C 104.9436 529.256662 115.896428 555.699128 135.38985 575.19255 
C 154.883272 594.685972 181.325738 605.6388 208.8936 605.6388 
z
" style="opacity:0.1;stroke:#000000;stroke-linejoin:miter;"/>
   </g>
   <g id="patch_5">
    <path clip-path="url(#p7403cf46e4)" d="M 208.8936 536.3388 
C 218.082887 536.3388 226.897043 532.687857 233.39485 526.19005 
C 239.892657 519.692243 243.5436 510.878087 243.5436 501.6888 
C 243.5436 492.499513 239.892657 483.685357 233.39485 477.18755 
C 226.897043 470.689743 218.082887 467.0388 208.8936 467.0388 
C 199.704313 467.0388 190.890157 470.689743 184.39235 477.18755 
C 177.894543 483.685357 174.2436 492.499513 174.2436 501.6888 
C 174.2436 510.878087 177.894543 519.692243 184.39235 526.19005 
C 190.890157 532.687857 199.704313 536.3388 208.8936 536.3388 
z
" style="fill:#ff0000;opacity:0.2;stroke:#ff0000;stroke-linejoin:miter;"/>
   </g>
   <g id="line2d_1">
    <path clip-path="url(#p7403cf46e4)" d="M 76.439763 361 
L 79.323009 344.337749 
L 80.119479 340.6529 
L 81.143404 337.012267 
L 84.858504 325.173262 
L 85.659442 321.649008 
L 87.22378 313.394112 
L 89.700918 302.875578 
L 90.777837 298.217136 
L 92.977785 290.16742 
L 98.395351 271.557686 
L 101.28906 263.376255 
L 103.568443 257.550107 
L 105.605009 252.849403 
L 108.986535 245.710812 
L 111.156282 241.532184 
L 113.85401 236.859699 
L 115.740404 233.941803 
L 117.789383 231.186468 
L 119.919452 228.621442 
L 122.128328 226.256599 
L 124.929735 223.595556 
L 128.768407 220.370547 
L 130.876544 218.702137 
L 133.275794 217.171998 
L 135.847022 215.788103 
L 151.844746 207.989154 
L 155.97507 206.412963 
L 158.421768 205.497343 
L 160.398066 204.535589 
L 160.398066 204.535589 
" style="fill:none;stroke:#000000;stroke-linecap:square;stroke-width:1.5;"/>
   </g>
   <g id="line2d_2">
    <path clip-path="url(#p7403cf46e4)" d="M 90.970712 361 
L 91.200231 356.706723 
L 91.66691 351.519347 
L 92.222604 347.672684 
L 93.214002 342.621987 
L 94.673644 336.425496 
L 96.215247 330.311691 
L 96.757639 326.632793 
L 97.317811 320.473417 
L 97.738278 316.793981 
L 98.223196 314.369878 
L 98.935128 311.982815 
L 100.306536 308.476648 
L 102.929107 302.858394 
L 104.884656 298.534164 
L 105.694784 296.396135 
L 106.329342 294.259185 
L 106.782378 292.112765 
L 107.057769 289.946214 
L 107.207859 286.639759 
L 107.409978 269.444711 
L 107.701037 266.114313 
L 108.235873 262.973464 
L 109.018565 260.071652 
L 110.035801 257.409107 
L 111.296979 254.949011 
L 112.756316 252.637994 
L 114.431193 250.421396 
L 118.434308 245.465043 
L 120.350533 242.599893 
L 123.282567 238.17952 
L 124.934179 236.022908 
L 126.730407 234.002218 
L 128.647617 232.172272 
L 131.312755 230.032967 
L 137.156795 225.510198 
L 140.594219 222.48116 
L 141.846581 221.078605 
L 142.805007 219.594035 
L 144.422938 216.729517 
L 145.463512 215.559102 
L 146.717911 214.613573 
L 148.080286 213.865444 
L 149.482757 213.295338 
L 151.007314 212.916868 
L 152.755413 212.728705 
L 156.151663 212.672707 
L 159.696097 212.553765 
L 162.198526 212.203622 
L 163.736118 211.777196 
L 166.827196 210.539419 
L 167.186598 210.353515 
L 167.344372 210.110377 
L 167.344372 210.110377 
" style="fill:none;stroke:#ff0000;stroke-linecap:square;stroke-width:1.5;"/>
   </g>
   <g id="line2d_3">
    <path clip-path="url(#p7403cf46e4)" d="M 84.566181 361 
L 85.054173 358.421375 
L 85.850991 353.67378 
L 86.43836 351.308797 
L 87.621157 347.798271 
L 89.986633 342.03003 
L 92.715997 335.146829 
L 93.449042 332.832351 
L 94.301428 329.312551 
L 95.196897 324.533028 
L 96.015925 318.422706 
L 98.242878 301.101101 
L 99.332909 296.236782 
L 100.354044 292.656057 
L 102.376195 286.859928 
L 103.801434 282.372595 
L 104.622999 279.131023 
L 105.196071 276.021288 
L 105.905269 272.025679 
L 106.436126 270.058773 
L 107.51395 267.115295 
L 108.920166 264.175797 
L 111.090711 260.318598 
L 115.805665 252.122891 
L 118.12438 247.640463 
L 119.710302 244.064926 
L 122.717041 236.579128 
L 124.04818 234.380162 
L 125.63706 232.374936 
L 127.446377 230.551818 
L 130.069705 228.367486 
L 133.198414 226.06904 
L 135.951498 224.315962 
L 141.382989 221.136096 
L 143.554988 219.552512 
L 145.026653 218.20539 
L 146.252115 216.726751 
L 147.250455 215.156946 
L 148.95907 211.926462 
L 150.663613 208.734725 
L 152.310024 206.189636 
L 157.34473 198.898705 
L 159.331803 196.313632 
L 159.34715 195.778007 
L 159.34715 195.778007 
" style="fill:none;stroke:#008000;stroke-linecap:square;stroke-width:1.5;"/>
   </g>
   <g id="line2d_4">
    <path clip-path="url(#p7403cf46e4)" d="M 80.361649 361 
L 83.403333 342.833004 
L 87.87785 322.413459 
L 88.747488 317.652436 
L 89.842571 312.916734 
L 90.874952 309.399007 
L 93.320377 302.491451 
L 98.069314 289.071507 
L 102.586223 275.083625 
L 107.427857 262.886884 
L 109.401213 258.024927 
L 111.521554 253.357934 
L 114.515241 247.331222 
L 116.350167 244.096941 
L 118.823237 240.233682 
L 122.905433 234.431349 
L 126.000286 230.365065 
L 129.156016 226.581219 
L 133.343103 221.963179 
L 137.85959 217.268846 
L 142.376714 213.010284 
L 148.916776 207.042153 
L 154.997536 201.917873 
L 158.837431 199.139224 
L 161.704214 197.259348 
L 163.489534 196.266267 
L 163.651265 195.937243 
L 163.651265 195.937243 
" style="fill:none;stroke:#0000ff;stroke-linecap:square;stroke-width:1.5;"/>
   </g>
   <g id="patch_6">
    <path d="M 45.9 320.4 
L 45.9 43.2 
" style="fill:none;stroke:#000000;stroke-linecap:square;stroke-linejoin:miter;stroke-width:0.8;"/>
   </g>
   <g id="patch_7">
    <path d="M 323.1 320.4 
L 323.1 43.2 
" style="fill:none;stroke:#000000;stroke-linecap:square;stroke-linejoin:miter;stroke-width:0.8;"/>
   </g>
   <g id="patch_8">
    <path d="M 45.9 320.4 
L 323.1 320.4 
" style="fill:none;stroke:#000000;stroke-linecap:square;stroke-linejoin:miter;stroke-width:0.8;"/>
   </g>
   <g id="patch_9">
    <path d="M 45.9 43.2 
L 323.1 43.2 
" style="fill:none;stroke:#000000;stroke-linecap:square;stroke-linejoin:miter;stroke-width:0.8;"/>
   </g>
   <g id="text_1">
    <!-- Target -->
    <defs>
     <path d="M 0.484375 72.90625 
L 67.671875 72.90625 
L 67.671875 58.6875 
L 43.5 58.6875 
L 43.5 0 
L 24.703125 0 
L 24.703125 58.6875 
L 0.484375 58.6875 
z
" id="DejaVuSans-Bold-54"/>
     <path d="M 32.90625 24.609375 
Q 27.4375 24.609375 24.671875 22.75 
Q 21.921875 20.90625 21.921875 17.28125 
Q 21.921875 13.96875 24.140625 12.078125 
Q 26.375 10.203125 30.328125 10.203125 
Q 35.25 10.203125 38.625 13.734375 
Q 42 17.28125 42 22.609375 
L 42 24.609375 
z
M 59.625 31.203125 
L 59.625 0 
L 42 0 
L 42 8.109375 
Q 38.484375 3.125 34.078125 0.84375 
Q 29.6875 -1.421875 23.390625 -1.421875 
Q 14.890625 -1.421875 9.59375 3.53125 
Q 4.296875 8.5 4.296875 16.40625 
Q 4.296875 26.03125 10.90625 30.515625 
Q 17.53125 35.015625 31.6875 35.015625 
L 42 35.015625 
L 42 36.375 
Q 42 40.53125 38.71875 42.453125 
Q 35.453125 44.390625 28.515625 44.390625 
Q 22.90625 44.390625 18.0625 43.265625 
Q 13.234375 42.140625 9.078125 39.890625 
L 9.078125 53.21875 
Q 14.703125 54.59375 20.359375 55.296875 
Q 26.03125 56 31.6875 56 
Q 46.484375 56 53.046875 50.171875 
Q 59.625 44.34375 59.625 31.203125 
z
" id="DejaVuSans-Bold-61"/>
     <path d="M 49.03125 39.796875 
Q 46.734375 40.875 44.453125 41.375 
Q 42.1875 41.890625 39.890625 41.890625 
Q 33.15625 41.890625 29.515625 37.5625 
Q 25.875 33.25 25.875 25.203125 
L 25.875 0 
L 8.40625 0 
L 8.40625 54.6875 
L 25.875 54.6875 
L 25.875 45.703125 
Q 29.25 51.078125 33.609375 53.53125 
Q 37.984375 56 44.09375 56 
Q 44.96875 56 45.984375 55.921875 
Q 47.015625 55.859375 48.96875 55.609375 
z
" id="DejaVuSans-Bold-72"/>
     <path d="M 45.609375 9.28125 
Q 42 4.5 37.640625 2.25 
Q 33.296875 0 27.59375 0 
Q 17.578125 0 11.03125 7.875 
Q 4.5 15.765625 4.5 27.984375 
Q 4.5 40.234375 11.03125 48.0625 
Q 17.578125 55.90625 27.59375 55.90625 
Q 33.296875 55.90625 37.640625 53.65625 
Q 42 51.421875 45.609375 46.578125 
L 45.609375 54.6875 
L 63.1875 54.6875 
L 63.1875 5.515625 
Q 63.1875 -7.671875 54.859375 -14.625 
Q 46.53125 -21.578125 30.71875 -21.578125 
Q 25.59375 -21.578125 20.796875 -20.796875 
Q 16.015625 -20.015625 11.1875 -18.40625 
L 11.1875 -4.78125 
Q 15.765625 -7.421875 20.15625 -8.71875 
Q 24.5625 -10.015625 29 -10.015625 
Q 37.59375 -10.015625 41.59375 -6.25 
Q 45.609375 -2.484375 45.609375 5.515625 
z
M 34.078125 43.3125 
Q 28.65625 43.3125 25.625 39.296875 
Q 22.609375 35.296875 22.609375 27.984375 
Q 22.609375 20.453125 25.53125 16.578125 
Q 28.46875 12.703125 34.078125 12.703125 
Q 39.546875 12.703125 42.578125 16.703125 
Q 45.609375 20.703125 45.609375 27.984375 
Q 45.609375 35.296875 42.578125 39.296875 
Q 39.546875 43.3125 34.078125 43.3125 
z
" id="DejaVuSans-Bold-67"/>
     <path d="M 62.984375 27.484375 
L 62.984375 22.515625 
L 22.125 22.515625 
Q 22.75 16.359375 26.5625 13.28125 
Q 30.375 10.203125 37.203125 10.203125 
Q 42.71875 10.203125 48.5 11.84375 
Q 54.296875 13.484375 60.40625 16.796875 
L 60.40625 3.328125 
Q 54.203125 0.984375 48 -0.21875 
Q 41.796875 -1.421875 35.59375 -1.421875 
Q 20.75 -1.421875 12.515625 6.125 
Q 4.296875 13.671875 4.296875 27.296875 
Q 4.296875 40.671875 12.375 48.328125 
Q 20.453125 56 34.625 56 
Q 47.515625 56 55.25 48.234375 
Q 62.984375 40.484375 62.984375 27.484375 
z
M 45.015625 33.296875 
Q 45.015625 38.28125 42.109375 41.328125 
Q 39.203125 44.390625 34.515625 44.390625 
Q 29.4375 44.390625 26.265625 41.53125 
Q 23.09375 38.671875 22.3125 33.296875 
z
" id="DejaVuSans-Bold-65"/>
     <path d="M 27.484375 70.21875 
L 27.484375 54.6875 
L 45.515625 54.6875 
L 45.515625 42.1875 
L 27.484375 42.1875 
L 27.484375 19 
Q 27.484375 15.1875 29 13.84375 
Q 30.515625 12.5 35.015625 12.5 
L 44 12.5 
L 44 0 
L 29 0 
Q 18.65625 0 14.328125 4.3125 
Q 10.015625 8.640625 10.015625 19 
L 10.015625 42.1875 
L 1.3125 42.1875 
L 1.3125 54.6875 
L 10.015625 54.6875 
L 10.015625 70.21875 
z
" id="DejaVuSans-Bold-74"/>
    </defs>
    <g transform="translate(137.996094 37.2)scale(0.25 -0.25)">
     <use xlink:href="#DejaVuSans-Bold-54"/>
     <use x="68.025391" xlink:href="#DejaVuSans-Bold-61"/>
     <use x="135.505859" xlink:href="#DejaVuSans-Bold-72"/>
     <use x="184.822266" xlink:href="#DejaVuSans-Bold-67"/>
     <use x="256.404297" xlink:href="#DejaVuSans-Bold-65"/>
     <use x="324.226562" xlink:href="#DejaVuSans-Bold-74"/>
    </g>
   </g>
  </g>
 </g>
 <defs>
  <clipPath id="p7403cf46e4">
   <rect height="277.2" width="277.2" x="45.9" y="43.2"/>
  </clipPath>
 </defs>
</svg>
