<?xml version="1.0" encoding="utf-8" standalone="no"?>
<!DOCTYPE svg PUBLIC "-//W3C//DTD SVG 1.1//EN"
  "http://www.w3.org/Graphics/SVG/1.1/DTD/svg11.dtd">
<!-- Created with matplotlib (http://matplotlib.org/) -->
<svg height="360pt" version="1.1" viewBox="0 0 360 360" width="360pt" xmlns="http://www.w3.org/2000/svg" xmlns:xlink="http://www.w3.org/1999/xlink">
 <defs>
  <style type="text/css">
*{stroke-linecap:butt;stroke-linejoin:round;}
  </style>
 </defs>
 <g id="figure_1">
  <g id="patch_1">
   <path d="M 0 360 
L 360 360 
L 360 0 
L 0 0 
z
" style="fill:#ffffff;"/>
  </g>
  <g id="axes_1">
   <g id="patch_2">
    <path d="M 45.9 320.4 
L 323.1 320.4 
L 323.1 43.2 
L 45.9 43.2 
z
" style="fill:#eaeaf2;"/>
   </g>
   <g id="patch_3">
    <path clip-path="url(#p0c226237e2)" d="M 184.5 195.66 
C 188.175715 195.66 191.701377 194.199623 194.3005 191.6005 
C 196.899623 189.001377 198.36 185.475715 198.36 181.8 
C 198.36 178.124285 196.899623 174.598623 194.3005 171.9995 
C 191.701377 169.400377 188.175715 167.94 184.5 167.94 
C 180.824285 167.94 177.298623 169.400377 174.6995 171.9995 
C 172.100377 174.598623 170.64 178.124285 170.64 181.8 
C 170.64 185.475715 172.100377 189.001377 174.6995 191.6005 
C 177.298623 194.199623 180.824285 195.66 184.5 195.66 
z
" style="fill:#008000;opacity:0.6;stroke:#000000;stroke-linejoin:miter;"/>
   </g>
   <g id="patch_4">
    <path clip-path="url(#p0c226237e2)" d="M 208.8936 605.6388 
C 236.461462 605.6388 262.903928 594.685972 282.39735 575.19255 
C 301.890772 555.699128 312.8436 529.256662 312.8436 501.6888 
C 312.8436 474.120938 301.890772 447.678472 282.39735 428.18505 
C 262.903928 408.691628 236.461462 397.7388 208.8936 397.7388 
C 181.325738 397.7388 154.883272 408.691628 135.38985 428.18505 
C 115.896428 447.678472 104.9436 474.120938 104.9436 501.6888 
C 104.9436 529.256662 115.896428 555.699128 135.38985 575.19255 
C 154.883272 594.685972 181.325738 605.6388 208.8936 605.6388 
z
" style="opacity:0.1;stroke:#000000;stroke-linejoin:miter;"/>
   </g>
   <g id="patch_5">
    <path clip-path="url(#p0c226237e2)" d="M 208.8936 536.3388 
C 218.082887 536.3388 226.897043 532.687857 233.39485 526.19005 
C 239.892657 519.692243 243.5436 510.878087 243.5436 501.6888 
C 243.5436 492.499513 239.892657 483.685357 233.39485 477.18755 
C 226.897043 470.689743 218.082887 467.0388 208.8936 467.0388 
C 199.704313 467.0388 190.890157 470.689743 184.39235 477.18755 
C 177.894543 483.685357 174.2436 492.499513 174.2436 501.6888 
C 174.2436 510.878087 177.894543 519.692243 184.39235 526.19005 
C 190.890157 532.687857 199.704313 536.3388 208.8936 536.3388 
z
" style="fill:#ff0000;opacity:0.2;stroke:#ff0000;stroke-linejoin:miter;"/>
   </g>
   <g id="line2d_1">
    <path clip-path="url(#p0c226237e2)" d="M 84.252886 361 
L 82.012607 334.096358 
L 81.468564 325.868111 
L 79.910844 308.33285 
L 79.917919 304.144719 
L 80.235567 296.074358 
L 80.722062 287.602554 
L 81.199651 283.113849 
L 81.913225 276.993082 
L 82.018252 273.578505 
L 82.165749 269.386134 
L 82.572096 266.084129 
L 83.54836 260.565688 
L 84.730927 254.039068 
L 86.227308 242.616816 
L 86.518121 237.491291 
L 86.98319 234.691378 
L 87.70761 231.961415 
L 89.173001 226.776438 
L 89.767499 223.817494 
L 90.363542 220.893854 
L 92.236939 214.067858 
L 92.569432 212.13572 
L 92.67479 210.175663 
L 92.676678 208.647256 
L 92.578824 208.11948 
L 92.578824 208.11948 
" style="fill:none;stroke:#000000;stroke-linecap:square;stroke-width:1.5;"/>
   </g>
   <g id="line2d_2">
    <path clip-path="url(#p0c226237e2)" d="M 80.173749 361 
L 79.194962 355.898836 
L 76.955093 342.879288 
L 75.780312 334.383156 
L 74.893316 328.741455 
L 73.724778 323.190829 
L 71.730587 314.27636 
L 71.222001 310.873695 
L 71.032449 307.695805 
L 71.164253 304.711476 
L 71.581131 301.887406 
L 72.294671 299.179858 
L 73.283921 296.544845 
L 75.894409 290.489512 
L 76.386518 288.737902 
L 76.676221 286.953551 
L 76.822388 284.191522 
L 76.984409 279.35471 
L 77.330037 276.394835 
L 78.065912 272.583435 
L 78.906705 268.308354 
L 79.204233 265.279933 
L 79.541055 261.005796 
L 80.112514 257.478865 
L 81.151514 252.360449 
L 82.017719 249.291359 
L 83.114938 246.210471 
L 84.467396 243.192339 
L 88.377188 235.380541 
L 89.01165 233.366266 
L 89.361538 231.392939 
L 89.5297 228.779771 
L 89.702558 224.840649 
L 90.144256 221.599442 
L 91.971407 211.192435 
L 92.563817 209.393012 
L 93.409979 207.579739 
L 98.736081 197.536837 
L 99.044698 196.462957 
L 99.044698 196.462957 
" style="fill:none;stroke:#ff0000;stroke-linecap:square;stroke-width:1.5;"/>
   </g>
   <g id="line2d_3">
    <path clip-path="url(#p0c226237e2)" d="M 87.907868 361 
L 87.942591 352.657272 
L 88.17804 347.605649 
L 89.334504 333.834269 
L 89.884211 328.776132 
L 90.813099 322.530089 
L 91.552859 317.655608 
L 91.921233 314.036796 
L 92.166649 309.215067 
L 92.093288 305.586582 
L 91.855104 303.154679 
L 91.220704 299.516583 
L 88.728294 287.809097 
L 87.636856 281.291593 
L 86.825469 278.235755 
L 85.487361 274.388396 
L 84.287572 270.836342 
L 83.923073 269.16568 
L 83.802001 267.546864 
L 83.943648 265.963712 
L 84.318305 264.406526 
L 85.42563 261.376698 
L 86.435469 258.511265 
L 87.288084 255.23618 
L 88.28359 251.276994 
L 89.266689 248.640429 
L 90.634116 245.553296 
L 91.840492 243.550204 
L 94.164859 240.060243 
L 94.831824 238.581134 
L 95.402419 236.643088 
L 96.390369 232.732177 
L 96.965689 231.211818 
L 97.523198 230.207532 
L 98.255223 229.229872 
L 99.585705 227.831769 
L 101.702274 225.65413 
L 102.658354 224.372888 
L 103.631934 222.603779 
L 104.385009 220.70071 
L 106.452507 214.870593 
L 107.229101 212.705383 
L 107.609461 211.028355 
L 107.748814 209.277721 
L 107.630615 206.821387 
L 107.407103 204.891272 
L 107.268655 204.237778 
L 107.002866 203.596013 
L 107.002866 203.596013 
" style="fill:none;stroke:#008000;stroke-linecap:square;stroke-width:1.5;"/>
   </g>
   <g id="line2d_4">
    <path clip-path="url(#p0c226237e2)" d="M 81.938788 361 
L 81.552325 355.174426 
L 81.031832 341.757324 
L 80.773884 333.93079 
L 80.796421 326.341751 
L 80.95104 311.84991 
L 81.317147 288.797759 
L 82.22586 271.21875 
L 82.730352 267.878971 
L 83.437306 264.660151 
L 84.707121 260.075716 
L 86.489578 254.440763 
L 88.604499 248.688854 
L 94.037557 234.604318 
L 96.685232 228.737079 
L 102.447658 217.08889 
L 105.041085 211.42327 
L 106.393273 208.680994 
L 107.198696 206.393774 
L 107.751033 204.970073 
L 108.594237 202.988135 
L 108.594237 202.988135 
" style="fill:none;stroke:#0000ff;stroke-linecap:square;stroke-width:1.5;"/>
   </g>
   <g id="patch_6">
    <path d="M 45.9 320.4 
L 45.9 43.2 
" style="fill:none;stroke:#000000;stroke-linecap:square;stroke-linejoin:miter;stroke-width:0.8;"/>
   </g>
   <g id="patch_7">
    <path d="M 323.1 320.4 
L 323.1 43.2 
" style="fill:none;stroke:#000000;stroke-linecap:square;stroke-linejoin:miter;stroke-width:0.8;"/>
   </g>
   <g id="patch_8">
    <path d="M 45.9 320.4 
L 323.1 320.4 
" style="fill:none;stroke:#000000;stroke-linecap:square;stroke-linejoin:miter;stroke-width:0.8;"/>
   </g>
   <g id="patch_9">
    <path d="M 45.9 43.2 
L 323.1 43.2 
" style="fill:none;stroke:#000000;stroke-linecap:square;stroke-linejoin:miter;stroke-width:0.8;"/>
   </g>
   <g id="text_1">
    <!-- Target -->
    <defs>
     <path d="M 0.484375 72.90625 
L 67.671875 72.90625 
L 67.671875 58.6875 
L 43.5 58.6875 
L 43.5 0 
L 24.703125 0 
L 24.703125 58.6875 
L 0.484375 58.6875 
z
" id="DejaVuSans-Bold-54"/>
     <path d="M 32.90625 24.609375 
Q 27.4375 24.609375 24.671875 22.75 
Q 21.921875 20.90625 21.921875 17.28125 
Q 21.921875 13.96875 24.140625 12.078125 
Q 26.375 10.203125 30.328125 10.203125 
Q 35.25 10.203125 38.625 13.734375 
Q 42 17.28125 42 22.609375 
L 42 24.609375 
z
M 59.625 31.203125 
L 59.625 0 
L 42 0 
L 42 8.109375 
Q 38.484375 3.125 34.078125 0.84375 
Q 29.6875 -1.421875 23.390625 -1.421875 
Q 14.890625 -1.421875 9.59375 3.53125 
Q 4.296875 8.5 4.296875 16.40625 
Q 4.296875 26.03125 10.90625 30.515625 
Q 17.53125 35.015625 31.6875 35.015625 
L 42 35.015625 
L 42 36.375 
Q 42 40.53125 38.71875 42.453125 
Q 35.453125 44.390625 28.515625 44.390625 
Q 22.90625 44.390625 18.0625 43.265625 
Q 13.234375 42.140625 9.078125 39.890625 
L 9.078125 53.21875 
Q 14.703125 54.59375 20.359375 55.296875 
Q 26.03125 56 31.6875 56 
Q 46.484375 56 53.046875 50.171875 
Q 59.625 44.34375 59.625 31.203125 
z
" id="DejaVuSans-Bold-61"/>
     <path d="M 49.03125 39.796875 
Q 46.734375 40.875 44.453125 41.375 
Q 42.1875 41.890625 39.890625 41.890625 
Q 33.15625 41.890625 29.515625 37.5625 
Q 25.875 33.25 25.875 25.203125 
L 25.875 0 
L 8.40625 0 
L 8.40625 54.6875 
L 25.875 54.6875 
L 25.875 45.703125 
Q 29.25 51.078125 33.609375 53.53125 
Q 37.984375 56 44.09375 56 
Q 44.96875 56 45.984375 55.921875 
Q 47.015625 55.859375 48.96875 55.609375 
z
" id="DejaVuSans-Bold-72"/>
     <path d="M 45.609375 9.28125 
Q 42 4.5 37.640625 2.25 
Q 33.296875 0 27.59375 0 
Q 17.578125 0 11.03125 7.875 
Q 4.5 15.765625 4.5 27.984375 
Q 4.5 40.234375 11.03125 48.0625 
Q 17.578125 55.90625 27.59375 55.90625 
Q 33.296875 55.90625 37.640625 53.65625 
Q 42 51.421875 45.609375 46.578125 
L 45.609375 54.6875 
L 63.1875 54.6875 
L 63.1875 5.515625 
Q 63.1875 -7.671875 54.859375 -14.625 
Q 46.53125 -21.578125 30.71875 -21.578125 
Q 25.59375 -21.578125 20.796875 -20.796875 
Q 16.015625 -20.015625 11.1875 -18.40625 
L 11.1875 -4.78125 
Q 15.765625 -7.421875 20.15625 -8.71875 
Q 24.5625 -10.015625 29 -10.015625 
Q 37.59375 -10.015625 41.59375 -6.25 
Q 45.609375 -2.484375 45.609375 5.515625 
z
M 34.078125 43.3125 
Q 28.65625 43.3125 25.625 39.296875 
Q 22.609375 35.296875 22.609375 27.984375 
Q 22.609375 20.453125 25.53125 16.578125 
Q 28.46875 12.703125 34.078125 12.703125 
Q 39.546875 12.703125 42.578125 16.703125 
Q 45.609375 20.703125 45.609375 27.984375 
Q 45.609375 35.296875 42.578125 39.296875 
Q 39.546875 43.3125 34.078125 43.3125 
z
" id="DejaVuSans-Bold-67"/>
     <path d="M 62.984375 27.484375 
L 62.984375 22.515625 
L 22.125 22.515625 
Q 22.75 16.359375 26.5625 13.28125 
Q 30.375 10.203125 37.203125 10.203125 
Q 42.71875 10.203125 48.5 11.84375 
Q 54.296875 13.484375 60.40625 16.796875 
L 60.40625 3.328125 
Q 54.203125 0.984375 48 -0.21875 
Q 41.796875 -1.421875 35.59375 -1.421875 
Q 20.75 -1.421875 12.515625 6.125 
Q 4.296875 13.671875 4.296875 27.296875 
Q 4.296875 40.671875 12.375 48.328125 
Q 20.453125 56 34.625 56 
Q 47.515625 56 55.25 48.234375 
Q 62.984375 40.484375 62.984375 27.484375 
z
M 45.015625 33.296875 
Q 45.015625 38.28125 42.109375 41.328125 
Q 39.203125 44.390625 34.515625 44.390625 
Q 29.4375 44.390625 26.265625 41.53125 
Q 23.09375 38.671875 22.3125 33.296875 
z
" id="DejaVuSans-Bold-65"/>
     <path d="M 27.484375 70.21875 
L 27.484375 54.6875 
L 45.515625 54.6875 
L 45.515625 42.1875 
L 27.484375 42.1875 
L 27.484375 19 
Q 27.484375 15.1875 29 13.84375 
Q 30.515625 12.5 35.015625 12.5 
L 44 12.5 
L 44 0 
L 29 0 
Q 18.65625 0 14.328125 4.3125 
Q 10.015625 8.640625 10.015625 19 
L 10.015625 42.1875 
L 1.3125 42.1875 
L 1.3125 54.6875 
L 10.015625 54.6875 
L 10.015625 70.21875 
z
" id="DejaVuSans-Bold-74"/>
    </defs>
    <g transform="translate(137.996094 37.2)scale(0.25 -0.25)">
     <use xlink:href="#DejaVuSans-Bold-54"/>
     <use x="68.025391" xlink:href="#DejaVuSans-Bold-61"/>
     <use x="135.505859" xlink:href="#DejaVuSans-Bold-72"/>
     <use x="184.822266" xlink:href="#DejaVuSans-Bold-67"/>
     <use x="256.404297" xlink:href="#DejaVuSans-Bold-65"/>
     <use x="324.226562" xlink:href="#DejaVuSans-Bold-74"/>
    </g>
   </g>
  </g>
 </g>
 <defs>
  <clipPath id="p0c226237e2">
   <rect height="277.2" width="277.2" x="45.9" y="43.2"/>
  </clipPath>
 </defs>
</svg>
