<?xml version="1.0" encoding="utf-8" standalone="no"?>
<!DOCTYPE svg PUBLIC "-//W3C//DTD SVG 1.1//EN"
  "http://www.w3.org/Graphics/SVG/1.1/DTD/svg11.dtd">
<!-- Created with matplotlib (http://matplotlib.org/) -->
<svg height="360pt" version="1.1" viewBox="0 0 360 360" width="360pt" xmlns="http://www.w3.org/2000/svg" xmlns:xlink="http://www.w3.org/1999/xlink">
 <defs>
  <style type="text/css">
*{stroke-linecap:butt;stroke-linejoin:round;}
  </style>
 </defs>
 <g id="figure_1">
  <g id="patch_1">
   <path d="M 0 360 
L 360 360 
L 360 0 
L 0 0 
z
" style="fill:#ffffff;"/>
  </g>
  <g id="axes_1">
   <g id="patch_2">
    <path d="M 45.9 320.4 
L 323.1 320.4 
L 323.1 43.2 
L 45.9 43.2 
z
" style="fill:#eaeaf2;"/>
   </g>
   <g id="patch_3">
    <path clip-path="url(#p61db4507e9)" d="M 184.5 195.66 
C 188.175715 195.66 191.701377 194.199623 194.3005 191.6005 
C 196.899623 189.001377 198.36 185.475715 198.36 181.8 
C 198.36 178.124285 196.899623 174.598623 194.3005 171.9995 
C 191.701377 169.400377 188.175715 167.94 184.5 167.94 
C 180.824285 167.94 177.298623 169.400377 174.6995 171.9995 
C 172.100377 174.598623 170.64 178.124285 170.64 181.8 
C 170.64 185.475715 172.100377 189.001377 174.6995 191.6005 
C 177.298623 194.199623 180.824285 195.66 184.5 195.66 
z
" style="fill:#008000;opacity:0.6;stroke:#000000;stroke-linejoin:miter;"/>
   </g>
   <g id="patch_4">
    <path clip-path="url(#p61db4507e9)" d="M 208.8936 605.6388 
C 236.461462 605.6388 262.903928 594.685972 282.39735 575.19255 
C 301.890772 555.699128 312.8436 529.256662 312.8436 501.6888 
C 312.8436 474.120938 301.890772 447.678472 282.39735 428.18505 
C 262.903928 408.691628 236.461462 397.7388 208.8936 397.7388 
C 181.325738 397.7388 154.883272 408.691628 135.38985 428.18505 
C 115.896428 447.678472 104.9436 474.120938 104.9436 501.6888 
C 104.9436 529.256662 115.896428 555.699128 135.38985 575.19255 
C 154.883272 594.685972 181.325738 605.6388 208.8936 605.6388 
z
" style="opacity:0.1;stroke:#000000;stroke-linejoin:miter;"/>
   </g>
   <g id="patch_5">
    <path clip-path="url(#p61db4507e9)" d="M 208.8936 536.3388 
C 218.082887 536.3388 226.897043 532.687857 233.39485 526.19005 
C 239.892657 519.692243 243.5436 510.878087 243.5436 501.6888 
C 243.5436 492.499513 239.892657 483.685357 233.39485 477.18755 
C 226.897043 470.689743 218.082887 467.0388 208.8936 467.0388 
C 199.704313 467.0388 190.890157 470.689743 184.39235 477.18755 
C 177.894543 483.685357 174.2436 492.499513 174.2436 501.6888 
C 174.2436 510.878087 177.894543 519.692243 184.39235 526.19005 
C 190.890157 532.687857 199.704313 536.3388 208.8936 536.3388 
z
" style="fill:#ff0000;opacity:0.2;stroke:#ff0000;stroke-linejoin:miter;"/>
   </g>
   <g id="line2d_1">
    <path clip-path="url(#p61db4507e9)" d="M 52.899326 361 
L 54.712224 358.334938 
L 57.444514 354.711653 
L 60.281323 351.283992 
L 64.174298 346.958088 
L 77.415617 333.041828 
L 93.445132 317.5547 
L 94.879472 315.739504 
L 95.984328 313.890205 
L 99.62839 307.146329 
L 100.945638 305.200337 
L 102.460232 303.28271 
L 105.796532 299.540176 
L 111.804609 293.246518 
L 125.160859 279.723428 
L 139.935828 264.778249 
L 148.490391 255.8592 
L 155.089997 248.681212 
L 161.183322 241.744518 
L 166.763894 235.061641 
L 179.122087 219.617302 
L 181.862604 215.771271 
L 183.211493 213.57821 
L 184.236014 211.350122 
L 184.576697 210.212443 
L 185.198352 207.310571 
L 186.228224 205.266672 
L 187.975968 201.857294 
L 190.60201 195.518026 
L 190.80024 194.578442 
L 190.830294 194.065087 
L 190.830294 194.065087 
" style="fill:none;stroke:#000000;stroke-linecap:square;stroke-width:1.5;"/>
   </g>
   <g id="line2d_2">
    <path clip-path="url(#p61db4507e9)" d="M 29.008316 361 
L 26.561703 357.977086 
L 9.913016 335.911889 
L 8.867242 334.306897 
L 7.995869 332.722346 
L 7.283869 331.15448 
L 6.71119 329.605178 
L 6.276665 328.077157 
L 5.992401 326.571883 
L 5.875678 325.090131 
L 5.946608 323.632716 
L 6.187274 322.196675 
L 7.035653 319.392064 
L 8.205527 316.684246 
L 9.576902 314.071785 
L 11.872554 310.316165 
L 14.353151 306.729214 
L 17.843774 302.158816 
L 21.469846 297.778767 
L 35.678139 281.365178 
L 43.075991 273.533868 
L 49.415792 266.86138 
L 50.90604 264.979883 
L 52.009309 263.097362 
L 52.664524 261.196586 
L 52.823118 260.233481 
L 52.869372 259.259138 
L 52.788985 258.275052 
L 52.310415 256.270804 
L 51.004852 252.053332 
L 50.790015 249.823451 
L 50.854352 248.688448 
L 51.056202 247.5441 
L 51.805904 245.246987 
L 52.826856 242.969597 
L 54.599537 239.626609 
L 57.165857 235.320326 
L 60.515879 230.156783 
L 64.622737 224.223979 
L 70.798604 215.742987 
L 80.105067 203.391361 
L 90.311723 190.421302 
L 95.51512 183.392787 
L 96.522975 181.842726 
L 101.163007 175.295442 
L 103.371599 172.839235 
L 109.414802 166.455715 
L 113.374835 162.814398 
L 115.929437 160.120516 
L 118.226684 157.387549 
L 118.657476 156.838599 
L 118.657476 156.838599 
" style="fill:none;stroke:#ff0000;stroke-linecap:square;stroke-width:1.5;"/>
   </g>
   <g id="line2d_3">
    <path clip-path="url(#p61db4507e9)" d="M 99.641181 361 
L 100.535489 358.034418 
L 101.303155 354.678401 
L 102.099973 351.329341 
L 103.2528 347.997118 
L 104.372133 344.639795 
L 106.863184 335.437811 
L 108.344933 330.830351 
L 109.22877 328.561263 
L 110.354233 326.354433 
L 111.743638 324.226733 
L 114.112103 321.16909 
L 117.299876 317.282474 
L 118.557003 315.361899 
L 119.529497 313.421273 
L 120.283246 311.449122 
L 120.80257 309.424386 
L 121.877237 304.186111 
L 122.599423 302.104208 
L 123.639413 300.069159 
L 127.888084 293.21144 
L 128.772023 291.232114 
L 129.80001 288.199563 
L 131.071316 284.086492 
L 131.895762 282.05074 
L 132.934337 280.061128 
L 134.79707 277.183244 
L 138.532588 271.687613 
L 144.546624 262.12757 
L 146.331692 259.663442 
L 151.180749 253.344986 
L 153.530395 250.293511 
L 167.013394 233.47001 
L 168.26076 231.440607 
L 169.767546 228.694549 
L 170.272554 227.253176 
L 170.459061 225.684244 
L 170.63583 220.695602 
L 171.069904 219.132766 
L 172.289825 216.176025 
L 174.380685 211.273254 
L 174.703817 209.812006 
L 174.794487 208.274152 
L 174.707204 200.486407 
L 174.632223 198.927783 
L 174.632223 198.927783 
" style="fill:none;stroke:#008000;stroke-linecap:square;stroke-width:1.5;"/>
   </g>
   <g id="line2d_4">
    <path clip-path="url(#p61db4507e9)" d="M 38.731272 361 
L 38.966549 351.021891 
L 39.367517 346.91978 
L 40.015439 342.923576 
L 40.619638 340.322071 
L 41.383915 337.771997 
L 42.791555 334.040276 
L 44.410355 330.412637 
L 46.28698 326.890787 
L 47.716316 324.603892 
L 50.130948 321.26716 
L 53.651819 316.980295 
L 57.357861 312.858186 
L 62.111031 307.895847 
L 68.818332 301.220989 
L 86.305948 284.047983 
L 102.512431 267.639856 
L 114.670712 255.316252 
L 123.712673 245.83826 
L 131.419069 237.441276 
L 137.916998 230.053781 
L 143.913326 222.907974 
L 149.393334 216.012326 
L 153.873257 210.027581 
L 157.916284 204.259416 
L 161.515046 198.714369 
L 164.33568 193.977868 
L 166.795948 189.427016 
L 168.893305 185.067139 
L 169.33704 184.024426 
L 169.33704 184.024426 
" style="fill:none;stroke:#0000ff;stroke-linecap:square;stroke-width:1.5;"/>
   </g>
   <g id="patch_6">
    <path d="M 45.9 320.4 
L 45.9 43.2 
" style="fill:none;stroke:#000000;stroke-linecap:square;stroke-linejoin:miter;stroke-width:0.8;"/>
   </g>
   <g id="patch_7">
    <path d="M 323.1 320.4 
L 323.1 43.2 
" style="fill:none;stroke:#000000;stroke-linecap:square;stroke-linejoin:miter;stroke-width:0.8;"/>
   </g>
   <g id="patch_8">
    <path d="M 45.9 320.4 
L 323.1 320.4 
" style="fill:none;stroke:#000000;stroke-linecap:square;stroke-linejoin:miter;stroke-width:0.8;"/>
   </g>
   <g id="patch_9">
    <path d="M 45.9 43.2 
L 323.1 43.2 
" style="fill:none;stroke:#000000;stroke-linecap:square;stroke-linejoin:miter;stroke-width:0.8;"/>
   </g>
   <g id="text_1">
    <!-- Target -->
    <defs>
     <path d="M 0.484375 72.90625 
L 67.671875 72.90625 
L 67.671875 58.6875 
L 43.5 58.6875 
L 43.5 0 
L 24.703125 0 
L 24.703125 58.6875 
L 0.484375 58.6875 
z
" id="DejaVuSans-Bold-54"/>
     <path d="M 32.90625 24.609375 
Q 27.4375 24.609375 24.671875 22.75 
Q 21.921875 20.90625 21.921875 17.28125 
Q 21.921875 13.96875 24.140625 12.078125 
Q 26.375 10.203125 30.328125 10.203125 
Q 35.25 10.203125 38.625 13.734375 
Q 42 17.28125 42 22.609375 
L 42 24.609375 
z
M 59.625 31.203125 
L 59.625 0 
L 42 0 
L 42 8.109375 
Q 38.484375 3.125 34.078125 0.84375 
Q 29.6875 -1.421875 23.390625 -1.421875 
Q 14.890625 -1.421875 9.59375 3.53125 
Q 4.296875 8.5 4.296875 16.40625 
Q 4.296875 26.03125 10.90625 30.515625 
Q 17.53125 35.015625 31.6875 35.015625 
L 42 35.015625 
L 42 36.375 
Q 42 40.53125 38.71875 42.453125 
Q 35.453125 44.390625 28.515625 44.390625 
Q 22.90625 44.390625 18.0625 43.265625 
Q 13.234375 42.140625 9.078125 39.890625 
L 9.078125 53.21875 
Q 14.703125 54.59375 20.359375 55.296875 
Q 26.03125 56 31.6875 56 
Q 46.484375 56 53.046875 50.171875 
Q 59.625 44.34375 59.625 31.203125 
z
" id="DejaVuSans-Bold-61"/>
     <path d="M 49.03125 39.796875 
Q 46.734375 40.875 44.453125 41.375 
Q 42.1875 41.890625 39.890625 41.890625 
Q 33.15625 41.890625 29.515625 37.5625 
Q 25.875 33.25 25.875 25.203125 
L 25.875 0 
L 8.40625 0 
L 8.40625 54.6875 
L 25.875 54.6875 
L 25.875 45.703125 
Q 29.25 51.078125 33.609375 53.53125 
Q 37.984375 56 44.09375 56 
Q 44.96875 56 45.984375 55.921875 
Q 47.015625 55.859375 48.96875 55.609375 
z
" id="DejaVuSans-Bold-72"/>
     <path d="M 45.609375 9.28125 
Q 42 4.5 37.640625 2.25 
Q 33.296875 0 27.59375 0 
Q 17.578125 0 11.03125 7.875 
Q 4.5 15.765625 4.5 27.984375 
Q 4.5 40.234375 11.03125 48.0625 
Q 17.578125 55.90625 27.59375 55.90625 
Q 33.296875 55.90625 37.640625 53.65625 
Q 42 51.421875 45.609375 46.578125 
L 45.609375 54.6875 
L 63.1875 54.6875 
L 63.1875 5.515625 
Q 63.1875 -7.671875 54.859375 -14.625 
Q 46.53125 -21.578125 30.71875 -21.578125 
Q 25.59375 -21.578125 20.796875 -20.796875 
Q 16.015625 -20.015625 11.1875 -18.40625 
L 11.1875 -4.78125 
Q 15.765625 -7.421875 20.15625 -8.71875 
Q 24.5625 -10.015625 29 -10.015625 
Q 37.59375 -10.015625 41.59375 -6.25 
Q 45.609375 -2.484375 45.609375 5.515625 
z
M 34.078125 43.3125 
Q 28.65625 43.3125 25.625 39.296875 
Q 22.609375 35.296875 22.609375 27.984375 
Q 22.609375 20.453125 25.53125 16.578125 
Q 28.46875 12.703125 34.078125 12.703125 
Q 39.546875 12.703125 42.578125 16.703125 
Q 45.609375 20.703125 45.609375 27.984375 
Q 45.609375 35.296875 42.578125 39.296875 
Q 39.546875 43.3125 34.078125 43.3125 
z
" id="DejaVuSans-Bold-67"/>
     <path d="M 62.984375 27.484375 
L 62.984375 22.515625 
L 22.125 22.515625 
Q 22.75 16.359375 26.5625 13.28125 
Q 30.375 10.203125 37.203125 10.203125 
Q 42.71875 10.203125 48.5 11.84375 
Q 54.296875 13.484375 60.40625 16.796875 
L 60.40625 3.328125 
Q 54.203125 0.984375 48 -0.21875 
Q 41.796875 -1.421875 35.59375 -1.421875 
Q 20.75 -1.421875 12.515625 6.125 
Q 4.296875 13.671875 4.296875 27.296875 
Q 4.296875 40.671875 12.375 48.328125 
Q 20.453125 56 34.625 56 
Q 47.515625 56 55.25 48.234375 
Q 62.984375 40.484375 62.984375 27.484375 
z
M 45.015625 33.296875 
Q 45.015625 38.28125 42.109375 41.328125 
Q 39.203125 44.390625 34.515625 44.390625 
Q 29.4375 44.390625 26.265625 41.53125 
Q 23.09375 38.671875 22.3125 33.296875 
z
" id="DejaVuSans-Bold-65"/>
     <path d="M 27.484375 70.21875 
L 27.484375 54.6875 
L 45.515625 54.6875 
L 45.515625 42.1875 
L 27.484375 42.1875 
L 27.484375 19 
Q 27.484375 15.1875 29 13.84375 
Q 30.515625 12.5 35.015625 12.5 
L 44 12.5 
L 44 0 
L 29 0 
Q 18.65625 0 14.328125 4.3125 
Q 10.015625 8.640625 10.015625 19 
L 10.015625 42.1875 
L 1.3125 42.1875 
L 1.3125 54.6875 
L 10.015625 54.6875 
L 10.015625 70.21875 
z
" id="DejaVuSans-Bold-74"/>
    </defs>
    <g transform="translate(137.996094 37.2)scale(0.25 -0.25)">
     <use xlink:href="#DejaVuSans-Bold-54"/>
     <use x="68.025391" xlink:href="#DejaVuSans-Bold-61"/>
     <use x="135.505859" xlink:href="#DejaVuSans-Bold-72"/>
     <use x="184.822266" xlink:href="#DejaVuSans-Bold-67"/>
     <use x="256.404297" xlink:href="#DejaVuSans-Bold-65"/>
     <use x="324.226562" xlink:href="#DejaVuSans-Bold-74"/>
    </g>
   </g>
  </g>
 </g>
 <defs>
  <clipPath id="p61db4507e9">
   <rect height="277.2" width="277.2" x="45.9" y="43.2"/>
  </clipPath>
 </defs>
</svg>
