<?xml version="1.0" encoding="utf-8" standalone="no"?>
<!DOCTYPE svg PUBLIC "-//W3C//DTD SVG 1.1//EN"
  "http://www.w3.org/Graphics/SVG/1.1/DTD/svg11.dtd">
<!-- Created with matplotlib (http://matplotlib.org/) -->
<svg height="360pt" version="1.1" viewBox="0 0 360 360" width="360pt" xmlns="http://www.w3.org/2000/svg" xmlns:xlink="http://www.w3.org/1999/xlink">
 <defs>
  <style type="text/css">
*{stroke-linecap:butt;stroke-linejoin:round;}
  </style>
 </defs>
 <g id="figure_1">
  <g id="patch_1">
   <path d="M 0 360 
L 360 360 
L 360 0 
L 0 0 
z
" style="fill:#ffffff;"/>
  </g>
  <g id="axes_1">
   <g id="patch_2">
    <path d="M 45.9 320.4 
L 323.1 320.4 
L 323.1 43.2 
L 45.9 43.2 
z
" style="fill:#eaeaf2;"/>
   </g>
   <g id="patch_3">
    <path clip-path="url(#pe2efeed48d)" d="M 184.5 195.66 
C 188.175715 195.66 191.701377 194.199623 194.3005 191.6005 
C 196.899623 189.001377 198.36 185.475715 198.36 181.8 
C 198.36 178.124285 196.899623 174.598623 194.3005 171.9995 
C 191.701377 169.400377 188.175715 167.94 184.5 167.94 
C 180.824285 167.94 177.298623 169.400377 174.6995 171.9995 
C 172.100377 174.598623 170.64 178.124285 170.64 181.8 
C 170.64 185.475715 172.100377 189.001377 174.6995 191.6005 
C 177.298623 194.199623 180.824285 195.66 184.5 195.66 
z
" style="fill:#008000;opacity:0.6;stroke:#000000;stroke-linejoin:miter;"/>
   </g>
   <g id="patch_4">
    <path clip-path="url(#pe2efeed48d)" d="M 208.8936 605.6388 
C 236.461462 605.6388 262.903928 594.685972 282.39735 575.19255 
C 301.890772 555.699128 312.8436 529.256662 312.8436 501.6888 
C 312.8436 474.120938 301.890772 447.678472 282.39735 428.18505 
C 262.903928 408.691628 236.461462 397.7388 208.8936 397.7388 
C 181.325738 397.7388 154.883272 408.691628 135.38985 428.18505 
C 115.896428 447.678472 104.9436 474.120938 104.9436 501.6888 
C 104.9436 529.256662 115.896428 555.699128 135.38985 575.19255 
C 154.883272 594.685972 181.325738 605.6388 208.8936 605.6388 
z
" style="opacity:0.1;stroke:#000000;stroke-linejoin:miter;"/>
   </g>
   <g id="patch_5">
    <path clip-path="url(#pe2efeed48d)" d="M 208.8936 536.3388 
C 218.082887 536.3388 226.897043 532.687857 233.39485 526.19005 
C 239.892657 519.692243 243.5436 510.878087 243.5436 501.6888 
C 243.5436 492.499513 239.892657 483.685357 233.39485 477.18755 
C 226.897043 470.689743 218.082887 467.0388 208.8936 467.0388 
C 199.704313 467.0388 190.890157 470.689743 184.39235 477.18755 
C 177.894543 483.685357 174.2436 492.499513 174.2436 501.6888 
C 174.2436 510.878087 177.894543 519.692243 184.39235 526.19005 
C 190.890157 532.687857 199.704313 536.3388 208.8936 536.3388 
z
" style="fill:#ff0000;opacity:0.2;stroke:#ff0000;stroke-linejoin:miter;"/>
   </g>
   <g id="line2d_1">
    <path clip-path="url(#pe2efeed48d)" d="M 47.093098 361 
L 48.290381 357.917519 
L 50.063987 353.973973 
L 52.613053 348.972156 
L 55.295753 344.199883 
L 60.54505 335.08369 
L 63.068499 330.651736 
L 65.174299 327.395446 
L 68.212099 323.150127 
L 72.223019 317.990407 
L 83.187998 304.080916 
L 94.501077 289.701303 
L 97.627515 285.966894 
L 101.784381 281.416556 
L 110.918617 271.824243 
L 121.872843 260.195828 
L 132.905438 248.373113 
L 141.013685 239.341426 
L 147.242151 232.093409 
L 152.967352 225.099134 
L 157.675711 219.024945 
L 161.952448 213.164617 
L 165.788785 207.523466 
L 168.821481 202.696818 
L 171.496969 198.052301 
L 173.801771 193.587449 
L 175.209949 190.304275 
L 176.387428 187.107456 
L 177.617124 183.031449 
L 177.617124 183.031449 
" style="fill:none;stroke:#000000;stroke-linecap:square;stroke-width:1.5;"/>
   </g>
   <g id="line2d_2">
    <path clip-path="url(#pe2efeed48d)" d="M 71.562949 361 
L 71.580615 359.284577 
L 71.412856 355.110566 
L 71.189695 349.520011 
L 71.315006 346.766908 
L 71.72059 344.071935 
L 72.446157 341.451764 
L 73.474743 338.914597 
L 74.773992 336.465958 
L 76.300155 334.106058 
L 78.804125 330.714183 
L 86.7772 320.426972 
L 89.455293 317.518866 
L 93.121313 313.867335 
L 96.86735 310.453552 
L 100.547007 307.138564 
L 102.168516 305.461506 
L 103.525758 303.75725 
L 104.575598 302.011676 
L 105.286165 300.206834 
L 105.705001 298.32903 
L 106.149516 294.369295 
L 106.423233 292.319735 
L 106.875136 290.254923 
L 107.525697 288.193813 
L 108.774879 285.12602 
L 110.217207 282.090838 
L 111.914419 279.100788 
L 114.45425 275.215181 
L 118.919357 268.678166 
L 122.521572 264.198022 
L 130.404369 254.824579 
L 137.143942 246.740381 
L 145.978482 235.993989 
L 153.262873 226.471503 
L 155.006026 223.542372 
L 156.053076 221.292022 
L 157.042392 219.074703 
L 158.308536 217.042901 
L 160.17975 214.615049 
L 162.176971 212.465215 
L 166.280642 208.313099 
L 169.922734 204.198785 
L 172.284213 201.071015 
L 174.345489 197.922999 
L 174.345489 197.922999 
" style="fill:none;stroke:#ff0000;stroke-linecap:square;stroke-width:1.5;"/>
   </g>
   <g id="line2d_3">
    <path clip-path="url(#pe2efeed48d)" d="M 99.394849 361 
L 94.824601 352.938049 
L 93.310049 349.54736 
L 92.735405 347.87746 
L 92.302926 346.233182 
L 92.023177 344.619465 
L 91.900173 343.040024 
L 91.930937 341.497176 
L 92.106292 339.991744 
L 92.415777 338.523714 
L 93.347399 335.700589 
L 94.575314 333.018255 
L 95.970817 330.458619 
L 98.230972 326.817457 
L 101.408661 322.272733 
L 106.799135 314.966643 
L 109.984383 311.03203 
L 114.89226 305.393676 
L 118.762116 300.876637 
L 120.87471 298.173502 
L 122.117998 296.349358 
L 123.116789 294.484482 
L 123.467211 293.52578 
L 123.690993 292.542531 
L 123.788865 291.53134 
L 123.644273 289.418877 
L 123.11319 287.183086 
L 120.905691 279.913746 
L 120.662189 277.426532 
L 120.797066 274.968708 
L 121.329188 272.572543 
L 122.202091 270.258103 
L 123.794118 266.92987 
L 126.10482 262.72371 
L 129.11021 257.775413 
L 132.788759 252.203037 
L 137.091238 246.099356 
L 140.011404 241.934409 
L 140.882621 240.258004 
L 143.065316 235.105994 
L 145.483251 230.946757 
L 148.367752 226.122586 
L 150.017545 222.946575 
L 152.699484 217.660909 
L 156.354203 211.524117 
L 161.663262 203.913404 
L 164.765177 199.045444 
L 167.161411 194.91785 
L 168.359371 192.591322 
L 169.063409 190.789838 
L 169.424169 188.851426 
L 170.277807 183.06733 
L 170.277807 183.06733 
" style="fill:none;stroke:#008000;stroke-linecap:square;stroke-width:1.5;"/>
   </g>
   <g id="line2d_4">
    <path clip-path="url(#pe2efeed48d)" d="M 96.810091 361 
L 97.26989 357.777978 
L 98.274759 349.182369 
L 99.050634 345.509161 
L 100.066414 341.885114 
L 101.664098 337.144266 
L 103.037397 333.663697 
L 104.636175 330.261143 
L 107.013768 325.849266 
L 109.877375 320.46282 
L 112.412076 315.120001 
L 114.717852 309.769039 
L 115.924554 306.533481 
L 116.881287 303.250189 
L 117.863225 298.79597 
L 118.711843 294.296977 
L 120.017481 286.336804 
L 120.90819 282.962182 
L 122.028724 279.650171 
L 123.310027 276.411018 
L 124.794326 273.262027 
L 126.568951 270.233765 
L 129.125036 266.374184 
L 133.049339 260.898482 
L 138.277779 254.057974 
L 145.891133 244.530856 
L 157.455922 230.049122 
L 163.049116 222.671897 
L 167.603728 216.287072 
L 171.24966 210.793463 
L 174.118661 206.108823 
L 177.217081 200.592417 
L 177.980914 198.953531 
L 179.122639 196.268799 
L 180.42988 193.208968 
L 180.42988 193.208968 
" style="fill:none;stroke:#0000ff;stroke-linecap:square;stroke-width:1.5;"/>
   </g>
   <g id="patch_6">
    <path d="M 45.9 320.4 
L 45.9 43.2 
" style="fill:none;stroke:#000000;stroke-linecap:square;stroke-linejoin:miter;stroke-width:0.8;"/>
   </g>
   <g id="patch_7">
    <path d="M 323.1 320.4 
L 323.1 43.2 
" style="fill:none;stroke:#000000;stroke-linecap:square;stroke-linejoin:miter;stroke-width:0.8;"/>
   </g>
   <g id="patch_8">
    <path d="M 45.9 320.4 
L 323.1 320.4 
" style="fill:none;stroke:#000000;stroke-linecap:square;stroke-linejoin:miter;stroke-width:0.8;"/>
   </g>
   <g id="patch_9">
    <path d="M 45.9 43.2 
L 323.1 43.2 
" style="fill:none;stroke:#000000;stroke-linecap:square;stroke-linejoin:miter;stroke-width:0.8;"/>
   </g>
   <g id="text_1">
    <!-- Target -->
    <defs>
     <path d="M 0.484375 72.90625 
L 67.671875 72.90625 
L 67.671875 58.6875 
L 43.5 58.6875 
L 43.5 0 
L 24.703125 0 
L 24.703125 58.6875 
L 0.484375 58.6875 
z
" id="DejaVuSans-Bold-54"/>
     <path d="M 32.90625 24.609375 
Q 27.4375 24.609375 24.671875 22.75 
Q 21.921875 20.90625 21.921875 17.28125 
Q 21.921875 13.96875 24.140625 12.078125 
Q 26.375 10.203125 30.328125 10.203125 
Q 35.25 10.203125 38.625 13.734375 
Q 42 17.28125 42 22.609375 
L 42 24.609375 
z
M 59.625 31.203125 
L 59.625 0 
L 42 0 
L 42 8.109375 
Q 38.484375 3.125 34.078125 0.84375 
Q 29.6875 -1.421875 23.390625 -1.421875 
Q 14.890625 -1.421875 9.59375 3.53125 
Q 4.296875 8.5 4.296875 16.40625 
Q 4.296875 26.03125 10.90625 30.515625 
Q 17.53125 35.015625 31.6875 35.015625 
L 42 35.015625 
L 42 36.375 
Q 42 40.53125 38.71875 42.453125 
Q 35.453125 44.390625 28.515625 44.390625 
Q 22.90625 44.390625 18.0625 43.265625 
Q 13.234375 42.140625 9.078125 39.890625 
L 9.078125 53.21875 
Q 14.703125 54.59375 20.359375 55.296875 
Q 26.03125 56 31.6875 56 
Q 46.484375 56 53.046875 50.171875 
Q 59.625 44.34375 59.625 31.203125 
z
" id="DejaVuSans-Bold-61"/>
     <path d="M 49.03125 39.796875 
Q 46.734375 40.875 44.453125 41.375 
Q 42.1875 41.890625 39.890625 41.890625 
Q 33.15625 41.890625 29.515625 37.5625 
Q 25.875 33.25 25.875 25.203125 
L 25.875 0 
L 8.40625 0 
L 8.40625 54.6875 
L 25.875 54.6875 
L 25.875 45.703125 
Q 29.25 51.078125 33.609375 53.53125 
Q 37.984375 56 44.09375 56 
Q 44.96875 56 45.984375 55.921875 
Q 47.015625 55.859375 48.96875 55.609375 
z
" id="DejaVuSans-Bold-72"/>
     <path d="M 45.609375 9.28125 
Q 42 4.5 37.640625 2.25 
Q 33.296875 0 27.59375 0 
Q 17.578125 0 11.03125 7.875 
Q 4.5 15.765625 4.5 27.984375 
Q 4.5 40.234375 11.03125 48.0625 
Q 17.578125 55.90625 27.59375 55.90625 
Q 33.296875 55.90625 37.640625 53.65625 
Q 42 51.421875 45.609375 46.578125 
L 45.609375 54.6875 
L 63.1875 54.6875 
L 63.1875 5.515625 
Q 63.1875 -7.671875 54.859375 -14.625 
Q 46.53125 -21.578125 30.71875 -21.578125 
Q 25.59375 -21.578125 20.796875 -20.796875 
Q 16.015625 -20.015625 11.1875 -18.40625 
L 11.1875 -4.78125 
Q 15.765625 -7.421875 20.15625 -8.71875 
Q 24.5625 -10.015625 29 -10.015625 
Q 37.59375 -10.015625 41.59375 -6.25 
Q 45.609375 -2.484375 45.609375 5.515625 
z
M 34.078125 43.3125 
Q 28.65625 43.3125 25.625 39.296875 
Q 22.609375 35.296875 22.609375 27.984375 
Q 22.609375 20.453125 25.53125 16.578125 
Q 28.46875 12.703125 34.078125 12.703125 
Q 39.546875 12.703125 42.578125 16.703125 
Q 45.609375 20.703125 45.609375 27.984375 
Q 45.609375 35.296875 42.578125 39.296875 
Q 39.546875 43.3125 34.078125 43.3125 
z
" id="DejaVuSans-Bold-67"/>
     <path d="M 62.984375 27.484375 
L 62.984375 22.515625 
L 22.125 22.515625 
Q 22.75 16.359375 26.5625 13.28125 
Q 30.375 10.203125 37.203125 10.203125 
Q 42.71875 10.203125 48.5 11.84375 
Q 54.296875 13.484375 60.40625 16.796875 
L 60.40625 3.328125 
Q 54.203125 0.984375 48 -0.21875 
Q 41.796875 -1.421875 35.59375 -1.421875 
Q 20.75 -1.421875 12.515625 6.125 
Q 4.296875 13.671875 4.296875 27.296875 
Q 4.296875 40.671875 12.375 48.328125 
Q 20.453125 56 34.625 56 
Q 47.515625 56 55.25 48.234375 
Q 62.984375 40.484375 62.984375 27.484375 
z
M 45.015625 33.296875 
Q 45.015625 38.28125 42.109375 41.328125 
Q 39.203125 44.390625 34.515625 44.390625 
Q 29.4375 44.390625 26.265625 41.53125 
Q 23.09375 38.671875 22.3125 33.296875 
z
" id="DejaVuSans-Bold-65"/>
     <path d="M 27.484375 70.21875 
L 27.484375 54.6875 
L 45.515625 54.6875 
L 45.515625 42.1875 
L 27.484375 42.1875 
L 27.484375 19 
Q 27.484375 15.1875 29 13.84375 
Q 30.515625 12.5 35.015625 12.5 
L 44 12.5 
L 44 0 
L 29 0 
Q 18.65625 0 14.328125 4.3125 
Q 10.015625 8.640625 10.015625 19 
L 10.015625 42.1875 
L 1.3125 42.1875 
L 1.3125 54.6875 
L 10.015625 54.6875 
L 10.015625 70.21875 
z
" id="DejaVuSans-Bold-74"/>
    </defs>
    <g transform="translate(137.996094 37.2)scale(0.25 -0.25)">
     <use xlink:href="#DejaVuSans-Bold-54"/>
     <use x="68.025391" xlink:href="#DejaVuSans-Bold-61"/>
     <use x="135.505859" xlink:href="#DejaVuSans-Bold-72"/>
     <use x="184.822266" xlink:href="#DejaVuSans-Bold-67"/>
     <use x="256.404297" xlink:href="#DejaVuSans-Bold-65"/>
     <use x="324.226562" xlink:href="#DejaVuSans-Bold-74"/>
    </g>
   </g>
  </g>
 </g>
 <defs>
  <clipPath id="pe2efeed48d">
   <rect height="277.2" width="277.2" x="45.9" y="43.2"/>
  </clipPath>
 </defs>
</svg>
