<?xml version="1.0" encoding="utf-8" standalone="no"?>
<!DOCTYPE svg PUBLIC "-//W3C//DTD SVG 1.1//EN"
  "http://www.w3.org/Graphics/SVG/1.1/DTD/svg11.dtd">
<!-- Created with matplotlib (http://matplotlib.org/) -->
<svg height="360pt" version="1.1" viewBox="0 0 360 360" width="360pt" xmlns="http://www.w3.org/2000/svg" xmlns:xlink="http://www.w3.org/1999/xlink">
 <defs>
  <style type="text/css">
*{stroke-linecap:butt;stroke-linejoin:round;}
  </style>
 </defs>
 <g id="figure_1">
  <g id="patch_1">
   <path d="M 0 360 
L 360 360 
L 360 0 
L 0 0 
z
" style="fill:#ffffff;"/>
  </g>
  <g id="axes_1">
   <g id="patch_2">
    <path d="M 45.9 320.4 
L 323.1 320.4 
L 323.1 43.2 
L 45.9 43.2 
z
" style="fill:#eaeaf2;"/>
   </g>
   <g id="patch_3">
    <path clip-path="url(#pef6b454225)" d="M 184.5 195.66 
C 188.175715 195.66 191.701377 194.199623 194.3005 191.6005 
C 196.899623 189.001377 198.36 185.475715 198.36 181.8 
C 198.36 178.124285 196.899623 174.598623 194.3005 171.9995 
C 191.701377 169.400377 188.175715 167.94 184.5 167.94 
C 180.824285 167.94 177.298623 169.400377 174.6995 171.9995 
C 172.100377 174.598623 170.64 178.124285 170.64 181.8 
C 170.64 185.475715 172.100377 189.001377 174.6995 191.6005 
C 177.298623 194.199623 180.824285 195.66 184.5 195.66 
z
" style="fill:#008000;opacity:0.6;stroke:#000000;stroke-linejoin:miter;"/>
   </g>
   <g id="patch_4">
    <path clip-path="url(#pef6b454225)" d="M 208.8936 605.6388 
C 236.461462 605.6388 262.903928 594.685972 282.39735 575.19255 
C 301.890772 555.699128 312.8436 529.256662 312.8436 501.6888 
C 312.8436 474.120938 301.890772 447.678472 282.39735 428.18505 
C 262.903928 408.691628 236.461462 397.7388 208.8936 397.7388 
C 181.325738 397.7388 154.883272 408.691628 135.38985 428.18505 
C 115.896428 447.678472 104.9436 474.120938 104.9436 501.6888 
C 104.9436 529.256662 115.896428 555.699128 135.38985 575.19255 
C 154.883272 594.685972 181.325738 605.6388 208.8936 605.6388 
z
" style="opacity:0.1;stroke:#000000;stroke-linejoin:miter;"/>
   </g>
   <g id="patch_5">
    <path clip-path="url(#pef6b454225)" d="M 208.8936 536.3388 
C 218.082887 536.3388 226.897043 532.687857 233.39485 526.19005 
C 239.892657 519.692243 243.5436 510.878087 243.5436 501.6888 
C 243.5436 492.499513 239.892657 483.685357 233.39485 477.18755 
C 226.897043 470.689743 218.082887 467.0388 208.8936 467.0388 
C 199.704313 467.0388 190.890157 470.689743 184.39235 477.18755 
C 177.894543 483.685357 174.2436 492.499513 174.2436 501.6888 
C 174.2436 510.878087 177.894543 519.692243 184.39235 526.19005 
C 190.890157 532.687857 199.704313 536.3388 208.8936 536.3388 
z
" style="fill:#ff0000;opacity:0.2;stroke:#ff0000;stroke-linejoin:miter;"/>
   </g>
   <g id="line2d_1">
    <path clip-path="url(#pef6b454225)" d="M 61.213135 361 
L 62.36166 359.259188 
L 65.034314 355.626559 
L 67.833463 352.195914 
L 71.672167 347.872272 
L 78.996927 339.732212 
L 81.437023 336.754293 
L 82.791315 334.733671 
L 85.774365 329.603403 
L 91.183857 321.462383 
L 92.729384 319.47183 
L 95.306796 316.558046 
L 99.825408 311.869528 
L 107.102624 304.711142 
L 112.328074 299.525113 
L 116.494111 295.310718 
L 125.062912 287.136479 
L 138.072521 274.635729 
L 147.101627 265.666593 
L 155.440646 257.061686 
L 163.143558 248.883034 
L 173.43812 237.732867 
L 177.124964 233.702528 
L 180.476868 229.70095 
L 183.907127 225.216232 
L 188.41154 218.887799 
L 191.524706 213.930283 
L 193.106784 211.136293 
L 195.307212 206.755783 
L 195.810741 204.927854 
L 196.42874 202.326123 
L 196.42874 202.326123 
" style="fill:none;stroke:#000000;stroke-linecap:square;stroke-width:1.5;"/>
   </g>
   <g id="line2d_2">
    <path clip-path="url(#pef6b454225)" d="M 72.169019 361 
L 72.487403 359.661134 
L 73.288039 357.097316 
L 75.42104 350.976803 
L 75.968434 348.591609 
L 76.441094 345.017029 
L 76.872835 341.424728 
L 77.312055 339.023058 
L 77.984524 336.625801 
L 78.947201 334.25644 
L 80.150395 331.941676 
L 81.54665 329.68404 
L 87.250418 321.024009 
L 89.810091 315.620185 
L 91.187308 313.513974 
L 93.596813 310.442784 
L 97.025959 306.496063 
L 102.27621 300.838179 
L 107.331961 295.394838 
L 110.648401 291.84407 
L 118.259162 284.137087 
L 125.327941 277.128675 
L 127.774115 275.233331 
L 133.047414 271.652804 
L 139.914309 267.072705 
L 144.711443 264.310983 
L 148.282398 262.196232 
L 151.529866 259.930923 
L 155.158122 257.464329 
L 159.729742 254.636234 
L 162.722779 253.0593 
L 168.036937 250.4754 
L 169.5779 249.324739 
L 171.029932 247.978597 
L 172.86523 245.92093 
L 174.126594 244.197563 
L 175.651101 241.718553 
L 176.994396 239.112012 
L 179.246052 234.468584 
L 180.864287 231.991705 
L 182.509575 229.782792 
L 183.764043 228.390811 
L 185.073007 227.247223 
L 186.502046 226.326413 
L 188.035664 225.595688 
L 189.631734 225.041813 
L 191.843335 224.535622 
L 198.185683 223.378541 
L 199.220109 222.908039 
L 200.367687 222.155545 
L 200.885845 221.695395 
L 200.885845 221.695395 
" style="fill:none;stroke:#ff0000;stroke-linecap:square;stroke-width:1.5;"/>
   </g>
   <g id="line2d_3">
    <path clip-path="url(#pef6b454225)" d="M 77.322329 361 
L 83.377889 353.709 
L 84.654363 351.604492 
L 85.63434 349.486806 
L 86.316439 347.340563 
L 86.632568 345.148823 
L 86.580619 342.897912 
L 86.258061 340.589319 
L 85.438009 335.85136 
L 85.265161 333.451514 
L 85.373962 331.04774 
L 85.752236 328.647289 
L 86.681194 325.055354 
L 87.731428 321.489913 
L 90.845471 312.143334 
L 94.719021 298.431187 
L 95.936833 295.044309 
L 96.956761 292.822633 
L 98.226333 290.650147 
L 100.381328 287.485739 
L 103.416943 283.428113 
L 108.059928 277.645671 
L 115.653146 268.735781 
L 127.015016 256.202083 
L 137.564318 244.420607 
L 145.288982 235.454932 
L 147.042629 233.262829 
L 148.536456 231.043457 
L 149.751993 228.782853 
L 151.645896 225.046948 
L 153.022347 222.95338 
L 155.072449 220.398357 
L 158.522579 216.355683 
L 160.801784 213.635099 
L 162.901232 211.628559 
L 166.012453 208.605245 
L 167.789163 206.515803 
L 169.291053 204.339569 
L 171.977898 200.160262 
L 175.771862 195.638045 
L 177.205126 194.312592 
L 178.364988 193.508833 
L 179.569866 192.882741 
L 180.821186 192.4596 
L 181.248024 192.363861 
L 181.248024 192.363861 
" style="fill:none;stroke:#008000;stroke-linecap:square;stroke-width:1.5;"/>
   </g>
   <g id="line2d_4">
    <path clip-path="url(#pef6b454225)" d="M 72.444866 361 
L 73.205074 359.221179 
L 74.406797 356.781329 
L 76.434378 353.245138 
L 81.187332 345.343392 
L 89.347196 331.275753 
L 92.584579 326.022183 
L 95.236324 321.888877 
L 96.346965 319.803614 
L 98.415802 315.609528 
L 100.324487 312.521229 
L 106.823232 302.492367 
L 110.284135 296.525958 
L 112.516242 292.554718 
L 113.855923 290.611908 
L 116.091633 287.773653 
L 119.979919 283.219387 
L 127.481173 274.571634 
L 130.988805 270.365829 
L 137.541551 263.107243 
L 147.273841 252.605187 
L 154.406875 244.811829 
L 163.755431 234.174958 
L 167.936476 229.084706 
L 172.212837 223.557691 
L 180.008984 213.065832 
L 183.370179 208.080479 
L 185.578769 204.261641 
L 187.182889 201.088778 
L 189.534083 195.805722 
L 190.015046 194.730476 
L 190.015046 194.730476 
" style="fill:none;stroke:#0000ff;stroke-linecap:square;stroke-width:1.5;"/>
   </g>
   <g id="patch_6">
    <path d="M 45.9 320.4 
L 45.9 43.2 
" style="fill:none;stroke:#000000;stroke-linecap:square;stroke-linejoin:miter;stroke-width:0.8;"/>
   </g>
   <g id="patch_7">
    <path d="M 323.1 320.4 
L 323.1 43.2 
" style="fill:none;stroke:#000000;stroke-linecap:square;stroke-linejoin:miter;stroke-width:0.8;"/>
   </g>
   <g id="patch_8">
    <path d="M 45.9 320.4 
L 323.1 320.4 
" style="fill:none;stroke:#000000;stroke-linecap:square;stroke-linejoin:miter;stroke-width:0.8;"/>
   </g>
   <g id="patch_9">
    <path d="M 45.9 43.2 
L 323.1 43.2 
" style="fill:none;stroke:#000000;stroke-linecap:square;stroke-linejoin:miter;stroke-width:0.8;"/>
   </g>
   <g id="text_1">
    <!-- Target -->
    <defs>
     <path d="M 0.484375 72.90625 
L 67.671875 72.90625 
L 67.671875 58.6875 
L 43.5 58.6875 
L 43.5 0 
L 24.703125 0 
L 24.703125 58.6875 
L 0.484375 58.6875 
z
" id="DejaVuSans-Bold-54"/>
     <path d="M 32.90625 24.609375 
Q 27.4375 24.609375 24.671875 22.75 
Q 21.921875 20.90625 21.921875 17.28125 
Q 21.921875 13.96875 24.140625 12.078125 
Q 26.375 10.203125 30.328125 10.203125 
Q 35.25 10.203125 38.625 13.734375 
Q 42 17.28125 42 22.609375 
L 42 24.609375 
z
M 59.625 31.203125 
L 59.625 0 
L 42 0 
L 42 8.109375 
Q 38.484375 3.125 34.078125 0.84375 
Q 29.6875 -1.421875 23.390625 -1.421875 
Q 14.890625 -1.421875 9.59375 3.53125 
Q 4.296875 8.5 4.296875 16.40625 
Q 4.296875 26.03125 10.90625 30.515625 
Q 17.53125 35.015625 31.6875 35.015625 
L 42 35.015625 
L 42 36.375 
Q 42 40.53125 38.71875 42.453125 
Q 35.453125 44.390625 28.515625 44.390625 
Q 22.90625 44.390625 18.0625 43.265625 
Q 13.234375 42.140625 9.078125 39.890625 
L 9.078125 53.21875 
Q 14.703125 54.59375 20.359375 55.296875 
Q 26.03125 56 31.6875 56 
Q 46.484375 56 53.046875 50.171875 
Q 59.625 44.34375 59.625 31.203125 
z
" id="DejaVuSans-Bold-61"/>
     <path d="M 49.03125 39.796875 
Q 46.734375 40.875 44.453125 41.375 
Q 42.1875 41.890625 39.890625 41.890625 
Q 33.15625 41.890625 29.515625 37.5625 
Q 25.875 33.25 25.875 25.203125 
L 25.875 0 
L 8.40625 0 
L 8.40625 54.6875 
L 25.875 54.6875 
L 25.875 45.703125 
Q 29.25 51.078125 33.609375 53.53125 
Q 37.984375 56 44.09375 56 
Q 44.96875 56 45.984375 55.921875 
Q 47.015625 55.859375 48.96875 55.609375 
z
" id="DejaVuSans-Bold-72"/>
     <path d="M 45.609375 9.28125 
Q 42 4.5 37.640625 2.25 
Q 33.296875 0 27.59375 0 
Q 17.578125 0 11.03125 7.875 
Q 4.5 15.765625 4.5 27.984375 
Q 4.5 40.234375 11.03125 48.0625 
Q 17.578125 55.90625 27.59375 55.90625 
Q 33.296875 55.90625 37.640625 53.65625 
Q 42 51.421875 45.609375 46.578125 
L 45.609375 54.6875 
L 63.1875 54.6875 
L 63.1875 5.515625 
Q 63.1875 -7.671875 54.859375 -14.625 
Q 46.53125 -21.578125 30.71875 -21.578125 
Q 25.59375 -21.578125 20.796875 -20.796875 
Q 16.015625 -20.015625 11.1875 -18.40625 
L 11.1875 -4.78125 
Q 15.765625 -7.421875 20.15625 -8.71875 
Q 24.5625 -10.015625 29 -10.015625 
Q 37.59375 -10.015625 41.59375 -6.25 
Q 45.609375 -2.484375 45.609375 5.515625 
z
M 34.078125 43.3125 
Q 28.65625 43.3125 25.625 39.296875 
Q 22.609375 35.296875 22.609375 27.984375 
Q 22.609375 20.453125 25.53125 16.578125 
Q 28.46875 12.703125 34.078125 12.703125 
Q 39.546875 12.703125 42.578125 16.703125 
Q 45.609375 20.703125 45.609375 27.984375 
Q 45.609375 35.296875 42.578125 39.296875 
Q 39.546875 43.3125 34.078125 43.3125 
z
" id="DejaVuSans-Bold-67"/>
     <path d="M 62.984375 27.484375 
L 62.984375 22.515625 
L 22.125 22.515625 
Q 22.75 16.359375 26.5625 13.28125 
Q 30.375 10.203125 37.203125 10.203125 
Q 42.71875 10.203125 48.5 11.84375 
Q 54.296875 13.484375 60.40625 16.796875 
L 60.40625 3.328125 
Q 54.203125 0.984375 48 -0.21875 
Q 41.796875 -1.421875 35.59375 -1.421875 
Q 20.75 -1.421875 12.515625 6.125 
Q 4.296875 13.671875 4.296875 27.296875 
Q 4.296875 40.671875 12.375 48.328125 
Q 20.453125 56 34.625 56 
Q 47.515625 56 55.25 48.234375 
Q 62.984375 40.484375 62.984375 27.484375 
z
M 45.015625 33.296875 
Q 45.015625 38.28125 42.109375 41.328125 
Q 39.203125 44.390625 34.515625 44.390625 
Q 29.4375 44.390625 26.265625 41.53125 
Q 23.09375 38.671875 22.3125 33.296875 
z
" id="DejaVuSans-Bold-65"/>
     <path d="M 27.484375 70.21875 
L 27.484375 54.6875 
L 45.515625 54.6875 
L 45.515625 42.1875 
L 27.484375 42.1875 
L 27.484375 19 
Q 27.484375 15.1875 29 13.84375 
Q 30.515625 12.5 35.015625 12.5 
L 44 12.5 
L 44 0 
L 29 0 
Q 18.65625 0 14.328125 4.3125 
Q 10.015625 8.640625 10.015625 19 
L 10.015625 42.1875 
L 1.3125 42.1875 
L 1.3125 54.6875 
L 10.015625 54.6875 
L 10.015625 70.21875 
z
" id="DejaVuSans-Bold-74"/>
    </defs>
    <g transform="translate(137.996094 37.2)scale(0.25 -0.25)">
     <use xlink:href="#DejaVuSans-Bold-54"/>
     <use x="68.025391" xlink:href="#DejaVuSans-Bold-61"/>
     <use x="135.505859" xlink:href="#DejaVuSans-Bold-72"/>
     <use x="184.822266" xlink:href="#DejaVuSans-Bold-67"/>
     <use x="256.404297" xlink:href="#DejaVuSans-Bold-65"/>
     <use x="324.226562" xlink:href="#DejaVuSans-Bold-74"/>
    </g>
   </g>
  </g>
 </g>
 <defs>
  <clipPath id="pef6b454225">
   <rect height="277.2" width="277.2" x="45.9" y="43.2"/>
  </clipPath>
 </defs>
</svg>
