<?xml version="1.0" encoding="utf-8" standalone="no"?>
<!DOCTYPE svg PUBLIC "-//W3C//DTD SVG 1.1//EN"
  "http://www.w3.org/Graphics/SVG/1.1/DTD/svg11.dtd">
<!-- Created with matplotlib (http://matplotlib.org/) -->
<svg height="360pt" version="1.1" viewBox="0 0 360 360" width="360pt" xmlns="http://www.w3.org/2000/svg" xmlns:xlink="http://www.w3.org/1999/xlink">
 <defs>
  <style type="text/css">
*{stroke-linecap:butt;stroke-linejoin:round;}
  </style>
 </defs>
 <g id="figure_1">
  <g id="patch_1">
   <path d="M 0 360 
L 360 360 
L 360 0 
L 0 0 
z
" style="fill:#ffffff;"/>
  </g>
  <g id="axes_1">
   <g id="patch_2">
    <path d="M 45.9 320.4 
L 323.1 320.4 
L 323.1 43.2 
L 45.9 43.2 
z
" style="fill:#eaeaf2;"/>
   </g>
   <g id="patch_3">
    <path clip-path="url(#p81e01e05bd)" d="M 184.5 195.66 
C 188.175715 195.66 191.701377 194.199623 194.3005 191.6005 
C 196.899623 189.001377 198.36 185.475715 198.36 181.8 
C 198.36 178.124285 196.899623 174.598623 194.3005 171.9995 
C 191.701377 169.400377 188.175715 167.94 184.5 167.94 
C 180.824285 167.94 177.298623 169.400377 174.6995 171.9995 
C 172.100377 174.598623 170.64 178.124285 170.64 181.8 
C 170.64 185.475715 172.100377 189.001377 174.6995 191.6005 
C 177.298623 194.199623 180.824285 195.66 184.5 195.66 
z
" style="fill:#008000;opacity:0.6;stroke:#000000;stroke-linejoin:miter;"/>
   </g>
   <g id="patch_4">
    <path clip-path="url(#p81e01e05bd)" d="M 208.8936 605.6388 
C 236.461462 605.6388 262.903928 594.685972 282.39735 575.19255 
C 301.890772 555.699128 312.8436 529.256662 312.8436 501.6888 
C 312.8436 474.120938 301.890772 447.678472 282.39735 428.18505 
C 262.903928 408.691628 236.461462 397.7388 208.8936 397.7388 
C 181.325738 397.7388 154.883272 408.691628 135.38985 428.18505 
C 115.896428 447.678472 104.9436 474.120938 104.9436 501.6888 
C 104.9436 529.256662 115.896428 555.699128 135.38985 575.19255 
C 154.883272 594.685972 181.325738 605.6388 208.8936 605.6388 
z
" style="opacity:0.1;stroke:#000000;stroke-linejoin:miter;"/>
   </g>
   <g id="patch_5">
    <path clip-path="url(#p81e01e05bd)" d="M 208.8936 536.3388 
C 218.082887 536.3388 226.897043 532.687857 233.39485 526.19005 
C 239.892657 519.692243 243.5436 510.878087 243.5436 501.6888 
C 243.5436 492.499513 239.892657 483.685357 233.39485 477.18755 
C 226.897043 470.689743 218.082887 467.0388 208.8936 467.0388 
C 199.704313 467.0388 190.890157 470.689743 184.39235 477.18755 
C 177.894543 483.685357 174.2436 492.499513 174.2436 501.6888 
C 174.2436 510.878087 177.894543 519.692243 184.39235 526.19005 
C 190.890157 532.687857 199.704313 536.3388 208.8936 536.3388 
z
" style="fill:#ff0000;opacity:0.2;stroke:#ff0000;stroke-linejoin:miter;"/>
   </g>
   <g id="line2d_1">
    <path clip-path="url(#p81e01e05bd)" d="M 67.400082 361 
L 70.499471 357.650232 
L 74.540177 353.572379 
L 79.660859 348.731595 
L 87.585423 341.382427 
L 88.941462 339.541314 
L 89.880078 337.650439 
L 90.461177 335.689625 
L 90.767341 333.65143 
L 91.346937 327.152972 
L 91.947936 323.780967 
L 92.545952 321.516582 
L 93.319719 319.253883 
L 94.256393 317.004732 
L 95.926935 313.676603 
L 98.439084 309.343857 
L 101.773307 304.086992 
L 103.919487 301.025083 
L 107.018816 297.070582 
L 111.833558 291.38288 
L 120.659913 281.545884 
L 128.374393 273.073745 
L 134.357536 266.530123 
L 147.09558 252.595154 
L 152.885751 245.967675 
L 163.846783 232.663377 
L 168.411491 226.700338 
L 172.542978 220.954477 
L 176.231368 215.428943 
L 179.131282 210.705612 
L 181.669707 206.162788 
L 183.842486 201.803808 
L 185.440947 198.143153 
L 186.754779 194.628054 
L 187.3389 192.650859 
L 187.807401 190.152333 
L 187.867 189.647727 
L 187.867 189.647727 
" style="fill:none;stroke:#000000;stroke-linecap:square;stroke-width:1.5;"/>
   </g>
   <g id="line2d_2">
    <path clip-path="url(#p81e01e05bd)" d="M 76.054065 361 
L 73.935463 358.839169 
L 68.619751 353.721081 
L 61.356203 346.911576 
L 58.100804 343.526469 
L 56.662963 341.839829 
L 55.387477 340.157738 
L 54.296758 338.481038 
L 53.4093 336.8103 
L 52.735838 335.147039 
L 52.27441 333.494437 
L 52.01129 331.857191 
L 51.90824 330.245209 
L 51.938052 328.662593 
L 52.326999 325.586511 
L 53.054057 322.627664 
L 54.000493 319.778299 
L 55.633487 315.688708 
L 57.469984 311.79614 
L 59.531297 308.077066 
L 61.780655 304.510979 
L 64.991003 299.963585 
L 68.335563 295.615337 
L 72.605553 290.404745 
L 78.647502 283.431991 
L 81.101133 280.529166 
L 82.397743 278.611698 
L 83.409551 276.691303 
L 85.740914 271.810125 
L 87.03578 269.832358 
L 89.253012 266.89341 
L 93.908009 261.163607 
L 103.132065 250.244842 
L 106.802062 245.864052 
L 107.957929 244.11379 
L 108.755832 242.334318 
L 109.212563 240.504426 
L 110.12307 234.685257 
L 110.854875 232.702983 
L 112.371257 229.778616 
L 115.169638 225.071226 
L 119.696785 217.927254 
L 124.634951 210.477337 
L 126.860199 207.554173 
L 132.49806 200.453777 
L 137.55786 193.642483 
L 140.950476 189.321059 
L 143.388529 186.602246 
L 145.821136 184.229936 
L 147.298222 183.028394 
L 148.888222 182.055715 
L 150.606533 181.32321 
L 152.456413 180.790262 
L 155.018761 180.335915 
L 155.626245 180.250317 
L 155.626245 180.250317 
" style="fill:none;stroke:#ff0000;stroke-linecap:square;stroke-width:1.5;"/>
   </g>
   <g id="line2d_3">
    <path clip-path="url(#p81e01e05bd)" d="M 58.800933 361 
L 59.974692 359.196227 
L 62.639686 355.601541 
L 65.455718 352.202349 
L 69.338786 347.915327 
L 73.140244 343.81569 
L 74.631971 341.757068 
L 75.165814 340.714616 
L 75.531295 339.658515 
L 75.722538 338.585043 
L 75.743827 337.491353 
L 75.611186 336.375073 
L 75.019506 334.067795 
L 73.089593 327.92249 
L 72.664647 325.358937 
L 72.627943 322.774395 
L 72.939951 320.213432 
L 73.606297 317.698427 
L 74.618517 315.245652 
L 75.922028 312.863473 
L 78.185269 309.418119 
L 81.442987 305.038772 
L 84.806049 300.892377 
L 88.178676 297.068665 
L 91.541269 293.531992 
L 96.034352 289.244899 
L 106.657876 279.155456 
L 110.936422 275.216834 
L 116.806528 269.936578 
L 118.170091 268.381276 
L 119.31764 266.780509 
L 123.110284 260.915355 
L 125.155672 258.39853 
L 135.62654 246.345718 
L 142.098246 238.768602 
L 144.883047 235.013117 
L 148.677949 229.865947 
L 153.989893 222.901855 
L 163.639255 208.187069 
L 165.651003 205.680517 
L 166.92514 204.443034 
L 168.410352 203.393545 
L 171.583457 201.353585 
L 173.497469 199.880853 
L 175.630413 197.936529 
L 177.500041 195.910931 
L 179.705021 193.334282 
L 179.705021 193.334282 
" style="fill:none;stroke:#008000;stroke-linecap:square;stroke-width:1.5;"/>
   </g>
   <g id="line2d_4">
    <path clip-path="url(#p81e01e05bd)" d="M 60.579762 361 
L 61.846817 357.40686 
L 63.384112 353.613232 
L 65.598686 348.735153 
L 67.964091 344.029946 
L 70.515096 339.47998 
L 73.298932 335.079695 
L 77.024269 329.768659 
L 82.307471 322.587853 
L 85.528991 318.620001 
L 94.270974 308.065391 
L 98.981565 302.461861 
L 103.911382 297.010027 
L 112.947056 287.378314 
L 122.117136 278.256551 
L 137.756619 262.692161 
L 146.314237 253.858256 
L 153.550408 246.064104 
L 159.596807 239.227976 
L 165.117862 232.632459 
L 169.625341 226.906695 
L 173.686095 221.385082 
L 176.914197 216.652595 
L 179.778201 212.089307 
L 182.273852 207.698955 
L 184.397456 203.485198 
L 185.947918 199.945805 
L 187.019719 197.005016 
L 187.669512 194.552709 
L 187.938694 193.073895 
L 187.938694 193.073895 
" style="fill:none;stroke:#0000ff;stroke-linecap:square;stroke-width:1.5;"/>
   </g>
   <g id="patch_6">
    <path d="M 45.9 320.4 
L 45.9 43.2 
" style="fill:none;stroke:#000000;stroke-linecap:square;stroke-linejoin:miter;stroke-width:0.8;"/>
   </g>
   <g id="patch_7">
    <path d="M 323.1 320.4 
L 323.1 43.2 
" style="fill:none;stroke:#000000;stroke-linecap:square;stroke-linejoin:miter;stroke-width:0.8;"/>
   </g>
   <g id="patch_8">
    <path d="M 45.9 320.4 
L 323.1 320.4 
" style="fill:none;stroke:#000000;stroke-linecap:square;stroke-linejoin:miter;stroke-width:0.8;"/>
   </g>
   <g id="patch_9">
    <path d="M 45.9 43.2 
L 323.1 43.2 
" style="fill:none;stroke:#000000;stroke-linecap:square;stroke-linejoin:miter;stroke-width:0.8;"/>
   </g>
   <g id="text_1">
    <!-- Target -->
    <defs>
     <path d="M 0.484375 72.90625 
L 67.671875 72.90625 
L 67.671875 58.6875 
L 43.5 58.6875 
L 43.5 0 
L 24.703125 0 
L 24.703125 58.6875 
L 0.484375 58.6875 
z
" id="DejaVuSans-Bold-54"/>
     <path d="M 32.90625 24.609375 
Q 27.4375 24.609375 24.671875 22.75 
Q 21.921875 20.90625 21.921875 17.28125 
Q 21.921875 13.96875 24.140625 12.078125 
Q 26.375 10.203125 30.328125 10.203125 
Q 35.25 10.203125 38.625 13.734375 
Q 42 17.28125 42 22.609375 
L 42 24.609375 
z
M 59.625 31.203125 
L 59.625 0 
L 42 0 
L 42 8.109375 
Q 38.484375 3.125 34.078125 0.84375 
Q 29.6875 -1.421875 23.390625 -1.421875 
Q 14.890625 -1.421875 9.59375 3.53125 
Q 4.296875 8.5 4.296875 16.40625 
Q 4.296875 26.03125 10.90625 30.515625 
Q 17.53125 35.015625 31.6875 35.015625 
L 42 35.015625 
L 42 36.375 
Q 42 40.53125 38.71875 42.453125 
Q 35.453125 44.390625 28.515625 44.390625 
Q 22.90625 44.390625 18.0625 43.265625 
Q 13.234375 42.140625 9.078125 39.890625 
L 9.078125 53.21875 
Q 14.703125 54.59375 20.359375 55.296875 
Q 26.03125 56 31.6875 56 
Q 46.484375 56 53.046875 50.171875 
Q 59.625 44.34375 59.625 31.203125 
z
" id="DejaVuSans-Bold-61"/>
     <path d="M 49.03125 39.796875 
Q 46.734375 40.875 44.453125 41.375 
Q 42.1875 41.890625 39.890625 41.890625 
Q 33.15625 41.890625 29.515625 37.5625 
Q 25.875 33.25 25.875 25.203125 
L 25.875 0 
L 8.40625 0 
L 8.40625 54.6875 
L 25.875 54.6875 
L 25.875 45.703125 
Q 29.25 51.078125 33.609375 53.53125 
Q 37.984375 56 44.09375 56 
Q 44.96875 56 45.984375 55.921875 
Q 47.015625 55.859375 48.96875 55.609375 
z
" id="DejaVuSans-Bold-72"/>
     <path d="M 45.609375 9.28125 
Q 42 4.5 37.640625 2.25 
Q 33.296875 0 27.59375 0 
Q 17.578125 0 11.03125 7.875 
Q 4.5 15.765625 4.5 27.984375 
Q 4.5 40.234375 11.03125 48.0625 
Q 17.578125 55.90625 27.59375 55.90625 
Q 33.296875 55.90625 37.640625 53.65625 
Q 42 51.421875 45.609375 46.578125 
L 45.609375 54.6875 
L 63.1875 54.6875 
L 63.1875 5.515625 
Q 63.1875 -7.671875 54.859375 -14.625 
Q 46.53125 -21.578125 30.71875 -21.578125 
Q 25.59375 -21.578125 20.796875 -20.796875 
Q 16.015625 -20.015625 11.1875 -18.40625 
L 11.1875 -4.78125 
Q 15.765625 -7.421875 20.15625 -8.71875 
Q 24.5625 -10.015625 29 -10.015625 
Q 37.59375 -10.015625 41.59375 -6.25 
Q 45.609375 -2.484375 45.609375 5.515625 
z
M 34.078125 43.3125 
Q 28.65625 43.3125 25.625 39.296875 
Q 22.609375 35.296875 22.609375 27.984375 
Q 22.609375 20.453125 25.53125 16.578125 
Q 28.46875 12.703125 34.078125 12.703125 
Q 39.546875 12.703125 42.578125 16.703125 
Q 45.609375 20.703125 45.609375 27.984375 
Q 45.609375 35.296875 42.578125 39.296875 
Q 39.546875 43.3125 34.078125 43.3125 
z
" id="DejaVuSans-Bold-67"/>
     <path d="M 62.984375 27.484375 
L 62.984375 22.515625 
L 22.125 22.515625 
Q 22.75 16.359375 26.5625 13.28125 
Q 30.375 10.203125 37.203125 10.203125 
Q 42.71875 10.203125 48.5 11.84375 
Q 54.296875 13.484375 60.40625 16.796875 
L 60.40625 3.328125 
Q 54.203125 0.984375 48 -0.21875 
Q 41.796875 -1.421875 35.59375 -1.421875 
Q 20.75 -1.421875 12.515625 6.125 
Q 4.296875 13.671875 4.296875 27.296875 
Q 4.296875 40.671875 12.375 48.328125 
Q 20.453125 56 34.625 56 
Q 47.515625 56 55.25 48.234375 
Q 62.984375 40.484375 62.984375 27.484375 
z
M 45.015625 33.296875 
Q 45.015625 38.28125 42.109375 41.328125 
Q 39.203125 44.390625 34.515625 44.390625 
Q 29.4375 44.390625 26.265625 41.53125 
Q 23.09375 38.671875 22.3125 33.296875 
z
" id="DejaVuSans-Bold-65"/>
     <path d="M 27.484375 70.21875 
L 27.484375 54.6875 
L 45.515625 54.6875 
L 45.515625 42.1875 
L 27.484375 42.1875 
L 27.484375 19 
Q 27.484375 15.1875 29 13.84375 
Q 30.515625 12.5 35.015625 12.5 
L 44 12.5 
L 44 0 
L 29 0 
Q 18.65625 0 14.328125 4.3125 
Q 10.015625 8.640625 10.015625 19 
L 10.015625 42.1875 
L 1.3125 42.1875 
L 1.3125 54.6875 
L 10.015625 54.6875 
L 10.015625 70.21875 
z
" id="DejaVuSans-Bold-74"/>
    </defs>
    <g transform="translate(137.996094 37.2)scale(0.25 -0.25)">
     <use xlink:href="#DejaVuSans-Bold-54"/>
     <use x="68.025391" xlink:href="#DejaVuSans-Bold-61"/>
     <use x="135.505859" xlink:href="#DejaVuSans-Bold-72"/>
     <use x="184.822266" xlink:href="#DejaVuSans-Bold-67"/>
     <use x="256.404297" xlink:href="#DejaVuSans-Bold-65"/>
     <use x="324.226562" xlink:href="#DejaVuSans-Bold-74"/>
    </g>
   </g>
  </g>
 </g>
 <defs>
  <clipPath id="p81e01e05bd">
   <rect height="277.2" width="277.2" x="45.9" y="43.2"/>
  </clipPath>
 </defs>
</svg>
