<?xml version="1.0" encoding="utf-8" standalone="no"?>
<!DOCTYPE svg PUBLIC "-//W3C//DTD SVG 1.1//EN"
  "http://www.w3.org/Graphics/SVG/1.1/DTD/svg11.dtd">
<!-- Created with matplotlib (http://matplotlib.org/) -->
<svg height="360pt" version="1.1" viewBox="0 0 360 360" width="360pt" xmlns="http://www.w3.org/2000/svg" xmlns:xlink="http://www.w3.org/1999/xlink">
 <defs>
  <style type="text/css">
*{stroke-linecap:butt;stroke-linejoin:round;}
  </style>
 </defs>
 <g id="figure_1">
  <g id="patch_1">
   <path d="M 0 360 
L 360 360 
L 360 0 
L 0 0 
z
" style="fill:#ffffff;"/>
  </g>
  <g id="axes_1">
   <g id="patch_2">
    <path d="M 139.242857 320.4 
L 229.757143 320.4 
L 229.757143 43.2 
L 139.242857 43.2 
z
" style="fill:#eaeaf2;"/>
   </g>
   <g id="patch_3">
    <path clip-path="url(#p524db43bcf)" d="M 197.407337 94.10976 
C 197.887431 94.10976 198.347925 93.77596 198.687402 93.181874 
C 199.02688 92.587789 199.217623 91.781923 199.217623 90.94176 
C 199.217623 90.101597 199.02688 89.295731 198.687402 88.701646 
C 198.347925 88.10756 197.887431 87.77376 197.407337 87.77376 
C 196.927244 87.77376 196.466749 88.10756 196.127272 88.701646 
C 195.787795 89.295731 195.597051 90.101597 195.597051 90.94176 
C 195.597051 91.781923 195.787795 92.587789 196.127272 93.181874 
C 196.466749 93.77596 196.927244 94.10976 197.407337 94.10976 
z
" style="fill:#008000;opacity:0.6;stroke:#000000;stroke-linejoin:miter;"/>
   </g>
   <g id="patch_4">
    <path clip-path="url(#p524db43bcf)" d="M 200.59344 187.8192 
C 204.19414 187.8192 207.64785 185.315697 210.19393 180.860057 
C 212.740009 176.404418 214.170583 170.360426 214.170583 164.0592 
C 214.170583 157.757974 212.740009 151.713982 210.19393 147.258343 
C 207.64785 142.802703 204.19414 140.2992 200.59344 140.2992 
C 196.99274 140.2992 193.53903 142.802703 190.99295 147.258343 
C 188.446871 151.713982 187.016297 157.757974 187.016297 164.0592 
C 187.016297 170.360426 188.446871 176.404418 190.99295 180.860057 
C 193.53903 185.315697 196.99274 187.8192 200.59344 187.8192 
z
" style="opacity:0.1;stroke:#000000;stroke-linejoin:miter;"/>
   </g>
   <g id="patch_5">
    <path clip-path="url(#p524db43bcf)" d="M 200.59344 171.9792 
C 201.793673 171.9792 202.94491 171.144699 203.793603 169.659486 
C 204.642296 168.174273 205.119154 166.159609 205.119154 164.0592 
C 205.119154 161.958791 204.642296 159.944127 203.793603 158.458914 
C 202.94491 156.973701 201.793673 156.1392 200.59344 156.1392 
C 199.393207 156.1392 198.24197 156.973701 197.393277 158.458914 
C 196.544584 159.944127 196.067726 161.958791 196.067726 164.0592 
C 196.067726 166.159609 196.544584 168.174273 197.393277 169.659486 
C 198.24197 171.144699 199.393207 171.9792 200.59344 171.9792 
z
" style="fill:#ff0000;opacity:0.2;stroke:#ff0000;stroke-linejoin:miter;"/>
   </g>
   <g id="matplotlib.axis_1">
    <g id="xtick_1">
     <g id="line2d_1">
      <defs>
       <path d="M 0 0 
L 0 3.5 
" id="m4020f7162b" style="stroke:#000000;stroke-width:0.8;"/>
      </defs>
      <g>
       <use style="stroke:#000000;stroke-width:0.8;" x="139.242857" xlink:href="#m4020f7162b" y="320.4"/>
      </g>
     </g>
     <g id="text_1">
      <!-- 0.0 -->
      <defs>
       <path d="M 31.78125 66.40625 
Q 24.171875 66.40625 20.328125 58.90625 
Q 16.5 51.421875 16.5 36.375 
Q 16.5 21.390625 20.328125 13.890625 
Q 24.171875 6.390625 31.78125 6.390625 
Q 39.453125 6.390625 43.28125 13.890625 
Q 47.125 21.390625 47.125 36.375 
Q 47.125 51.421875 43.28125 58.90625 
Q 39.453125 66.40625 31.78125 66.40625 
z
M 31.78125 74.21875 
Q 44.046875 74.21875 50.515625 64.515625 
Q 56.984375 54.828125 56.984375 36.375 
Q 56.984375 17.96875 50.515625 8.265625 
Q 44.046875 -1.421875 31.78125 -1.421875 
Q 19.53125 -1.421875 13.0625 8.265625 
Q 6.59375 17.96875 6.59375 36.375 
Q 6.59375 54.828125 13.0625 64.515625 
Q 19.53125 74.21875 31.78125 74.21875 
z
" id="DejaVuSans-30"/>
       <path d="M 10.6875 12.40625 
L 21 12.40625 
L 21 0 
L 10.6875 0 
z
" id="DejaVuSans-2e"/>
      </defs>
      <g transform="translate(127.315513 338.797656)scale(0.15 -0.15)">
       <use xlink:href="#DejaVuSans-30"/>
       <use x="63.623047" xlink:href="#DejaVuSans-2e"/>
       <use x="95.410156" xlink:href="#DejaVuSans-30"/>
      </g>
     </g>
    </g>
    <g id="xtick_2">
     <g id="line2d_2">
      <g>
       <use style="stroke:#000000;stroke-width:0.8;" x="184.5" xlink:href="#m4020f7162b" y="320.4"/>
      </g>
     </g>
     <g id="text_2">
      <!-- 0.5 -->
      <defs>
       <path d="M 10.796875 72.90625 
L 49.515625 72.90625 
L 49.515625 64.59375 
L 19.828125 64.59375 
L 19.828125 46.734375 
Q 21.96875 47.46875 24.109375 47.828125 
Q 26.265625 48.1875 28.421875 48.1875 
Q 40.625 48.1875 47.75 41.5 
Q 54.890625 34.8125 54.890625 23.390625 
Q 54.890625 11.625 47.5625 5.09375 
Q 40.234375 -1.421875 26.90625 -1.421875 
Q 22.3125 -1.421875 17.546875 -0.640625 
Q 12.796875 0.140625 7.71875 1.703125 
L 7.71875 11.625 
Q 12.109375 9.234375 16.796875 8.0625 
Q 21.484375 6.890625 26.703125 6.890625 
Q 35.15625 6.890625 40.078125 11.328125 
Q 45.015625 15.765625 45.015625 23.390625 
Q 45.015625 31 40.078125 35.4375 
Q 35.15625 39.890625 26.703125 39.890625 
Q 22.75 39.890625 18.8125 39.015625 
Q 14.890625 38.140625 10.796875 36.28125 
z
" id="DejaVuSans-35"/>
      </defs>
      <g transform="translate(172.572656 338.797656)scale(0.15 -0.15)">
       <use xlink:href="#DejaVuSans-30"/>
       <use x="63.623047" xlink:href="#DejaVuSans-2e"/>
       <use x="95.410156" xlink:href="#DejaVuSans-35"/>
      </g>
     </g>
    </g>
    <g id="xtick_3">
     <g id="line2d_3">
      <g>
       <use style="stroke:#000000;stroke-width:0.8;" x="229.757143" xlink:href="#m4020f7162b" y="320.4"/>
      </g>
     </g>
     <g id="text_3">
      <!-- 1.0 -->
      <defs>
       <path d="M 12.40625 8.296875 
L 28.515625 8.296875 
L 28.515625 63.921875 
L 10.984375 60.40625 
L 10.984375 69.390625 
L 28.421875 72.90625 
L 38.28125 72.90625 
L 38.28125 8.296875 
L 54.390625 8.296875 
L 54.390625 0 
L 12.40625 0 
z
" id="DejaVuSans-31"/>
      </defs>
      <g transform="translate(217.829799 338.797656)scale(0.15 -0.15)">
       <use xlink:href="#DejaVuSans-31"/>
       <use x="63.623047" xlink:href="#DejaVuSans-2e"/>
       <use x="95.410156" xlink:href="#DejaVuSans-30"/>
      </g>
     </g>
    </g>
    <g id="text_4">
     <!-- X -->
     <defs>
      <path d="M 49.8125 37.203125 
L 75.09375 0 
L 55.515625 0 
L 38.484375 24.90625 
L 21.578125 0 
L 1.90625 0 
L 27.203125 37.203125 
L 2.875 72.90625 
L 22.515625 72.90625 
L 38.484375 49.421875 
L 54.390625 72.90625 
L 74.125 72.90625 
z
" id="DejaVuSans-Bold-58"/>
     </defs>
     <g transform="translate(176.790625 361.114062)scale(0.2 -0.2)">
      <use xlink:href="#DejaVuSans-Bold-58"/>
     </g>
    </g>
   </g>
   <g id="matplotlib.axis_2">
    <g id="ytick_1">
     <g id="line2d_4">
      <defs>
       <path d="M 0 0 
L -3.5 0 
" id="mfa00e113f2" style="stroke:#000000;stroke-width:0.8;"/>
      </defs>
      <g>
       <use style="stroke:#000000;stroke-width:0.8;" x="139.242857" xlink:href="#mfa00e113f2" y="320.4"/>
      </g>
     </g>
     <g id="text_5">
      <!-- −1.0 -->
      <defs>
       <path d="M 10.59375 35.5 
L 73.1875 35.5 
L 73.1875 27.203125 
L 10.59375 27.203125 
z
" id="DejaVuSans-2212"/>
      </defs>
      <g transform="translate(95.818638 326.098828)scale(0.15 -0.15)">
       <use xlink:href="#DejaVuSans-2212"/>
       <use x="83.789062" xlink:href="#DejaVuSans-31"/>
       <use x="147.412109" xlink:href="#DejaVuSans-2e"/>
       <use x="179.199219" xlink:href="#DejaVuSans-30"/>
      </g>
     </g>
    </g>
    <g id="ytick_2">
     <g id="line2d_5">
      <g>
       <use style="stroke:#000000;stroke-width:0.8;" x="139.242857" xlink:href="#mfa00e113f2" y="288.72"/>
      </g>
     </g>
     <g id="text_6">
      <!-- −0.8 -->
      <defs>
       <path d="M 31.78125 34.625 
Q 24.75 34.625 20.71875 30.859375 
Q 16.703125 27.09375 16.703125 20.515625 
Q 16.703125 13.921875 20.71875 10.15625 
Q 24.75 6.390625 31.78125 6.390625 
Q 38.8125 6.390625 42.859375 10.171875 
Q 46.921875 13.96875 46.921875 20.515625 
Q 46.921875 27.09375 42.890625 30.859375 
Q 38.875 34.625 31.78125 34.625 
z
M 21.921875 38.8125 
Q 15.578125 40.375 12.03125 44.71875 
Q 8.5 49.078125 8.5 55.328125 
Q 8.5 64.0625 14.71875 69.140625 
Q 20.953125 74.21875 31.78125 74.21875 
Q 42.671875 74.21875 48.875 69.140625 
Q 55.078125 64.0625 55.078125 55.328125 
Q 55.078125 49.078125 51.53125 44.71875 
Q 48 40.375 41.703125 38.8125 
Q 48.828125 37.15625 52.796875 32.3125 
Q 56.78125 27.484375 56.78125 20.515625 
Q 56.78125 9.90625 50.3125 4.234375 
Q 43.84375 -1.421875 31.78125 -1.421875 
Q 19.734375 -1.421875 13.25 4.234375 
Q 6.78125 9.90625 6.78125 20.515625 
Q 6.78125 27.484375 10.78125 32.3125 
Q 14.796875 37.15625 21.921875 38.8125 
z
M 18.3125 54.390625 
Q 18.3125 48.734375 21.84375 45.5625 
Q 25.390625 42.390625 31.78125 42.390625 
Q 38.140625 42.390625 41.71875 45.5625 
Q 45.3125 48.734375 45.3125 54.390625 
Q 45.3125 60.0625 41.71875 63.234375 
Q 38.140625 66.40625 31.78125 66.40625 
Q 25.390625 66.40625 21.84375 63.234375 
Q 18.3125 60.0625 18.3125 54.390625 
z
" id="DejaVuSans-38"/>
      </defs>
      <g transform="translate(95.818638 294.418828)scale(0.15 -0.15)">
       <use xlink:href="#DejaVuSans-2212"/>
       <use x="83.789062" xlink:href="#DejaVuSans-30"/>
       <use x="147.412109" xlink:href="#DejaVuSans-2e"/>
       <use x="179.199219" xlink:href="#DejaVuSans-38"/>
      </g>
     </g>
    </g>
    <g id="ytick_3">
     <g id="line2d_6">
      <g>
       <use style="stroke:#000000;stroke-width:0.8;" x="139.242857" xlink:href="#mfa00e113f2" y="257.04"/>
      </g>
     </g>
     <g id="text_7">
      <!-- −0.6 -->
      <defs>
       <path d="M 33.015625 40.375 
Q 26.375 40.375 22.484375 35.828125 
Q 18.609375 31.296875 18.609375 23.390625 
Q 18.609375 15.53125 22.484375 10.953125 
Q 26.375 6.390625 33.015625 6.390625 
Q 39.65625 6.390625 43.53125 10.953125 
Q 47.40625 15.53125 47.40625 23.390625 
Q 47.40625 31.296875 43.53125 35.828125 
Q 39.65625 40.375 33.015625 40.375 
z
M 52.59375 71.296875 
L 52.59375 62.3125 
Q 48.875 64.0625 45.09375 64.984375 
Q 41.3125 65.921875 37.59375 65.921875 
Q 27.828125 65.921875 22.671875 59.328125 
Q 17.53125 52.734375 16.796875 39.40625 
Q 19.671875 43.65625 24.015625 45.921875 
Q 28.375 48.1875 33.59375 48.1875 
Q 44.578125 48.1875 50.953125 41.515625 
Q 57.328125 34.859375 57.328125 23.390625 
Q 57.328125 12.15625 50.6875 5.359375 
Q 44.046875 -1.421875 33.015625 -1.421875 
Q 20.359375 -1.421875 13.671875 8.265625 
Q 6.984375 17.96875 6.984375 36.375 
Q 6.984375 53.65625 15.1875 63.9375 
Q 23.390625 74.21875 37.203125 74.21875 
Q 40.921875 74.21875 44.703125 73.484375 
Q 48.484375 72.75 52.59375 71.296875 
z
" id="DejaVuSans-36"/>
      </defs>
      <g transform="translate(95.818638 262.738828)scale(0.15 -0.15)">
       <use xlink:href="#DejaVuSans-2212"/>
       <use x="83.789062" xlink:href="#DejaVuSans-30"/>
       <use x="147.412109" xlink:href="#DejaVuSans-2e"/>
       <use x="179.199219" xlink:href="#DejaVuSans-36"/>
      </g>
     </g>
    </g>
    <g id="ytick_4">
     <g id="line2d_7">
      <g>
       <use style="stroke:#000000;stroke-width:0.8;" x="139.242857" xlink:href="#mfa00e113f2" y="225.36"/>
      </g>
     </g>
     <g id="text_8">
      <!-- −0.4 -->
      <defs>
       <path d="M 37.796875 64.3125 
L 12.890625 25.390625 
L 37.796875 25.390625 
z
M 35.203125 72.90625 
L 47.609375 72.90625 
L 47.609375 25.390625 
L 58.015625 25.390625 
L 58.015625 17.1875 
L 47.609375 17.1875 
L 47.609375 0 
L 37.796875 0 
L 37.796875 17.1875 
L 4.890625 17.1875 
L 4.890625 26.703125 
z
" id="DejaVuSans-34"/>
      </defs>
      <g transform="translate(95.818638 231.058828)scale(0.15 -0.15)">
       <use xlink:href="#DejaVuSans-2212"/>
       <use x="83.789062" xlink:href="#DejaVuSans-30"/>
       <use x="147.412109" xlink:href="#DejaVuSans-2e"/>
       <use x="179.199219" xlink:href="#DejaVuSans-34"/>
      </g>
     </g>
    </g>
    <g id="ytick_5">
     <g id="line2d_8">
      <g>
       <use style="stroke:#000000;stroke-width:0.8;" x="139.242857" xlink:href="#mfa00e113f2" y="193.68"/>
      </g>
     </g>
     <g id="text_9">
      <!-- −0.2 -->
      <defs>
       <path d="M 19.1875 8.296875 
L 53.609375 8.296875 
L 53.609375 0 
L 7.328125 0 
L 7.328125 8.296875 
Q 12.9375 14.109375 22.625 23.890625 
Q 32.328125 33.6875 34.8125 36.53125 
Q 39.546875 41.84375 41.421875 45.53125 
Q 43.3125 49.21875 43.3125 52.78125 
Q 43.3125 58.59375 39.234375 62.25 
Q 35.15625 65.921875 28.609375 65.921875 
Q 23.96875 65.921875 18.8125 64.3125 
Q 13.671875 62.703125 7.8125 59.421875 
L 7.8125 69.390625 
Q 13.765625 71.78125 18.9375 73 
Q 24.125 74.21875 28.421875 74.21875 
Q 39.75 74.21875 46.484375 68.546875 
Q 53.21875 62.890625 53.21875 53.421875 
Q 53.21875 48.921875 51.53125 44.890625 
Q 49.859375 40.875 45.40625 35.40625 
Q 44.1875 33.984375 37.640625 27.21875 
Q 31.109375 20.453125 19.1875 8.296875 
z
" id="DejaVuSans-32"/>
      </defs>
      <g transform="translate(95.818638 199.378828)scale(0.15 -0.15)">
       <use xlink:href="#DejaVuSans-2212"/>
       <use x="83.789062" xlink:href="#DejaVuSans-30"/>
       <use x="147.412109" xlink:href="#DejaVuSans-2e"/>
       <use x="179.199219" xlink:href="#DejaVuSans-32"/>
      </g>
     </g>
    </g>
    <g id="ytick_6">
     <g id="line2d_9">
      <g>
       <use style="stroke:#000000;stroke-width:0.8;" x="139.242857" xlink:href="#mfa00e113f2" y="162"/>
      </g>
     </g>
     <g id="text_10">
      <!-- 0.0 -->
      <g transform="translate(108.38817 167.698828)scale(0.15 -0.15)">
       <use xlink:href="#DejaVuSans-30"/>
       <use x="63.623047" xlink:href="#DejaVuSans-2e"/>
       <use x="95.410156" xlink:href="#DejaVuSans-30"/>
      </g>
     </g>
    </g>
    <g id="ytick_7">
     <g id="line2d_10">
      <g>
       <use style="stroke:#000000;stroke-width:0.8;" x="139.242857" xlink:href="#mfa00e113f2" y="130.32"/>
      </g>
     </g>
     <g id="text_11">
      <!-- 0.2 -->
      <g transform="translate(108.38817 136.018828)scale(0.15 -0.15)">
       <use xlink:href="#DejaVuSans-30"/>
       <use x="63.623047" xlink:href="#DejaVuSans-2e"/>
       <use x="95.410156" xlink:href="#DejaVuSans-32"/>
      </g>
     </g>
    </g>
    <g id="ytick_8">
     <g id="line2d_11">
      <g>
       <use style="stroke:#000000;stroke-width:0.8;" x="139.242857" xlink:href="#mfa00e113f2" y="98.64"/>
      </g>
     </g>
     <g id="text_12">
      <!-- 0.4 -->
      <g transform="translate(108.38817 104.338828)scale(0.15 -0.15)">
       <use xlink:href="#DejaVuSans-30"/>
       <use x="63.623047" xlink:href="#DejaVuSans-2e"/>
       <use x="95.410156" xlink:href="#DejaVuSans-34"/>
      </g>
     </g>
    </g>
    <g id="ytick_9">
     <g id="line2d_12">
      <g>
       <use style="stroke:#000000;stroke-width:0.8;" x="139.242857" xlink:href="#mfa00e113f2" y="66.96"/>
      </g>
     </g>
     <g id="text_13">
      <!-- 0.6 -->
      <g transform="translate(108.38817 72.658828)scale(0.15 -0.15)">
       <use xlink:href="#DejaVuSans-30"/>
       <use x="63.623047" xlink:href="#DejaVuSans-2e"/>
       <use x="95.410156" xlink:href="#DejaVuSans-36"/>
      </g>
     </g>
    </g>
    <g id="text_14">
     <!-- Y -->
     <defs>
      <path d="M -0.984375 72.90625 
L 19.578125 72.90625 
L 36.1875 46.921875 
L 52.78125 72.90625 
L 73.390625 72.90625 
L 45.609375 30.71875 
L 45.609375 0 
L 26.8125 0 
L 26.8125 30.71875 
z
" id="DejaVuSans-Bold-59"/>
     </defs>
     <g transform="translate(87.659263 189.040625)rotate(-90)scale(0.2 -0.2)">
      <use xlink:href="#DejaVuSans-Bold-59"/>
     </g>
    </g>
   </g>
   <g id="line2d_13">
    <path clip-path="url(#p524db43bcf)" d="M 154.213352 283.89163 
L 155.211291 283.098254 
L 160.03447 279.505827 
L 162.845104 277.088542 
L 165.434553 274.568565 
L 168.066697 271.698855 
L 170.681274 268.484139 
L 173.217391 264.966562 
L 175.637605 261.178251 
L 177.901718 257.161253 
L 179.982389 252.969924 
L 181.876164 248.646124 
L 183.60183 244.191753 
L 185.160841 239.607148 
L 186.741142 234.22337 
L 188.097319 228.708391 
L 189.226858 223.098879 
L 190.139295 217.412286 
L 190.841407 211.639775 
L 191.332333 205.796841 
L 191.611613 199.883848 
L 191.671713 193.930922 
L 191.504151 187.962827 
L 191.096088 182.046354 
L 190.467399 176.265203 
L 189.537608 170.011366 
L 188.959281 167.270524 
L 188.67168 165.450915 
L 188.570708 163.802407 
L 188.708512 162.222791 
L 189.085562 160.635176 
L 189.487903 159.748095 
L 189.821554 159.19489 
L 190.066668 158.045978 
L 189.997117 157.023212 
L 189.619662 155.242184 
L 188.92228 152.986725 
L 188.358916 150.979191 
L 188.081264 149.061775 
L 187.942363 146.161989 
L 187.997273 144.09771 
L 189.029016 133.593766 
L 189.110292 126.470699 
L 189.238518 123.828034 
L 189.628085 120.17648 
L 190.076915 117.248142 
L 191.031082 110.696855 
L 191.724636 106.872302 
L 192.405118 104.305922 
L 193.864204 99.507572 
L 194.886464 96.682913 
L 195.076199 96.021047 
L 195.076199 96.021047 
" style="fill:none;stroke:#000000;stroke-linecap:square;stroke-width:1.5;"/>
   </g>
   <g id="line2d_14">
    <path clip-path="url(#p524db43bcf)" d="M 154.213352 283.89163 
L 154.767204 283.376917 
L 156.940774 281.767037 
L 160.225617 279.230045 
L 163.027457 276.781524 
L 165.599302 274.230748 
L 168.188532 271.354616 
L 170.757936 268.141792 
L 173.23846 264.644888 
L 175.629638 260.896746 
L 177.565778 257.472989 
L 179.636328 253.313567 
L 181.525608 249.040559 
L 183.485325 243.987749 
L 185.292879 238.72784 
L 186.975178 233.140211 
L 188.302951 227.999778 
L 189.461763 222.677464 
L 190.542092 216.610713 
L 191.245103 211.35493 
L 191.65973 206.834064 
L 191.926699 201.606702 
L 191.986451 195.795383 
L 191.817626 188.662948 
L 191.491393 183.764376 
L 190.919029 179.03309 
L 189.827165 171.82743 
L 189.003847 167.470485 
L 187.419546 162.504755 
L 185.923876 157.520917 
L 185.293107 154.663273 
L 185.016345 152.470017 
L 184.896854 149.332622 
L 184.941825 141.588629 
L 184.759893 138.86904 
L 184.976944 129.711533 
L 185.367482 128.074738 
L 186.807551 123.688378 
L 187.907108 120.707165 
L 188.542763 117.812137 
L 190.15048 110.740019 
L 190.836813 108.919721 
L 191.478578 107.192091 
L 192.246086 103.965179 
L 192.785364 101.587444 
L 193.793064 99.575416 
L 194.18656 99.160487 
L 194.72792 98.926005 
L 196.995181 98.449943 
L 197.122807 98.464201 
L 197.122807 98.464201 
" style="fill:none;stroke:#ff0000;stroke-linecap:square;stroke-width:1.5;"/>
   </g>
   <g id="line2d_15">
    <path clip-path="url(#p524db43bcf)" d="M 154.213352 283.89163 
L 155.120934 283.165592 
L 160.917249 278.686976 
L 163.750362 276.141401 
L 166.375289 273.493846 
L 169.058864 270.463024 
L 171.74039 267.059443 
L 173.976673 263.863185 
L 176.09009 260.465503 
L 178.02171 256.940194 
L 180.026182 252.777949 
L 182.067361 247.966188 
L 184.187308 242.361042 
L 185.713692 237.849716 
L 187.061171 233.064879 
L 188.363329 227.524502 
L 189.631281 221.130472 
L 190.567218 215.209431 
L 191.214663 209.875855 
L 191.57297 205.278227 
L 191.812551 198.79202 
L 191.777153 193.852525 
L 191.492763 187.573556 
L 191.101155 182.681107 
L 190.347109 176.56539 
L 189.396609 170.568181 
L 188.196267 164.754141 
L 186.717074 158.142567 
L 185.590804 152.836728 
L 185.141477 149.591403 
L 184.697572 144.633317 
L 184.239337 138.660627 
L 184.011316 135.238061 
L 183.981272 131.998608 
L 184.203495 130.472952 
L 185.28291 125.725393 
L 185.808265 124.194137 
L 187.616365 119.844406 
L 188.534499 116.635506 
L 189.302718 113.153345 
L 190.019078 111.19195 
L 190.694347 109.939791 
L 191.601272 108.706999 
L 192.178489 107.777021 
L 193.489336 104.476417 
L 194.199794 102.064429 
L 195.58788 97.261331 
L 195.942452 95.435174 
L 196.23656 94.591178 
L 196.23656 94.591178 
" style="fill:none;stroke:#008000;stroke-linecap:square;stroke-width:1.5;"/>
   </g>
   <g id="line2d_16">
    <path clip-path="url(#p524db43bcf)" d="M 154.213352 283.89163 
L 154.818864 283.377317 
L 161.628317 278.161212 
L 164.182326 275.820407 
L 166.825766 273.101732 
L 169.477269 270.027867 
L 172.076474 266.629773 
L 174.578792 262.939629 
L 176.94691 258.990585 
L 179.138374 254.835253 
L 181.145597 250.528914 
L 182.983871 246.07147 
L 184.650317 241.473082 
L 186.138635 236.755137 
L 187.449473 231.933786 
L 188.573682 227.042592 
L 189.635245 221.399832 
L 190.464518 215.709394 
L 191.074345 209.986605 
L 191.47446 204.219591 
L 191.65003 198.432486 
L 191.615538 191.899731 
L 191.359312 186.042212 
L 190.865172 180.224266 
L 190.143462 174.561185 
L 189.213821 169.071728 
L 188.378667 165.099 
L 186.280271 156.519455 
L 183.864798 147.478711 
L 183.424505 144.422633 
L 183.150158 140.551746 
L 183.115543 138.087321 
L 183.534748 135.252135 
L 185.744492 121.644642 
L 186.557158 118.599167 
L 189.847596 107.802099 
L 190.811102 105.273176 
L 192.926404 100.81876 
L 196.43822 94.911894 
L 196.655655 94.201241 
L 196.655655 94.201241 
" style="fill:none;stroke:#0000ff;stroke-linecap:square;stroke-width:1.5;"/>
   </g>
   <g id="patch_6">
    <path d="M 139.242857 320.4 
L 139.242857 43.2 
" style="fill:none;stroke:#000000;stroke-linecap:square;stroke-linejoin:miter;stroke-width:0.8;"/>
   </g>
   <g id="patch_7">
    <path d="M 229.757143 320.4 
L 229.757143 43.2 
" style="fill:none;stroke:#000000;stroke-linecap:square;stroke-linejoin:miter;stroke-width:0.8;"/>
   </g>
   <g id="patch_8">
    <path d="M 139.242857 320.4 
L 229.757143 320.4 
" style="fill:none;stroke:#000000;stroke-linecap:square;stroke-linejoin:miter;stroke-width:0.8;"/>
   </g>
   <g id="patch_9">
    <path d="M 139.242857 43.2 
L 229.757143 43.2 
" style="fill:none;stroke:#000000;stroke-linecap:square;stroke-linejoin:miter;stroke-width:0.8;"/>
   </g>
  </g>
  <g id="legend_1">
   <g id="patch_10">
    <path d="M 252.889062 210.85625 
L 353 210.85625 
Q 355 210.85625 355 208.85625 
L 355 151.14375 
Q 355 149.14375 353 149.14375 
L 252.889062 149.14375 
Q 250.889062 149.14375 250.889062 151.14375 
L 250.889062 208.85625 
Q 250.889062 210.85625 252.889062 210.85625 
z
" style="fill:#ffffff;opacity:0.8;stroke:#cccccc;stroke-linejoin:miter;"/>
   </g>
   <g id="line2d_17">
    <path d="M 254.889062 157.242188 
L 274.889063 157.242188 
" style="fill:none;stroke:#000000;stroke-linecap:square;stroke-width:1.5;"/>
   </g>
   <g id="line2d_18"/>
   <g id="text_15">
    <!-- Previous Traj. -->
    <defs>
     <path d="M 19.671875 64.796875 
L 19.671875 37.40625 
L 32.078125 37.40625 
Q 38.96875 37.40625 42.71875 40.96875 
Q 46.484375 44.53125 46.484375 51.125 
Q 46.484375 57.671875 42.71875 61.234375 
Q 38.96875 64.796875 32.078125 64.796875 
z
M 9.8125 72.90625 
L 32.078125 72.90625 
Q 44.34375 72.90625 50.609375 67.359375 
Q 56.890625 61.8125 56.890625 51.125 
Q 56.890625 40.328125 50.609375 34.8125 
Q 44.34375 29.296875 32.078125 29.296875 
L 19.671875 29.296875 
L 19.671875 0 
L 9.8125 0 
z
" id="DejaVuSans-50"/>
     <path d="M 41.109375 46.296875 
Q 39.59375 47.171875 37.8125 47.578125 
Q 36.03125 48 33.890625 48 
Q 26.265625 48 22.1875 43.046875 
Q 18.109375 38.09375 18.109375 28.8125 
L 18.109375 0 
L 9.078125 0 
L 9.078125 54.6875 
L 18.109375 54.6875 
L 18.109375 46.1875 
Q 20.953125 51.171875 25.484375 53.578125 
Q 30.03125 56 36.53125 56 
Q 37.453125 56 38.578125 55.875 
Q 39.703125 55.765625 41.0625 55.515625 
z
" id="DejaVuSans-72"/>
     <path d="M 56.203125 29.59375 
L 56.203125 25.203125 
L 14.890625 25.203125 
Q 15.484375 15.921875 20.484375 11.0625 
Q 25.484375 6.203125 34.421875 6.203125 
Q 39.59375 6.203125 44.453125 7.46875 
Q 49.3125 8.734375 54.109375 11.28125 
L 54.109375 2.78125 
Q 49.265625 0.734375 44.1875 -0.34375 
Q 39.109375 -1.421875 33.890625 -1.421875 
Q 20.796875 -1.421875 13.15625 6.1875 
Q 5.515625 13.8125 5.515625 26.8125 
Q 5.515625 40.234375 12.765625 48.109375 
Q 20.015625 56 32.328125 56 
Q 43.359375 56 49.78125 48.890625 
Q 56.203125 41.796875 56.203125 29.59375 
z
M 47.21875 32.234375 
Q 47.125 39.59375 43.09375 43.984375 
Q 39.0625 48.390625 32.421875 48.390625 
Q 24.90625 48.390625 20.390625 44.140625 
Q 15.875 39.890625 15.1875 32.171875 
z
" id="DejaVuSans-65"/>
     <path d="M 2.984375 54.6875 
L 12.5 54.6875 
L 29.59375 8.796875 
L 46.6875 54.6875 
L 56.203125 54.6875 
L 35.6875 0 
L 23.484375 0 
z
" id="DejaVuSans-76"/>
     <path d="M 9.421875 54.6875 
L 18.40625 54.6875 
L 18.40625 0 
L 9.421875 0 
z
M 9.421875 75.984375 
L 18.40625 75.984375 
L 18.40625 64.59375 
L 9.421875 64.59375 
z
" id="DejaVuSans-69"/>
     <path d="M 30.609375 48.390625 
Q 23.390625 48.390625 19.1875 42.75 
Q 14.984375 37.109375 14.984375 27.296875 
Q 14.984375 17.484375 19.15625 11.84375 
Q 23.34375 6.203125 30.609375 6.203125 
Q 37.796875 6.203125 41.984375 11.859375 
Q 46.1875 17.53125 46.1875 27.296875 
Q 46.1875 37.015625 41.984375 42.703125 
Q 37.796875 48.390625 30.609375 48.390625 
z
M 30.609375 56 
Q 42.328125 56 49.015625 48.375 
Q 55.71875 40.765625 55.71875 27.296875 
Q 55.71875 13.875 49.015625 6.21875 
Q 42.328125 -1.421875 30.609375 -1.421875 
Q 18.84375 -1.421875 12.171875 6.21875 
Q 5.515625 13.875 5.515625 27.296875 
Q 5.515625 40.765625 12.171875 48.375 
Q 18.84375 56 30.609375 56 
z
" id="DejaVuSans-6f"/>
     <path d="M 8.5 21.578125 
L 8.5 54.6875 
L 17.484375 54.6875 
L 17.484375 21.921875 
Q 17.484375 14.15625 20.5 10.265625 
Q 23.53125 6.390625 29.59375 6.390625 
Q 36.859375 6.390625 41.078125 11.03125 
Q 45.3125 15.671875 45.3125 23.6875 
L 45.3125 54.6875 
L 54.296875 54.6875 
L 54.296875 0 
L 45.3125 0 
L 45.3125 8.40625 
Q 42.046875 3.421875 37.71875 1 
Q 33.40625 -1.421875 27.6875 -1.421875 
Q 18.265625 -1.421875 13.375 4.4375 
Q 8.5 10.296875 8.5 21.578125 
z
M 31.109375 56 
z
" id="DejaVuSans-75"/>
     <path d="M 44.28125 53.078125 
L 44.28125 44.578125 
Q 40.484375 46.53125 36.375 47.5 
Q 32.28125 48.484375 27.875 48.484375 
Q 21.1875 48.484375 17.84375 46.4375 
Q 14.5 44.390625 14.5 40.28125 
Q 14.5 37.15625 16.890625 35.375 
Q 19.28125 33.59375 26.515625 31.984375 
L 29.59375 31.296875 
Q 39.15625 29.25 43.1875 25.515625 
Q 47.21875 21.78125 47.21875 15.09375 
Q 47.21875 7.46875 41.1875 3.015625 
Q 35.15625 -1.421875 24.609375 -1.421875 
Q 20.21875 -1.421875 15.453125 -0.5625 
Q 10.6875 0.296875 5.421875 2 
L 5.421875 11.28125 
Q 10.40625 8.6875 15.234375 7.390625 
Q 20.0625 6.109375 24.8125 6.109375 
Q 31.15625 6.109375 34.5625 8.28125 
Q 37.984375 10.453125 37.984375 14.40625 
Q 37.984375 18.0625 35.515625 20.015625 
Q 33.0625 21.96875 24.703125 23.78125 
L 21.578125 24.515625 
Q 13.234375 26.265625 9.515625 29.90625 
Q 5.8125 33.546875 5.8125 39.890625 
Q 5.8125 47.609375 11.28125 51.796875 
Q 16.75 56 26.8125 56 
Q 31.78125 56 36.171875 55.265625 
Q 40.578125 54.546875 44.28125 53.078125 
z
" id="DejaVuSans-73"/>
     <path id="DejaVuSans-20"/>
     <path d="M -0.296875 72.90625 
L 61.375 72.90625 
L 61.375 64.59375 
L 35.5 64.59375 
L 35.5 0 
L 25.59375 0 
L 25.59375 64.59375 
L -0.296875 64.59375 
z
" id="DejaVuSans-54"/>
     <path d="M 34.28125 27.484375 
Q 23.390625 27.484375 19.1875 25 
Q 14.984375 22.515625 14.984375 16.5 
Q 14.984375 11.71875 18.140625 8.90625 
Q 21.296875 6.109375 26.703125 6.109375 
Q 34.1875 6.109375 38.703125 11.40625 
Q 43.21875 16.703125 43.21875 25.484375 
L 43.21875 27.484375 
z
M 52.203125 31.203125 
L 52.203125 0 
L 43.21875 0 
L 43.21875 8.296875 
Q 40.140625 3.328125 35.546875 0.953125 
Q 30.953125 -1.421875 24.3125 -1.421875 
Q 15.921875 -1.421875 10.953125 3.296875 
Q 6 8.015625 6 15.921875 
Q 6 25.140625 12.171875 29.828125 
Q 18.359375 34.515625 30.609375 34.515625 
L 43.21875 34.515625 
L 43.21875 35.40625 
Q 43.21875 41.609375 39.140625 45 
Q 35.0625 48.390625 27.6875 48.390625 
Q 23 48.390625 18.546875 47.265625 
Q 14.109375 46.140625 10.015625 43.890625 
L 10.015625 52.203125 
Q 14.9375 54.109375 19.578125 55.046875 
Q 24.21875 56 28.609375 56 
Q 40.484375 56 46.34375 49.84375 
Q 52.203125 43.703125 52.203125 31.203125 
z
" id="DejaVuSans-61"/>
     <path d="M 9.421875 54.6875 
L 18.40625 54.6875 
L 18.40625 -0.984375 
Q 18.40625 -11.421875 14.421875 -16.109375 
Q 10.453125 -20.796875 1.609375 -20.796875 
L -1.8125 -20.796875 
L -1.8125 -13.1875 
L 0.59375 -13.1875 
Q 5.71875 -13.1875 7.5625 -10.8125 
Q 9.421875 -8.453125 9.421875 -0.984375 
z
M 9.421875 75.984375 
L 18.40625 75.984375 
L 18.40625 64.59375 
L 9.421875 64.59375 
z
" id="DejaVuSans-6a"/>
    </defs>
    <g transform="translate(282.889063 160.742188)scale(0.1 -0.1)">
     <use xlink:href="#DejaVuSans-50"/>
     <use x="60.287109" xlink:href="#DejaVuSans-72"/>
     <use x="101.369141" xlink:href="#DejaVuSans-65"/>
     <use x="162.892578" xlink:href="#DejaVuSans-76"/>
     <use x="222.072266" xlink:href="#DejaVuSans-69"/>
     <use x="249.855469" xlink:href="#DejaVuSans-6f"/>
     <use x="311.037109" xlink:href="#DejaVuSans-75"/>
     <use x="374.416016" xlink:href="#DejaVuSans-73"/>
     <use x="426.515625" xlink:href="#DejaVuSans-20"/>
     <use x="458.302734" xlink:href="#DejaVuSans-54"/>
     <use x="519.167969" xlink:href="#DejaVuSans-72"/>
     <use x="560.28125" xlink:href="#DejaVuSans-61"/>
     <use x="621.560547" xlink:href="#DejaVuSans-6a"/>
     <use x="649.34375" xlink:href="#DejaVuSans-2e"/>
    </g>
   </g>
   <g id="line2d_19">
    <path d="M 254.889062 171.920312 
L 274.889063 171.920312 
" style="fill:none;stroke:#ff0000;stroke-linecap:square;stroke-width:1.5;"/>
   </g>
   <g id="line2d_20"/>
   <g id="text_16">
    <!-- Bad Traj. -->
    <defs>
     <path d="M 19.671875 34.8125 
L 19.671875 8.109375 
L 35.5 8.109375 
Q 43.453125 8.109375 47.28125 11.40625 
Q 51.125 14.703125 51.125 21.484375 
Q 51.125 28.328125 47.28125 31.5625 
Q 43.453125 34.8125 35.5 34.8125 
z
M 19.671875 64.796875 
L 19.671875 42.828125 
L 34.28125 42.828125 
Q 41.5 42.828125 45.03125 45.53125 
Q 48.578125 48.25 48.578125 53.8125 
Q 48.578125 59.328125 45.03125 62.0625 
Q 41.5 64.796875 34.28125 64.796875 
z
M 9.8125 72.90625 
L 35.015625 72.90625 
Q 46.296875 72.90625 52.390625 68.21875 
Q 58.5 63.53125 58.5 54.890625 
Q 58.5 48.1875 55.375 44.234375 
Q 52.25 40.28125 46.1875 39.3125 
Q 53.46875 37.75 57.5 32.78125 
Q 61.53125 27.828125 61.53125 20.40625 
Q 61.53125 10.640625 54.890625 5.3125 
Q 48.25 0 35.984375 0 
L 9.8125 0 
z
" id="DejaVuSans-42"/>
     <path d="M 45.40625 46.390625 
L 45.40625 75.984375 
L 54.390625 75.984375 
L 54.390625 0 
L 45.40625 0 
L 45.40625 8.203125 
Q 42.578125 3.328125 38.25 0.953125 
Q 33.9375 -1.421875 27.875 -1.421875 
Q 17.96875 -1.421875 11.734375 6.484375 
Q 5.515625 14.40625 5.515625 27.296875 
Q 5.515625 40.1875 11.734375 48.09375 
Q 17.96875 56 27.875 56 
Q 33.9375 56 38.25 53.625 
Q 42.578125 51.265625 45.40625 46.390625 
z
M 14.796875 27.296875 
Q 14.796875 17.390625 18.875 11.75 
Q 22.953125 6.109375 30.078125 6.109375 
Q 37.203125 6.109375 41.296875 11.75 
Q 45.40625 17.390625 45.40625 27.296875 
Q 45.40625 37.203125 41.296875 42.84375 
Q 37.203125 48.484375 30.078125 48.484375 
Q 22.953125 48.484375 18.875 42.84375 
Q 14.796875 37.203125 14.796875 27.296875 
z
" id="DejaVuSans-64"/>
    </defs>
    <g transform="translate(282.889063 175.420312)scale(0.1 -0.1)">
     <use xlink:href="#DejaVuSans-42"/>
     <use x="68.603516" xlink:href="#DejaVuSans-61"/>
     <use x="129.882812" xlink:href="#DejaVuSans-64"/>
     <use x="193.359375" xlink:href="#DejaVuSans-20"/>
     <use x="225.146484" xlink:href="#DejaVuSans-54"/>
     <use x="286.011719" xlink:href="#DejaVuSans-72"/>
     <use x="327.125" xlink:href="#DejaVuSans-61"/>
     <use x="388.404297" xlink:href="#DejaVuSans-6a"/>
     <use x="416.1875" xlink:href="#DejaVuSans-2e"/>
    </g>
   </g>
   <g id="line2d_21">
    <path d="M 254.889062 186.598437 
L 274.889063 186.598437 
" style="fill:none;stroke:#008000;stroke-linecap:square;stroke-width:1.5;"/>
   </g>
   <g id="line2d_22"/>
   <g id="text_17">
    <!-- Good Traj. -->
    <defs>
     <path d="M 59.515625 10.40625 
L 59.515625 29.984375 
L 43.40625 29.984375 
L 43.40625 38.09375 
L 69.28125 38.09375 
L 69.28125 6.78125 
Q 63.578125 2.734375 56.6875 0.65625 
Q 49.8125 -1.421875 42 -1.421875 
Q 24.90625 -1.421875 15.25 8.5625 
Q 5.609375 18.5625 5.609375 36.375 
Q 5.609375 54.25 15.25 64.234375 
Q 24.90625 74.21875 42 74.21875 
Q 49.125 74.21875 55.546875 72.453125 
Q 61.96875 70.703125 67.390625 67.28125 
L 67.390625 56.78125 
Q 61.921875 61.421875 55.765625 63.765625 
Q 49.609375 66.109375 42.828125 66.109375 
Q 29.4375 66.109375 22.71875 58.640625 
Q 16.015625 51.171875 16.015625 36.375 
Q 16.015625 21.625 22.71875 14.15625 
Q 29.4375 6.6875 42.828125 6.6875 
Q 48.046875 6.6875 52.140625 7.59375 
Q 56.25 8.5 59.515625 10.40625 
z
" id="DejaVuSans-47"/>
    </defs>
    <g transform="translate(282.889063 190.098437)scale(0.1 -0.1)">
     <use xlink:href="#DejaVuSans-47"/>
     <use x="77.490234" xlink:href="#DejaVuSans-6f"/>
     <use x="138.671875" xlink:href="#DejaVuSans-6f"/>
     <use x="199.853516" xlink:href="#DejaVuSans-64"/>
     <use x="263.330078" xlink:href="#DejaVuSans-20"/>
     <use x="295.117188" xlink:href="#DejaVuSans-54"/>
     <use x="355.982422" xlink:href="#DejaVuSans-72"/>
     <use x="397.095703" xlink:href="#DejaVuSans-61"/>
     <use x="458.375" xlink:href="#DejaVuSans-6a"/>
     <use x="486.158203" xlink:href="#DejaVuSans-2e"/>
    </g>
   </g>
   <g id="line2d_23">
    <path d="M 254.889062 201.276563 
L 274.889063 201.276563 
" style="fill:none;stroke:#0000ff;stroke-linecap:square;stroke-width:1.5;"/>
   </g>
   <g id="line2d_24"/>
   <g id="text_18">
    <!-- Updated Traj. -->
    <defs>
     <path d="M 8.6875 72.90625 
L 18.609375 72.90625 
L 18.609375 28.609375 
Q 18.609375 16.890625 22.84375 11.734375 
Q 27.09375 6.59375 36.625 6.59375 
Q 46.09375 6.59375 50.34375 11.734375 
Q 54.59375 16.890625 54.59375 28.609375 
L 54.59375 72.90625 
L 64.5 72.90625 
L 64.5 27.390625 
Q 64.5 13.140625 57.4375 5.859375 
Q 50.390625 -1.421875 36.625 -1.421875 
Q 22.796875 -1.421875 15.734375 5.859375 
Q 8.6875 13.140625 8.6875 27.390625 
z
" id="DejaVuSans-55"/>
     <path d="M 18.109375 8.203125 
L 18.109375 -20.796875 
L 9.078125 -20.796875 
L 9.078125 54.6875 
L 18.109375 54.6875 
L 18.109375 46.390625 
Q 20.953125 51.265625 25.265625 53.625 
Q 29.59375 56 35.59375 56 
Q 45.5625 56 51.78125 48.09375 
Q 58.015625 40.1875 58.015625 27.296875 
Q 58.015625 14.40625 51.78125 6.484375 
Q 45.5625 -1.421875 35.59375 -1.421875 
Q 29.59375 -1.421875 25.265625 0.953125 
Q 20.953125 3.328125 18.109375 8.203125 
z
M 48.6875 27.296875 
Q 48.6875 37.203125 44.609375 42.84375 
Q 40.53125 48.484375 33.40625 48.484375 
Q 26.265625 48.484375 22.1875 42.84375 
Q 18.109375 37.203125 18.109375 27.296875 
Q 18.109375 17.390625 22.1875 11.75 
Q 26.265625 6.109375 33.40625 6.109375 
Q 40.53125 6.109375 44.609375 11.75 
Q 48.6875 17.390625 48.6875 27.296875 
z
" id="DejaVuSans-70"/>
     <path d="M 18.3125 70.21875 
L 18.3125 54.6875 
L 36.8125 54.6875 
L 36.8125 47.703125 
L 18.3125 47.703125 
L 18.3125 18.015625 
Q 18.3125 11.328125 20.140625 9.421875 
Q 21.96875 7.515625 27.59375 7.515625 
L 36.8125 7.515625 
L 36.8125 0 
L 27.59375 0 
Q 17.1875 0 13.234375 3.875 
Q 9.28125 7.765625 9.28125 18.015625 
L 9.28125 47.703125 
L 2.6875 47.703125 
L 2.6875 54.6875 
L 9.28125 54.6875 
L 9.28125 70.21875 
z
" id="DejaVuSans-74"/>
    </defs>
    <g transform="translate(282.889063 204.776563)scale(0.1 -0.1)">
     <use xlink:href="#DejaVuSans-55"/>
     <use x="73.193359" xlink:href="#DejaVuSans-70"/>
     <use x="136.669922" xlink:href="#DejaVuSans-64"/>
     <use x="200.146484" xlink:href="#DejaVuSans-61"/>
     <use x="261.425781" xlink:href="#DejaVuSans-74"/>
     <use x="300.634766" xlink:href="#DejaVuSans-65"/>
     <use x="362.158203" xlink:href="#DejaVuSans-64"/>
     <use x="425.634766" xlink:href="#DejaVuSans-20"/>
     <use x="457.421875" xlink:href="#DejaVuSans-54"/>
     <use x="518.287109" xlink:href="#DejaVuSans-72"/>
     <use x="559.400391" xlink:href="#DejaVuSans-61"/>
     <use x="620.679688" xlink:href="#DejaVuSans-6a"/>
     <use x="648.462891" xlink:href="#DejaVuSans-2e"/>
    </g>
   </g>
  </g>
 </g>
 <defs>
  <clipPath id="p524db43bcf">
   <rect height="277.2" width="90.514286" x="139.242857" y="43.2"/>
  </clipPath>
 </defs>
</svg>
