<?xml version="1.0" encoding="utf-8" standalone="no"?>
<!DOCTYPE svg PUBLIC "-//W3C//DTD SVG 1.1//EN"
  "http://www.w3.org/Graphics/SVG/1.1/DTD/svg11.dtd">
<!-- Created with matplotlib (http://matplotlib.org/) -->
<svg height="360pt" version="1.1" viewBox="0 0 360 360" width="360pt" xmlns="http://www.w3.org/2000/svg" xmlns:xlink="http://www.w3.org/1999/xlink">
 <defs>
  <style type="text/css">
*{stroke-linecap:butt;stroke-linejoin:round;}
  </style>
 </defs>
 <g id="figure_1">
  <g id="patch_1">
   <path d="M 0 360 
L 360 360 
L 360 0 
L 0 0 
z
" style="fill:#ffffff;"/>
  </g>
  <g id="axes_1">
   <g id="patch_2">
    <path d="M 45.9 320.4 
L 323.1 320.4 
L 323.1 43.2 
L 45.9 43.2 
z
" style="fill:#eaeaf2;"/>
   </g>
   <g id="patch_3">
    <path clip-path="url(#pa713dc9e6b)" d="M 160.1064 -124.2288 
C 163.782115 -124.2288 167.307777 -125.689177 169.9069 -128.2883 
C 172.506023 -130.887423 173.9664 -134.413085 173.9664 -138.0888 
C 173.9664 -141.764515 172.506023 -145.290177 169.9069 -147.8893 
C 167.307777 -150.488423 163.782115 -151.9488 160.1064 -151.9488 
C 156.430685 -151.9488 152.905023 -150.488423 150.3059 -147.8893 
C 147.706777 -145.290177 146.2464 -141.764515 146.2464 -138.0888 
C 146.2464 -134.413085 147.706777 -130.887423 150.3059 -128.2883 
C 152.905023 -125.689177 156.430685 -124.2288 160.1064 -124.2288 
z
" style="fill:#008000;opacity:0.6;stroke:#000000;stroke-linejoin:miter;"/>
   </g>
   <g id="patch_4">
    <path clip-path="url(#pa713dc9e6b)" d="M 184.5 285.75 
C 212.067862 285.75 238.510328 274.797172 258.00375 255.30375 
C 277.497172 235.810328 288.45 209.367862 288.45 181.8 
C 288.45 154.232138 277.497172 127.789672 258.00375 108.29625 
C 238.510328 88.802828 212.067862 77.85 184.5 77.85 
C 156.932138 77.85 130.489672 88.802828 110.99625 108.29625 
C 91.502828 127.789672 80.55 154.232138 80.55 181.8 
C 80.55 209.367862 91.502828 235.810328 110.99625 255.30375 
C 130.489672 274.797172 156.932138 285.75 184.5 285.75 
z
" style="opacity:0.1;stroke:#000000;stroke-linejoin:miter;"/>
   </g>
   <g id="patch_5">
    <path clip-path="url(#pa713dc9e6b)" d="M 184.5 216.45 
C 193.689287 216.45 202.503443 212.799057 209.00125 206.30125 
C 215.499057 199.803443 219.15 190.989287 219.15 181.8 
C 219.15 172.610713 215.499057 163.796557 209.00125 157.29875 
C 202.503443 150.800943 193.689287 147.15 184.5 147.15 
C 175.310713 147.15 166.496557 150.800943 159.99875 157.29875 
C 153.500943 163.796557 149.85 172.610713 149.85 181.8 
C 149.85 190.989287 153.500943 199.803443 159.99875 206.30125 
C 166.496557 212.799057 175.310713 216.45 184.5 216.45 
z
" style="fill:#ff0000;opacity:0.2;stroke:#ff0000;stroke-linejoin:miter;"/>
   </g>
   <g id="line2d_1">
    <path clip-path="url(#pa713dc9e6b)" d="M 112.192139 361 
L 112.722427 354.149825 
L 113.241229 344.952305 
L 113.541214 335.726858 
L 113.63337 326.480288 
L 113.51455 317.212489 
L 113.182473 307.926856 
L 112.643136 298.62445 
L 111.899963 289.299585 
L 110.94002 279.953035 
L 109.748183 270.598389 
L 108.316275 261.256082 
L 106.640471 251.947025 
L 104.719144 242.690905 
L 102.581414 233.519375 
L 100.261567 224.463019 
L 96.919 212.595474 
L 94.410523 204.102077 
L 91.63217 195.625414 
L 87.680437 184.511537 
L 82.613899 171.025159 
L 78.507731 160.571946 
L 75.282687 152.901331 
L 70.784083 142.892743 
L 67.264094 135.554511 
L 59.19187 119.19025 
L 56.291696 112.553842 
L 52.86526 104.077055 
L 50.696748 98.022215 
L 48.858185 92.205461 
L 46.709679 84.824869 
L 45.302259 81.188672 
L 40.623326 70.57205 
L 38.243837 65.421312 
L 34.232902 56.951879 
L 33.642847 55.295705 
L 33.21851 53.661137 
L 33.011113 52.05417 
L 33.034719 50.483265 
L 33.248851 48.959848 
L 33.639766 47.484768 
L 34.175124 46.053052 
L 35.533796 43.30322 
L 37.122558 40.687678 
L 39.73407 36.979012 
L 42.498129 33.486102 
L 46.316551 29.098177 
L 55.459946 18.91314 
L 57.045535 16.924714 
L 58.399864 14.904555 
L 61.383007 9.775445 
L 66.792646 1.63628 
L 68.888366 -1 
L 68.888366 -1 
" style="fill:none;stroke:#000000;stroke-linecap:square;stroke-width:1.5;"/>
   </g>
   <g id="line2d_2">
    <path clip-path="url(#pa713dc9e6b)" d="M 114.768475 361 
L 115.053489 348.857685 
L 115.188553 332.162854 
L 115.078366 320.616366 
L 114.814377 311.743685 
L 114.367644 302.727277 
L 113.721027 293.602227 
L 112.861188 284.401028 
L 111.77779 275.153423 
L 110.463073 265.886592 
L 108.911529 256.625397 
L 107.119631 247.392599 
L 105.085581 238.209059 
L 102.8091 229.093919 
L 100.291233 220.064755 
L 96.650269 208.215357 
L 92.967138 196.708069 
L 85.485498 174.678009 
L 82.22058 166.647796 
L 79.879868 161.359366 
L 76.128412 153.533911 
L 72.179518 145.858764 
L 65.742607 133.498289 
L 62.369328 126.40735 
L 54.374987 108.494643 
L 47.304977 93.848475 
L 44.65036 87.953716 
L 43.280027 84.183106 
L 42.771943 82.352833 
L 42.405496 80.561767 
L 42.194826 78.811689 
L 42.147572 77.103644 
L 42.266067 75.437616 
L 42.855078 72.249015 
L 43.769725 69.237317 
L 47.062596 59.823452 
L 47.446841 57.249042 
L 47.484531 54.639501 
L 47.118199 47.871471 
L 47.20994 45.146848 
L 47.532224 42.459355 
L 48.095564 39.827153 
L 48.896238 37.263799 
L 51.029331 31.144443 
L 51.576761 28.759713 
L 52.049477 25.185827 
L 52.481273 21.594222 
L 52.92053 19.193015 
L 53.593036 16.796221 
L 54.55575 14.427324 
L 55.758981 12.113024 
L 57.155273 9.85585 
L 62.859189 1.197674 
L 63.86739 -1 
L 63.86739 -1 
" style="fill:none;stroke:#ff0000;stroke-linecap:square;stroke-width:1.5;"/>
   </g>
   <g id="line2d_3">
    <path clip-path="url(#pa713dc9e6b)" d="M 111.583965 361 
L 111.904356 353.321838 
L 112.159443 341.836626 
L 112.249408 327.305073 
L 112.058263 315.390899 
L 111.700877 306.302508 
L 111.139102 297.117414 
L 110.359996 287.866088 
L 109.353809 278.576772 
L 108.113328 269.275389 
L 106.633525 259.985705 
L 104.91127 250.729523 
L 102.945103 241.526868 
L 100.735016 232.396149 
L 98.28228 223.354301 
L 95.589273 214.416922 
L 92.659348 205.598386 
L 89.496704 196.911945 
L 85.183659 185.625896 
L 83.312402 180.201234 
L 80.451578 172.262305 
L 77.976752 164.66236 
L 75.917428 157.422944 
L 74.819937 152.818184 
L 73.949688 148.396541 
L 71.459962 133.941401 
L 70.331242 129.876078 
L 68.836632 125.748903 
L 66.953779 121.549687 
L 64.763857 117.29692 
L 54.585222 98.58458 
L 52.779294 94.643917 
L 51.242026 90.798984 
L 49.277878 85.195736 
L 47.015379 78.0127 
L 46.076482 74.544398 
L 45.335608 71.161528 
L 44.830267 67.864246 
L 44.571667 64.650161 
L 44.551063 61.513207 
L 44.769764 58.453941 
L 45.206423 55.481159 
L 45.858147 52.614603 
L 46.322369 51.235205 
L 46.895746 49.894872 
L 48.333342 47.3253 
L 50.006439 44.878411 
L 52.733086 41.400142 
L 58.986217 33.877104 
L 60.262728 31.773059 
L 61.242741 29.655836 
L 61.924877 27.510056 
L 62.241044 25.31878 
L 62.189131 23.068332 
L 61.86661 20.760203 
L 61.046632 16.023171 
L 60.873821 13.623788 
L 60.982659 11.220478 
L 61.36097 8.820491 
L 62.289983 5.229251 
L 63.340273 1.664505 
L 64.285489 -1 
L 64.285489 -1 
" style="fill:none;stroke:#008000;stroke-linecap:square;stroke-width:1.5;"/>
   </g>
   <g id="line2d_4">
    <path clip-path="url(#pa713dc9e6b)" d="M 113.094277 361 
L 113.686958 353.160736 
L 114.18473 343.973662 
L 114.472869 334.749656 
L 114.533118 325.501928 
L 114.372007 316.248019 
L 113.998715 306.990699 
L 113.443916 297.716513 
L 112.693685 288.402551 
L 111.720378 279.056088 
L 110.512352 269.698325 
L 109.063614 260.351891 
L 107.370817 251.038236 
L 105.432434 241.777224 
L 103.248418 232.58717 
L 100.819999 223.484955 
L 98.14951 214.486146 
L 94.32875 202.708532 
L 91.28545 194.063004 
L 86.108321 180.063487 
L 85.222363 177.358382 
L 82.072387 169.291807 
L 77.747989 158.780184 
L 73.282885 148.556652 
L 68.665219 138.611404 
L 63.923232 128.939518 
L 54.76431 110.568081 
L 51.819545 104.102742 
L 50.139416 99.950831 
L 47.976131 93.957061 
L 46.086183 88.203725 
L 44.547525 82.670725 
L 43.38046 77.355521 
L 42.803083 73.93144 
L 42.415181 70.598642 
L 42.260354 67.35773 
L 42.362036 64.21303 
L 42.71411 61.166326 
L 43.268063 58.216554 
L 44.307542 53.948741 
L 46.866875 44.474721 
L 47.760089 41.89574 
L 48.813198 39.386735 
L 50.014958 36.947348 
L 52.042594 33.411852 
L 56.795678 25.511727 
L 64.955782 11.4471 
L 68.193257 6.194689 
L 70.845076 2.06231 
L 71.955754 -0.022489 
L 72.416572 -1 
L 72.416572 -1 
" style="fill:none;stroke:#0000ff;stroke-linecap:square;stroke-width:1.5;"/>
   </g>
   <g id="patch_6">
    <path d="M 45.9 320.4 
L 45.9 43.2 
" style="fill:none;stroke:#000000;stroke-linecap:square;stroke-linejoin:miter;stroke-width:0.8;"/>
   </g>
   <g id="patch_7">
    <path d="M 323.1 320.4 
L 323.1 43.2 
" style="fill:none;stroke:#000000;stroke-linecap:square;stroke-linejoin:miter;stroke-width:0.8;"/>
   </g>
   <g id="patch_8">
    <path d="M 45.9 320.4 
L 323.1 320.4 
" style="fill:none;stroke:#000000;stroke-linecap:square;stroke-linejoin:miter;stroke-width:0.8;"/>
   </g>
   <g id="patch_9">
    <path d="M 45.9 43.2 
L 323.1 43.2 
" style="fill:none;stroke:#000000;stroke-linecap:square;stroke-linejoin:miter;stroke-width:0.8;"/>
   </g>
   <g id="text_1">
    <!-- Obstacle -->
    <defs>
     <path d="M 42.484375 60.59375 
Q 33.890625 60.59375 29.15625 54.25 
Q 24.421875 47.90625 24.421875 36.375 
Q 24.421875 24.90625 29.15625 18.546875 
Q 33.890625 12.203125 42.484375 12.203125 
Q 51.125 12.203125 55.859375 18.546875 
Q 60.59375 24.90625 60.59375 36.375 
Q 60.59375 47.90625 55.859375 54.25 
Q 51.125 60.59375 42.484375 60.59375 
z
M 42.484375 74.21875 
Q 60.0625 74.21875 70.015625 64.15625 
Q 79.984375 54.109375 79.984375 36.375 
Q 79.984375 18.703125 70.015625 8.640625 
Q 60.0625 -1.421875 42.484375 -1.421875 
Q 24.953125 -1.421875 14.96875 8.640625 
Q 4.984375 18.703125 4.984375 36.375 
Q 4.984375 54.109375 14.96875 64.15625 
Q 24.953125 74.21875 42.484375 74.21875 
z
" id="DejaVuSans-Bold-4f"/>
     <path d="M 37.5 11.28125 
Q 43.109375 11.28125 46.0625 15.375 
Q 49.03125 19.484375 49.03125 27.296875 
Q 49.03125 35.109375 46.0625 39.203125 
Q 43.109375 43.3125 37.5 43.3125 
Q 31.890625 43.3125 28.875 39.1875 
Q 25.875 35.0625 25.875 27.296875 
Q 25.875 19.53125 28.875 15.40625 
Q 31.890625 11.28125 37.5 11.28125 
z
M 25.875 46.6875 
Q 29.5 51.46875 33.890625 53.734375 
Q 38.28125 56 44 56 
Q 54.109375 56 60.59375 47.96875 
Q 67.09375 39.9375 67.09375 27.296875 
Q 67.09375 14.65625 60.59375 6.609375 
Q 54.109375 -1.421875 44 -1.421875 
Q 38.28125 -1.421875 33.890625 0.84375 
Q 29.5 3.125 25.875 7.90625 
L 25.875 0 
L 8.40625 0 
L 8.40625 75.984375 
L 25.875 75.984375 
z
" id="DejaVuSans-Bold-62"/>
     <path d="M 51.125 52.984375 
L 51.125 39.703125 
Q 45.515625 42.046875 40.28125 43.21875 
Q 35.0625 44.390625 30.421875 44.390625 
Q 25.4375 44.390625 23.015625 43.140625 
Q 20.609375 41.890625 20.609375 39.3125 
Q 20.609375 37.203125 22.4375 36.078125 
Q 24.265625 34.96875 29 34.421875 
L 32.078125 33.984375 
Q 45.515625 32.28125 50.140625 28.375 
Q 54.78125 24.46875 54.78125 16.109375 
Q 54.78125 7.375 48.328125 2.96875 
Q 41.890625 -1.421875 29.109375 -1.421875 
Q 23.6875 -1.421875 17.890625 -0.5625 
Q 12.109375 0.296875 6 2 
L 6 15.28125 
Q 11.234375 12.75 16.71875 11.46875 
Q 22.21875 10.203125 27.875 10.203125 
Q 33.015625 10.203125 35.59375 11.609375 
Q 38.1875 13.03125 38.1875 15.828125 
Q 38.1875 18.171875 36.40625 19.3125 
Q 34.625 20.453125 29.296875 21.09375 
L 26.21875 21.484375 
Q 14.546875 22.953125 9.859375 26.90625 
Q 5.171875 30.859375 5.171875 38.921875 
Q 5.171875 47.609375 11.125 51.796875 
Q 17.09375 56 29.390625 56 
Q 34.234375 56 39.546875 55.265625 
Q 44.875 54.546875 51.125 52.984375 
z
" id="DejaVuSans-Bold-73"/>
     <path d="M 27.484375 70.21875 
L 27.484375 54.6875 
L 45.515625 54.6875 
L 45.515625 42.1875 
L 27.484375 42.1875 
L 27.484375 19 
Q 27.484375 15.1875 29 13.84375 
Q 30.515625 12.5 35.015625 12.5 
L 44 12.5 
L 44 0 
L 29 0 
Q 18.65625 0 14.328125 4.3125 
Q 10.015625 8.640625 10.015625 19 
L 10.015625 42.1875 
L 1.3125 42.1875 
L 1.3125 54.6875 
L 10.015625 54.6875 
L 10.015625 70.21875 
z
" id="DejaVuSans-Bold-74"/>
     <path d="M 32.90625 24.609375 
Q 27.4375 24.609375 24.671875 22.75 
Q 21.921875 20.90625 21.921875 17.28125 
Q 21.921875 13.96875 24.140625 12.078125 
Q 26.375 10.203125 30.328125 10.203125 
Q 35.25 10.203125 38.625 13.734375 
Q 42 17.28125 42 22.609375 
L 42 24.609375 
z
M 59.625 31.203125 
L 59.625 0 
L 42 0 
L 42 8.109375 
Q 38.484375 3.125 34.078125 0.84375 
Q 29.6875 -1.421875 23.390625 -1.421875 
Q 14.890625 -1.421875 9.59375 3.53125 
Q 4.296875 8.5 4.296875 16.40625 
Q 4.296875 26.03125 10.90625 30.515625 
Q 17.53125 35.015625 31.6875 35.015625 
L 42 35.015625 
L 42 36.375 
Q 42 40.53125 38.71875 42.453125 
Q 35.453125 44.390625 28.515625 44.390625 
Q 22.90625 44.390625 18.0625 43.265625 
Q 13.234375 42.140625 9.078125 39.890625 
L 9.078125 53.21875 
Q 14.703125 54.59375 20.359375 55.296875 
Q 26.03125 56 31.6875 56 
Q 46.484375 56 53.046875 50.171875 
Q 59.625 44.34375 59.625 31.203125 
z
" id="DejaVuSans-Bold-61"/>
     <path d="M 52.59375 52.984375 
L 52.59375 38.71875 
Q 49.03125 41.15625 45.4375 42.328125 
Q 41.84375 43.5 37.984375 43.5 
Q 30.671875 43.5 26.59375 39.234375 
Q 22.515625 34.96875 22.515625 27.296875 
Q 22.515625 19.625 26.59375 15.34375 
Q 30.671875 11.078125 37.984375 11.078125 
Q 42.09375 11.078125 45.78125 12.296875 
Q 49.46875 13.53125 52.59375 15.921875 
L 52.59375 1.609375 
Q 48.484375 0.09375 44.265625 -0.65625 
Q 40.046875 -1.421875 35.796875 -1.421875 
Q 21 -1.421875 12.640625 6.171875 
Q 4.296875 13.765625 4.296875 27.296875 
Q 4.296875 40.828125 12.640625 48.40625 
Q 21 56 35.796875 56 
Q 40.09375 56 44.265625 55.25 
Q 48.4375 54.5 52.59375 52.984375 
z
" id="DejaVuSans-Bold-63"/>
     <path d="M 8.40625 75.984375 
L 25.875 75.984375 
L 25.875 0 
L 8.40625 0 
z
" id="DejaVuSans-Bold-6c"/>
     <path d="M 62.984375 27.484375 
L 62.984375 22.515625 
L 22.125 22.515625 
Q 22.75 16.359375 26.5625 13.28125 
Q 30.375 10.203125 37.203125 10.203125 
Q 42.71875 10.203125 48.5 11.84375 
Q 54.296875 13.484375 60.40625 16.796875 
L 60.40625 3.328125 
Q 54.203125 0.984375 48 -0.21875 
Q 41.796875 -1.421875 35.59375 -1.421875 
Q 20.75 -1.421875 12.515625 6.125 
Q 4.296875 13.671875 4.296875 27.296875 
Q 4.296875 40.671875 12.375 48.328125 
Q 20.453125 56 34.625 56 
Q 47.515625 56 55.25 48.234375 
Q 62.984375 40.484375 62.984375 27.484375 
z
M 45.015625 33.296875 
Q 45.015625 38.28125 42.109375 41.328125 
Q 39.203125 44.390625 34.515625 44.390625 
Q 29.4375 44.390625 26.265625 41.53125 
Q 23.09375 38.671875 22.3125 33.296875 
z
" id="DejaVuSans-Bold-65"/>
    </defs>
    <g transform="translate(122.902344 37.2)scale(0.25 -0.25)">
     <use xlink:href="#DejaVuSans-Bold-4f"/>
     <use x="85.009766" xlink:href="#DejaVuSans-Bold-62"/>
     <use x="156.591797" xlink:href="#DejaVuSans-Bold-73"/>
     <use x="216.113281" xlink:href="#DejaVuSans-Bold-74"/>
     <use x="263.916016" xlink:href="#DejaVuSans-Bold-61"/>
     <use x="331.396484" xlink:href="#DejaVuSans-Bold-63"/>
     <use x="390.673828" xlink:href="#DejaVuSans-Bold-6c"/>
     <use x="424.951172" xlink:href="#DejaVuSans-Bold-65"/>
    </g>
   </g>
  </g>
 </g>
 <defs>
  <clipPath id="pa713dc9e6b">
   <rect height="277.2" width="277.2" x="45.9" y="43.2"/>
  </clipPath>
 </defs>
</svg>
