<?xml version="1.0" encoding="utf-8" standalone="no"?>
<!DOCTYPE svg PUBLIC "-//W3C//DTD SVG 1.1//EN"
  "http://www.w3.org/Graphics/SVG/1.1/DTD/svg11.dtd">
<!-- Created with matplotlib (http://matplotlib.org/) -->
<svg height="360pt" version="1.1" viewBox="0 0 360 360" width="360pt" xmlns="http://www.w3.org/2000/svg" xmlns:xlink="http://www.w3.org/1999/xlink">
 <defs>
  <style type="text/css">
*{stroke-linecap:butt;stroke-linejoin:round;}
  </style>
 </defs>
 <g id="figure_1">
  <g id="patch_1">
   <path d="M 0 360 
L 360 360 
L 360 0 
L 0 0 
z
" style="fill:#ffffff;"/>
  </g>
  <g id="axes_1">
   <g id="patch_2">
    <path d="M 45.9 320.4 
L 323.1 320.4 
L 323.1 43.2 
L 45.9 43.2 
z
" style="fill:#eaeaf2;"/>
   </g>
   <g id="patch_3">
    <path clip-path="url(#pc2f6012c69)" d="M 160.1064 -124.2288 
C 163.782115 -124.2288 167.307777 -125.689177 169.9069 -128.2883 
C 172.506023 -130.887423 173.9664 -134.413085 173.9664 -138.0888 
C 173.9664 -141.764515 172.506023 -145.290177 169.9069 -147.8893 
C 167.307777 -150.488423 163.782115 -151.9488 160.1064 -151.9488 
C 156.430685 -151.9488 152.905023 -150.488423 150.3059 -147.8893 
C 147.706777 -145.290177 146.2464 -141.764515 146.2464 -138.0888 
C 146.2464 -134.413085 147.706777 -130.887423 150.3059 -128.2883 
C 152.905023 -125.689177 156.430685 -124.2288 160.1064 -124.2288 
z
" style="fill:#008000;opacity:0.6;stroke:#000000;stroke-linejoin:miter;"/>
   </g>
   <g id="patch_4">
    <path clip-path="url(#pc2f6012c69)" d="M 184.5 285.75 
C 212.067862 285.75 238.510328 274.797172 258.00375 255.30375 
C 277.497172 235.810328 288.45 209.367862 288.45 181.8 
C 288.45 154.232138 277.497172 127.789672 258.00375 108.29625 
C 238.510328 88.802828 212.067862 77.85 184.5 77.85 
C 156.932138 77.85 130.489672 88.802828 110.99625 108.29625 
C 91.502828 127.789672 80.55 154.232138 80.55 181.8 
C 80.55 209.367862 91.502828 235.810328 110.99625 255.30375 
C 130.489672 274.797172 156.932138 285.75 184.5 285.75 
z
" style="opacity:0.1;stroke:#000000;stroke-linejoin:miter;"/>
   </g>
   <g id="patch_5">
    <path clip-path="url(#pc2f6012c69)" d="M 184.5 216.45 
C 193.689287 216.45 202.503443 212.799057 209.00125 206.30125 
C 215.499057 199.803443 219.15 190.989287 219.15 181.8 
C 219.15 172.610713 215.499057 163.796557 209.00125 157.29875 
C 202.503443 150.800943 193.689287 147.15 184.5 147.15 
C 175.310713 147.15 166.496557 150.800943 159.99875 157.29875 
C 153.500943 163.796557 149.85 172.610713 149.85 181.8 
C 149.85 190.989287 153.500943 199.803443 159.99875 206.30125 
C 166.496557 212.799057 175.310713 216.45 184.5 216.45 
z
" style="fill:#ff0000;opacity:0.2;stroke:#ff0000;stroke-linejoin:miter;"/>
   </g>
   <g id="line2d_1">
    <path clip-path="url(#pc2f6012c69)" d="M 117.556983 361 
L 118.313103 352.664848 
L 118.939954 342.97856 
L 119.31728 333.340531 
L 119.464199 323.734292 
L 119.334856 314.163915 
L 118.944936 304.656611 
L 118.335489 295.207996 
L 117.547185 285.775698 
L 116.546483 276.329902 
L 115.310579 266.879462 
L 113.831371 257.44405 
L 112.105306 248.044138 
L 110.131013 238.699079 
L 107.90864 229.426827 
L 105.439585 220.243982 
L 102.726319 211.165886 
L 100.871569 205.207628 
L 100.020293 203.43683 
L 97.652639 201.34727 
L 96.002944 199.468445 
L 94.267059 197.175295 
L 92.506765 194.544464 
L 89.846168 190.075074 
L 86.208798 183.323026 
L 80.280899 171.915556 
L 75.259902 161.709961 
L 68.074117 146.885775 
L 64.03033 138.368592 
L 62.312722 134.201267 
L 60.193239 128.152422 
L 59.040129 124.234874 
L 57.675539 118.523343 
L 56.962142 114.831023 
L 56.442931 111.22813 
L 56.116477 107.715751 
L 55.918277 102.65016 
L 56.001852 99.415833 
L 56.2971 96.283827 
L 57.064311 91.752902 
L 61.060785 72.292809 
L 61.894201 69.704749 
L 63.368004 65.931901 
L 70.26051 49.184168 
L 71.481539 45.668285 
L 72.124571 43.313203 
L 72.583425 40.932643 
L 73.029501 37.305531 
L 73.710322 31.158065 
L 74.395391 27.472608 
L 75.338839 23.830694 
L 76.877484 19.063381 
L 78.192471 15.559764 
L 79.7119 12.129923 
L 82.044724 7.68451 
L 85.51347 1.206801 
L 86.589169 -1 
L 86.589169 -1 
" style="fill:none;stroke:#000000;stroke-linecap:square;stroke-width:1.5;"/>
   </g>
   <g id="line2d_2">
    <path clip-path="url(#pc2f6012c69)" d="M 114.035963 361 
L 114.568838 352.232568 
L 114.922984 343.330131 
L 115.024903 334.400283 
L 114.797909 325.530099 
L 114.333486 316.785257 
L 113.473748 305.284291 
L 112.635152 296.756914 
L 111.51947 288.293915 
L 109.738767 277.208224 
L 107.77038 266.116914 
L 105.531561 254.84348 
L 103.630063 246.295028 
L 97.569468 221.215726 
L 94.428186 210.160888 
L 91.878121 201.930012 
L 90.996347 199.203022 
L 87.853532 190.966755 
L 83.607657 180.178548 
L 77.080953 164.470878 
L 70.534795 149.370529 
L 63.164604 132.530954 
L 53.788438 109.976854 
L 46.783466 94.8007 
L 43.479089 88.508126 
L 40.308044 82.449164 
L 38.484726 78.564377 
L 36.922875 74.793708 
L 30.156657 57.093965 
L 28.581169 53.724015 
L 26.70681 50.370529 
L 24.4036 47.010572 
L 21.751563 43.64846 
L 17.456399 38.607344 
L 11.534088 31.914411 
L 7.353604 27.02573 
L 4.944147 23.892508 
L 3.941568 22.350166 
L 3.118082 20.815036 
L 2.508108 19.284365 
L 2.131756 17.759055 
L 1.975667 16.248554 
L 2.011892 14.762245 
L 2.223542 13.301622 
L 2.587454 11.867143 
L 3.636251 9.074297 
L 4.955674 6.384174 
L 6.438275 3.791629 
L 8.850359 0.066733 
L 9.591576 -1 
L 9.591576 -1 
" style="fill:none;stroke:#ff0000;stroke-linecap:square;stroke-width:1.5;"/>
   </g>
   <g id="line2d_3">
    <path clip-path="url(#pc2f6012c69)" d="M 113.404814 361 
L 113.987423 349.906704 
L 114.424227 338.025198 
L 114.589296 328.982057 
L 114.543519 319.826763 
L 114.335813 313.700109 
L 113.965784 307.602759 
L 113.433873 301.572532 
L 112.745398 295.639355 
L 111.071161 284.144413 
L 109.988104 275.888796 
L 106.974277 251.36642 
L 105.669418 243.064149 
L 105.190416 240.285539 
L 104.500187 235.023712 
L 103.462413 229.57139 
L 101.635552 221.295728 
L 100.258054 215.75401 
L 97.869724 207.396305 
L 96.033757 201.800812 
L 92.902277 193.382229 
L 88.487939 182.311194 
L 83.866094 171.475184 
L 80.24068 163.511925 
L 75.250026 153.128801 
L 67.645091 138.096416 
L 62.92215 128.455928 
L 38.81885 77.112656 
L 37.30262 73.541716 
L 36.120704 70.032353 
L 35.740566 68.312605 
L 35.538879 66.626061 
L 35.491364 64.989061 
L 35.60487 63.404651 
L 35.878855 61.874101 
L 36.30279 60.399861 
L 36.860121 58.979365 
L 38.277424 56.27104 
L 39.923626 53.70689 
L 44.862346 46.539062 
L 46.083159 44.189875 
L 47.02494 41.833516 
L 49.435916 34.809361 
L 50.610982 32.534662 
L 52.039321 30.327348 
L 53.722243 28.197485 
L 56.50106 25.123926 
L 60.392256 21.212884 
L 66.022533 15.676965 
L 68.525316 13.002614 
L 71.313737 10.356487 
L 75.992759 6.012603 
L 77.538779 4.238947 
L 78.775755 2.407524 
L 79.738067 0.503843 
L 80.323959 -1 
L 80.323959 -1 
" style="fill:none;stroke:#008000;stroke-linecap:square;stroke-width:1.5;"/>
   </g>
   <g id="line2d_4">
    <path clip-path="url(#pc2f6012c69)" d="M 110.931481 361 
L 111.185889 354.649453 
L 111.469651 343.199036 
L 111.517479 331.659883 
L 111.350378 319.949589 
L 111.033103 311.024368 
L 110.512418 302.006839 
L 109.748869 292.942389 
L 108.752304 283.882368 
L 107.584556 274.814138 
L 106.211321 265.724847 
L 104.619447 256.633829 
L 102.803829 247.565671 
L 100.769985 238.544093 
L 100.048805 235.553652 
L 98.907608 229.909122 
L 96.645909 221.242046 
L 94.199709 212.630423 
L 91.512843 204.100146 
L 89.639131 198.478089 
L 86.409124 190.073513 
L 81.021472 176.450064 
L 76.535581 165.879408 
L 71.841527 155.585806 
L 65.968674 143.137005 
L 58.885176 128.780914 
L 53.018938 117.272975 
L 42.729458 97.636724 
L 38.962485 89.450495 
L 35.618628 81.617192 
L 33.440554 75.966561 
L 31.617096 70.502689 
L 30.651729 66.969552 
L 29.963881 63.527448 
L 29.62728 60.187177 
L 29.62983 56.973526 
L 29.932932 53.886671 
L 30.741429 49.452707 
L 31.745617 45.208922 
L 33.315304 39.80009 
L 35.042167 34.616558 
L 36.486973 30.861427 
L 38.623177 26.011736 
L 42.013013 18.994008 
L 43.860398 15.593264 
L 45.876709 12.270541 
L 49.968545 5.819288 
L 53.54489 -0.563889 
L 53.804257 -1 
L 53.804257 -1 
" style="fill:none;stroke:#0000ff;stroke-linecap:square;stroke-width:1.5;"/>
   </g>
   <g id="patch_6">
    <path d="M 45.9 320.4 
L 45.9 43.2 
" style="fill:none;stroke:#000000;stroke-linecap:square;stroke-linejoin:miter;stroke-width:0.8;"/>
   </g>
   <g id="patch_7">
    <path d="M 323.1 320.4 
L 323.1 43.2 
" style="fill:none;stroke:#000000;stroke-linecap:square;stroke-linejoin:miter;stroke-width:0.8;"/>
   </g>
   <g id="patch_8">
    <path d="M 45.9 320.4 
L 323.1 320.4 
" style="fill:none;stroke:#000000;stroke-linecap:square;stroke-linejoin:miter;stroke-width:0.8;"/>
   </g>
   <g id="patch_9">
    <path d="M 45.9 43.2 
L 323.1 43.2 
" style="fill:none;stroke:#000000;stroke-linecap:square;stroke-linejoin:miter;stroke-width:0.8;"/>
   </g>
   <g id="text_1">
    <!-- Obstacle -->
    <defs>
     <path d="M 42.484375 60.59375 
Q 33.890625 60.59375 29.15625 54.25 
Q 24.421875 47.90625 24.421875 36.375 
Q 24.421875 24.90625 29.15625 18.546875 
Q 33.890625 12.203125 42.484375 12.203125 
Q 51.125 12.203125 55.859375 18.546875 
Q 60.59375 24.90625 60.59375 36.375 
Q 60.59375 47.90625 55.859375 54.25 
Q 51.125 60.59375 42.484375 60.59375 
z
M 42.484375 74.21875 
Q 60.0625 74.21875 70.015625 64.15625 
Q 79.984375 54.109375 79.984375 36.375 
Q 79.984375 18.703125 70.015625 8.640625 
Q 60.0625 -1.421875 42.484375 -1.421875 
Q 24.953125 -1.421875 14.96875 8.640625 
Q 4.984375 18.703125 4.984375 36.375 
Q 4.984375 54.109375 14.96875 64.15625 
Q 24.953125 74.21875 42.484375 74.21875 
z
" id="DejaVuSans-Bold-4f"/>
     <path d="M 37.5 11.28125 
Q 43.109375 11.28125 46.0625 15.375 
Q 49.03125 19.484375 49.03125 27.296875 
Q 49.03125 35.109375 46.0625 39.203125 
Q 43.109375 43.3125 37.5 43.3125 
Q 31.890625 43.3125 28.875 39.1875 
Q 25.875 35.0625 25.875 27.296875 
Q 25.875 19.53125 28.875 15.40625 
Q 31.890625 11.28125 37.5 11.28125 
z
M 25.875 46.6875 
Q 29.5 51.46875 33.890625 53.734375 
Q 38.28125 56 44 56 
Q 54.109375 56 60.59375 47.96875 
Q 67.09375 39.9375 67.09375 27.296875 
Q 67.09375 14.65625 60.59375 6.609375 
Q 54.109375 -1.421875 44 -1.421875 
Q 38.28125 -1.421875 33.890625 0.84375 
Q 29.5 3.125 25.875 7.90625 
L 25.875 0 
L 8.40625 0 
L 8.40625 75.984375 
L 25.875 75.984375 
z
" id="DejaVuSans-Bold-62"/>
     <path d="M 51.125 52.984375 
L 51.125 39.703125 
Q 45.515625 42.046875 40.28125 43.21875 
Q 35.0625 44.390625 30.421875 44.390625 
Q 25.4375 44.390625 23.015625 43.140625 
Q 20.609375 41.890625 20.609375 39.3125 
Q 20.609375 37.203125 22.4375 36.078125 
Q 24.265625 34.96875 29 34.421875 
L 32.078125 33.984375 
Q 45.515625 32.28125 50.140625 28.375 
Q 54.78125 24.46875 54.78125 16.109375 
Q 54.78125 7.375 48.328125 2.96875 
Q 41.890625 -1.421875 29.109375 -1.421875 
Q 23.6875 -1.421875 17.890625 -0.5625 
Q 12.109375 0.296875 6 2 
L 6 15.28125 
Q 11.234375 12.75 16.71875 11.46875 
Q 22.21875 10.203125 27.875 10.203125 
Q 33.015625 10.203125 35.59375 11.609375 
Q 38.1875 13.03125 38.1875 15.828125 
Q 38.1875 18.171875 36.40625 19.3125 
Q 34.625 20.453125 29.296875 21.09375 
L 26.21875 21.484375 
Q 14.546875 22.953125 9.859375 26.90625 
Q 5.171875 30.859375 5.171875 38.921875 
Q 5.171875 47.609375 11.125 51.796875 
Q 17.09375 56 29.390625 56 
Q 34.234375 56 39.546875 55.265625 
Q 44.875 54.546875 51.125 52.984375 
z
" id="DejaVuSans-Bold-73"/>
     <path d="M 27.484375 70.21875 
L 27.484375 54.6875 
L 45.515625 54.6875 
L 45.515625 42.1875 
L 27.484375 42.1875 
L 27.484375 19 
Q 27.484375 15.1875 29 13.84375 
Q 30.515625 12.5 35.015625 12.5 
L 44 12.5 
L 44 0 
L 29 0 
Q 18.65625 0 14.328125 4.3125 
Q 10.015625 8.640625 10.015625 19 
L 10.015625 42.1875 
L 1.3125 42.1875 
L 1.3125 54.6875 
L 10.015625 54.6875 
L 10.015625 70.21875 
z
" id="DejaVuSans-Bold-74"/>
     <path d="M 32.90625 24.609375 
Q 27.4375 24.609375 24.671875 22.75 
Q 21.921875 20.90625 21.921875 17.28125 
Q 21.921875 13.96875 24.140625 12.078125 
Q 26.375 10.203125 30.328125 10.203125 
Q 35.25 10.203125 38.625 13.734375 
Q 42 17.28125 42 22.609375 
L 42 24.609375 
z
M 59.625 31.203125 
L 59.625 0 
L 42 0 
L 42 8.109375 
Q 38.484375 3.125 34.078125 0.84375 
Q 29.6875 -1.421875 23.390625 -1.421875 
Q 14.890625 -1.421875 9.59375 3.53125 
Q 4.296875 8.5 4.296875 16.40625 
Q 4.296875 26.03125 10.90625 30.515625 
Q 17.53125 35.015625 31.6875 35.015625 
L 42 35.015625 
L 42 36.375 
Q 42 40.53125 38.71875 42.453125 
Q 35.453125 44.390625 28.515625 44.390625 
Q 22.90625 44.390625 18.0625 43.265625 
Q 13.234375 42.140625 9.078125 39.890625 
L 9.078125 53.21875 
Q 14.703125 54.59375 20.359375 55.296875 
Q 26.03125 56 31.6875 56 
Q 46.484375 56 53.046875 50.171875 
Q 59.625 44.34375 59.625 31.203125 
z
" id="DejaVuSans-Bold-61"/>
     <path d="M 52.59375 52.984375 
L 52.59375 38.71875 
Q 49.03125 41.15625 45.4375 42.328125 
Q 41.84375 43.5 37.984375 43.5 
Q 30.671875 43.5 26.59375 39.234375 
Q 22.515625 34.96875 22.515625 27.296875 
Q 22.515625 19.625 26.59375 15.34375 
Q 30.671875 11.078125 37.984375 11.078125 
Q 42.09375 11.078125 45.78125 12.296875 
Q 49.46875 13.53125 52.59375 15.921875 
L 52.59375 1.609375 
Q 48.484375 0.09375 44.265625 -0.65625 
Q 40.046875 -1.421875 35.796875 -1.421875 
Q 21 -1.421875 12.640625 6.171875 
Q 4.296875 13.765625 4.296875 27.296875 
Q 4.296875 40.828125 12.640625 48.40625 
Q 21 56 35.796875 56 
Q 40.09375 56 44.265625 55.25 
Q 48.4375 54.5 52.59375 52.984375 
z
" id="DejaVuSans-Bold-63"/>
     <path d="M 8.40625 75.984375 
L 25.875 75.984375 
L 25.875 0 
L 8.40625 0 
z
" id="DejaVuSans-Bold-6c"/>
     <path d="M 62.984375 27.484375 
L 62.984375 22.515625 
L 22.125 22.515625 
Q 22.75 16.359375 26.5625 13.28125 
Q 30.375 10.203125 37.203125 10.203125 
Q 42.71875 10.203125 48.5 11.84375 
Q 54.296875 13.484375 60.40625 16.796875 
L 60.40625 3.328125 
Q 54.203125 0.984375 48 -0.21875 
Q 41.796875 -1.421875 35.59375 -1.421875 
Q 20.75 -1.421875 12.515625 6.125 
Q 4.296875 13.671875 4.296875 27.296875 
Q 4.296875 40.671875 12.375 48.328125 
Q 20.453125 56 34.625 56 
Q 47.515625 56 55.25 48.234375 
Q 62.984375 40.484375 62.984375 27.484375 
z
M 45.015625 33.296875 
Q 45.015625 38.28125 42.109375 41.328125 
Q 39.203125 44.390625 34.515625 44.390625 
Q 29.4375 44.390625 26.265625 41.53125 
Q 23.09375 38.671875 22.3125 33.296875 
z
" id="DejaVuSans-Bold-65"/>
    </defs>
    <g transform="translate(122.902344 37.2)scale(0.25 -0.25)">
     <use xlink:href="#DejaVuSans-Bold-4f"/>
     <use x="85.009766" xlink:href="#DejaVuSans-Bold-62"/>
     <use x="156.591797" xlink:href="#DejaVuSans-Bold-73"/>
     <use x="216.113281" xlink:href="#DejaVuSans-Bold-74"/>
     <use x="263.916016" xlink:href="#DejaVuSans-Bold-61"/>
     <use x="331.396484" xlink:href="#DejaVuSans-Bold-63"/>
     <use x="390.673828" xlink:href="#DejaVuSans-Bold-6c"/>
     <use x="424.951172" xlink:href="#DejaVuSans-Bold-65"/>
    </g>
   </g>
  </g>
 </g>
 <defs>
  <clipPath id="pc2f6012c69">
   <rect height="277.2" width="277.2" x="45.9" y="43.2"/>
  </clipPath>
 </defs>
</svg>
