<?xml version="1.0" encoding="utf-8" standalone="no"?>
<!DOCTYPE svg PUBLIC "-//W3C//DTD SVG 1.1//EN"
  "http://www.w3.org/Graphics/SVG/1.1/DTD/svg11.dtd">
<!-- Created with matplotlib (http://matplotlib.org/) -->
<svg height="360pt" version="1.1" viewBox="0 0 360 360" width="360pt" xmlns="http://www.w3.org/2000/svg" xmlns:xlink="http://www.w3.org/1999/xlink">
 <defs>
  <style type="text/css">
*{stroke-linecap:butt;stroke-linejoin:round;}
  </style>
 </defs>
 <g id="figure_1">
  <g id="patch_1">
   <path d="M 0 360 
L 360 360 
L 360 0 
L 0 0 
z
" style="fill:#ffffff;"/>
  </g>
  <g id="axes_1">
   <g id="patch_2">
    <path d="M 45.9 320.4 
L 323.1 320.4 
L 323.1 43.2 
L 45.9 43.2 
z
" style="fill:#eaeaf2;"/>
   </g>
   <g id="patch_3">
    <path clip-path="url(#p5c8a3ff6c5)" d="M 160.1064 -124.2288 
C 163.782115 -124.2288 167.307777 -125.689177 169.9069 -128.2883 
C 172.506023 -130.887423 173.9664 -134.413085 173.9664 -138.0888 
C 173.9664 -141.764515 172.506023 -145.290177 169.9069 -147.8893 
C 167.307777 -150.488423 163.782115 -151.9488 160.1064 -151.9488 
C 156.430685 -151.9488 152.905023 -150.488423 150.3059 -147.8893 
C 147.706777 -145.290177 146.2464 -141.764515 146.2464 -138.0888 
C 146.2464 -134.413085 147.706777 -130.887423 150.3059 -128.2883 
C 152.905023 -125.689177 156.430685 -124.2288 160.1064 -124.2288 
z
" style="fill:#008000;opacity:0.6;stroke:#000000;stroke-linejoin:miter;"/>
   </g>
   <g id="patch_4">
    <path clip-path="url(#p5c8a3ff6c5)" d="M 184.5 285.75 
C 212.067862 285.75 238.510328 274.797172 258.00375 255.30375 
C 277.497172 235.810328 288.45 209.367862 288.45 181.8 
C 288.45 154.232138 277.497172 127.789672 258.00375 108.29625 
C 238.510328 88.802828 212.067862 77.85 184.5 77.85 
C 156.932138 77.85 130.489672 88.802828 110.99625 108.29625 
C 91.502828 127.789672 80.55 154.232138 80.55 181.8 
C 80.55 209.367862 91.502828 235.810328 110.99625 255.30375 
C 130.489672 274.797172 156.932138 285.75 184.5 285.75 
z
" style="opacity:0.1;stroke:#000000;stroke-linejoin:miter;"/>
   </g>
   <g id="patch_5">
    <path clip-path="url(#p5c8a3ff6c5)" d="M 184.5 216.45 
C 193.689287 216.45 202.503443 212.799057 209.00125 206.30125 
C 215.499057 199.803443 219.15 190.989287 219.15 181.8 
C 219.15 172.610713 215.499057 163.796557 209.00125 157.29875 
C 202.503443 150.800943 193.689287 147.15 184.5 147.15 
C 175.310713 147.15 166.496557 150.800943 159.99875 157.29875 
C 153.500943 163.796557 149.85 172.610713 149.85 181.8 
C 149.85 190.989287 153.500943 199.803443 159.99875 206.30125 
C 166.496557 212.799057 175.310713 216.45 184.5 216.45 
z
" style="fill:#ff0000;opacity:0.2;stroke:#ff0000;stroke-linejoin:miter;"/>
   </g>
   <g id="line2d_1">
    <path clip-path="url(#p5c8a3ff6c5)" d="M 113.211504 361 
L 114.034629 351.578915 
L 114.654639 342.041092 
L 115.042153 332.465147 
L 115.193225 322.864869 
L 115.112179 313.254082 
L 114.814135 303.627209 
L 114.272969 293.989684 
L 113.491634 284.354436 
L 112.460555 274.735495 
L 111.175372 265.150687 
L 109.649106 255.62674 
L 107.857102 246.165201 
L 105.807405 236.785609 
L 103.504799 227.504121 
L 100.952938 218.334698 
L 98.195073 209.303698 
L 94.30415 197.527012 
L 85.946912 174.946045 
L 81.48802 164.133811 
L 76.847927 153.628106 
L 72.047036 143.425094 
L 60.541161 119.525193 
L 58.699061 115.135816 
L 57.153972 110.920895 
L 56.012307 106.904183 
L 55.323814 103.087154 
L 55.165426 101.254166 
L 55.133969 99.472484 
L 55.232669 97.743568 
L 55.461003 96.068884 
L 55.822879 94.44908 
L 56.308182 92.886385 
L 57.575931 89.947284 
L 59.170585 87.262745 
L 60.966875 84.816023 
L 62.876856 82.575643 
L 70.260461 74.426983 
L 72.561827 71.38493 
L 73.824406 69.326671 
L 75.390889 66.166694 
L 77.243002 61.865628 
L 78.879037 57.481284 
L 82.606539 46.242185 
L 83.898224 41.657537 
L 84.658334 38.163971 
L 85.663614 33.448935 
L 86.681603 29.935485 
L 91.205629 16.080071 
L 92.974745 11.564107 
L 97.021728 1.637089 
L 98.021838 -1 
L 98.021838 -1 
" style="fill:none;stroke:#000000;stroke-linecap:square;stroke-width:1.5;"/>
   </g>
   <g id="line2d_2">
    <path clip-path="url(#p5c8a3ff6c5)" d="M 119.288784 361 
L 120.00485 353.996719 
L 120.817935 344.283228 
L 121.410313 334.483716 
L 121.762829 324.616901 
L 121.819547 314.721762 
L 121.552664 304.872261 
L 120.996147 295.119933 
L 120.222523 285.45348 
L 119.246818 275.820831 
L 118.032895 266.20712 
L 116.56896 256.624762 
L 114.851575 247.091164 
L 112.88015 237.623675 
L 110.655625 228.238641 
L 107.43977 215.940368 
L 105.757035 209.903229 
L 104.913133 207.23041 
L 103.387953 206.455638 
L 102.024648 205.430365 
L 100.506394 203.924817 
L 99.816537 203.236801 
L 98.404002 202.106636 
L 96.832986 200.505244 
L 95.253851 198.53932 
L 93.760032 196.300335 
L 92.398452 193.852038 
L 91.15314 191.21609 
L 89.364338 186.88525 
L 86.048232 178.620274 
L 82.73943 171.166862 
L 74.501697 153.189304 
L 66.916239 138.310472 
L 62.352929 129.722505 
L 57.535557 121.151876 
L 53.949283 114.788755 
L 51.890627 110.659663 
L 50.253237 106.659969 
L 49.065842 102.797967 
L 48.30679 99.066931 
L 47.905697 95.451872 
L 47.717796 90.205598 
L 47.592065 75.582927 
L 47.824733 72.569059 
L 48.252426 69.637937 
L 48.852361 66.781506 
L 49.962692 62.614552 
L 52.973449 51.984481 
L 53.7328 48.103182 
L 54.191347 44.239037 
L 55.460692 31.346612 
L 56.190559 26.220485 
L 56.999471 22.462874 
L 58.0698 18.791526 
L 60.168045 12.798454 
L 61.333661 9.230533 
L 62.287831 5.657897 
L 63.813337 -1 
L 63.813337 -1 
" style="fill:none;stroke:#ff0000;stroke-linecap:square;stroke-width:1.5;"/>
   </g>
   <g id="line2d_3">
    <path clip-path="url(#p5c8a3ff6c5)" d="M 113.176131 361 
L 113.992296 353.332631 
L 114.809312 343.339313 
L 115.327554 333.362422 
L 115.529751 323.444488 
L 115.412319 313.626859 
L 114.970053 303.949779 
L 114.232353 294.441161 
L 113.245826 285.092253 
L 112.055408 275.863236 
L 110.685784 266.697948 
L 109.127263 257.554078 
L 107.352279 248.429006 
L 104.734087 236.427787 
L 102.566243 227.5649 
L 100.178976 218.762394 
L 96.795815 207.19112 
L 92.854271 195.740389 
L 89.664703 187.288941 
L 85.190575 176.265822 
L 74.657185 150.832364 
L 71.233405 143.578883 
L 67.534957 136.401297 
L 63.629905 129.309429 
L 59.589886 122.341145 
L 55.354173 115.511356 
L 50.922675 108.826274 
L 46.467956 102.319387 
L 43.939969 98.177279 
L 42.91436 96.185186 
L 41.321214 92.359352 
L 40.713677 90.524796 
L 40.249872 88.736236 
L 39.926796 86.993573 
L 39.752435 85.29557 
L 39.732486 83.640267 
L 39.861357 82.025624 
L 40.124753 80.44887 
L 40.960944 77.395963 
L 45.78904 63.322899 
L 47.899874 56.706953 
L 49.361952 52.879487 
L 51.04213 49.170212 
L 52.921353 45.576558 
L 55.672904 40.952178 
L 59.834009 34.247457 
L 60.993245 32.015846 
L 61.95298 29.762916 
L 62.709655 27.477556 
L 63.278989 25.155754 
L 63.866147 21.608978 
L 64.830226 15.596657 
L 65.662649 10.742106 
L 65.905823 8.297 
L 65.972862 5.833124 
L 65.783 0.840513 
L 65.744829 -1 
L 65.744829 -1 
" style="fill:none;stroke:#008000;stroke-linecap:square;stroke-width:1.5;"/>
   </g>
   <g id="line2d_4">
    <path clip-path="url(#p5c8a3ff6c5)" d="M 112.779359 361 
L 113.470973 352.950289 
L 114.084986 343.506861 
L 114.479349 334.018583 
L 114.629435 324.502787 
L 114.538814 314.983381 
L 114.220523 305.468316 
L 113.686688 295.951941 
L 112.930771 286.426841 
L 111.934928 276.902155 
L 110.691749 267.396245 
L 109.198014 257.928338 
L 107.458609 248.519797 
L 105.518485 239.210453 
L 103.387581 230.017129 
L 101.07199 220.950415 
L 98.600419 212.027596 
L 95.970798 203.252449 
L 91.939904 191.6987 
L 88.770542 183.22449 
L 85.467282 174.919732 
L 82.031572 166.783985 
L 78.473691 158.819595 
L 73.594333 148.471209 
L 68.569132 138.430737 
L 62.206539 126.304128 
L 54.571527 112.405204 
L 49.746418 103.606673 
L 47.712325 99.405746 
L 46.87387 97.367027 
L 46.180961 95.373904 
L 45.635501 93.430224 
L 44.959572 89.685628 
L 44.638903 86.114358 
L 44.55876 82.685903 
L 44.706269 79.385557 
L 45.105299 76.205222 
L 45.715423 73.137199 
L 47.204349 67.292239 
L 51.99954 49.928851 
L 54.30626 42.4114 
L 55.649835 38.744016 
L 57.692573 33.959794 
L 63.108259 22.449579 
L 66.929159 14.661787 
L 69.963591 8.047489 
L 72.240179 2.534704 
L 73.620478 -1 
L 73.620478 -1 
" style="fill:none;stroke:#0000ff;stroke-linecap:square;stroke-width:1.5;"/>
   </g>
   <g id="patch_6">
    <path d="M 45.9 320.4 
L 45.9 43.2 
" style="fill:none;stroke:#000000;stroke-linecap:square;stroke-linejoin:miter;stroke-width:0.8;"/>
   </g>
   <g id="patch_7">
    <path d="M 323.1 320.4 
L 323.1 43.2 
" style="fill:none;stroke:#000000;stroke-linecap:square;stroke-linejoin:miter;stroke-width:0.8;"/>
   </g>
   <g id="patch_8">
    <path d="M 45.9 320.4 
L 323.1 320.4 
" style="fill:none;stroke:#000000;stroke-linecap:square;stroke-linejoin:miter;stroke-width:0.8;"/>
   </g>
   <g id="patch_9">
    <path d="M 45.9 43.2 
L 323.1 43.2 
" style="fill:none;stroke:#000000;stroke-linecap:square;stroke-linejoin:miter;stroke-width:0.8;"/>
   </g>
   <g id="text_1">
    <!-- Obstacle -->
    <defs>
     <path d="M 42.484375 60.59375 
Q 33.890625 60.59375 29.15625 54.25 
Q 24.421875 47.90625 24.421875 36.375 
Q 24.421875 24.90625 29.15625 18.546875 
Q 33.890625 12.203125 42.484375 12.203125 
Q 51.125 12.203125 55.859375 18.546875 
Q 60.59375 24.90625 60.59375 36.375 
Q 60.59375 47.90625 55.859375 54.25 
Q 51.125 60.59375 42.484375 60.59375 
z
M 42.484375 74.21875 
Q 60.0625 74.21875 70.015625 64.15625 
Q 79.984375 54.109375 79.984375 36.375 
Q 79.984375 18.703125 70.015625 8.640625 
Q 60.0625 -1.421875 42.484375 -1.421875 
Q 24.953125 -1.421875 14.96875 8.640625 
Q 4.984375 18.703125 4.984375 36.375 
Q 4.984375 54.109375 14.96875 64.15625 
Q 24.953125 74.21875 42.484375 74.21875 
z
" id="DejaVuSans-Bold-4f"/>
     <path d="M 37.5 11.28125 
Q 43.109375 11.28125 46.0625 15.375 
Q 49.03125 19.484375 49.03125 27.296875 
Q 49.03125 35.109375 46.0625 39.203125 
Q 43.109375 43.3125 37.5 43.3125 
Q 31.890625 43.3125 28.875 39.1875 
Q 25.875 35.0625 25.875 27.296875 
Q 25.875 19.53125 28.875 15.40625 
Q 31.890625 11.28125 37.5 11.28125 
z
M 25.875 46.6875 
Q 29.5 51.46875 33.890625 53.734375 
Q 38.28125 56 44 56 
Q 54.109375 56 60.59375 47.96875 
Q 67.09375 39.9375 67.09375 27.296875 
Q 67.09375 14.65625 60.59375 6.609375 
Q 54.109375 -1.421875 44 -1.421875 
Q 38.28125 -1.421875 33.890625 0.84375 
Q 29.5 3.125 25.875 7.90625 
L 25.875 0 
L 8.40625 0 
L 8.40625 75.984375 
L 25.875 75.984375 
z
" id="DejaVuSans-Bold-62"/>
     <path d="M 51.125 52.984375 
L 51.125 39.703125 
Q 45.515625 42.046875 40.28125 43.21875 
Q 35.0625 44.390625 30.421875 44.390625 
Q 25.4375 44.390625 23.015625 43.140625 
Q 20.609375 41.890625 20.609375 39.3125 
Q 20.609375 37.203125 22.4375 36.078125 
Q 24.265625 34.96875 29 34.421875 
L 32.078125 33.984375 
Q 45.515625 32.28125 50.140625 28.375 
Q 54.78125 24.46875 54.78125 16.109375 
Q 54.78125 7.375 48.328125 2.96875 
Q 41.890625 -1.421875 29.109375 -1.421875 
Q 23.6875 -1.421875 17.890625 -0.5625 
Q 12.109375 0.296875 6 2 
L 6 15.28125 
Q 11.234375 12.75 16.71875 11.46875 
Q 22.21875 10.203125 27.875 10.203125 
Q 33.015625 10.203125 35.59375 11.609375 
Q 38.1875 13.03125 38.1875 15.828125 
Q 38.1875 18.171875 36.40625 19.3125 
Q 34.625 20.453125 29.296875 21.09375 
L 26.21875 21.484375 
Q 14.546875 22.953125 9.859375 26.90625 
Q 5.171875 30.859375 5.171875 38.921875 
Q 5.171875 47.609375 11.125 51.796875 
Q 17.09375 56 29.390625 56 
Q 34.234375 56 39.546875 55.265625 
Q 44.875 54.546875 51.125 52.984375 
z
" id="DejaVuSans-Bold-73"/>
     <path d="M 27.484375 70.21875 
L 27.484375 54.6875 
L 45.515625 54.6875 
L 45.515625 42.1875 
L 27.484375 42.1875 
L 27.484375 19 
Q 27.484375 15.1875 29 13.84375 
Q 30.515625 12.5 35.015625 12.5 
L 44 12.5 
L 44 0 
L 29 0 
Q 18.65625 0 14.328125 4.3125 
Q 10.015625 8.640625 10.015625 19 
L 10.015625 42.1875 
L 1.3125 42.1875 
L 1.3125 54.6875 
L 10.015625 54.6875 
L 10.015625 70.21875 
z
" id="DejaVuSans-Bold-74"/>
     <path d="M 32.90625 24.609375 
Q 27.4375 24.609375 24.671875 22.75 
Q 21.921875 20.90625 21.921875 17.28125 
Q 21.921875 13.96875 24.140625 12.078125 
Q 26.375 10.203125 30.328125 10.203125 
Q 35.25 10.203125 38.625 13.734375 
Q 42 17.28125 42 22.609375 
L 42 24.609375 
z
M 59.625 31.203125 
L 59.625 0 
L 42 0 
L 42 8.109375 
Q 38.484375 3.125 34.078125 0.84375 
Q 29.6875 -1.421875 23.390625 -1.421875 
Q 14.890625 -1.421875 9.59375 3.53125 
Q 4.296875 8.5 4.296875 16.40625 
Q 4.296875 26.03125 10.90625 30.515625 
Q 17.53125 35.015625 31.6875 35.015625 
L 42 35.015625 
L 42 36.375 
Q 42 40.53125 38.71875 42.453125 
Q 35.453125 44.390625 28.515625 44.390625 
Q 22.90625 44.390625 18.0625 43.265625 
Q 13.234375 42.140625 9.078125 39.890625 
L 9.078125 53.21875 
Q 14.703125 54.59375 20.359375 55.296875 
Q 26.03125 56 31.6875 56 
Q 46.484375 56 53.046875 50.171875 
Q 59.625 44.34375 59.625 31.203125 
z
" id="DejaVuSans-Bold-61"/>
     <path d="M 52.59375 52.984375 
L 52.59375 38.71875 
Q 49.03125 41.15625 45.4375 42.328125 
Q 41.84375 43.5 37.984375 43.5 
Q 30.671875 43.5 26.59375 39.234375 
Q 22.515625 34.96875 22.515625 27.296875 
Q 22.515625 19.625 26.59375 15.34375 
Q 30.671875 11.078125 37.984375 11.078125 
Q 42.09375 11.078125 45.78125 12.296875 
Q 49.46875 13.53125 52.59375 15.921875 
L 52.59375 1.609375 
Q 48.484375 0.09375 44.265625 -0.65625 
Q 40.046875 -1.421875 35.796875 -1.421875 
Q 21 -1.421875 12.640625 6.171875 
Q 4.296875 13.765625 4.296875 27.296875 
Q 4.296875 40.828125 12.640625 48.40625 
Q 21 56 35.796875 56 
Q 40.09375 56 44.265625 55.25 
Q 48.4375 54.5 52.59375 52.984375 
z
" id="DejaVuSans-Bold-63"/>
     <path d="M 8.40625 75.984375 
L 25.875 75.984375 
L 25.875 0 
L 8.40625 0 
z
" id="DejaVuSans-Bold-6c"/>
     <path d="M 62.984375 27.484375 
L 62.984375 22.515625 
L 22.125 22.515625 
Q 22.75 16.359375 26.5625 13.28125 
Q 30.375 10.203125 37.203125 10.203125 
Q 42.71875 10.203125 48.5 11.84375 
Q 54.296875 13.484375 60.40625 16.796875 
L 60.40625 3.328125 
Q 54.203125 0.984375 48 -0.21875 
Q 41.796875 -1.421875 35.59375 -1.421875 
Q 20.75 -1.421875 12.515625 6.125 
Q 4.296875 13.671875 4.296875 27.296875 
Q 4.296875 40.671875 12.375 48.328125 
Q 20.453125 56 34.625 56 
Q 47.515625 56 55.25 48.234375 
Q 62.984375 40.484375 62.984375 27.484375 
z
M 45.015625 33.296875 
Q 45.015625 38.28125 42.109375 41.328125 
Q 39.203125 44.390625 34.515625 44.390625 
Q 29.4375 44.390625 26.265625 41.53125 
Q 23.09375 38.671875 22.3125 33.296875 
z
" id="DejaVuSans-Bold-65"/>
    </defs>
    <g transform="translate(122.902344 37.2)scale(0.25 -0.25)">
     <use xlink:href="#DejaVuSans-Bold-4f"/>
     <use x="85.009766" xlink:href="#DejaVuSans-Bold-62"/>
     <use x="156.591797" xlink:href="#DejaVuSans-Bold-73"/>
     <use x="216.113281" xlink:href="#DejaVuSans-Bold-74"/>
     <use x="263.916016" xlink:href="#DejaVuSans-Bold-61"/>
     <use x="331.396484" xlink:href="#DejaVuSans-Bold-63"/>
     <use x="390.673828" xlink:href="#DejaVuSans-Bold-6c"/>
     <use x="424.951172" xlink:href="#DejaVuSans-Bold-65"/>
    </g>
   </g>
  </g>
 </g>
 <defs>
  <clipPath id="p5c8a3ff6c5">
   <rect height="277.2" width="277.2" x="45.9" y="43.2"/>
  </clipPath>
 </defs>
</svg>
