<?xml version="1.0" encoding="utf-8" standalone="no"?>
<!DOCTYPE svg PUBLIC "-//W3C//DTD SVG 1.1//EN"
  "http://www.w3.org/Graphics/SVG/1.1/DTD/svg11.dtd">
<!-- Created with matplotlib (http://matplotlib.org/) -->
<svg height="360pt" version="1.1" viewBox="0 0 360 360" width="360pt" xmlns="http://www.w3.org/2000/svg" xmlns:xlink="http://www.w3.org/1999/xlink">
 <defs>
  <style type="text/css">
*{stroke-linecap:butt;stroke-linejoin:round;}
  </style>
 </defs>
 <g id="figure_1">
  <g id="patch_1">
   <path d="M 0 360 
L 360 360 
L 360 0 
L 0 0 
z
" style="fill:#ffffff;"/>
  </g>
  <g id="axes_1">
   <g id="patch_2">
    <path d="M 45.9 320.4 
L 323.1 320.4 
L 323.1 43.2 
L 45.9 43.2 
z
" style="fill:#eaeaf2;"/>
   </g>
   <g id="patch_3">
    <path clip-path="url(#p4dea9a56da)" d="M 160.1064 -124.2288 
C 163.782115 -124.2288 167.307777 -125.689177 169.9069 -128.2883 
C 172.506023 -130.887423 173.9664 -134.413085 173.9664 -138.0888 
C 173.9664 -141.764515 172.506023 -145.290177 169.9069 -147.8893 
C 167.307777 -150.488423 163.782115 -151.9488 160.1064 -151.9488 
C 156.430685 -151.9488 152.905023 -150.488423 150.3059 -147.8893 
C 147.706777 -145.290177 146.2464 -141.764515 146.2464 -138.0888 
C 146.2464 -134.413085 147.706777 -130.887423 150.3059 -128.2883 
C 152.905023 -125.689177 156.430685 -124.2288 160.1064 -124.2288 
z
" style="fill:#008000;opacity:0.6;stroke:#000000;stroke-linejoin:miter;"/>
   </g>
   <g id="patch_4">
    <path clip-path="url(#p4dea9a56da)" d="M 184.5 285.75 
C 212.067862 285.75 238.510328 274.797172 258.00375 255.30375 
C 277.497172 235.810328 288.45 209.367862 288.45 181.8 
C 288.45 154.232138 277.497172 127.789672 258.00375 108.29625 
C 238.510328 88.802828 212.067862 77.85 184.5 77.85 
C 156.932138 77.85 130.489672 88.802828 110.99625 108.29625 
C 91.502828 127.789672 80.55 154.232138 80.55 181.8 
C 80.55 209.367862 91.502828 235.810328 110.99625 255.30375 
C 130.489672 274.797172 156.932138 285.75 184.5 285.75 
z
" style="opacity:0.1;stroke:#000000;stroke-linejoin:miter;"/>
   </g>
   <g id="patch_5">
    <path clip-path="url(#p4dea9a56da)" d="M 184.5 216.45 
C 193.689287 216.45 202.503443 212.799057 209.00125 206.30125 
C 215.499057 199.803443 219.15 190.989287 219.15 181.8 
C 219.15 172.610713 215.499057 163.796557 209.00125 157.29875 
C 202.503443 150.800943 193.689287 147.15 184.5 147.15 
C 175.310713 147.15 166.496557 150.800943 159.99875 157.29875 
C 153.500943 163.796557 149.85 172.610713 149.85 181.8 
C 149.85 190.989287 153.500943 199.803443 159.99875 206.30125 
C 166.496557 212.799057 175.310713 216.45 184.5 216.45 
z
" style="fill:#ff0000;opacity:0.2;stroke:#ff0000;stroke-linejoin:miter;"/>
   </g>
   <g id="line2d_1">
    <path clip-path="url(#p4dea9a56da)" d="M 110.931481 361 
L 111.185889 354.649453 
L 111.469651 343.199036 
L 111.517479 331.659883 
L 111.350378 319.949589 
L 111.033103 311.024368 
L 110.512418 302.006839 
L 109.748869 292.942389 
L 108.752304 283.882368 
L 107.584556 274.814138 
L 106.211321 265.724847 
L 104.619447 256.633829 
L 102.803829 247.565671 
L 100.769985 238.544093 
L 100.048805 235.553652 
L 98.907608 229.909122 
L 96.645909 221.242046 
L 94.199709 212.630423 
L 91.512843 204.100146 
L 89.639131 198.478089 
L 86.409124 190.073513 
L 81.021472 176.450064 
L 76.535581 165.879408 
L 71.841527 155.585806 
L 65.968674 143.137005 
L 58.885176 128.780914 
L 53.018938 117.272975 
L 42.729458 97.636724 
L 38.962485 89.450495 
L 35.618628 81.617192 
L 33.440554 75.966561 
L 31.617096 70.502689 
L 30.651729 66.969552 
L 29.963881 63.527448 
L 29.62728 60.187177 
L 29.62983 56.973526 
L 29.932932 53.886671 
L 30.741429 49.452707 
L 31.745617 45.208922 
L 33.315304 39.80009 
L 35.042167 34.616558 
L 36.486973 30.861427 
L 38.623177 26.011736 
L 42.013013 18.994008 
L 43.860398 15.593264 
L 45.876709 12.270541 
L 49.968545 5.819288 
L 53.54489 -0.563889 
L 53.804257 -1 
L 53.804257 -1 
" style="fill:none;stroke:#000000;stroke-linecap:square;stroke-width:1.5;"/>
   </g>
   <g id="line2d_2">
    <path clip-path="url(#p4dea9a56da)" d="M 114.169135 361 
L 114.772206 350.253854 
L 115.245736 338.364205 
L 115.449466 329.294692 
L 115.463357 320.091956 
L 115.258676 310.797043 
L 114.851454 301.43553 
L 114.225084 292.02059 
L 113.366348 282.574185 
L 112.267688 273.119805 
L 107.736044 239.651649 
L 106.148022 230.780376 
L 103.827925 219.230433 
L 100.552617 203.614555 
L 99.218019 202.563807 
L 96.565321 200.128625 
L 94.883468 198.149953 
L 93.151905 195.782196 
L 91.421322 193.096159 
L 88.827001 188.569157 
L 83.004886 178.000898 
L 77.089158 168.02322 
L 62.955894 144.590995 
L 60.623247 140.291724 
L 57.461669 133.865194 
L 54.580088 127.47335 
L 51.906615 121.112434 
L 50.27843 116.894283 
L 48.836215 112.722623 
L 46.954164 106.565524 
L 44.683819 98.530919 
L 43.293158 92.708616 
L 42.629723 88.975819 
L 42.216436 85.376375 
L 42.038307 81.907642 
L 42.097857 76.918567 
L 42.422222 72.151824 
L 42.882788 69.122258 
L 43.641675 66.234935 
L 44.689957 63.4867 
L 45.949069 60.86004 
L 48.565399 55.831528 
L 49.615147 53.340388 
L 50.352346 50.81317 
L 50.752288 48.234436 
L 50.83938 45.60178 
L 50.701898 42.911454 
L 49.987253 35.994821 
L 49.039209 26.215573 
L 48.923684 23.449203 
L 49.012269 20.709267 
L 49.283561 18.01378 
L 49.732446 15.368649 
L 50.659171 11.49469 
L 52.516266 5.250938 
L 54.507854 -1 
L 54.507854 -1 
" style="fill:none;stroke:#ff0000;stroke-linecap:square;stroke-width:1.5;"/>
   </g>
   <g id="line2d_3">
    <path clip-path="url(#p4dea9a56da)" d="M 112.154659 361 
L 112.597141 356.080122 
L 113.204981 346.499776 
L 113.536232 337.019089 
L 113.597092 327.633094 
L 113.39508 318.349512 
L 112.855539 306.079142 
L 112.280267 296.852373 
L 111.500389 287.574245 
L 110.495566 278.261657 
L 109.256345 268.938076 
L 107.777245 259.626661 
L 106.055075 250.349013 
L 102.885707 235.133567 
L 100.083476 223.265453 
L 98.445224 217.406612 
L 95.697027 208.704939 
L 89.174705 189.255126 
L 86.861169 181.564112 
L 82.037524 164.454912 
L 79.6498 157.139159 
L 77.898803 152.27897 
L 75.970622 147.433469 
L 73.824616 142.60315 
L 71.443387 137.791848 
L 68.867705 133.009396 
L 64.738443 125.913294 
L 56.524768 112.147077 
L 54.313988 107.78787 
L 52.54678 103.577396 
L 51.168095 99.519055 
L 48.097617 89.864017 
L 45.638068 82.466035 
L 44.095385 77.064589 
L 42.776856 71.794399 
L 42.090685 68.374192 
L 41.766943 65.061601 
L 41.792524 63.458965 
L 41.96947 61.902196 
L 42.304311 60.399097 
L 42.805131 58.952857 
L 44.155971 56.194821 
L 45.777448 53.589021 
L 47.545613 51.111903 
L 50.350353 47.599352 
L 53.262813 44.289855 
L 57.247256 40.131342 
L 60.144165 37.131063 
L 61.826441 35.126361 
L 63.24991 33.089408 
L 64.395997 30.999843 
L 65.204457 28.848956 
L 65.691959 26.637615 
L 66.10175 23.229182 
L 66.658372 18.60703 
L 68.014679 10.517646 
L 68.077273 8.171379 
L 68.007058 0.96889 
L 68.334855 -1 
L 68.334855 -1 
" style="fill:none;stroke:#008000;stroke-linecap:square;stroke-width:1.5;"/>
   </g>
   <g id="line2d_4">
    <path clip-path="url(#p4dea9a56da)" d="M 113.537523 361 
L 114.225332 351.915575 
L 114.70919 342.618772 
L 115.007509 333.308278 
L 115.11635 323.952363 
L 114.993903 314.557264 
L 114.659339 305.139682 
L 114.123218 295.690114 
L 113.359696 286.211793 
L 112.356795 276.723777 
L 111.108566 267.247423 
L 109.611717 257.803215 
L 107.864731 248.410234 
L 105.867523 239.086161 
L 103.634689 229.853036 
L 101.223853 220.749335 
L 98.647208 211.790324 
L 95.881036 202.969753 
L 92.920049 194.29223 
L 88.840837 182.997179 
L 85.641123 174.727452 
L 82.293821 166.618484 
L 78.803985 158.671715 
L 73.992997 148.337832 
L 69.011332 138.301928 
L 63.895193 128.561435 
L 57.380557 116.787667 
L 52.111486 107.682159 
L 45.426823 96.694191 
L 40.37334 88.244755 
L 37.007252 82.143465 
L 34.111207 76.282359 
L 32.507906 72.518314 
L 31.323381 68.873201 
L 30.939926 67.099055 
L 30.717037 65.358938 
L 30.660711 63.654996 
L 30.738555 61.998998 
L 30.953578 60.393617 
L 31.317269 58.842929 
L 31.830846 57.346821 
L 33.174095 54.487757 
L 34.769563 51.783316 
L 36.507846 49.211759 
L 39.271743 45.565728 
L 42.152184 42.131197 
L 46.107595 37.815788 
L 50.148375 33.738861 
L 55.26915 28.899235 
L 63.193862 21.551921 
L 64.549937 19.711271 
L 65.48859 17.82086 
L 66.069727 15.860509 
L 66.375927 13.822777 
L 66.955633 7.32571 
L 67.556688 3.9544 
L 68.154741 1.690479 
L 69.098503 -1 
L 69.098503 -1 
" style="fill:none;stroke:#0000ff;stroke-linecap:square;stroke-width:1.5;"/>
   </g>
   <g id="patch_6">
    <path d="M 45.9 320.4 
L 45.9 43.2 
" style="fill:none;stroke:#000000;stroke-linecap:square;stroke-linejoin:miter;stroke-width:0.8;"/>
   </g>
   <g id="patch_7">
    <path d="M 323.1 320.4 
L 323.1 43.2 
" style="fill:none;stroke:#000000;stroke-linecap:square;stroke-linejoin:miter;stroke-width:0.8;"/>
   </g>
   <g id="patch_8">
    <path d="M 45.9 320.4 
L 323.1 320.4 
" style="fill:none;stroke:#000000;stroke-linecap:square;stroke-linejoin:miter;stroke-width:0.8;"/>
   </g>
   <g id="patch_9">
    <path d="M 45.9 43.2 
L 323.1 43.2 
" style="fill:none;stroke:#000000;stroke-linecap:square;stroke-linejoin:miter;stroke-width:0.8;"/>
   </g>
   <g id="text_1">
    <!-- Obstacle -->
    <defs>
     <path d="M 42.484375 60.59375 
Q 33.890625 60.59375 29.15625 54.25 
Q 24.421875 47.90625 24.421875 36.375 
Q 24.421875 24.90625 29.15625 18.546875 
Q 33.890625 12.203125 42.484375 12.203125 
Q 51.125 12.203125 55.859375 18.546875 
Q 60.59375 24.90625 60.59375 36.375 
Q 60.59375 47.90625 55.859375 54.25 
Q 51.125 60.59375 42.484375 60.59375 
z
M 42.484375 74.21875 
Q 60.0625 74.21875 70.015625 64.15625 
Q 79.984375 54.109375 79.984375 36.375 
Q 79.984375 18.703125 70.015625 8.640625 
Q 60.0625 -1.421875 42.484375 -1.421875 
Q 24.953125 -1.421875 14.96875 8.640625 
Q 4.984375 18.703125 4.984375 36.375 
Q 4.984375 54.109375 14.96875 64.15625 
Q 24.953125 74.21875 42.484375 74.21875 
z
" id="DejaVuSans-Bold-4f"/>
     <path d="M 37.5 11.28125 
Q 43.109375 11.28125 46.0625 15.375 
Q 49.03125 19.484375 49.03125 27.296875 
Q 49.03125 35.109375 46.0625 39.203125 
Q 43.109375 43.3125 37.5 43.3125 
Q 31.890625 43.3125 28.875 39.1875 
Q 25.875 35.0625 25.875 27.296875 
Q 25.875 19.53125 28.875 15.40625 
Q 31.890625 11.28125 37.5 11.28125 
z
M 25.875 46.6875 
Q 29.5 51.46875 33.890625 53.734375 
Q 38.28125 56 44 56 
Q 54.109375 56 60.59375 47.96875 
Q 67.09375 39.9375 67.09375 27.296875 
Q 67.09375 14.65625 60.59375 6.609375 
Q 54.109375 -1.421875 44 -1.421875 
Q 38.28125 -1.421875 33.890625 0.84375 
Q 29.5 3.125 25.875 7.90625 
L 25.875 0 
L 8.40625 0 
L 8.40625 75.984375 
L 25.875 75.984375 
z
" id="DejaVuSans-Bold-62"/>
     <path d="M 51.125 52.984375 
L 51.125 39.703125 
Q 45.515625 42.046875 40.28125 43.21875 
Q 35.0625 44.390625 30.421875 44.390625 
Q 25.4375 44.390625 23.015625 43.140625 
Q 20.609375 41.890625 20.609375 39.3125 
Q 20.609375 37.203125 22.4375 36.078125 
Q 24.265625 34.96875 29 34.421875 
L 32.078125 33.984375 
Q 45.515625 32.28125 50.140625 28.375 
Q 54.78125 24.46875 54.78125 16.109375 
Q 54.78125 7.375 48.328125 2.96875 
Q 41.890625 -1.421875 29.109375 -1.421875 
Q 23.6875 -1.421875 17.890625 -0.5625 
Q 12.109375 0.296875 6 2 
L 6 15.28125 
Q 11.234375 12.75 16.71875 11.46875 
Q 22.21875 10.203125 27.875 10.203125 
Q 33.015625 10.203125 35.59375 11.609375 
Q 38.1875 13.03125 38.1875 15.828125 
Q 38.1875 18.171875 36.40625 19.3125 
Q 34.625 20.453125 29.296875 21.09375 
L 26.21875 21.484375 
Q 14.546875 22.953125 9.859375 26.90625 
Q 5.171875 30.859375 5.171875 38.921875 
Q 5.171875 47.609375 11.125 51.796875 
Q 17.09375 56 29.390625 56 
Q 34.234375 56 39.546875 55.265625 
Q 44.875 54.546875 51.125 52.984375 
z
" id="DejaVuSans-Bold-73"/>
     <path d="M 27.484375 70.21875 
L 27.484375 54.6875 
L 45.515625 54.6875 
L 45.515625 42.1875 
L 27.484375 42.1875 
L 27.484375 19 
Q 27.484375 15.1875 29 13.84375 
Q 30.515625 12.5 35.015625 12.5 
L 44 12.5 
L 44 0 
L 29 0 
Q 18.65625 0 14.328125 4.3125 
Q 10.015625 8.640625 10.015625 19 
L 10.015625 42.1875 
L 1.3125 42.1875 
L 1.3125 54.6875 
L 10.015625 54.6875 
L 10.015625 70.21875 
z
" id="DejaVuSans-Bold-74"/>
     <path d="M 32.90625 24.609375 
Q 27.4375 24.609375 24.671875 22.75 
Q 21.921875 20.90625 21.921875 17.28125 
Q 21.921875 13.96875 24.140625 12.078125 
Q 26.375 10.203125 30.328125 10.203125 
Q 35.25 10.203125 38.625 13.734375 
Q 42 17.28125 42 22.609375 
L 42 24.609375 
z
M 59.625 31.203125 
L 59.625 0 
L 42 0 
L 42 8.109375 
Q 38.484375 3.125 34.078125 0.84375 
Q 29.6875 -1.421875 23.390625 -1.421875 
Q 14.890625 -1.421875 9.59375 3.53125 
Q 4.296875 8.5 4.296875 16.40625 
Q 4.296875 26.03125 10.90625 30.515625 
Q 17.53125 35.015625 31.6875 35.015625 
L 42 35.015625 
L 42 36.375 
Q 42 40.53125 38.71875 42.453125 
Q 35.453125 44.390625 28.515625 44.390625 
Q 22.90625 44.390625 18.0625 43.265625 
Q 13.234375 42.140625 9.078125 39.890625 
L 9.078125 53.21875 
Q 14.703125 54.59375 20.359375 55.296875 
Q 26.03125 56 31.6875 56 
Q 46.484375 56 53.046875 50.171875 
Q 59.625 44.34375 59.625 31.203125 
z
" id="DejaVuSans-Bold-61"/>
     <path d="M 52.59375 52.984375 
L 52.59375 38.71875 
Q 49.03125 41.15625 45.4375 42.328125 
Q 41.84375 43.5 37.984375 43.5 
Q 30.671875 43.5 26.59375 39.234375 
Q 22.515625 34.96875 22.515625 27.296875 
Q 22.515625 19.625 26.59375 15.34375 
Q 30.671875 11.078125 37.984375 11.078125 
Q 42.09375 11.078125 45.78125 12.296875 
Q 49.46875 13.53125 52.59375 15.921875 
L 52.59375 1.609375 
Q 48.484375 0.09375 44.265625 -0.65625 
Q 40.046875 -1.421875 35.796875 -1.421875 
Q 21 -1.421875 12.640625 6.171875 
Q 4.296875 13.765625 4.296875 27.296875 
Q 4.296875 40.828125 12.640625 48.40625 
Q 21 56 35.796875 56 
Q 40.09375 56 44.265625 55.25 
Q 48.4375 54.5 52.59375 52.984375 
z
" id="DejaVuSans-Bold-63"/>
     <path d="M 8.40625 75.984375 
L 25.875 75.984375 
L 25.875 0 
L 8.40625 0 
z
" id="DejaVuSans-Bold-6c"/>
     <path d="M 62.984375 27.484375 
L 62.984375 22.515625 
L 22.125 22.515625 
Q 22.75 16.359375 26.5625 13.28125 
Q 30.375 10.203125 37.203125 10.203125 
Q 42.71875 10.203125 48.5 11.84375 
Q 54.296875 13.484375 60.40625 16.796875 
L 60.40625 3.328125 
Q 54.203125 0.984375 48 -0.21875 
Q 41.796875 -1.421875 35.59375 -1.421875 
Q 20.75 -1.421875 12.515625 6.125 
Q 4.296875 13.671875 4.296875 27.296875 
Q 4.296875 40.671875 12.375 48.328125 
Q 20.453125 56 34.625 56 
Q 47.515625 56 55.25 48.234375 
Q 62.984375 40.484375 62.984375 27.484375 
z
M 45.015625 33.296875 
Q 45.015625 38.28125 42.109375 41.328125 
Q 39.203125 44.390625 34.515625 44.390625 
Q 29.4375 44.390625 26.265625 41.53125 
Q 23.09375 38.671875 22.3125 33.296875 
z
" id="DejaVuSans-Bold-65"/>
    </defs>
    <g transform="translate(122.902344 37.2)scale(0.25 -0.25)">
     <use xlink:href="#DejaVuSans-Bold-4f"/>
     <use x="85.009766" xlink:href="#DejaVuSans-Bold-62"/>
     <use x="156.591797" xlink:href="#DejaVuSans-Bold-73"/>
     <use x="216.113281" xlink:href="#DejaVuSans-Bold-74"/>
     <use x="263.916016" xlink:href="#DejaVuSans-Bold-61"/>
     <use x="331.396484" xlink:href="#DejaVuSans-Bold-63"/>
     <use x="390.673828" xlink:href="#DejaVuSans-Bold-6c"/>
     <use x="424.951172" xlink:href="#DejaVuSans-Bold-65"/>
    </g>
   </g>
  </g>
 </g>
 <defs>
  <clipPath id="p4dea9a56da">
   <rect height="277.2" width="277.2" x="45.9" y="43.2"/>
  </clipPath>
 </defs>
</svg>
