<?xml version="1.0" encoding="utf-8" standalone="no"?>
<!DOCTYPE svg PUBLIC "-//W3C//DTD SVG 1.1//EN"
  "http://www.w3.org/Graphics/SVG/1.1/DTD/svg11.dtd">
<!-- Created with matplotlib (http://matplotlib.org/) -->
<svg height="360pt" version="1.1" viewBox="0 0 360 360" width="360pt" xmlns="http://www.w3.org/2000/svg" xmlns:xlink="http://www.w3.org/1999/xlink">
 <defs>
  <style type="text/css">
*{stroke-linecap:butt;stroke-linejoin:round;}
  </style>
 </defs>
 <g id="figure_1">
  <g id="patch_1">
   <path d="M 0 360 
L 360 360 
L 360 0 
L 0 0 
z
" style="fill:#ffffff;"/>
  </g>
  <g id="axes_1">
   <g id="patch_2">
    <path d="M 45.9 320.4 
L 323.1 320.4 
L 323.1 43.2 
L 45.9 43.2 
z
" style="fill:#eaeaf2;"/>
   </g>
   <g id="patch_3">
    <path clip-path="url(#p1c3f558bbc)" d="M 160.1064 -124.2288 
C 163.782115 -124.2288 167.307777 -125.689177 169.9069 -128.2883 
C 172.506023 -130.887423 173.9664 -134.413085 173.9664 -138.0888 
C 173.9664 -141.764515 172.506023 -145.290177 169.9069 -147.8893 
C 167.307777 -150.488423 163.782115 -151.9488 160.1064 -151.9488 
C 156.430685 -151.9488 152.905023 -150.488423 150.3059 -147.8893 
C 147.706777 -145.290177 146.2464 -141.764515 146.2464 -138.0888 
C 146.2464 -134.413085 147.706777 -130.887423 150.3059 -128.2883 
C 152.905023 -125.689177 156.430685 -124.2288 160.1064 -124.2288 
z
" style="fill:#008000;opacity:0.6;stroke:#000000;stroke-linejoin:miter;"/>
   </g>
   <g id="patch_4">
    <path clip-path="url(#p1c3f558bbc)" d="M 184.5 285.75 
C 212.067862 285.75 238.510328 274.797172 258.00375 255.30375 
C 277.497172 235.810328 288.45 209.367862 288.45 181.8 
C 288.45 154.232138 277.497172 127.789672 258.00375 108.29625 
C 238.510328 88.802828 212.067862 77.85 184.5 77.85 
C 156.932138 77.85 130.489672 88.802828 110.99625 108.29625 
C 91.502828 127.789672 80.55 154.232138 80.55 181.8 
C 80.55 209.367862 91.502828 235.810328 110.99625 255.30375 
C 130.489672 274.797172 156.932138 285.75 184.5 285.75 
z
" style="opacity:0.1;stroke:#000000;stroke-linejoin:miter;"/>
   </g>
   <g id="patch_5">
    <path clip-path="url(#p1c3f558bbc)" d="M 184.5 216.45 
C 193.689287 216.45 202.503443 212.799057 209.00125 206.30125 
C 215.499057 199.803443 219.15 190.989287 219.15 181.8 
C 219.15 172.610713 215.499057 163.796557 209.00125 157.29875 
C 202.503443 150.800943 193.689287 147.15 184.5 147.15 
C 175.310713 147.15 166.496557 150.800943 159.99875 157.29875 
C 153.500943 163.796557 149.85 172.610713 149.85 181.8 
C 149.85 190.989287 153.500943 199.803443 159.99875 206.30125 
C 166.496557 212.799057 175.310713 216.45 184.5 216.45 
z
" style="fill:#ff0000;opacity:0.2;stroke:#ff0000;stroke-linejoin:miter;"/>
   </g>
   <g id="line2d_1">
    <path clip-path="url(#p1c3f558bbc)" d="M 112.779359 361 
L 113.470973 352.950289 
L 114.084986 343.506861 
L 114.479349 334.018583 
L 114.629435 324.502787 
L 114.538814 314.983381 
L 114.220523 305.468316 
L 113.686688 295.951941 
L 112.930771 286.426841 
L 111.934928 276.902155 
L 110.691749 267.396245 
L 109.198014 257.928338 
L 107.458609 248.519797 
L 105.518485 239.210453 
L 103.387581 230.017129 
L 101.07199 220.950415 
L 98.600419 212.027596 
L 95.970798 203.252449 
L 91.939904 191.6987 
L 88.770542 183.22449 
L 85.467282 174.919732 
L 82.031572 166.783985 
L 78.473691 158.819595 
L 73.594333 148.471209 
L 68.569132 138.430737 
L 62.206539 126.304128 
L 54.571527 112.405204 
L 49.746418 103.606673 
L 47.712325 99.405746 
L 46.87387 97.367027 
L 46.180961 95.373904 
L 45.635501 93.430224 
L 44.959572 89.685628 
L 44.638903 86.114358 
L 44.55876 82.685903 
L 44.706269 79.385557 
L 45.105299 76.205222 
L 45.715423 73.137199 
L 47.204349 67.292239 
L 51.99954 49.928851 
L 54.30626 42.4114 
L 55.649835 38.744016 
L 57.692573 33.959794 
L 63.108259 22.449579 
L 66.929159 14.661787 
L 69.963591 8.047489 
L 72.240179 2.534704 
L 73.620478 -1 
L 73.620478 -1 
" style="fill:none;stroke:#000000;stroke-linecap:square;stroke-width:1.5;"/>
   </g>
   <g id="line2d_2">
    <path clip-path="url(#p1c3f558bbc)" d="M 114.139694 361 
L 114.834729 353.241542 
L 115.466824 344.030234 
L 115.905195 334.672417 
L 116.135811 325.202836 
L 116.145436 315.650659 
L 115.898697 306.04872 
L 115.373307 296.454602 
L 114.625163 286.886309 
L 113.649152 277.331416 
L 112.428099 267.798051 
L 110.956613 258.303153 
L 109.234331 248.865032 
L 107.331155 239.535899 
L 105.908763 233.358986 
L 103.559624 224.167117 
L 102.078984 218.241408 
L 99.908749 209.510348 
L 98.338933 203.74947 
L 97.480597 200.875959 
L 96.648266 198.865576 
L 95.927 197.764619 
L 93.249683 194.352532 
L 90.297636 190.137348 
L 86.088492 183.583248 
L 82.819769 178.14896 
L 78.496385 170.443388 
L 67.269733 150.00832 
L 64.352808 144.018547 
L 61.817452 138.202685 
L 58.851071 130.666208 
L 50.20135 108.55635 
L 44.812952 96.066681 
L 43.698056 92.634111 
L 42.981346 89.282374 
L 42.669323 86.013502 
L 42.655614 82.822124 
L 42.911752 78.168903 
L 43.679036 69.358558 
L 44.246227 65.190661 
L 45.04572 61.141445 
L 47.424262 50.846023 
L 48.421569 46.054427 
L 49.067119 43.732165 
L 50.317769 40.303176 
L 52.300297 35.782553 
L 54.969691 30.174253 
L 59.348369 21.294952 
L 60.625008 17.924781 
L 65.455362 2.852742 
L 66.388061 -1 
L 66.388061 -1 
" style="fill:none;stroke:#ff0000;stroke-linecap:square;stroke-width:1.5;"/>
   </g>
   <g id="line2d_3">
    <path clip-path="url(#p1c3f558bbc)" d="M 110.52718 361 
L 111.107145 351.086808 
L 111.420439 342.292901 
L 111.577378 330.544046 
L 111.489774 321.654201 
L 111.203054 312.666829 
L 110.529613 300.57809 
L 109.808406 291.430358 
L 108.873059 282.227713 
L 107.706784 272.997652 
L 106.309679 263.764671 
L 104.675397 254.550154 
L 102.804284 245.377205 
L 100.688556 236.262286 
L 97.595367 224.305496 
L 95.12231 215.503297 
L 93.316429 209.680607 
L 90.318051 201.008605 
L 87.045706 192.448335 
L 82.415746 181.274662 
L 76.537 167.789564 
L 71.741094 157.396066 
L 68.058311 149.859129 
L 64.162481 142.487231 
L 59.996995 135.247908 
L 55.699538 128.168166 
L 47.373223 114.573654 
L 45.001299 110.274562 
L 41.87662 104.060079 
L 39.200917 98.095126 
L 36.905944 92.353969 
L 34.22226 84.980457 
L 31.85963 77.872398 
L 30.886873 74.429184 
L 30.1826 71.075962 
L 29.837445 67.824981 
L 29.877754 64.683855 
L 30.247389 61.654636 
L 30.897733 58.731848 
L 31.777691 55.912593 
L 33.349595 51.875467 
L 38.975655 38.707734 
L 42.03381 32.113502 
L 43.799044 28.784671 
L 47.0315 23.28989 
L 49.503675 18.912797 
L 51.090027 15.600409 
L 56.093034 4.476739 
L 57.543228 1.253054 
L 58.439002 -1 
L 58.439002 -1 
" style="fill:none;stroke:#008000;stroke-linecap:square;stroke-width:1.5;"/>
   </g>
   <g id="line2d_4">
    <path clip-path="url(#p1c3f558bbc)" d="M 110.515393 361 
L 111.060012 354.743361 
L 111.680959 345.420358 
L 112.049299 336.047015 
L 112.195817 326.661805 
L 112.1484 317.251218 
L 111.865591 307.814717 
L 111.373175 298.363408 
L 110.658877 288.892534 
L 109.706129 279.415634 
L 108.508033 269.952614 
L 107.061165 260.523397 
L 105.364044 251.146719 
L 103.41665 241.839988 
L 101.220193 232.619336 
L 98.007522 220.566144 
L 95.413956 211.700321 
L 92.63649 202.968279 
L 89.670377 194.378691 
L 85.491895 183.173771 
L 81.14484 172.278895 
L 76.688933 161.701193 
L 73.250195 153.967582 
L 69.694763 146.398133 
L 64.773424 136.551883 
L 59.744217 126.989705 
L 52.441505 113.316045 
L 49.303795 106.876847 
L 46.605446 100.727973 
L 45.09971 96.78777 
L 43.895669 92.978604 
L 43.015746 89.306962 
L 42.459306 85.769602 
L 42.232593 82.361195 
L 42.293446 79.07611 
L 42.582865 75.907924 
L 43.061617 72.848553 
L 44.039033 68.440965 
L 46.605451 58.792992 
L 48.152272 53.551291 
L 50.686976 45.967969 
L 55.029249 33.838757 
L 56.911672 29.111666 
L 59.486037 23.313064 
L 64.098358 13.126365 
L 69.958082 -0.20343 
L 70.336701 -1 
L 70.336701 -1 
" style="fill:none;stroke:#0000ff;stroke-linecap:square;stroke-width:1.5;"/>
   </g>
   <g id="patch_6">
    <path d="M 45.9 320.4 
L 45.9 43.2 
" style="fill:none;stroke:#000000;stroke-linecap:square;stroke-linejoin:miter;stroke-width:0.8;"/>
   </g>
   <g id="patch_7">
    <path d="M 323.1 320.4 
L 323.1 43.2 
" style="fill:none;stroke:#000000;stroke-linecap:square;stroke-linejoin:miter;stroke-width:0.8;"/>
   </g>
   <g id="patch_8">
    <path d="M 45.9 320.4 
L 323.1 320.4 
" style="fill:none;stroke:#000000;stroke-linecap:square;stroke-linejoin:miter;stroke-width:0.8;"/>
   </g>
   <g id="patch_9">
    <path d="M 45.9 43.2 
L 323.1 43.2 
" style="fill:none;stroke:#000000;stroke-linecap:square;stroke-linejoin:miter;stroke-width:0.8;"/>
   </g>
   <g id="text_1">
    <!-- Obstacle -->
    <defs>
     <path d="M 42.484375 60.59375 
Q 33.890625 60.59375 29.15625 54.25 
Q 24.421875 47.90625 24.421875 36.375 
Q 24.421875 24.90625 29.15625 18.546875 
Q 33.890625 12.203125 42.484375 12.203125 
Q 51.125 12.203125 55.859375 18.546875 
Q 60.59375 24.90625 60.59375 36.375 
Q 60.59375 47.90625 55.859375 54.25 
Q 51.125 60.59375 42.484375 60.59375 
z
M 42.484375 74.21875 
Q 60.0625 74.21875 70.015625 64.15625 
Q 79.984375 54.109375 79.984375 36.375 
Q 79.984375 18.703125 70.015625 8.640625 
Q 60.0625 -1.421875 42.484375 -1.421875 
Q 24.953125 -1.421875 14.96875 8.640625 
Q 4.984375 18.703125 4.984375 36.375 
Q 4.984375 54.109375 14.96875 64.15625 
Q 24.953125 74.21875 42.484375 74.21875 
z
" id="DejaVuSans-Bold-4f"/>
     <path d="M 37.5 11.28125 
Q 43.109375 11.28125 46.0625 15.375 
Q 49.03125 19.484375 49.03125 27.296875 
Q 49.03125 35.109375 46.0625 39.203125 
Q 43.109375 43.3125 37.5 43.3125 
Q 31.890625 43.3125 28.875 39.1875 
Q 25.875 35.0625 25.875 27.296875 
Q 25.875 19.53125 28.875 15.40625 
Q 31.890625 11.28125 37.5 11.28125 
z
M 25.875 46.6875 
Q 29.5 51.46875 33.890625 53.734375 
Q 38.28125 56 44 56 
Q 54.109375 56 60.59375 47.96875 
Q 67.09375 39.9375 67.09375 27.296875 
Q 67.09375 14.65625 60.59375 6.609375 
Q 54.109375 -1.421875 44 -1.421875 
Q 38.28125 -1.421875 33.890625 0.84375 
Q 29.5 3.125 25.875 7.90625 
L 25.875 0 
L 8.40625 0 
L 8.40625 75.984375 
L 25.875 75.984375 
z
" id="DejaVuSans-Bold-62"/>
     <path d="M 51.125 52.984375 
L 51.125 39.703125 
Q 45.515625 42.046875 40.28125 43.21875 
Q 35.0625 44.390625 30.421875 44.390625 
Q 25.4375 44.390625 23.015625 43.140625 
Q 20.609375 41.890625 20.609375 39.3125 
Q 20.609375 37.203125 22.4375 36.078125 
Q 24.265625 34.96875 29 34.421875 
L 32.078125 33.984375 
Q 45.515625 32.28125 50.140625 28.375 
Q 54.78125 24.46875 54.78125 16.109375 
Q 54.78125 7.375 48.328125 2.96875 
Q 41.890625 -1.421875 29.109375 -1.421875 
Q 23.6875 -1.421875 17.890625 -0.5625 
Q 12.109375 0.296875 6 2 
L 6 15.28125 
Q 11.234375 12.75 16.71875 11.46875 
Q 22.21875 10.203125 27.875 10.203125 
Q 33.015625 10.203125 35.59375 11.609375 
Q 38.1875 13.03125 38.1875 15.828125 
Q 38.1875 18.171875 36.40625 19.3125 
Q 34.625 20.453125 29.296875 21.09375 
L 26.21875 21.484375 
Q 14.546875 22.953125 9.859375 26.90625 
Q 5.171875 30.859375 5.171875 38.921875 
Q 5.171875 47.609375 11.125 51.796875 
Q 17.09375 56 29.390625 56 
Q 34.234375 56 39.546875 55.265625 
Q 44.875 54.546875 51.125 52.984375 
z
" id="DejaVuSans-Bold-73"/>
     <path d="M 27.484375 70.21875 
L 27.484375 54.6875 
L 45.515625 54.6875 
L 45.515625 42.1875 
L 27.484375 42.1875 
L 27.484375 19 
Q 27.484375 15.1875 29 13.84375 
Q 30.515625 12.5 35.015625 12.5 
L 44 12.5 
L 44 0 
L 29 0 
Q 18.65625 0 14.328125 4.3125 
Q 10.015625 8.640625 10.015625 19 
L 10.015625 42.1875 
L 1.3125 42.1875 
L 1.3125 54.6875 
L 10.015625 54.6875 
L 10.015625 70.21875 
z
" id="DejaVuSans-Bold-74"/>
     <path d="M 32.90625 24.609375 
Q 27.4375 24.609375 24.671875 22.75 
Q 21.921875 20.90625 21.921875 17.28125 
Q 21.921875 13.96875 24.140625 12.078125 
Q 26.375 10.203125 30.328125 10.203125 
Q 35.25 10.203125 38.625 13.734375 
Q 42 17.28125 42 22.609375 
L 42 24.609375 
z
M 59.625 31.203125 
L 59.625 0 
L 42 0 
L 42 8.109375 
Q 38.484375 3.125 34.078125 0.84375 
Q 29.6875 -1.421875 23.390625 -1.421875 
Q 14.890625 -1.421875 9.59375 3.53125 
Q 4.296875 8.5 4.296875 16.40625 
Q 4.296875 26.03125 10.90625 30.515625 
Q 17.53125 35.015625 31.6875 35.015625 
L 42 35.015625 
L 42 36.375 
Q 42 40.53125 38.71875 42.453125 
Q 35.453125 44.390625 28.515625 44.390625 
Q 22.90625 44.390625 18.0625 43.265625 
Q 13.234375 42.140625 9.078125 39.890625 
L 9.078125 53.21875 
Q 14.703125 54.59375 20.359375 55.296875 
Q 26.03125 56 31.6875 56 
Q 46.484375 56 53.046875 50.171875 
Q 59.625 44.34375 59.625 31.203125 
z
" id="DejaVuSans-Bold-61"/>
     <path d="M 52.59375 52.984375 
L 52.59375 38.71875 
Q 49.03125 41.15625 45.4375 42.328125 
Q 41.84375 43.5 37.984375 43.5 
Q 30.671875 43.5 26.59375 39.234375 
Q 22.515625 34.96875 22.515625 27.296875 
Q 22.515625 19.625 26.59375 15.34375 
Q 30.671875 11.078125 37.984375 11.078125 
Q 42.09375 11.078125 45.78125 12.296875 
Q 49.46875 13.53125 52.59375 15.921875 
L 52.59375 1.609375 
Q 48.484375 0.09375 44.265625 -0.65625 
Q 40.046875 -1.421875 35.796875 -1.421875 
Q 21 -1.421875 12.640625 6.171875 
Q 4.296875 13.765625 4.296875 27.296875 
Q 4.296875 40.828125 12.640625 48.40625 
Q 21 56 35.796875 56 
Q 40.09375 56 44.265625 55.25 
Q 48.4375 54.5 52.59375 52.984375 
z
" id="DejaVuSans-Bold-63"/>
     <path d="M 8.40625 75.984375 
L 25.875 75.984375 
L 25.875 0 
L 8.40625 0 
z
" id="DejaVuSans-Bold-6c"/>
     <path d="M 62.984375 27.484375 
L 62.984375 22.515625 
L 22.125 22.515625 
Q 22.75 16.359375 26.5625 13.28125 
Q 30.375 10.203125 37.203125 10.203125 
Q 42.71875 10.203125 48.5 11.84375 
Q 54.296875 13.484375 60.40625 16.796875 
L 60.40625 3.328125 
Q 54.203125 0.984375 48 -0.21875 
Q 41.796875 -1.421875 35.59375 -1.421875 
Q 20.75 -1.421875 12.515625 6.125 
Q 4.296875 13.671875 4.296875 27.296875 
Q 4.296875 40.671875 12.375 48.328125 
Q 20.453125 56 34.625 56 
Q 47.515625 56 55.25 48.234375 
Q 62.984375 40.484375 62.984375 27.484375 
z
M 45.015625 33.296875 
Q 45.015625 38.28125 42.109375 41.328125 
Q 39.203125 44.390625 34.515625 44.390625 
Q 29.4375 44.390625 26.265625 41.53125 
Q 23.09375 38.671875 22.3125 33.296875 
z
" id="DejaVuSans-Bold-65"/>
    </defs>
    <g transform="translate(122.902344 37.2)scale(0.25 -0.25)">
     <use xlink:href="#DejaVuSans-Bold-4f"/>
     <use x="85.009766" xlink:href="#DejaVuSans-Bold-62"/>
     <use x="156.591797" xlink:href="#DejaVuSans-Bold-73"/>
     <use x="216.113281" xlink:href="#DejaVuSans-Bold-74"/>
     <use x="263.916016" xlink:href="#DejaVuSans-Bold-61"/>
     <use x="331.396484" xlink:href="#DejaVuSans-Bold-63"/>
     <use x="390.673828" xlink:href="#DejaVuSans-Bold-6c"/>
     <use x="424.951172" xlink:href="#DejaVuSans-Bold-65"/>
    </g>
   </g>
  </g>
 </g>
 <defs>
  <clipPath id="p1c3f558bbc">
   <rect height="277.2" width="277.2" x="45.9" y="43.2"/>
  </clipPath>
 </defs>
</svg>
