<?xml version="1.0" encoding="utf-8" standalone="no"?>
<!DOCTYPE svg PUBLIC "-//W3C//DTD SVG 1.1//EN"
  "http://www.w3.org/Graphics/SVG/1.1/DTD/svg11.dtd">
<!-- Created with matplotlib (http://matplotlib.org/) -->
<svg height="360pt" version="1.1" viewBox="0 0 360 360" width="360pt" xmlns="http://www.w3.org/2000/svg" xmlns:xlink="http://www.w3.org/1999/xlink">
 <defs>
  <style type="text/css">
*{stroke-linecap:butt;stroke-linejoin:round;}
  </style>
 </defs>
 <g id="figure_1">
  <g id="patch_1">
   <path d="M 0 360 
L 360 360 
L 360 0 
L 0 0 
z
" style="fill:#ffffff;"/>
  </g>
  <g id="axes_1">
   <g id="patch_2">
    <path d="M 45.9 320.4 
L 323.1 320.4 
L 323.1 43.2 
L 45.9 43.2 
z
" style="fill:#eaeaf2;"/>
   </g>
   <g id="patch_3">
    <path clip-path="url(#p4cf44917b6)" d="M 160.1064 -124.2288 
C 163.782115 -124.2288 167.307777 -125.689177 169.9069 -128.2883 
C 172.506023 -130.887423 173.9664 -134.413085 173.9664 -138.0888 
C 173.9664 -141.764515 172.506023 -145.290177 169.9069 -147.8893 
C 167.307777 -150.488423 163.782115 -151.9488 160.1064 -151.9488 
C 156.430685 -151.9488 152.905023 -150.488423 150.3059 -147.8893 
C 147.706777 -145.290177 146.2464 -141.764515 146.2464 -138.0888 
C 146.2464 -134.413085 147.706777 -130.887423 150.3059 -128.2883 
C 152.905023 -125.689177 156.430685 -124.2288 160.1064 -124.2288 
z
" style="fill:#008000;opacity:0.6;stroke:#000000;stroke-linejoin:miter;"/>
   </g>
   <g id="patch_4">
    <path clip-path="url(#p4cf44917b6)" d="M 184.5 285.75 
C 212.067862 285.75 238.510328 274.797172 258.00375 255.30375 
C 277.497172 235.810328 288.45 209.367862 288.45 181.8 
C 288.45 154.232138 277.497172 127.789672 258.00375 108.29625 
C 238.510328 88.802828 212.067862 77.85 184.5 77.85 
C 156.932138 77.85 130.489672 88.802828 110.99625 108.29625 
C 91.502828 127.789672 80.55 154.232138 80.55 181.8 
C 80.55 209.367862 91.502828 235.810328 110.99625 255.30375 
C 130.489672 274.797172 156.932138 285.75 184.5 285.75 
z
" style="opacity:0.1;stroke:#000000;stroke-linejoin:miter;"/>
   </g>
   <g id="patch_5">
    <path clip-path="url(#p4cf44917b6)" d="M 184.5 216.45 
C 193.689287 216.45 202.503443 212.799057 209.00125 206.30125 
C 215.499057 199.803443 219.15 190.989287 219.15 181.8 
C 219.15 172.610713 215.499057 163.796557 209.00125 157.29875 
C 202.503443 150.800943 193.689287 147.15 184.5 147.15 
C 175.310713 147.15 166.496557 150.800943 159.99875 157.29875 
C 153.500943 163.796557 149.85 172.610713 149.85 181.8 
C 149.85 190.989287 153.500943 199.803443 159.99875 206.30125 
C 166.496557 212.799057 175.310713 216.45 184.5 216.45 
z
" style="fill:#ff0000;opacity:0.2;stroke:#ff0000;stroke-linejoin:miter;"/>
   </g>
   <g id="line2d_1">
    <path clip-path="url(#p4cf44917b6)" d="M 113.537523 361 
L 114.225332 351.915575 
L 114.70919 342.618772 
L 115.007509 333.308278 
L 115.11635 323.952363 
L 114.993903 314.557264 
L 114.659339 305.139682 
L 114.123218 295.690114 
L 113.359696 286.211793 
L 112.356795 276.723777 
L 111.108566 267.247423 
L 109.611717 257.803215 
L 107.864731 248.410234 
L 105.867523 239.086161 
L 103.634689 229.853036 
L 101.223853 220.749335 
L 98.647208 211.790324 
L 95.881036 202.969753 
L 92.920049 194.29223 
L 88.840837 182.997179 
L 85.641123 174.727452 
L 82.293821 166.618484 
L 78.803985 158.671715 
L 73.992997 148.337832 
L 69.011332 138.301928 
L 63.895193 128.561435 
L 57.380557 116.787667 
L 52.111486 107.682159 
L 45.426823 96.694191 
L 40.37334 88.244755 
L 37.007252 82.143465 
L 34.111207 76.282359 
L 32.507906 72.518314 
L 31.323381 68.873201 
L 30.939926 67.099055 
L 30.717037 65.358938 
L 30.660711 63.654996 
L 30.738555 61.998998 
L 30.953578 60.393617 
L 31.317269 58.842929 
L 31.830846 57.346821 
L 33.174095 54.487757 
L 34.769563 51.783316 
L 36.507846 49.211759 
L 39.271743 45.565728 
L 42.152184 42.131197 
L 46.107595 37.815788 
L 50.148375 33.738861 
L 55.26915 28.899235 
L 63.193862 21.551921 
L 64.549937 19.711271 
L 65.48859 17.82086 
L 66.069727 15.860509 
L 66.375927 13.822777 
L 66.955633 7.32571 
L 67.556688 3.9544 
L 68.154741 1.690479 
L 69.098503 -1 
L 69.098503 -1 
" style="fill:none;stroke:#000000;stroke-linecap:square;stroke-width:1.5;"/>
   </g>
   <g id="line2d_2">
    <path clip-path="url(#p4cf44917b6)" d="M 102.811249 361 
L 103.432497 352.25104 
L 103.89972 343.342871 
L 104.19283 334.279182 
L 104.292951 325.093791 
L 104.184661 315.817679 
L 103.855591 306.479271 
L 103.29607 297.104682 
L 102.498812 287.717942 
L 101.45863 278.341195 
L 100.172183 268.994872 
L 98.637753 259.697845 
L 96.887296 250.484158 
L 95.752694 244.463933 
L 94.206821 235.683684 
L 93.592402 232.759586 
L 93.174646 229.92771 
L 92.005867 224.214702 
L 89.943559 215.66327 
L 86.496554 201.917252 
L 85.473803 196.835281 
L 84.704073 192.022577 
L 83.14515 180.749282 
L 82.242237 176.303237 
L 80.961293 171.745232 
L 79.26911 167.042619 
L 73.654445 152.799252 
L 72.207138 148.231581 
L 71.703913 146.045283 
L 71.385202 143.94277 
L 71.269683 141.934469 
L 71.368058 140.026881 
L 71.662611 138.221074 
L 72.111426 136.511938 
L 72.688162 134.88901 
L 74.093894 131.844873 
L 76.980638 126.176331 
L 77.547891 124.783194 
L 77.997441 123.38054 
L 78.309908 121.959914 
L 78.478107 120.512911 
L 78.506218 119.032906 
L 78.398258 117.518207 
L 78.160765 115.968751 
L 77.322063 112.766605 
L 75.987469 109.419366 
L 74.170839 105.921256 
L 69.100984 96.810052 
L 67.529812 93.186023 
L 66.424874 89.657281 
L 65.695942 86.241902 
L 65.312557 82.940955 
L 65.21151 79.747101 
L 65.269967 67.555211 
L 64.939538 64.559083 
L 64.345714 61.554679 
L 63.446043 58.522381 
L 62.184821 55.439247 
L 60.509852 52.287673 
L 58.398044 49.061245 
L 55.830267 45.760793 
L 52.838575 42.402159 
L 49.543994 39.009821 
L 44.228337 33.892429 
L 36.964863 27.08385 
L 33.709501 23.699207 
L 32.271678 22.012799 
L 30.99621 20.330939 
L 29.90551 18.654472 
L 29.01807 16.983966 
L 28.344627 15.320936 
L 27.883217 13.668566 
L 27.620116 12.031552 
L 27.517084 10.419802 
L 27.546914 8.837417 
L 27.935899 5.761799 
L 28.662993 2.803416 
L 29.968867 -1 
L 29.968867 -1 
" style="fill:none;stroke:#ff0000;stroke-linecap:square;stroke-width:1.5;"/>
   </g>
   <g id="line2d_3">
    <path clip-path="url(#p4cf44917b6)" d="M 113.76899 361 
L 114.182163 352.156933 
L 114.488561 340.809784 
L 114.52014 329.253101 
L 114.262021 317.518058 
L 113.857807 308.612946 
L 113.203115 299.66114 
L 112.594176 293.711561 
L 111.835725 287.814788 
L 110.433486 279.128191 
L 107.788066 265.360776 
L 102.984281 242.208892 
L 101.691922 236.935706 
L 99.402832 228.840839 
L 96.120387 217.975977 
L 95.213985 215.240531 
L 94.474586 212.566162 
L 92.654372 207.143923 
L 89.606286 198.971266 
L 86.313827 190.831995 
L 82.801345 182.764187 
L 79.077227 174.793173 
L 75.146633 166.939436 
L 69.67899 156.687628 
L 58.022457 134.771643 
L 50.775094 121.025791 
L 46.595632 112.413447 
L 41.8949 102.365701 
L 40.37096 98.590192 
L 39.252809 94.960858 
L 38.557324 91.457649 
L 38.000717 86.361884 
L 37.635529 83.014593 
L 36.804085 78.002819 
L 35.635174 72.999773 
L 33.955161 66.334946 
L 31.774636 56.523186 
L 31.358982 53.345717 
L 31.284533 50.269758 
L 31.412905 48.779132 
L 31.668066 47.324542 
L 32.058761 45.908854 
L 32.590696 44.534546 
L 33.963918 41.888466 
L 35.582928 39.363173 
L 38.247976 35.769181 
L 41.064064 32.370684 
L 44.947206 28.084589 
L 48.748737 23.985879 
L 50.240502 21.92772 
L 50.774363 20.885499 
L 51.139862 19.829631 
L 51.331124 18.75639 
L 51.352431 17.662932 
L 51.219809 16.546883 
L 50.628166 14.240069 
L 48.698345 8.095923 
L 48.273436 5.532834 
L 48.236769 2.948756 
L 48.548813 0.388256 
L 48.874913 -1 
L 48.874913 -1 
" style="fill:none;stroke:#008000;stroke-linecap:square;stroke-width:1.5;"/>
   </g>
   <g id="line2d_4">
    <path clip-path="url(#p4cf44917b6)" d="M 110.493788 361 
L 111.066347 353.006469 
L 111.524186 343.937128 
L 111.783651 334.811671 
L 111.847841 325.637095 
L 111.72008 316.412585 
L 111.384655 307.140142 
L 110.827377 297.835638 
L 110.051903 288.512843 
L 109.059489 279.176975 
L 107.83499 269.839412 
L 106.370101 260.519596 
L 104.661664 251.238094 
L 102.72802 242.023993 
L 100.549507 232.885778 
L 95.100508 212.160628 
L 94.249663 209.26615 
L 93.63799 206.462505 
L 92.018979 200.816406 
L 89.264474 192.384624 
L 85.335322 181.345572 
L 81.193483 170.577318 
L 76.883345 160.090397 
L 72.418807 149.883183 
L 67.848117 139.953814 
L 63.194418 130.297285 
L 58.432543 120.901526 
L 52.383801 109.51843 
L 44.345616 94.38594 
L 41.280422 88.221157 
L 38.607636 82.268163 
L 37.073527 78.421606 
L 35.751369 74.673718 
L 34.656343 71.024567 
L 33.831921 67.474135 
L 33.305521 64.027164 
L 33.079329 60.686668 
L 33.097592 57.46319 
L 33.322836 54.351339 
L 33.715086 51.341484 
L 34.555493 47.000878 
L 35.657709 42.850119 
L 36.975437 38.866861 
L 38.465239 35.029891 
L 40.63927 30.104554 
L 42.966225 25.359487 
L 45.463476 20.772072 
L 48.190479 16.33612 
L 51.124185 12.041599 
L 57.140991 3.768869 
L 60.317643 -0.223927 
L 60.96568 -1 
L 60.96568 -1 
" style="fill:none;stroke:#0000ff;stroke-linecap:square;stroke-width:1.5;"/>
   </g>
   <g id="patch_6">
    <path d="M 45.9 320.4 
L 45.9 43.2 
" style="fill:none;stroke:#000000;stroke-linecap:square;stroke-linejoin:miter;stroke-width:0.8;"/>
   </g>
   <g id="patch_7">
    <path d="M 323.1 320.4 
L 323.1 43.2 
" style="fill:none;stroke:#000000;stroke-linecap:square;stroke-linejoin:miter;stroke-width:0.8;"/>
   </g>
   <g id="patch_8">
    <path d="M 45.9 320.4 
L 323.1 320.4 
" style="fill:none;stroke:#000000;stroke-linecap:square;stroke-linejoin:miter;stroke-width:0.8;"/>
   </g>
   <g id="patch_9">
    <path d="M 45.9 43.2 
L 323.1 43.2 
" style="fill:none;stroke:#000000;stroke-linecap:square;stroke-linejoin:miter;stroke-width:0.8;"/>
   </g>
   <g id="text_1">
    <!-- Obstacle -->
    <defs>
     <path d="M 42.484375 60.59375 
Q 33.890625 60.59375 29.15625 54.25 
Q 24.421875 47.90625 24.421875 36.375 
Q 24.421875 24.90625 29.15625 18.546875 
Q 33.890625 12.203125 42.484375 12.203125 
Q 51.125 12.203125 55.859375 18.546875 
Q 60.59375 24.90625 60.59375 36.375 
Q 60.59375 47.90625 55.859375 54.25 
Q 51.125 60.59375 42.484375 60.59375 
z
M 42.484375 74.21875 
Q 60.0625 74.21875 70.015625 64.15625 
Q 79.984375 54.109375 79.984375 36.375 
Q 79.984375 18.703125 70.015625 8.640625 
Q 60.0625 -1.421875 42.484375 -1.421875 
Q 24.953125 -1.421875 14.96875 8.640625 
Q 4.984375 18.703125 4.984375 36.375 
Q 4.984375 54.109375 14.96875 64.15625 
Q 24.953125 74.21875 42.484375 74.21875 
z
" id="DejaVuSans-Bold-4f"/>
     <path d="M 37.5 11.28125 
Q 43.109375 11.28125 46.0625 15.375 
Q 49.03125 19.484375 49.03125 27.296875 
Q 49.03125 35.109375 46.0625 39.203125 
Q 43.109375 43.3125 37.5 43.3125 
Q 31.890625 43.3125 28.875 39.1875 
Q 25.875 35.0625 25.875 27.296875 
Q 25.875 19.53125 28.875 15.40625 
Q 31.890625 11.28125 37.5 11.28125 
z
M 25.875 46.6875 
Q 29.5 51.46875 33.890625 53.734375 
Q 38.28125 56 44 56 
Q 54.109375 56 60.59375 47.96875 
Q 67.09375 39.9375 67.09375 27.296875 
Q 67.09375 14.65625 60.59375 6.609375 
Q 54.109375 -1.421875 44 -1.421875 
Q 38.28125 -1.421875 33.890625 0.84375 
Q 29.5 3.125 25.875 7.90625 
L 25.875 0 
L 8.40625 0 
L 8.40625 75.984375 
L 25.875 75.984375 
z
" id="DejaVuSans-Bold-62"/>
     <path d="M 51.125 52.984375 
L 51.125 39.703125 
Q 45.515625 42.046875 40.28125 43.21875 
Q 35.0625 44.390625 30.421875 44.390625 
Q 25.4375 44.390625 23.015625 43.140625 
Q 20.609375 41.890625 20.609375 39.3125 
Q 20.609375 37.203125 22.4375 36.078125 
Q 24.265625 34.96875 29 34.421875 
L 32.078125 33.984375 
Q 45.515625 32.28125 50.140625 28.375 
Q 54.78125 24.46875 54.78125 16.109375 
Q 54.78125 7.375 48.328125 2.96875 
Q 41.890625 -1.421875 29.109375 -1.421875 
Q 23.6875 -1.421875 17.890625 -0.5625 
Q 12.109375 0.296875 6 2 
L 6 15.28125 
Q 11.234375 12.75 16.71875 11.46875 
Q 22.21875 10.203125 27.875 10.203125 
Q 33.015625 10.203125 35.59375 11.609375 
Q 38.1875 13.03125 38.1875 15.828125 
Q 38.1875 18.171875 36.40625 19.3125 
Q 34.625 20.453125 29.296875 21.09375 
L 26.21875 21.484375 
Q 14.546875 22.953125 9.859375 26.90625 
Q 5.171875 30.859375 5.171875 38.921875 
Q 5.171875 47.609375 11.125 51.796875 
Q 17.09375 56 29.390625 56 
Q 34.234375 56 39.546875 55.265625 
Q 44.875 54.546875 51.125 52.984375 
z
" id="DejaVuSans-Bold-73"/>
     <path d="M 27.484375 70.21875 
L 27.484375 54.6875 
L 45.515625 54.6875 
L 45.515625 42.1875 
L 27.484375 42.1875 
L 27.484375 19 
Q 27.484375 15.1875 29 13.84375 
Q 30.515625 12.5 35.015625 12.5 
L 44 12.5 
L 44 0 
L 29 0 
Q 18.65625 0 14.328125 4.3125 
Q 10.015625 8.640625 10.015625 19 
L 10.015625 42.1875 
L 1.3125 42.1875 
L 1.3125 54.6875 
L 10.015625 54.6875 
L 10.015625 70.21875 
z
" id="DejaVuSans-Bold-74"/>
     <path d="M 32.90625 24.609375 
Q 27.4375 24.609375 24.671875 22.75 
Q 21.921875 20.90625 21.921875 17.28125 
Q 21.921875 13.96875 24.140625 12.078125 
Q 26.375 10.203125 30.328125 10.203125 
Q 35.25 10.203125 38.625 13.734375 
Q 42 17.28125 42 22.609375 
L 42 24.609375 
z
M 59.625 31.203125 
L 59.625 0 
L 42 0 
L 42 8.109375 
Q 38.484375 3.125 34.078125 0.84375 
Q 29.6875 -1.421875 23.390625 -1.421875 
Q 14.890625 -1.421875 9.59375 3.53125 
Q 4.296875 8.5 4.296875 16.40625 
Q 4.296875 26.03125 10.90625 30.515625 
Q 17.53125 35.015625 31.6875 35.015625 
L 42 35.015625 
L 42 36.375 
Q 42 40.53125 38.71875 42.453125 
Q 35.453125 44.390625 28.515625 44.390625 
Q 22.90625 44.390625 18.0625 43.265625 
Q 13.234375 42.140625 9.078125 39.890625 
L 9.078125 53.21875 
Q 14.703125 54.59375 20.359375 55.296875 
Q 26.03125 56 31.6875 56 
Q 46.484375 56 53.046875 50.171875 
Q 59.625 44.34375 59.625 31.203125 
z
" id="DejaVuSans-Bold-61"/>
     <path d="M 52.59375 52.984375 
L 52.59375 38.71875 
Q 49.03125 41.15625 45.4375 42.328125 
Q 41.84375 43.5 37.984375 43.5 
Q 30.671875 43.5 26.59375 39.234375 
Q 22.515625 34.96875 22.515625 27.296875 
Q 22.515625 19.625 26.59375 15.34375 
Q 30.671875 11.078125 37.984375 11.078125 
Q 42.09375 11.078125 45.78125 12.296875 
Q 49.46875 13.53125 52.59375 15.921875 
L 52.59375 1.609375 
Q 48.484375 0.09375 44.265625 -0.65625 
Q 40.046875 -1.421875 35.796875 -1.421875 
Q 21 -1.421875 12.640625 6.171875 
Q 4.296875 13.765625 4.296875 27.296875 
Q 4.296875 40.828125 12.640625 48.40625 
Q 21 56 35.796875 56 
Q 40.09375 56 44.265625 55.25 
Q 48.4375 54.5 52.59375 52.984375 
z
" id="DejaVuSans-Bold-63"/>
     <path d="M 8.40625 75.984375 
L 25.875 75.984375 
L 25.875 0 
L 8.40625 0 
z
" id="DejaVuSans-Bold-6c"/>
     <path d="M 62.984375 27.484375 
L 62.984375 22.515625 
L 22.125 22.515625 
Q 22.75 16.359375 26.5625 13.28125 
Q 30.375 10.203125 37.203125 10.203125 
Q 42.71875 10.203125 48.5 11.84375 
Q 54.296875 13.484375 60.40625 16.796875 
L 60.40625 3.328125 
Q 54.203125 0.984375 48 -0.21875 
Q 41.796875 -1.421875 35.59375 -1.421875 
Q 20.75 -1.421875 12.515625 6.125 
Q 4.296875 13.671875 4.296875 27.296875 
Q 4.296875 40.671875 12.375 48.328125 
Q 20.453125 56 34.625 56 
Q 47.515625 56 55.25 48.234375 
Q 62.984375 40.484375 62.984375 27.484375 
z
M 45.015625 33.296875 
Q 45.015625 38.28125 42.109375 41.328125 
Q 39.203125 44.390625 34.515625 44.390625 
Q 29.4375 44.390625 26.265625 41.53125 
Q 23.09375 38.671875 22.3125 33.296875 
z
" id="DejaVuSans-Bold-65"/>
    </defs>
    <g transform="translate(122.902344 37.2)scale(0.25 -0.25)">
     <use xlink:href="#DejaVuSans-Bold-4f"/>
     <use x="85.009766" xlink:href="#DejaVuSans-Bold-62"/>
     <use x="156.591797" xlink:href="#DejaVuSans-Bold-73"/>
     <use x="216.113281" xlink:href="#DejaVuSans-Bold-74"/>
     <use x="263.916016" xlink:href="#DejaVuSans-Bold-61"/>
     <use x="331.396484" xlink:href="#DejaVuSans-Bold-63"/>
     <use x="390.673828" xlink:href="#DejaVuSans-Bold-6c"/>
     <use x="424.951172" xlink:href="#DejaVuSans-Bold-65"/>
    </g>
   </g>
  </g>
 </g>
 <defs>
  <clipPath id="p4cf44917b6">
   <rect height="277.2" width="277.2" x="45.9" y="43.2"/>
  </clipPath>
 </defs>
</svg>
