<?xml version="1.0" encoding="utf-8" standalone="no"?>
<!DOCTYPE svg PUBLIC "-//W3C//DTD SVG 1.1//EN"
  "http://www.w3.org/Graphics/SVG/1.1/DTD/svg11.dtd">
<!-- Created with matplotlib (http://matplotlib.org/) -->
<svg height="360pt" version="1.1" viewBox="0 0 360 360" width="360pt" xmlns="http://www.w3.org/2000/svg" xmlns:xlink="http://www.w3.org/1999/xlink">
 <defs>
  <style type="text/css">
*{stroke-linecap:butt;stroke-linejoin:round;}
  </style>
 </defs>
 <g id="figure_1">
  <g id="patch_1">
   <path d="M 0 360 
L 360 360 
L 360 0 
L 0 0 
z
" style="fill:#ffffff;"/>
  </g>
  <g id="axes_1">
   <g id="patch_2">
    <path d="M 45.9 320.4 
L 323.1 320.4 
L 323.1 43.2 
L 45.9 43.2 
z
" style="fill:#eaeaf2;"/>
   </g>
   <g id="patch_3">
    <path clip-path="url(#pa3d8e09abd)" d="M 160.1064 -124.2288 
C 163.782115 -124.2288 167.307777 -125.689177 169.9069 -128.2883 
C 172.506023 -130.887423 173.9664 -134.413085 173.9664 -138.0888 
C 173.9664 -141.764515 172.506023 -145.290177 169.9069 -147.8893 
C 167.307777 -150.488423 163.782115 -151.9488 160.1064 -151.9488 
C 156.430685 -151.9488 152.905023 -150.488423 150.3059 -147.8893 
C 147.706777 -145.290177 146.2464 -141.764515 146.2464 -138.0888 
C 146.2464 -134.413085 147.706777 -130.887423 150.3059 -128.2883 
C 152.905023 -125.689177 156.430685 -124.2288 160.1064 -124.2288 
z
" style="fill:#008000;opacity:0.6;stroke:#000000;stroke-linejoin:miter;"/>
   </g>
   <g id="patch_4">
    <path clip-path="url(#pa3d8e09abd)" d="M 184.5 285.75 
C 212.067862 285.75 238.510328 274.797172 258.00375 255.30375 
C 277.497172 235.810328 288.45 209.367862 288.45 181.8 
C 288.45 154.232138 277.497172 127.789672 258.00375 108.29625 
C 238.510328 88.802828 212.067862 77.85 184.5 77.85 
C 156.932138 77.85 130.489672 88.802828 110.99625 108.29625 
C 91.502828 127.789672 80.55 154.232138 80.55 181.8 
C 80.55 209.367862 91.502828 235.810328 110.99625 255.30375 
C 130.489672 274.797172 156.932138 285.75 184.5 285.75 
z
" style="opacity:0.1;stroke:#000000;stroke-linejoin:miter;"/>
   </g>
   <g id="patch_5">
    <path clip-path="url(#pa3d8e09abd)" d="M 184.5 216.45 
C 193.689287 216.45 202.503443 212.799057 209.00125 206.30125 
C 215.499057 199.803443 219.15 190.989287 219.15 181.8 
C 219.15 172.610713 215.499057 163.796557 209.00125 157.29875 
C 202.503443 150.800943 193.689287 147.15 184.5 147.15 
C 175.310713 147.15 166.496557 150.800943 159.99875 157.29875 
C 153.500943 163.796557 149.85 172.610713 149.85 181.8 
C 149.85 190.989287 153.500943 199.803443 159.99875 206.30125 
C 166.496557 212.799057 175.310713 216.45 184.5 216.45 
z
" style="fill:#ff0000;opacity:0.2;stroke:#ff0000;stroke-linejoin:miter;"/>
   </g>
   <g id="line2d_1">
    <path clip-path="url(#pa3d8e09abd)" d="M 102.500696 361 
L 102.844731 353.315902 
L 103.13274 342.1672 
L 103.176601 331.095149 
L 103.023059 322.886469 
L 102.669281 314.736852 
L 102.117535 306.617115 
L 101.165239 295.917578 
L 100.305028 287.98838 
L 99.243399 280.058865 
L 97.564857 269.515405 
L 93.632417 246.735841 
L 91.009928 232.390948 
L 82.14002 186.388462 
L 79.05859 168.760253 
L 76.218033 150.560044 
L 73.614262 133.423705 
L 72.370531 123.676673 
L 71.189307 114.269073 
L 70.175798 108.123095 
L 68.674112 100.541147 
L 66.337318 88.771576 
L 60.974393 61.354441 
L 59.396496 54.877945 
L 53.771718 33.179945 
L 51.682227 24.434888 
L 46.499653 4.175015 
L 45.318424 -1 
L 45.318424 -1 
" style="fill:none;stroke:#000000;stroke-linecap:square;stroke-width:1.5;"/>
   </g>
   <g id="line2d_2">
    <path clip-path="url(#pa3d8e09abd)" d="M 108.983643 361 
L 109.36828 353.439099 
L 109.853464 338.835814 
L 110.222795 319.089135 
L 110.526318 291.023793 
L 110.158502 283.447157 
L 108.891875 265.689104 
L 107.752163 253.182342 
L 106.798048 245.737566 
L 105.510488 238.207699 
L 103.486537 228.010014 
L 100.919739 215.318117 
L 100.115926 210.481678 
L 99.234804 203.639412 
L 98.976282 201.464235 
L 98.63157 200.506792 
L 95.729819 196.627484 
L 95.467104 195.782926 
L 95.056036 194.21216 
L 93.468972 189.984088 
L 90.59774 182.400745 
L 89.377611 178.617841 
L 87.927445 173.26609 
L 82.728856 151.687889 
L 80.720762 142.798413 
L 79.968397 138.417137 
L 78.038745 125.265715 
L 77.079916 120.846784 
L 75.547612 115.006849 
L 73.854906 109.301152 
L 71.97859 103.748936 
L 70.193783 98.39114 
L 69.186905 94.529368 
L 68.235671 89.51625 
L 67.225598 84.441313 
L 66.164153 80.489835 
L 64.399119 75.004534 
L 60.526459 63.657674 
L 58.884149 59.437668 
L 54.902926 49.731725 
L 53.455728 45.534358 
L 52.220527 41.318747 
L 50.826347 35.800094 
L 49.689787 30.564083 
L 48.871362 25.61748 
L 48.369648 20.811957 
L 48.076825 16.043528 
L 47.834423 7.055524 
L 47.850151 3.177568 
L 48.092728 0.581611 
L 48.356396 -1 
L 48.356396 -1 
" style="fill:none;stroke:#ff0000;stroke-linecap:square;stroke-width:1.5;"/>
   </g>
   <g id="line2d_3">
    <path clip-path="url(#pa3d8e09abd)" d="M 107.896094 361 
L 108.48222 349.752443 
L 108.672255 341.577297 
L 108.615872 336.088782 
L 108.236796 327.886452 
L 107.583526 319.821507 
L 106.465318 309.334906 
L 104.865141 296.626709 
L 102.351504 279.223772 
L 100.687946 269.297594 
L 99.263964 261.971409 
L 97.650535 254.791605 
L 94.72126 243.120723 
L 82.45355 194.538426 
L 80.330989 185.592346 
L 79.034922 179.121828 
L 78.110192 172.931293 
L 75.480329 153.337988 
L 73.957829 142.106174 
L 72.812093 133.134099 
L 71.771011 127.780814 
L 70.441886 122.39905 
L 68.151184 113.529583 
L 67.004482 108.359394 
L 65.78162 101.670312 
L 63.081779 85.574587 
L 61.802336 80.782112 
L 60.282768 75.995564 
L 54.51023 58.984459 
L 53.858162 56.149746 
L 53.398023 53.405067 
L 53.00157 49.399161 
L 52.840552 45.431313 
L 52.859888 40.134425 
L 53.11448 28.404802 
L 52.817896 24.652059 
L 52.129963 19.819293 
L 51.057867 12.873957 
L 50.805804 9.571708 
L 50.82063 7.453599 
L 50.996987 5.398938 
L 51.333066 3.403256 
L 52.085047 0.512959 
L 52.560847 -1 
L 52.560847 -1 
" style="fill:none;stroke:#008000;stroke-linecap:square;stroke-width:1.5;"/>
   </g>
   <g id="line2d_4">
    <path clip-path="url(#pa3d8e09abd)" d="M 104.77159 361 
L 105.244576 350.246291 
L 105.437422 341.548776 
L 105.446626 332.858125 
L 105.284248 324.231568 
L 104.818371 312.879902 
L 104.026112 299.002841 
L 103.408404 290.749951 
L 102.316492 279.734251 
L 100.7904 266.149138 
L 99.342307 255.365698 
L 97.692317 244.714372 
L 95.825869 234.223049 
L 92.851763 218.880992 
L 89.279317 201.635603 
L 87.583739 194.404099 
L 80.697443 166.870169 
L 79.424245 160.596418 
L 77.709659 150.657347 
L 76.266802 141.212986 
L 71.445461 105.388486 
L 70.282725 97.468397 
L 68.86277 89.680552 
L 67.162795 80.548364 
L 65.58092 71.682045 
L 60.519391 44.331697 
L 55.689896 11.766402 
L 54.324897 2.951614 
L 53.895478 -1 
L 53.895478 -1 
" style="fill:none;stroke:#0000ff;stroke-linecap:square;stroke-width:1.5;"/>
   </g>
   <g id="patch_6">
    <path d="M 45.9 320.4 
L 45.9 43.2 
" style="fill:none;stroke:#000000;stroke-linecap:square;stroke-linejoin:miter;stroke-width:0.8;"/>
   </g>
   <g id="patch_7">
    <path d="M 323.1 320.4 
L 323.1 43.2 
" style="fill:none;stroke:#000000;stroke-linecap:square;stroke-linejoin:miter;stroke-width:0.8;"/>
   </g>
   <g id="patch_8">
    <path d="M 45.9 320.4 
L 323.1 320.4 
" style="fill:none;stroke:#000000;stroke-linecap:square;stroke-linejoin:miter;stroke-width:0.8;"/>
   </g>
   <g id="patch_9">
    <path d="M 45.9 43.2 
L 323.1 43.2 
" style="fill:none;stroke:#000000;stroke-linecap:square;stroke-linejoin:miter;stroke-width:0.8;"/>
   </g>
   <g id="text_1">
    <!-- Obstacle -->
    <defs>
     <path d="M 42.484375 60.59375 
Q 33.890625 60.59375 29.15625 54.25 
Q 24.421875 47.90625 24.421875 36.375 
Q 24.421875 24.90625 29.15625 18.546875 
Q 33.890625 12.203125 42.484375 12.203125 
Q 51.125 12.203125 55.859375 18.546875 
Q 60.59375 24.90625 60.59375 36.375 
Q 60.59375 47.90625 55.859375 54.25 
Q 51.125 60.59375 42.484375 60.59375 
z
M 42.484375 74.21875 
Q 60.0625 74.21875 70.015625 64.15625 
Q 79.984375 54.109375 79.984375 36.375 
Q 79.984375 18.703125 70.015625 8.640625 
Q 60.0625 -1.421875 42.484375 -1.421875 
Q 24.953125 -1.421875 14.96875 8.640625 
Q 4.984375 18.703125 4.984375 36.375 
Q 4.984375 54.109375 14.96875 64.15625 
Q 24.953125 74.21875 42.484375 74.21875 
z
" id="DejaVuSans-Bold-4f"/>
     <path d="M 37.5 11.28125 
Q 43.109375 11.28125 46.0625 15.375 
Q 49.03125 19.484375 49.03125 27.296875 
Q 49.03125 35.109375 46.0625 39.203125 
Q 43.109375 43.3125 37.5 43.3125 
Q 31.890625 43.3125 28.875 39.1875 
Q 25.875 35.0625 25.875 27.296875 
Q 25.875 19.53125 28.875 15.40625 
Q 31.890625 11.28125 37.5 11.28125 
z
M 25.875 46.6875 
Q 29.5 51.46875 33.890625 53.734375 
Q 38.28125 56 44 56 
Q 54.109375 56 60.59375 47.96875 
Q 67.09375 39.9375 67.09375 27.296875 
Q 67.09375 14.65625 60.59375 6.609375 
Q 54.109375 -1.421875 44 -1.421875 
Q 38.28125 -1.421875 33.890625 0.84375 
Q 29.5 3.125 25.875 7.90625 
L 25.875 0 
L 8.40625 0 
L 8.40625 75.984375 
L 25.875 75.984375 
z
" id="DejaVuSans-Bold-62"/>
     <path d="M 51.125 52.984375 
L 51.125 39.703125 
Q 45.515625 42.046875 40.28125 43.21875 
Q 35.0625 44.390625 30.421875 44.390625 
Q 25.4375 44.390625 23.015625 43.140625 
Q 20.609375 41.890625 20.609375 39.3125 
Q 20.609375 37.203125 22.4375 36.078125 
Q 24.265625 34.96875 29 34.421875 
L 32.078125 33.984375 
Q 45.515625 32.28125 50.140625 28.375 
Q 54.78125 24.46875 54.78125 16.109375 
Q 54.78125 7.375 48.328125 2.96875 
Q 41.890625 -1.421875 29.109375 -1.421875 
Q 23.6875 -1.421875 17.890625 -0.5625 
Q 12.109375 0.296875 6 2 
L 6 15.28125 
Q 11.234375 12.75 16.71875 11.46875 
Q 22.21875 10.203125 27.875 10.203125 
Q 33.015625 10.203125 35.59375 11.609375 
Q 38.1875 13.03125 38.1875 15.828125 
Q 38.1875 18.171875 36.40625 19.3125 
Q 34.625 20.453125 29.296875 21.09375 
L 26.21875 21.484375 
Q 14.546875 22.953125 9.859375 26.90625 
Q 5.171875 30.859375 5.171875 38.921875 
Q 5.171875 47.609375 11.125 51.796875 
Q 17.09375 56 29.390625 56 
Q 34.234375 56 39.546875 55.265625 
Q 44.875 54.546875 51.125 52.984375 
z
" id="DejaVuSans-Bold-73"/>
     <path d="M 27.484375 70.21875 
L 27.484375 54.6875 
L 45.515625 54.6875 
L 45.515625 42.1875 
L 27.484375 42.1875 
L 27.484375 19 
Q 27.484375 15.1875 29 13.84375 
Q 30.515625 12.5 35.015625 12.5 
L 44 12.5 
L 44 0 
L 29 0 
Q 18.65625 0 14.328125 4.3125 
Q 10.015625 8.640625 10.015625 19 
L 10.015625 42.1875 
L 1.3125 42.1875 
L 1.3125 54.6875 
L 10.015625 54.6875 
L 10.015625 70.21875 
z
" id="DejaVuSans-Bold-74"/>
     <path d="M 32.90625 24.609375 
Q 27.4375 24.609375 24.671875 22.75 
Q 21.921875 20.90625 21.921875 17.28125 
Q 21.921875 13.96875 24.140625 12.078125 
Q 26.375 10.203125 30.328125 10.203125 
Q 35.25 10.203125 38.625 13.734375 
Q 42 17.28125 42 22.609375 
L 42 24.609375 
z
M 59.625 31.203125 
L 59.625 0 
L 42 0 
L 42 8.109375 
Q 38.484375 3.125 34.078125 0.84375 
Q 29.6875 -1.421875 23.390625 -1.421875 
Q 14.890625 -1.421875 9.59375 3.53125 
Q 4.296875 8.5 4.296875 16.40625 
Q 4.296875 26.03125 10.90625 30.515625 
Q 17.53125 35.015625 31.6875 35.015625 
L 42 35.015625 
L 42 36.375 
Q 42 40.53125 38.71875 42.453125 
Q 35.453125 44.390625 28.515625 44.390625 
Q 22.90625 44.390625 18.0625 43.265625 
Q 13.234375 42.140625 9.078125 39.890625 
L 9.078125 53.21875 
Q 14.703125 54.59375 20.359375 55.296875 
Q 26.03125 56 31.6875 56 
Q 46.484375 56 53.046875 50.171875 
Q 59.625 44.34375 59.625 31.203125 
z
" id="DejaVuSans-Bold-61"/>
     <path d="M 52.59375 52.984375 
L 52.59375 38.71875 
Q 49.03125 41.15625 45.4375 42.328125 
Q 41.84375 43.5 37.984375 43.5 
Q 30.671875 43.5 26.59375 39.234375 
Q 22.515625 34.96875 22.515625 27.296875 
Q 22.515625 19.625 26.59375 15.34375 
Q 30.671875 11.078125 37.984375 11.078125 
Q 42.09375 11.078125 45.78125 12.296875 
Q 49.46875 13.53125 52.59375 15.921875 
L 52.59375 1.609375 
Q 48.484375 0.09375 44.265625 -0.65625 
Q 40.046875 -1.421875 35.796875 -1.421875 
Q 21 -1.421875 12.640625 6.171875 
Q 4.296875 13.765625 4.296875 27.296875 
Q 4.296875 40.828125 12.640625 48.40625 
Q 21 56 35.796875 56 
Q 40.09375 56 44.265625 55.25 
Q 48.4375 54.5 52.59375 52.984375 
z
" id="DejaVuSans-Bold-63"/>
     <path d="M 8.40625 75.984375 
L 25.875 75.984375 
L 25.875 0 
L 8.40625 0 
z
" id="DejaVuSans-Bold-6c"/>
     <path d="M 62.984375 27.484375 
L 62.984375 22.515625 
L 22.125 22.515625 
Q 22.75 16.359375 26.5625 13.28125 
Q 30.375 10.203125 37.203125 10.203125 
Q 42.71875 10.203125 48.5 11.84375 
Q 54.296875 13.484375 60.40625 16.796875 
L 60.40625 3.328125 
Q 54.203125 0.984375 48 -0.21875 
Q 41.796875 -1.421875 35.59375 -1.421875 
Q 20.75 -1.421875 12.515625 6.125 
Q 4.296875 13.671875 4.296875 27.296875 
Q 4.296875 40.671875 12.375 48.328125 
Q 20.453125 56 34.625 56 
Q 47.515625 56 55.25 48.234375 
Q 62.984375 40.484375 62.984375 27.484375 
z
M 45.015625 33.296875 
Q 45.015625 38.28125 42.109375 41.328125 
Q 39.203125 44.390625 34.515625 44.390625 
Q 29.4375 44.390625 26.265625 41.53125 
Q 23.09375 38.671875 22.3125 33.296875 
z
" id="DejaVuSans-Bold-65"/>
    </defs>
    <g transform="translate(122.902344 37.2)scale(0.25 -0.25)">
     <use xlink:href="#DejaVuSans-Bold-4f"/>
     <use x="85.009766" xlink:href="#DejaVuSans-Bold-62"/>
     <use x="156.591797" xlink:href="#DejaVuSans-Bold-73"/>
     <use x="216.113281" xlink:href="#DejaVuSans-Bold-74"/>
     <use x="263.916016" xlink:href="#DejaVuSans-Bold-61"/>
     <use x="331.396484" xlink:href="#DejaVuSans-Bold-63"/>
     <use x="390.673828" xlink:href="#DejaVuSans-Bold-6c"/>
     <use x="424.951172" xlink:href="#DejaVuSans-Bold-65"/>
    </g>
   </g>
  </g>
 </g>
 <defs>
  <clipPath id="pa3d8e09abd">
   <rect height="277.2" width="277.2" x="45.9" y="43.2"/>
  </clipPath>
 </defs>
</svg>
