<?xml version="1.0" encoding="utf-8" standalone="no"?>
<!DOCTYPE svg PUBLIC "-//W3C//DTD SVG 1.1//EN"
  "http://www.w3.org/Graphics/SVG/1.1/DTD/svg11.dtd">
<!-- Created with matplotlib (http://matplotlib.org/) -->
<svg height="360pt" version="1.1" viewBox="0 0 360 360" width="360pt" xmlns="http://www.w3.org/2000/svg" xmlns:xlink="http://www.w3.org/1999/xlink">
 <defs>
  <style type="text/css">
*{stroke-linecap:butt;stroke-linejoin:round;}
  </style>
 </defs>
 <g id="figure_1">
  <g id="patch_1">
   <path d="M 0 360 
L 360 360 
L 360 0 
L 0 0 
z
" style="fill:#ffffff;"/>
  </g>
  <g id="axes_1">
   <g id="patch_2">
    <path d="M 45.9 320.4 
L 323.1 320.4 
L 323.1 43.2 
L 45.9 43.2 
z
" style="fill:#eaeaf2;"/>
   </g>
   <g id="patch_3">
    <path clip-path="url(#pac271fbbe3)" d="M 160.1064 -124.2288 
C 163.782115 -124.2288 167.307777 -125.689177 169.9069 -128.2883 
C 172.506023 -130.887423 173.9664 -134.413085 173.9664 -138.0888 
C 173.9664 -141.764515 172.506023 -145.290177 169.9069 -147.8893 
C 167.307777 -150.488423 163.782115 -151.9488 160.1064 -151.9488 
C 156.430685 -151.9488 152.905023 -150.488423 150.3059 -147.8893 
C 147.706777 -145.290177 146.2464 -141.764515 146.2464 -138.0888 
C 146.2464 -134.413085 147.706777 -130.887423 150.3059 -128.2883 
C 152.905023 -125.689177 156.430685 -124.2288 160.1064 -124.2288 
z
" style="fill:#008000;opacity:0.6;stroke:#000000;stroke-linejoin:miter;"/>
   </g>
   <g id="patch_4">
    <path clip-path="url(#pac271fbbe3)" d="M 184.5 285.75 
C 212.067862 285.75 238.510328 274.797172 258.00375 255.30375 
C 277.497172 235.810328 288.45 209.367862 288.45 181.8 
C 288.45 154.232138 277.497172 127.789672 258.00375 108.29625 
C 238.510328 88.802828 212.067862 77.85 184.5 77.85 
C 156.932138 77.85 130.489672 88.802828 110.99625 108.29625 
C 91.502828 127.789672 80.55 154.232138 80.55 181.8 
C 80.55 209.367862 91.502828 235.810328 110.99625 255.30375 
C 130.489672 274.797172 156.932138 285.75 184.5 285.75 
z
" style="opacity:0.1;stroke:#000000;stroke-linejoin:miter;"/>
   </g>
   <g id="patch_5">
    <path clip-path="url(#pac271fbbe3)" d="M 184.5 216.45 
C 193.689287 216.45 202.503443 212.799057 209.00125 206.30125 
C 215.499057 199.803443 219.15 190.989287 219.15 181.8 
C 219.15 172.610713 215.499057 163.796557 209.00125 157.29875 
C 202.503443 150.800943 193.689287 147.15 184.5 147.15 
C 175.310713 147.15 166.496557 150.800943 159.99875 157.29875 
C 153.500943 163.796557 149.85 172.610713 149.85 181.8 
C 149.85 190.989287 153.500943 199.803443 159.99875 206.30125 
C 166.496557 212.799057 175.310713 216.45 184.5 216.45 
z
" style="fill:#ff0000;opacity:0.2;stroke:#ff0000;stroke-linejoin:miter;"/>
   </g>
   <g id="line2d_1">
    <path clip-path="url(#pac271fbbe3)" d="M 113.831609 361 
L 114.502485 351.79849 
L 114.959832 342.569928 
L 115.19547 333.332722 
L 115.215288 324.091734 
L 115.025802 314.844867 
L 114.641346 305.583754 
L 114.074322 296.287691 
L 113.300269 286.946864 
L 112.298471 277.57634 
L 111.059659 268.198687 
L 109.578656 258.836451 
L 107.852553 249.510737 
L 105.880137 240.241044 
L 103.672586 231.050211 
L 101.267197 221.970059 
L 98.623847 212.997595 
L 95.763263 204.14741 
L 90.611753 189.729111 
L 87.304569 181.294921 
L 80.452039 164.963004 
L 75.799664 154.492615 
L 71.053279 144.332769 
L 66.19012 134.470033 
L 60.134804 122.544808 
L 57.581458 117.900471 
L 54.81671 113.327682 
L 30.303276 74.85873 
L 22.238869 63.048235 
L 18.415483 57.292088 
L 14.947627 51.665294 
L 12.888934 47.976006 
L 11.10604 44.356847 
L 9.643393 40.818768 
L 8.522948 37.372364 
L 7.721192 34.029784 
L 7.233617 30.792114 
L 7.085639 27.663348 
L 7.160683 26.142457 
L 7.358614 24.653483 
L 7.704232 23.199122 
L 8.754343 20.377194 
L 10.105131 17.665825 
L 11.630948 15.058245 
L 14.114296 11.320146 
L 16.742461 7.75969 
L 20.387716 3.236362 
L 24.062388 -1 
L 24.062388 -1 
" style="fill:none;stroke:#000000;stroke-linecap:square;stroke-width:1.5;"/>
   </g>
   <g id="line2d_2">
    <path clip-path="url(#pac271fbbe3)" d="M 115.982933 361 
L 116.781941 353.252788 
L 117.577652 343.512972 
L 118.141296 333.695111 
L 118.461908 323.821803 
L 118.529144 313.915007 
L 118.298421 304.010136 
L 117.750107 294.170428 
L 116.926873 284.431871 
L 115.876761 274.77951 
L 114.605632 265.178204 
L 113.089756 255.625679 
L 111.351958 246.15116 
L 109.410067 236.778228 
L 107.243568 227.507625 
L 104.805827 218.328381 
L 102.063579 209.238379 
L 100.104275 203.480014 
L 97.141687 201.068788 
L 95.439905 199.189862 
L 93.683525 196.925254 
L 90.951122 192.879476 
L 85.989117 184.765407 
L 81.722336 177.375629 
L 77.020549 169.424437 
L 73.369794 163.214434 
L 69.778758 156.90703 
L 63.26939 146.215551 
L 58.02628 137.62797 
L 54.545822 131.213104 
L 50.239337 122.73405 
L 44.167804 110.164899 
L 31.614516 83.63569 
L 29.928707 79.709101 
L 29.256963 77.79534 
L 28.729638 75.918724 
L 28.330553 74.086571 
L 28.058233 72.299963 
L 27.911928 70.560059 
L 27.958885 67.212269 
L 28.595726 59.288488 
L 28.63071 54.676769 
L 28.411566 48.743049 
L 28.299484 45.87763 
L 28.428397 43.056524 
L 28.923298 40.295423 
L 29.66135 37.605874 
L 31.416018 32.402861 
L 32.934802 28.647077 
L 34.648698 25.006881 
L 37.138823 20.310026 
L 40.218059 14.607793 
L 41.717232 11.203837 
L 44.103866 5.55426 
L 45.785953 2.212876 
L 47.110512 0.025612 
L 47.806574 -1 
L 47.806574 -1 
" style="fill:none;stroke:#ff0000;stroke-linecap:square;stroke-width:1.5;"/>
   </g>
   <g id="line2d_3">
    <path clip-path="url(#pac271fbbe3)" d="M 115.045399 361 
L 115.764483 353.684603 
L 116.500903 343.816106 
L 116.97401 333.987847 
L 117.16736 324.204704 
L 117.121705 317.72196 
L 116.923674 311.290989 
L 116.571282 304.932169 
L 115.779005 295.561143 
L 114.743169 286.385014 
L 112.72857 271.29221 
L 111.296389 262.218051 
L 109.64516 253.127757 
L 107.764155 244.04354 
L 105.648736 234.988726 
L 103.296981 225.985234 
L 100.708742 217.053195 
L 97.885289 208.211014 
L 93.901591 196.634186 
L 89.834729 185.371016 
L 86.692127 177.12036 
L 83.366288 169.014668 
L 78.642896 158.428873 
L 74.946304 150.690573 
L 66.302986 133.448096 
L 62.446271 126.340755 
L 53.31002 110.272788 
L 51.38697 105.908161 
L 49.916149 101.694645 
L 48.847433 97.639871 
L 48.134574 93.742011 
L 46.57166 82.819302 
L 46.136493 81.03797 
L 45.584336 79.250017 
L 44.875314 77.449445 
L 43.995269 75.637607 
L 41.851712 71.995373 
L 38.117918 66.498752 
L 32.994097 59.11418 
L 31.870765 57.269544 
L 30.915297 55.437631 
L 30.181675 53.62208 
L 29.635912 51.849715 
L 29.3024 50.128497 
L 29.212305 48.467239 
L 29.376899 46.868602 
L 29.739111 45.31977 
L 30.847367 42.356523 
L 32.262712 39.552415 
L 33.85223 36.887054 
L 36.427135 33.111539 
L 39.143794 29.559746 
L 42.893093 25.100784 
L 45.505767 21.874549 
L 47.749531 18.679711 
L 51.32287 13.42688 
L 52.981929 11.385358 
L 55.70793 8.400621 
L 61.346165 2.661658 
L 65.099563 -1 
L 65.099563 -1 
" style="fill:none;stroke:#008000;stroke-linecap:square;stroke-width:1.5;"/>
   </g>
   <g id="line2d_4">
    <path clip-path="url(#pac271fbbe3)" d="M 113.578977 361 
L 114.162682 353.373921 
L 114.663328 344.136272 
L 114.953176 334.885605 
L 115.054017 325.611088 
L 114.963408 316.294972 
L 114.677646 306.928383 
L 114.183282 297.510741 
L 113.449295 288.060064 
L 112.481801 278.602893 
L 111.27692 269.152305 
L 109.826845 259.726256 
L 108.128558 250.343983 
L 106.18122 241.023806 
L 103.985449 231.782773 
L 101.564704 222.64561 
L 98.955616 213.639761 
L 96.179252 204.780876 
L 93.269401 196.084675 
L 89.207943 184.7546 
L 86.019231 176.454112 
L 82.641785 168.308212 
L 78.003732 157.711478 
L 74.373747 149.961893 
L 69.480617 139.887205 
L 66.003222 132.552105 
L 62.271114 125.376185 
L 58.3256 118.347172 
L 51.621614 106.949554 
L 43.938034 93.794498 
L 29.247438 69.124189 
L 27.161253 65.244065 
L 25.391771 61.459349 
L 24.676248 59.610723 
L 24.110488 57.796891 
L 23.727638 56.023475 
L 23.54944 54.299757 
L 23.5863 52.636746 
L 23.844224 51.035496 
L 24.274267 49.484328 
L 25.472995 46.517501 
L 26.947676 43.711105 
L 28.582956 41.044346 
L 31.216732 37.267557 
L 33.98846 33.714591 
L 37.822932 29.256077 
L 42.719047 24.020766 
L 53.024093 13.211785 
L 67.835449 -1 
L 67.835449 -1 
" style="fill:none;stroke:#0000ff;stroke-linecap:square;stroke-width:1.5;"/>
   </g>
   <g id="patch_6">
    <path d="M 45.9 320.4 
L 45.9 43.2 
" style="fill:none;stroke:#000000;stroke-linecap:square;stroke-linejoin:miter;stroke-width:0.8;"/>
   </g>
   <g id="patch_7">
    <path d="M 323.1 320.4 
L 323.1 43.2 
" style="fill:none;stroke:#000000;stroke-linecap:square;stroke-linejoin:miter;stroke-width:0.8;"/>
   </g>
   <g id="patch_8">
    <path d="M 45.9 320.4 
L 323.1 320.4 
" style="fill:none;stroke:#000000;stroke-linecap:square;stroke-linejoin:miter;stroke-width:0.8;"/>
   </g>
   <g id="patch_9">
    <path d="M 45.9 43.2 
L 323.1 43.2 
" style="fill:none;stroke:#000000;stroke-linecap:square;stroke-linejoin:miter;stroke-width:0.8;"/>
   </g>
   <g id="text_1">
    <!-- Obstacle -->
    <defs>
     <path d="M 42.484375 60.59375 
Q 33.890625 60.59375 29.15625 54.25 
Q 24.421875 47.90625 24.421875 36.375 
Q 24.421875 24.90625 29.15625 18.546875 
Q 33.890625 12.203125 42.484375 12.203125 
Q 51.125 12.203125 55.859375 18.546875 
Q 60.59375 24.90625 60.59375 36.375 
Q 60.59375 47.90625 55.859375 54.25 
Q 51.125 60.59375 42.484375 60.59375 
z
M 42.484375 74.21875 
Q 60.0625 74.21875 70.015625 64.15625 
Q 79.984375 54.109375 79.984375 36.375 
Q 79.984375 18.703125 70.015625 8.640625 
Q 60.0625 -1.421875 42.484375 -1.421875 
Q 24.953125 -1.421875 14.96875 8.640625 
Q 4.984375 18.703125 4.984375 36.375 
Q 4.984375 54.109375 14.96875 64.15625 
Q 24.953125 74.21875 42.484375 74.21875 
z
" id="DejaVuSans-Bold-4f"/>
     <path d="M 37.5 11.28125 
Q 43.109375 11.28125 46.0625 15.375 
Q 49.03125 19.484375 49.03125 27.296875 
Q 49.03125 35.109375 46.0625 39.203125 
Q 43.109375 43.3125 37.5 43.3125 
Q 31.890625 43.3125 28.875 39.1875 
Q 25.875 35.0625 25.875 27.296875 
Q 25.875 19.53125 28.875 15.40625 
Q 31.890625 11.28125 37.5 11.28125 
z
M 25.875 46.6875 
Q 29.5 51.46875 33.890625 53.734375 
Q 38.28125 56 44 56 
Q 54.109375 56 60.59375 47.96875 
Q 67.09375 39.9375 67.09375 27.296875 
Q 67.09375 14.65625 60.59375 6.609375 
Q 54.109375 -1.421875 44 -1.421875 
Q 38.28125 -1.421875 33.890625 0.84375 
Q 29.5 3.125 25.875 7.90625 
L 25.875 0 
L 8.40625 0 
L 8.40625 75.984375 
L 25.875 75.984375 
z
" id="DejaVuSans-Bold-62"/>
     <path d="M 51.125 52.984375 
L 51.125 39.703125 
Q 45.515625 42.046875 40.28125 43.21875 
Q 35.0625 44.390625 30.421875 44.390625 
Q 25.4375 44.390625 23.015625 43.140625 
Q 20.609375 41.890625 20.609375 39.3125 
Q 20.609375 37.203125 22.4375 36.078125 
Q 24.265625 34.96875 29 34.421875 
L 32.078125 33.984375 
Q 45.515625 32.28125 50.140625 28.375 
Q 54.78125 24.46875 54.78125 16.109375 
Q 54.78125 7.375 48.328125 2.96875 
Q 41.890625 -1.421875 29.109375 -1.421875 
Q 23.6875 -1.421875 17.890625 -0.5625 
Q 12.109375 0.296875 6 2 
L 6 15.28125 
Q 11.234375 12.75 16.71875 11.46875 
Q 22.21875 10.203125 27.875 10.203125 
Q 33.015625 10.203125 35.59375 11.609375 
Q 38.1875 13.03125 38.1875 15.828125 
Q 38.1875 18.171875 36.40625 19.3125 
Q 34.625 20.453125 29.296875 21.09375 
L 26.21875 21.484375 
Q 14.546875 22.953125 9.859375 26.90625 
Q 5.171875 30.859375 5.171875 38.921875 
Q 5.171875 47.609375 11.125 51.796875 
Q 17.09375 56 29.390625 56 
Q 34.234375 56 39.546875 55.265625 
Q 44.875 54.546875 51.125 52.984375 
z
" id="DejaVuSans-Bold-73"/>
     <path d="M 27.484375 70.21875 
L 27.484375 54.6875 
L 45.515625 54.6875 
L 45.515625 42.1875 
L 27.484375 42.1875 
L 27.484375 19 
Q 27.484375 15.1875 29 13.84375 
Q 30.515625 12.5 35.015625 12.5 
L 44 12.5 
L 44 0 
L 29 0 
Q 18.65625 0 14.328125 4.3125 
Q 10.015625 8.640625 10.015625 19 
L 10.015625 42.1875 
L 1.3125 42.1875 
L 1.3125 54.6875 
L 10.015625 54.6875 
L 10.015625 70.21875 
z
" id="DejaVuSans-Bold-74"/>
     <path d="M 32.90625 24.609375 
Q 27.4375 24.609375 24.671875 22.75 
Q 21.921875 20.90625 21.921875 17.28125 
Q 21.921875 13.96875 24.140625 12.078125 
Q 26.375 10.203125 30.328125 10.203125 
Q 35.25 10.203125 38.625 13.734375 
Q 42 17.28125 42 22.609375 
L 42 24.609375 
z
M 59.625 31.203125 
L 59.625 0 
L 42 0 
L 42 8.109375 
Q 38.484375 3.125 34.078125 0.84375 
Q 29.6875 -1.421875 23.390625 -1.421875 
Q 14.890625 -1.421875 9.59375 3.53125 
Q 4.296875 8.5 4.296875 16.40625 
Q 4.296875 26.03125 10.90625 30.515625 
Q 17.53125 35.015625 31.6875 35.015625 
L 42 35.015625 
L 42 36.375 
Q 42 40.53125 38.71875 42.453125 
Q 35.453125 44.390625 28.515625 44.390625 
Q 22.90625 44.390625 18.0625 43.265625 
Q 13.234375 42.140625 9.078125 39.890625 
L 9.078125 53.21875 
Q 14.703125 54.59375 20.359375 55.296875 
Q 26.03125 56 31.6875 56 
Q 46.484375 56 53.046875 50.171875 
Q 59.625 44.34375 59.625 31.203125 
z
" id="DejaVuSans-Bold-61"/>
     <path d="M 52.59375 52.984375 
L 52.59375 38.71875 
Q 49.03125 41.15625 45.4375 42.328125 
Q 41.84375 43.5 37.984375 43.5 
Q 30.671875 43.5 26.59375 39.234375 
Q 22.515625 34.96875 22.515625 27.296875 
Q 22.515625 19.625 26.59375 15.34375 
Q 30.671875 11.078125 37.984375 11.078125 
Q 42.09375 11.078125 45.78125 12.296875 
Q 49.46875 13.53125 52.59375 15.921875 
L 52.59375 1.609375 
Q 48.484375 0.09375 44.265625 -0.65625 
Q 40.046875 -1.421875 35.796875 -1.421875 
Q 21 -1.421875 12.640625 6.171875 
Q 4.296875 13.765625 4.296875 27.296875 
Q 4.296875 40.828125 12.640625 48.40625 
Q 21 56 35.796875 56 
Q 40.09375 56 44.265625 55.25 
Q 48.4375 54.5 52.59375 52.984375 
z
" id="DejaVuSans-Bold-63"/>
     <path d="M 8.40625 75.984375 
L 25.875 75.984375 
L 25.875 0 
L 8.40625 0 
z
" id="DejaVuSans-Bold-6c"/>
     <path d="M 62.984375 27.484375 
L 62.984375 22.515625 
L 22.125 22.515625 
Q 22.75 16.359375 26.5625 13.28125 
Q 30.375 10.203125 37.203125 10.203125 
Q 42.71875 10.203125 48.5 11.84375 
Q 54.296875 13.484375 60.40625 16.796875 
L 60.40625 3.328125 
Q 54.203125 0.984375 48 -0.21875 
Q 41.796875 -1.421875 35.59375 -1.421875 
Q 20.75 -1.421875 12.515625 6.125 
Q 4.296875 13.671875 4.296875 27.296875 
Q 4.296875 40.671875 12.375 48.328125 
Q 20.453125 56 34.625 56 
Q 47.515625 56 55.25 48.234375 
Q 62.984375 40.484375 62.984375 27.484375 
z
M 45.015625 33.296875 
Q 45.015625 38.28125 42.109375 41.328125 
Q 39.203125 44.390625 34.515625 44.390625 
Q 29.4375 44.390625 26.265625 41.53125 
Q 23.09375 38.671875 22.3125 33.296875 
z
" id="DejaVuSans-Bold-65"/>
    </defs>
    <g transform="translate(122.902344 37.2)scale(0.25 -0.25)">
     <use xlink:href="#DejaVuSans-Bold-4f"/>
     <use x="85.009766" xlink:href="#DejaVuSans-Bold-62"/>
     <use x="156.591797" xlink:href="#DejaVuSans-Bold-73"/>
     <use x="216.113281" xlink:href="#DejaVuSans-Bold-74"/>
     <use x="263.916016" xlink:href="#DejaVuSans-Bold-61"/>
     <use x="331.396484" xlink:href="#DejaVuSans-Bold-63"/>
     <use x="390.673828" xlink:href="#DejaVuSans-Bold-6c"/>
     <use x="424.951172" xlink:href="#DejaVuSans-Bold-65"/>
    </g>
   </g>
  </g>
 </g>
 <defs>
  <clipPath id="pac271fbbe3">
   <rect height="277.2" width="277.2" x="45.9" y="43.2"/>
  </clipPath>
 </defs>
</svg>
