<?xml version="1.0" encoding="utf-8" standalone="no"?>
<!DOCTYPE svg PUBLIC "-//W3C//DTD SVG 1.1//EN"
  "http://www.w3.org/Graphics/SVG/1.1/DTD/svg11.dtd">
<!-- Created with matplotlib (http://matplotlib.org/) -->
<svg height="360pt" version="1.1" viewBox="0 0 360 360" width="360pt" xmlns="http://www.w3.org/2000/svg" xmlns:xlink="http://www.w3.org/1999/xlink">
 <defs>
  <style type="text/css">
*{stroke-linecap:butt;stroke-linejoin:round;}
  </style>
 </defs>
 <g id="figure_1">
  <g id="patch_1">
   <path d="M 0 360 
L 360 360 
L 360 0 
L 0 0 
z
" style="fill:#ffffff;"/>
  </g>
  <g id="axes_1">
   <g id="patch_2">
    <path d="M 45.9 320.4 
L 323.1 320.4 
L 323.1 43.2 
L 45.9 43.2 
z
" style="fill:#eaeaf2;"/>
   </g>
   <g id="patch_3">
    <path clip-path="url(#pf6551d73c6)" d="M 160.1064 -124.2288 
C 163.782115 -124.2288 167.307777 -125.689177 169.9069 -128.2883 
C 172.506023 -130.887423 173.9664 -134.413085 173.9664 -138.0888 
C 173.9664 -141.764515 172.506023 -145.290177 169.9069 -147.8893 
C 167.307777 -150.488423 163.782115 -151.9488 160.1064 -151.9488 
C 156.430685 -151.9488 152.905023 -150.488423 150.3059 -147.8893 
C 147.706777 -145.290177 146.2464 -141.764515 146.2464 -138.0888 
C 146.2464 -134.413085 147.706777 -130.887423 150.3059 -128.2883 
C 152.905023 -125.689177 156.430685 -124.2288 160.1064 -124.2288 
z
" style="fill:#008000;opacity:0.6;stroke:#000000;stroke-linejoin:miter;"/>
   </g>
   <g id="patch_4">
    <path clip-path="url(#pf6551d73c6)" d="M 184.5 285.75 
C 212.067862 285.75 238.510328 274.797172 258.00375 255.30375 
C 277.497172 235.810328 288.45 209.367862 288.45 181.8 
C 288.45 154.232138 277.497172 127.789672 258.00375 108.29625 
C 238.510328 88.802828 212.067862 77.85 184.5 77.85 
C 156.932138 77.85 130.489672 88.802828 110.99625 108.29625 
C 91.502828 127.789672 80.55 154.232138 80.55 181.8 
C 80.55 209.367862 91.502828 235.810328 110.99625 255.30375 
C 130.489672 274.797172 156.932138 285.75 184.5 285.75 
z
" style="opacity:0.1;stroke:#000000;stroke-linejoin:miter;"/>
   </g>
   <g id="patch_5">
    <path clip-path="url(#pf6551d73c6)" d="M 184.5 216.45 
C 193.689287 216.45 202.503443 212.799057 209.00125 206.30125 
C 215.499057 199.803443 219.15 190.989287 219.15 181.8 
C 219.15 172.610713 215.499057 163.796557 209.00125 157.29875 
C 202.503443 150.800943 193.689287 147.15 184.5 147.15 
C 175.310713 147.15 166.496557 150.800943 159.99875 157.29875 
C 153.500943 163.796557 149.85 172.610713 149.85 181.8 
C 149.85 190.989287 153.500943 199.803443 159.99875 206.30125 
C 166.496557 212.799057 175.310713 216.45 184.5 216.45 
z
" style="fill:#ff0000;opacity:0.2;stroke:#ff0000;stroke-linejoin:miter;"/>
   </g>
   <g id="line2d_1">
    <path clip-path="url(#pf6551d73c6)" d="M 113.975194 361 
L 114.878738 351.52445 
L 115.558893 341.803903 
L 116.003854 332.061932 
L 116.216433 322.298151 
L 116.192614 312.516554 
L 115.92734 302.721314 
L 115.405885 292.926072 
L 114.619938 283.154508 
L 113.578618 273.420862 
L 112.277006 263.738368 
L 110.730002 254.131192 
L 108.965289 244.628489 
L 106.972534 235.234576 
L 104.766244 225.963576 
L 102.392096 216.842438 
L 99.853985 207.876117 
L 98.041656 201.976652 
L 97.220847 199.467711 
L 95.847669 197.279936 
L 95.192409 195.675518 
L 94.423417 192.868941 
L 93.057814 187.37599 
L 92.682718 184.968213 
L 92.523566 182.541564 
L 92.589993 180.143487 
L 92.857116 177.799033 
L 93.304098 175.529109 
L 93.910141 173.350834 
L 94.653364 171.277788 
L 95.983723 168.385633 
L 97.005425 166.61558 
L 98.176043 165.005836 
L 99.56283 163.603184 
L 101.920473 161.91491 
L 102.089473 161.189084 
L 102.973053 159.247487 
L 103.862716 156.833699 
L 104.004119 155.423835 
L 103.870485 153.715479 
L 103.437128 151.687083 
L 102.723629 149.357357 
L 101.185176 145.353321 
L 99.844477 142.377463 
L 98.195553 139.175755 
L 92.38114 128.733903 
L 90.902382 125.242396 
L 89.821959 121.828205 
L 89.064347 118.494428 
L 88.553435 115.229383 
L 88.121692 110.447687 
L 87.661346 102.613511 
L 87.674808 99.554557 
L 87.927348 96.582301 
L 88.406515 93.708683 
L 90.358818 84.077541 
L 91.242954 77.274866 
L 92.281567 69.198849 
L 92.79525 66.565701 
L 93.467351 63.990128 
L 95.262162 57.832528 
L 95.686982 55.400284 
L 95.929619 52.938234 
L 96.057416 49.174483 
L 95.913413 44.023411 
L 95.809943 40.107981 
L 95.97141 33.58851 
L 96.139508 28.365931 
L 96.631824 21.913477 
L 96.917731 12.815757 
L 97.514302 7.711314 
L 98.225933 2.673772 
L 98.95014 -1 
L 98.95014 -1 
" style="fill:none;stroke:#000000;stroke-linecap:square;stroke-width:1.5;"/>
   </g>
   <g id="line2d_2">
    <path clip-path="url(#pf6551d73c6)" d="M 117.001958 361 
L 117.740024 352.575613 
L 118.296174 342.875748 
L 118.573373 333.299372 
L 118.627624 323.82 
L 118.486698 314.385178 
L 118.147893 304.963734 
L 117.51313 292.550767 
L 116.795363 283.31485 
L 116.128379 277.178627 
L 115.295212 271.075907 
L 114.282566 265.017806 
L 113.11009 259.03277 
L 111.125869 250.234816 
L 106.215297 230.164335 
L 103.763903 221.538638 
L 98.700956 204.55746 
L 96.756921 198.92995 
L 95.91261 197.168016 
L 92.736966 191.689127 
L 80.158705 168.934724 
L 76.613445 162.346277 
L 73.34288 155.79997 
L 71.37528 151.501027 
L 69.63197 147.281229 
L 68.145617 143.159502 
L 66.93471 139.15239 
L 66.020986 135.278211 
L 65.385904 131.545746 
L 64.803574 126.191003 
L 64.494718 121.089983 
L 64.471652 117.820798 
L 64.685485 113.060226 
L 65.785526 97.660927 
L 65.751106 94.588391 
L 65.26607 86.983731 
L 64.549738 82.423987 
L 63.788246 77.900621 
L 63.498858 74.945503 
L 63.42529 72.046946 
L 63.548789 69.199456 
L 64.385161 59.397869 
L 64.338436 56.575107 
L 63.981579 52.314219 
L 63.484709 46.651326 
L 63.428822 43.860435 
L 63.543037 41.117087 
L 63.988936 37.110276 
L 64.453203 34.515462 
L 65.089269 31.987026 
L 65.924474 29.529708 
L 66.938715 27.144975 
L 68.684506 23.690526 
L 72.444332 17.123124 
L 78.421381 6.656688 
L 80.541614 3.624063 
L 83.838804 -1 
L 83.838804 -1 
" style="fill:none;stroke:#ff0000;stroke-linecap:square;stroke-width:1.5;"/>
   </g>
   <g id="line2d_3">
    <path clip-path="url(#pf6551d73c6)" d="M 115.544778 361 
L 116.270525 352.415169 
L 116.886366 343.012064 
L 117.27079 333.782476 
L 117.344526 324.518245 
L 117.132045 315.251838 
L 116.652176 306.041819 
L 115.708321 293.852378 
L 114.82271 284.705385 
L 113.734378 275.519182 
L 112.358515 266.341551 
L 111.254232 260.280231 
L 108.765514 248.355662 
L 107.469179 242.455797 
L 105.305243 233.59746 
L 102.930353 224.773292 
L 99.639201 213.182214 
L 97.82776 207.433849 
L 94.794783 198.834873 
L 82.44929 166.183402 
L 73.45883 143.909535 
L 71.019784 137.103912 
L 69.017789 130.616878 
L 67.441379 124.440427 
L 66.196836 118.547795 
L 64.497022 109.218547 
L 63.422635 102.072803 
L 62.617965 95.14663 
L 61.347314 83.467474 
L 58.154403 63.11288 
L 57.544748 55.760717 
L 57.119346 48.580676 
L 57.092561 44.356327 
L 57.314905 41.590424 
L 57.812965 38.876012 
L 58.57347 36.220842 
L 59.962223 32.34897 
L 65.247626 18.852776 
L 67.280976 14.150207 
L 68.441485 11.857492 
L 69.771366 9.621102 
L 71.303341 7.452349 
L 73.821752 4.313029 
L 78.442413 -1 
L 78.442413 -1 
" style="fill:none;stroke:#008000;stroke-linecap:square;stroke-width:1.5;"/>
   </g>
   <g id="line2d_4">
    <path clip-path="url(#pf6551d73c6)" d="M 114.358243 361 
L 114.946243 354.359324 
L 115.566902 344.858156 
L 115.947281 335.369669 
L 116.120367 325.886758 
L 116.106655 316.379491 
L 115.886561 306.825088 
L 115.435483 297.231009 
L 114.742379 287.61742 
L 113.800981 278.005757 
L 112.607417 268.416427 
L 111.151572 258.871479 
L 109.403741 249.41448 
L 106.768798 236.996056 
L 104.492424 227.779959 
L 101.959127 218.65521 
L 98.307274 206.702087 
L 96.423112 200.845922 
L 93.23961 192.125317 
L 89.814813 183.54158 
L 87.628031 178.010965 
L 84.390853 169.856573 
L 80.963164 161.850056 
L 77.370946 153.997683 
L 72.427023 143.784992 
L 60.550173 119.926936 
L 58.694147 115.559908 
L 57.112836 111.351059 
L 55.792144 107.295045 
L 54.206509 101.473271 
L 53.390248 97.753348 
L 52.484497 92.374469 
L 51.649451 85.531596 
L 50.813172 77.413413 
L 50.56607 72.741552 
L 50.598396 69.711429 
L 50.686206 68.222758 
L 51.6289 63.954044 
L 53.133918 58.479807 
L 54.933557 51.893451 
L 57.689414 41.71705 
L 61.728028 27.011621 
L 66.393009 9.073094 
L 68.705276 2.047989 
L 69.783639 -1 
L 69.783639 -1 
" style="fill:none;stroke:#0000ff;stroke-linecap:square;stroke-width:1.5;"/>
   </g>
   <g id="patch_6">
    <path d="M 45.9 320.4 
L 45.9 43.2 
" style="fill:none;stroke:#000000;stroke-linecap:square;stroke-linejoin:miter;stroke-width:0.8;"/>
   </g>
   <g id="patch_7">
    <path d="M 323.1 320.4 
L 323.1 43.2 
" style="fill:none;stroke:#000000;stroke-linecap:square;stroke-linejoin:miter;stroke-width:0.8;"/>
   </g>
   <g id="patch_8">
    <path d="M 45.9 320.4 
L 323.1 320.4 
" style="fill:none;stroke:#000000;stroke-linecap:square;stroke-linejoin:miter;stroke-width:0.8;"/>
   </g>
   <g id="patch_9">
    <path d="M 45.9 43.2 
L 323.1 43.2 
" style="fill:none;stroke:#000000;stroke-linecap:square;stroke-linejoin:miter;stroke-width:0.8;"/>
   </g>
   <g id="text_1">
    <!-- Obstacle -->
    <defs>
     <path d="M 42.484375 60.59375 
Q 33.890625 60.59375 29.15625 54.25 
Q 24.421875 47.90625 24.421875 36.375 
Q 24.421875 24.90625 29.15625 18.546875 
Q 33.890625 12.203125 42.484375 12.203125 
Q 51.125 12.203125 55.859375 18.546875 
Q 60.59375 24.90625 60.59375 36.375 
Q 60.59375 47.90625 55.859375 54.25 
Q 51.125 60.59375 42.484375 60.59375 
z
M 42.484375 74.21875 
Q 60.0625 74.21875 70.015625 64.15625 
Q 79.984375 54.109375 79.984375 36.375 
Q 79.984375 18.703125 70.015625 8.640625 
Q 60.0625 -1.421875 42.484375 -1.421875 
Q 24.953125 -1.421875 14.96875 8.640625 
Q 4.984375 18.703125 4.984375 36.375 
Q 4.984375 54.109375 14.96875 64.15625 
Q 24.953125 74.21875 42.484375 74.21875 
z
" id="DejaVuSans-Bold-4f"/>
     <path d="M 37.5 11.28125 
Q 43.109375 11.28125 46.0625 15.375 
Q 49.03125 19.484375 49.03125 27.296875 
Q 49.03125 35.109375 46.0625 39.203125 
Q 43.109375 43.3125 37.5 43.3125 
Q 31.890625 43.3125 28.875 39.1875 
Q 25.875 35.0625 25.875 27.296875 
Q 25.875 19.53125 28.875 15.40625 
Q 31.890625 11.28125 37.5 11.28125 
z
M 25.875 46.6875 
Q 29.5 51.46875 33.890625 53.734375 
Q 38.28125 56 44 56 
Q 54.109375 56 60.59375 47.96875 
Q 67.09375 39.9375 67.09375 27.296875 
Q 67.09375 14.65625 60.59375 6.609375 
Q 54.109375 -1.421875 44 -1.421875 
Q 38.28125 -1.421875 33.890625 0.84375 
Q 29.5 3.125 25.875 7.90625 
L 25.875 0 
L 8.40625 0 
L 8.40625 75.984375 
L 25.875 75.984375 
z
" id="DejaVuSans-Bold-62"/>
     <path d="M 51.125 52.984375 
L 51.125 39.703125 
Q 45.515625 42.046875 40.28125 43.21875 
Q 35.0625 44.390625 30.421875 44.390625 
Q 25.4375 44.390625 23.015625 43.140625 
Q 20.609375 41.890625 20.609375 39.3125 
Q 20.609375 37.203125 22.4375 36.078125 
Q 24.265625 34.96875 29 34.421875 
L 32.078125 33.984375 
Q 45.515625 32.28125 50.140625 28.375 
Q 54.78125 24.46875 54.78125 16.109375 
Q 54.78125 7.375 48.328125 2.96875 
Q 41.890625 -1.421875 29.109375 -1.421875 
Q 23.6875 -1.421875 17.890625 -0.5625 
Q 12.109375 0.296875 6 2 
L 6 15.28125 
Q 11.234375 12.75 16.71875 11.46875 
Q 22.21875 10.203125 27.875 10.203125 
Q 33.015625 10.203125 35.59375 11.609375 
Q 38.1875 13.03125 38.1875 15.828125 
Q 38.1875 18.171875 36.40625 19.3125 
Q 34.625 20.453125 29.296875 21.09375 
L 26.21875 21.484375 
Q 14.546875 22.953125 9.859375 26.90625 
Q 5.171875 30.859375 5.171875 38.921875 
Q 5.171875 47.609375 11.125 51.796875 
Q 17.09375 56 29.390625 56 
Q 34.234375 56 39.546875 55.265625 
Q 44.875 54.546875 51.125 52.984375 
z
" id="DejaVuSans-Bold-73"/>
     <path d="M 27.484375 70.21875 
L 27.484375 54.6875 
L 45.515625 54.6875 
L 45.515625 42.1875 
L 27.484375 42.1875 
L 27.484375 19 
Q 27.484375 15.1875 29 13.84375 
Q 30.515625 12.5 35.015625 12.5 
L 44 12.5 
L 44 0 
L 29 0 
Q 18.65625 0 14.328125 4.3125 
Q 10.015625 8.640625 10.015625 19 
L 10.015625 42.1875 
L 1.3125 42.1875 
L 1.3125 54.6875 
L 10.015625 54.6875 
L 10.015625 70.21875 
z
" id="DejaVuSans-Bold-74"/>
     <path d="M 32.90625 24.609375 
Q 27.4375 24.609375 24.671875 22.75 
Q 21.921875 20.90625 21.921875 17.28125 
Q 21.921875 13.96875 24.140625 12.078125 
Q 26.375 10.203125 30.328125 10.203125 
Q 35.25 10.203125 38.625 13.734375 
Q 42 17.28125 42 22.609375 
L 42 24.609375 
z
M 59.625 31.203125 
L 59.625 0 
L 42 0 
L 42 8.109375 
Q 38.484375 3.125 34.078125 0.84375 
Q 29.6875 -1.421875 23.390625 -1.421875 
Q 14.890625 -1.421875 9.59375 3.53125 
Q 4.296875 8.5 4.296875 16.40625 
Q 4.296875 26.03125 10.90625 30.515625 
Q 17.53125 35.015625 31.6875 35.015625 
L 42 35.015625 
L 42 36.375 
Q 42 40.53125 38.71875 42.453125 
Q 35.453125 44.390625 28.515625 44.390625 
Q 22.90625 44.390625 18.0625 43.265625 
Q 13.234375 42.140625 9.078125 39.890625 
L 9.078125 53.21875 
Q 14.703125 54.59375 20.359375 55.296875 
Q 26.03125 56 31.6875 56 
Q 46.484375 56 53.046875 50.171875 
Q 59.625 44.34375 59.625 31.203125 
z
" id="DejaVuSans-Bold-61"/>
     <path d="M 52.59375 52.984375 
L 52.59375 38.71875 
Q 49.03125 41.15625 45.4375 42.328125 
Q 41.84375 43.5 37.984375 43.5 
Q 30.671875 43.5 26.59375 39.234375 
Q 22.515625 34.96875 22.515625 27.296875 
Q 22.515625 19.625 26.59375 15.34375 
Q 30.671875 11.078125 37.984375 11.078125 
Q 42.09375 11.078125 45.78125 12.296875 
Q 49.46875 13.53125 52.59375 15.921875 
L 52.59375 1.609375 
Q 48.484375 0.09375 44.265625 -0.65625 
Q 40.046875 -1.421875 35.796875 -1.421875 
Q 21 -1.421875 12.640625 6.171875 
Q 4.296875 13.765625 4.296875 27.296875 
Q 4.296875 40.828125 12.640625 48.40625 
Q 21 56 35.796875 56 
Q 40.09375 56 44.265625 55.25 
Q 48.4375 54.5 52.59375 52.984375 
z
" id="DejaVuSans-Bold-63"/>
     <path d="M 8.40625 75.984375 
L 25.875 75.984375 
L 25.875 0 
L 8.40625 0 
z
" id="DejaVuSans-Bold-6c"/>
     <path d="M 62.984375 27.484375 
L 62.984375 22.515625 
L 22.125 22.515625 
Q 22.75 16.359375 26.5625 13.28125 
Q 30.375 10.203125 37.203125 10.203125 
Q 42.71875 10.203125 48.5 11.84375 
Q 54.296875 13.484375 60.40625 16.796875 
L 60.40625 3.328125 
Q 54.203125 0.984375 48 -0.21875 
Q 41.796875 -1.421875 35.59375 -1.421875 
Q 20.75 -1.421875 12.515625 6.125 
Q 4.296875 13.671875 4.296875 27.296875 
Q 4.296875 40.671875 12.375 48.328125 
Q 20.453125 56 34.625 56 
Q 47.515625 56 55.25 48.234375 
Q 62.984375 40.484375 62.984375 27.484375 
z
M 45.015625 33.296875 
Q 45.015625 38.28125 42.109375 41.328125 
Q 39.203125 44.390625 34.515625 44.390625 
Q 29.4375 44.390625 26.265625 41.53125 
Q 23.09375 38.671875 22.3125 33.296875 
z
" id="DejaVuSans-Bold-65"/>
    </defs>
    <g transform="translate(122.902344 37.2)scale(0.25 -0.25)">
     <use xlink:href="#DejaVuSans-Bold-4f"/>
     <use x="85.009766" xlink:href="#DejaVuSans-Bold-62"/>
     <use x="156.591797" xlink:href="#DejaVuSans-Bold-73"/>
     <use x="216.113281" xlink:href="#DejaVuSans-Bold-74"/>
     <use x="263.916016" xlink:href="#DejaVuSans-Bold-61"/>
     <use x="331.396484" xlink:href="#DejaVuSans-Bold-63"/>
     <use x="390.673828" xlink:href="#DejaVuSans-Bold-6c"/>
     <use x="424.951172" xlink:href="#DejaVuSans-Bold-65"/>
    </g>
   </g>
  </g>
 </g>
 <defs>
  <clipPath id="pf6551d73c6">
   <rect height="277.2" width="277.2" x="45.9" y="43.2"/>
  </clipPath>
 </defs>
</svg>
