<?xml version="1.0" encoding="utf-8" standalone="no"?>
<!DOCTYPE svg PUBLIC "-//W3C//DTD SVG 1.1//EN"
  "http://www.w3.org/Graphics/SVG/1.1/DTD/svg11.dtd">
<!-- Created with matplotlib (http://matplotlib.org/) -->
<svg height="360pt" version="1.1" viewBox="0 0 360 360" width="360pt" xmlns="http://www.w3.org/2000/svg" xmlns:xlink="http://www.w3.org/1999/xlink">
 <defs>
  <style type="text/css">
*{stroke-linecap:butt;stroke-linejoin:round;}
  </style>
 </defs>
 <g id="figure_1">
  <g id="patch_1">
   <path d="M 0 360 
L 360 360 
L 360 0 
L 0 0 
z
" style="fill:#ffffff;"/>
  </g>
  <g id="axes_1">
   <g id="patch_2">
    <path d="M 45.9 320.4 
L 323.1 320.4 
L 323.1 43.2 
L 45.9 43.2 
z
" style="fill:#eaeaf2;"/>
   </g>
   <g id="patch_3">
    <path clip-path="url(#p6e1bd40048)" d="M 160.1064 -124.2288 
C 163.782115 -124.2288 167.307777 -125.689177 169.9069 -128.2883 
C 172.506023 -130.887423 173.9664 -134.413085 173.9664 -138.0888 
C 173.9664 -141.764515 172.506023 -145.290177 169.9069 -147.8893 
C 167.307777 -150.488423 163.782115 -151.9488 160.1064 -151.9488 
C 156.430685 -151.9488 152.905023 -150.488423 150.3059 -147.8893 
C 147.706777 -145.290177 146.2464 -141.764515 146.2464 -138.0888 
C 146.2464 -134.413085 147.706777 -130.887423 150.3059 -128.2883 
C 152.905023 -125.689177 156.430685 -124.2288 160.1064 -124.2288 
z
" style="fill:#008000;opacity:0.6;stroke:#000000;stroke-linejoin:miter;"/>
   </g>
   <g id="patch_4">
    <path clip-path="url(#p6e1bd40048)" d="M 184.5 285.75 
C 212.067862 285.75 238.510328 274.797172 258.00375 255.30375 
C 277.497172 235.810328 288.45 209.367862 288.45 181.8 
C 288.45 154.232138 277.497172 127.789672 258.00375 108.29625 
C 238.510328 88.802828 212.067862 77.85 184.5 77.85 
C 156.932138 77.85 130.489672 88.802828 110.99625 108.29625 
C 91.502828 127.789672 80.55 154.232138 80.55 181.8 
C 80.55 209.367862 91.502828 235.810328 110.99625 255.30375 
C 130.489672 274.797172 156.932138 285.75 184.5 285.75 
z
" style="opacity:0.1;stroke:#000000;stroke-linejoin:miter;"/>
   </g>
   <g id="patch_5">
    <path clip-path="url(#p6e1bd40048)" d="M 184.5 216.45 
C 193.689287 216.45 202.503443 212.799057 209.00125 206.30125 
C 215.499057 199.803443 219.15 190.989287 219.15 181.8 
C 219.15 172.610713 215.499057 163.796557 209.00125 157.29875 
C 202.503443 150.800943 193.689287 147.15 184.5 147.15 
C 175.310713 147.15 166.496557 150.800943 159.99875 157.29875 
C 153.500943 163.796557 149.85 172.610713 149.85 181.8 
C 149.85 190.989287 153.500943 199.803443 159.99875 206.30125 
C 166.496557 212.799057 175.310713 216.45 184.5 216.45 
z
" style="fill:#ff0000;opacity:0.2;stroke:#ff0000;stroke-linejoin:miter;"/>
   </g>
   <g id="line2d_1">
    <path clip-path="url(#p6e1bd40048)" d="M 112.107037 361 
L 112.748765 352.100589 
L 113.199844 342.980456 
L 113.459966 333.811155 
L 113.532252 324.587715 
L 113.42096 315.30269 
L 113.109714 305.952944 
L 112.584163 296.548691 
L 111.829041 287.108663 
L 110.835341 277.655691 
L 109.597574 268.212152 
L 108.112402 258.798957 
L 106.378176 249.43546 
L 104.394685 240.139555 
L 102.162969 230.92779 
L 96.85762 213.342847 
L 96.250303 210.612841 
L 93.602186 202.232958 
L 91.7283 196.674554 
L 88.753243 188.409263 
L 85.544745 180.241103 
L 82.179439 172.197311 
L 77.533824 161.699095 
L 71.608203 148.972504 
L 66.79789 139.108058 
L 61.889855 129.515605 
L 56.82134 120.204423 
L 48.23725 104.731868 
L 42.087138 94.247837 
L 31.630479 76.54091 
L 28.647195 71.007945 
L 26.059334 65.657727 
L 22.116866 57.100522 
L 17.905802 48.832898 
L 16.660914 45.591764 
L 16.209491 43.994008 
L 15.653412 40.844758 
L 15.466267 37.763299 
L 15.568681 34.752826 
L 15.880228 31.821589 
L 16.352355 28.967313 
L 17.311214 24.820454 
L 18.539578 20.822654 
L 19.979591 16.956292 
L 22.114136 11.975975 
L 23.882411 8.357241 
L 26.466141 3.670819 
L 29.335333 -1 
L 29.335333 -1 
" style="fill:none;stroke:#000000;stroke-linecap:square;stroke-width:1.5;"/>
   </g>
   <g id="line2d_2">
    <path clip-path="url(#p6e1bd40048)" d="M 112.140903 361 
L 112.982917 350.36647 
L 113.585594 340.875805 
L 113.990528 331.304112 
L 114.171676 321.660675 
L 114.115833 311.96708 
L 113.799094 302.250543 
L 113.179479 292.561445 
L 112.265793 282.957772 
L 111.12627 273.441612 
L 109.773665 263.978516 
L 108.181365 254.561953 
L 106.341207 245.204437 
L 104.251891 235.92193 
L 101.914556 226.730149 
L 99.331666 217.643859 
L 96.506666 208.676791 
L 93.474155 199.850348 
L 89.290057 188.371217 
L 83.839788 174.484741 
L 80.441538 166.396523 
L 76.824208 158.464933 
L 73.010583 150.693648 
L 65.529762 135.727071 
L 62.301834 128.652375 
L 60.439617 124.141643 
L 58.963038 119.832146 
L 58.405354 117.763032 
L 57.987066 115.754139 
L 57.708703 113.804399 
L 57.555655 111.91462 
L 57.525554 110.087068 
L 57.644101 108.321956 
L 57.928879 106.619637 
L 58.366613 104.98143 
L 59.534598 101.887645 
L 60.937882 98.985555 
L 63.012724 94.818093 
L 64.092593 92.088101 
L 66.488946 85.503065 
L 67.694064 83.063399 
L 69.095567 80.812904 
L 70.677367 78.764586 
L 73.906691 75.122347 
L 74.501371 74.22162 
L 75.356681 72.326614 
L 76.597261 69.348275 
L 78.249536 66.350695 
L 80.530075 62.291209 
L 84.435661 54.926755 
L 86.665564 50.643305 
L 88.619102 47.502695 
L 91.558897 43.446288 
L 93.708372 40.433281 
L 96.287139 36.37683 
L 100.70523 29.291174 
L 104.489591 23.28423 
L 106.795723 19.250814 
L 108.361305 16.185215 
L 109.740156 13.062429 
L 111.738789 7.735251 
L 113.05906 4.544242 
L 114.150208 2.473828 
L 115.452595 0.475108 
L 116.560887 -1 
L 116.560887 -1 
" style="fill:none;stroke:#ff0000;stroke-linecap:square;stroke-width:1.5;"/>
   </g>
   <g id="line2d_3">
    <path clip-path="url(#p6e1bd40048)" d="M 108.723773 361 
L 109.233059 351.967227 
L 109.473622 342.916948 
L 109.461367 333.985861 
L 109.243473 325.153818 
L 108.695149 313.450638 
L 107.869656 301.739209 
L 106.784065 290.125036 
L 105.519641 278.572822 
L 104.365987 269.836718 
L 102.999105 261.046123 
L 100.926603 249.34068 
L 99.151234 240.591612 
L 95.78691 226.119221 
L 93.369874 217.510349 
L 90.709138 208.946976 
L 88.753469 203.269335 
L 85.569484 194.818048 
L 79.140679 178.435665 
L 76.884289 173.117702 
L 74.45478 167.84989 
L 71.807434 162.628432 
L 67.575688 154.910189 
L 63.155673 147.361946 
L 57.202706 137.596965 
L 48.343375 123.590254 
L 41.291658 112.489974 
L 38.935056 108.226558 
L 36.972404 104.095848 
L 35.387318 100.119996 
L 34.100329 96.292024 
L 32.553465 90.820449 
L 31.74738 87.324132 
L 30.891072 82.273801 
L 30.095732 75.838768 
L 28.699158 62.343621 
L 28.787188 59.502262 
L 29.175294 56.721394 
L 29.825906 53.998146 
L 30.672093 51.344923 
L 31.719674 48.757264 
L 32.947 46.242791 
L 34.348708 43.807463 
L 37.469421 39.132494 
L 42.173586 32.442416 
L 44.746957 29.247111 
L 47.543471 26.159786 
L 51.486944 22.194752 
L 58.213601 15.558132 
L 60.601915 12.718421 
L 68.64916 2.171025 
L 71.133919 -1 
L 71.133919 -1 
" style="fill:none;stroke:#008000;stroke-linecap:square;stroke-width:1.5;"/>
   </g>
   <g id="line2d_4">
    <path clip-path="url(#p6e1bd40048)" d="M 113.269826 361 
L 113.894699 353.136555 
L 114.421866 343.824365 
L 114.734521 334.498485 
L 114.831538 325.157158 
L 114.718994 315.799078 
L 114.398695 306.418728 
L 113.871062 297.012099 
L 113.127226 287.577713 
L 112.143064 278.132193 
L 110.921955 268.694696 
L 109.456774 259.282128 
L 107.74399 249.913387 
L 105.782634 240.60678 
L 103.573293 231.379401 
L 101.117762 222.247092 
L 98.4524 213.236193 
L 94.64904 201.489435 
L 88.537405 184.422203 
L 84.201639 173.41607 
L 78.819804 160.138632 
L 75.467449 152.398269 
L 71.872176 144.810116 
L 64.750772 130.286608 
L 57.261014 114.504458 
L 55.548475 110.3062 
L 54.142288 106.268235 
L 52.981804 102.393912 
L 52.208693 98.68077 
L 51.824228 95.11773 
L 51.668807 90.018118 
L 51.455218 85.115903 
L 50.960277 77.242174 
L 51.041131 74.214101 
L 51.382999 71.27427 
L 52.001186 68.427194 
L 52.871797 65.68418 
L 54.269503 61.72683 
L 54.555979 60.419157 
L 54.785646 57.780735 
L 54.962926 55.132035 
L 55.393098 52.512993 
L 56.094247 49.945062 
L 57.420294 46.175591 
L 58.965186 42.496815 
L 60.689762 38.915802 
L 63.843368 33.151345 
L 68.851104 24.238954 
L 71.563244 19.941537 
L 75.163076 14.726814 
L 79.651319 8.674305 
L 86.99657 -1 
L 86.99657 -1 
" style="fill:none;stroke:#0000ff;stroke-linecap:square;stroke-width:1.5;"/>
   </g>
   <g id="patch_6">
    <path d="M 45.9 320.4 
L 45.9 43.2 
" style="fill:none;stroke:#000000;stroke-linecap:square;stroke-linejoin:miter;stroke-width:0.8;"/>
   </g>
   <g id="patch_7">
    <path d="M 323.1 320.4 
L 323.1 43.2 
" style="fill:none;stroke:#000000;stroke-linecap:square;stroke-linejoin:miter;stroke-width:0.8;"/>
   </g>
   <g id="patch_8">
    <path d="M 45.9 320.4 
L 323.1 320.4 
" style="fill:none;stroke:#000000;stroke-linecap:square;stroke-linejoin:miter;stroke-width:0.8;"/>
   </g>
   <g id="patch_9">
    <path d="M 45.9 43.2 
L 323.1 43.2 
" style="fill:none;stroke:#000000;stroke-linecap:square;stroke-linejoin:miter;stroke-width:0.8;"/>
   </g>
   <g id="text_1">
    <!-- Obstacle -->
    <defs>
     <path d="M 42.484375 60.59375 
Q 33.890625 60.59375 29.15625 54.25 
Q 24.421875 47.90625 24.421875 36.375 
Q 24.421875 24.90625 29.15625 18.546875 
Q 33.890625 12.203125 42.484375 12.203125 
Q 51.125 12.203125 55.859375 18.546875 
Q 60.59375 24.90625 60.59375 36.375 
Q 60.59375 47.90625 55.859375 54.25 
Q 51.125 60.59375 42.484375 60.59375 
z
M 42.484375 74.21875 
Q 60.0625 74.21875 70.015625 64.15625 
Q 79.984375 54.109375 79.984375 36.375 
Q 79.984375 18.703125 70.015625 8.640625 
Q 60.0625 -1.421875 42.484375 -1.421875 
Q 24.953125 -1.421875 14.96875 8.640625 
Q 4.984375 18.703125 4.984375 36.375 
Q 4.984375 54.109375 14.96875 64.15625 
Q 24.953125 74.21875 42.484375 74.21875 
z
" id="DejaVuSans-Bold-4f"/>
     <path d="M 37.5 11.28125 
Q 43.109375 11.28125 46.0625 15.375 
Q 49.03125 19.484375 49.03125 27.296875 
Q 49.03125 35.109375 46.0625 39.203125 
Q 43.109375 43.3125 37.5 43.3125 
Q 31.890625 43.3125 28.875 39.1875 
Q 25.875 35.0625 25.875 27.296875 
Q 25.875 19.53125 28.875 15.40625 
Q 31.890625 11.28125 37.5 11.28125 
z
M 25.875 46.6875 
Q 29.5 51.46875 33.890625 53.734375 
Q 38.28125 56 44 56 
Q 54.109375 56 60.59375 47.96875 
Q 67.09375 39.9375 67.09375 27.296875 
Q 67.09375 14.65625 60.59375 6.609375 
Q 54.109375 -1.421875 44 -1.421875 
Q 38.28125 -1.421875 33.890625 0.84375 
Q 29.5 3.125 25.875 7.90625 
L 25.875 0 
L 8.40625 0 
L 8.40625 75.984375 
L 25.875 75.984375 
z
" id="DejaVuSans-Bold-62"/>
     <path d="M 51.125 52.984375 
L 51.125 39.703125 
Q 45.515625 42.046875 40.28125 43.21875 
Q 35.0625 44.390625 30.421875 44.390625 
Q 25.4375 44.390625 23.015625 43.140625 
Q 20.609375 41.890625 20.609375 39.3125 
Q 20.609375 37.203125 22.4375 36.078125 
Q 24.265625 34.96875 29 34.421875 
L 32.078125 33.984375 
Q 45.515625 32.28125 50.140625 28.375 
Q 54.78125 24.46875 54.78125 16.109375 
Q 54.78125 7.375 48.328125 2.96875 
Q 41.890625 -1.421875 29.109375 -1.421875 
Q 23.6875 -1.421875 17.890625 -0.5625 
Q 12.109375 0.296875 6 2 
L 6 15.28125 
Q 11.234375 12.75 16.71875 11.46875 
Q 22.21875 10.203125 27.875 10.203125 
Q 33.015625 10.203125 35.59375 11.609375 
Q 38.1875 13.03125 38.1875 15.828125 
Q 38.1875 18.171875 36.40625 19.3125 
Q 34.625 20.453125 29.296875 21.09375 
L 26.21875 21.484375 
Q 14.546875 22.953125 9.859375 26.90625 
Q 5.171875 30.859375 5.171875 38.921875 
Q 5.171875 47.609375 11.125 51.796875 
Q 17.09375 56 29.390625 56 
Q 34.234375 56 39.546875 55.265625 
Q 44.875 54.546875 51.125 52.984375 
z
" id="DejaVuSans-Bold-73"/>
     <path d="M 27.484375 70.21875 
L 27.484375 54.6875 
L 45.515625 54.6875 
L 45.515625 42.1875 
L 27.484375 42.1875 
L 27.484375 19 
Q 27.484375 15.1875 29 13.84375 
Q 30.515625 12.5 35.015625 12.5 
L 44 12.5 
L 44 0 
L 29 0 
Q 18.65625 0 14.328125 4.3125 
Q 10.015625 8.640625 10.015625 19 
L 10.015625 42.1875 
L 1.3125 42.1875 
L 1.3125 54.6875 
L 10.015625 54.6875 
L 10.015625 70.21875 
z
" id="DejaVuSans-Bold-74"/>
     <path d="M 32.90625 24.609375 
Q 27.4375 24.609375 24.671875 22.75 
Q 21.921875 20.90625 21.921875 17.28125 
Q 21.921875 13.96875 24.140625 12.078125 
Q 26.375 10.203125 30.328125 10.203125 
Q 35.25 10.203125 38.625 13.734375 
Q 42 17.28125 42 22.609375 
L 42 24.609375 
z
M 59.625 31.203125 
L 59.625 0 
L 42 0 
L 42 8.109375 
Q 38.484375 3.125 34.078125 0.84375 
Q 29.6875 -1.421875 23.390625 -1.421875 
Q 14.890625 -1.421875 9.59375 3.53125 
Q 4.296875 8.5 4.296875 16.40625 
Q 4.296875 26.03125 10.90625 30.515625 
Q 17.53125 35.015625 31.6875 35.015625 
L 42 35.015625 
L 42 36.375 
Q 42 40.53125 38.71875 42.453125 
Q 35.453125 44.390625 28.515625 44.390625 
Q 22.90625 44.390625 18.0625 43.265625 
Q 13.234375 42.140625 9.078125 39.890625 
L 9.078125 53.21875 
Q 14.703125 54.59375 20.359375 55.296875 
Q 26.03125 56 31.6875 56 
Q 46.484375 56 53.046875 50.171875 
Q 59.625 44.34375 59.625 31.203125 
z
" id="DejaVuSans-Bold-61"/>
     <path d="M 52.59375 52.984375 
L 52.59375 38.71875 
Q 49.03125 41.15625 45.4375 42.328125 
Q 41.84375 43.5 37.984375 43.5 
Q 30.671875 43.5 26.59375 39.234375 
Q 22.515625 34.96875 22.515625 27.296875 
Q 22.515625 19.625 26.59375 15.34375 
Q 30.671875 11.078125 37.984375 11.078125 
Q 42.09375 11.078125 45.78125 12.296875 
Q 49.46875 13.53125 52.59375 15.921875 
L 52.59375 1.609375 
Q 48.484375 0.09375 44.265625 -0.65625 
Q 40.046875 -1.421875 35.796875 -1.421875 
Q 21 -1.421875 12.640625 6.171875 
Q 4.296875 13.765625 4.296875 27.296875 
Q 4.296875 40.828125 12.640625 48.40625 
Q 21 56 35.796875 56 
Q 40.09375 56 44.265625 55.25 
Q 48.4375 54.5 52.59375 52.984375 
z
" id="DejaVuSans-Bold-63"/>
     <path d="M 8.40625 75.984375 
L 25.875 75.984375 
L 25.875 0 
L 8.40625 0 
z
" id="DejaVuSans-Bold-6c"/>
     <path d="M 62.984375 27.484375 
L 62.984375 22.515625 
L 22.125 22.515625 
Q 22.75 16.359375 26.5625 13.28125 
Q 30.375 10.203125 37.203125 10.203125 
Q 42.71875 10.203125 48.5 11.84375 
Q 54.296875 13.484375 60.40625 16.796875 
L 60.40625 3.328125 
Q 54.203125 0.984375 48 -0.21875 
Q 41.796875 -1.421875 35.59375 -1.421875 
Q 20.75 -1.421875 12.515625 6.125 
Q 4.296875 13.671875 4.296875 27.296875 
Q 4.296875 40.671875 12.375 48.328125 
Q 20.453125 56 34.625 56 
Q 47.515625 56 55.25 48.234375 
Q 62.984375 40.484375 62.984375 27.484375 
z
M 45.015625 33.296875 
Q 45.015625 38.28125 42.109375 41.328125 
Q 39.203125 44.390625 34.515625 44.390625 
Q 29.4375 44.390625 26.265625 41.53125 
Q 23.09375 38.671875 22.3125 33.296875 
z
" id="DejaVuSans-Bold-65"/>
    </defs>
    <g transform="translate(122.902344 37.2)scale(0.25 -0.25)">
     <use xlink:href="#DejaVuSans-Bold-4f"/>
     <use x="85.009766" xlink:href="#DejaVuSans-Bold-62"/>
     <use x="156.591797" xlink:href="#DejaVuSans-Bold-73"/>
     <use x="216.113281" xlink:href="#DejaVuSans-Bold-74"/>
     <use x="263.916016" xlink:href="#DejaVuSans-Bold-61"/>
     <use x="331.396484" xlink:href="#DejaVuSans-Bold-63"/>
     <use x="390.673828" xlink:href="#DejaVuSans-Bold-6c"/>
     <use x="424.951172" xlink:href="#DejaVuSans-Bold-65"/>
    </g>
   </g>
  </g>
 </g>
 <defs>
  <clipPath id="p6e1bd40048">
   <rect height="277.2" width="277.2" x="45.9" y="43.2"/>
  </clipPath>
 </defs>
</svg>
