<?xml version="1.0" encoding="utf-8" standalone="no"?>
<!DOCTYPE svg PUBLIC "-//W3C//DTD SVG 1.1//EN"
  "http://www.w3.org/Graphics/SVG/1.1/DTD/svg11.dtd">
<!-- Created with matplotlib (http://matplotlib.org/) -->
<svg height="360pt" version="1.1" viewBox="0 0 360 360" width="360pt" xmlns="http://www.w3.org/2000/svg" xmlns:xlink="http://www.w3.org/1999/xlink">
 <defs>
  <style type="text/css">
*{stroke-linecap:butt;stroke-linejoin:round;}
  </style>
 </defs>
 <g id="figure_1">
  <g id="patch_1">
   <path d="M 0 360 
L 360 360 
L 360 0 
L 0 0 
z
" style="fill:#ffffff;"/>
  </g>
  <g id="axes_1">
   <g id="patch_2">
    <path d="M 45.9 320.4 
L 323.1 320.4 
L 323.1 43.2 
L 45.9 43.2 
z
" style="fill:#eaeaf2;"/>
   </g>
   <g id="patch_3">
    <path clip-path="url(#p52fce89cfb)" d="M 160.1064 -124.2288 
C 163.782115 -124.2288 167.307777 -125.689177 169.9069 -128.2883 
C 172.506023 -130.887423 173.9664 -134.413085 173.9664 -138.0888 
C 173.9664 -141.764515 172.506023 -145.290177 169.9069 -147.8893 
C 167.307777 -150.488423 163.782115 -151.9488 160.1064 -151.9488 
C 156.430685 -151.9488 152.905023 -150.488423 150.3059 -147.8893 
C 147.706777 -145.290177 146.2464 -141.764515 146.2464 -138.0888 
C 146.2464 -134.413085 147.706777 -130.887423 150.3059 -128.2883 
C 152.905023 -125.689177 156.430685 -124.2288 160.1064 -124.2288 
z
" style="fill:#008000;opacity:0.6;stroke:#000000;stroke-linejoin:miter;"/>
   </g>
   <g id="patch_4">
    <path clip-path="url(#p52fce89cfb)" d="M 184.5 285.75 
C 212.067862 285.75 238.510328 274.797172 258.00375 255.30375 
C 277.497172 235.810328 288.45 209.367862 288.45 181.8 
C 288.45 154.232138 277.497172 127.789672 258.00375 108.29625 
C 238.510328 88.802828 212.067862 77.85 184.5 77.85 
C 156.932138 77.85 130.489672 88.802828 110.99625 108.29625 
C 91.502828 127.789672 80.55 154.232138 80.55 181.8 
C 80.55 209.367862 91.502828 235.810328 110.99625 255.30375 
C 130.489672 274.797172 156.932138 285.75 184.5 285.75 
z
" style="opacity:0.1;stroke:#000000;stroke-linejoin:miter;"/>
   </g>
   <g id="patch_5">
    <path clip-path="url(#p52fce89cfb)" d="M 184.5 216.45 
C 193.689287 216.45 202.503443 212.799057 209.00125 206.30125 
C 215.499057 199.803443 219.15 190.989287 219.15 181.8 
C 219.15 172.610713 215.499057 163.796557 209.00125 157.29875 
C 202.503443 150.800943 193.689287 147.15 184.5 147.15 
C 175.310713 147.15 166.496557 150.800943 159.99875 157.29875 
C 153.500943 163.796557 149.85 172.610713 149.85 181.8 
C 149.85 190.989287 153.500943 199.803443 159.99875 206.30125 
C 166.496557 212.799057 175.310713 216.45 184.5 216.45 
z
" style="fill:#ff0000;opacity:0.2;stroke:#ff0000;stroke-linejoin:miter;"/>
   </g>
   <g id="line2d_1">
    <path clip-path="url(#p52fce89cfb)" d="M 132.845479 361 
L 134.724436 349.168731 
L 135.206369 344.369921 
L 135.765683 338.939902 
L 135.952465 337.224734 
L 135.952465 337.224734 
" style="fill:none;stroke:#000000;stroke-linecap:square;stroke-width:1.5;"/>
   </g>
   <g id="line2d_2">
    <path clip-path="url(#p52fce89cfb)" d="M 135.111388 361 
L 135.834243 342.445126 
L 135.971461 334.852259 
L 136.137935 323.349735 
L 136.550412 305.073499 
L 136.641931 295.122467 
L 136.40976 288.588165 
L 135.859063 281.967354 
L 133.262153 259.182363 
L 132.401289 253.906001 
L 131.317459 248.396869 
L 129.980694 242.708309 
L 127.885515 235.044054 
L 123.396026 219.08337 
L 122.003462 212.908077 
L 121.772542 211.712022 
L 121.908406 211.801845 
L 121.383304 211.585482 
L 120.683832 211.363149 
L 119.677543 210.982204 
L 118.276469 210.157957 
L 115.081265 208.605931 
L 114.221046 208.287159 
L 107.484131 205.024067 
L 103.28226 202.445327 
L 102.410367 201.600748 
L 98.48055 198.050433 
L 97.576925 196.562405 
L 96.773378 195.099959 
L 95.837531 193.672305 
L 95.200398 192.253819 
L 93.225416 186.73839 
L 91.517551 182.471616 
L 88.234835 174.403489 
L 88.234835 174.403489 
" style="fill:none;stroke:#ff0000;stroke-linecap:square;stroke-width:1.5;"/>
   </g>
   <g id="line2d_3">
    <path clip-path="url(#p52fce89cfb)" d="M 119.415374 361 
L 119.69831 356.376512 
L 120.170895 344.873772 
L 120.50284 334.048302 
L 120.485811 327.962424 
L 120.205115 321.941306 
L 119.553873 313.940719 
L 118.643874 305.922297 
L 115.967995 287.26399 
L 114.336691 276.929425 
L 112.24527 264.197775 
L 109.677359 247.5012 
L 108.476581 241.750782 
L 106.640485 234.07131 
L 104.519786 226.342112 
L 101.48979 216.558591 
L 98.842553 208.732896 
L 96.08311 200.999648 
L 92.08199 189.881684 
L 90.485164 184.755496 
L 84.676837 164.28736 
L 83.181294 160.307431 
L 82.006571 157.685391 
L 79.967419 153.813485 
L 77.668662 150.041351 
L 75.174533 146.353536 
L 71.602652 141.513255 
L 57.927344 123.924646 
L 52.56196 117.504782 
L 48.025548 112.285488 
L 37.32268 100.603053 
L 22.327267 84.637711 
L 19.660198 81.222897 
L 17.094745 77.98127 
L 13.480756 73.943802 
L 8.285327 68.142057 
L 4.566316 64.054313 
L 2.09737 61.679706 
L -1 59.107476 
L -1 59.107476 
" style="fill:none;stroke:#008000;stroke-linecap:square;stroke-width:1.5;"/>
   </g>
   <g id="line2d_4">
    <path clip-path="url(#p52fce89cfb)" d="M 125.499915 361 
L 127.80247 341.82438 
L 128.725238 330.258526 
L 129.287869 320.888726 
L 130.019312 305.47275 
L 129.982005 300.39093 
L 129.730132 295.098543 
L 129.030124 285.962986 
L 128.409594 277.125833 
L 127.892539 270.367148 
L 127.328479 265.242763 
L 126.344038 258.320472 
L 125.134535 251.284413 
L 123.291035 242.24167 
L 120.507443 229.732545 
L 115.503263 208.013906 
L 108.222173 204.59896 
L 106.227519 203.565077 
L 104.152023 202.513934 
L 103.451874 201.976295 
L 101.316945 200.035253 
L 98.721631 197.723687 
L 97.706154 196.389745 
L 95.843865 193.373671 
L 93.667895 189.507958 
L 92.047372 186.13449 
L 88.143448 177.675486 
L 81.504372 164.389787 
L 72.934218 147.662597 
L 69.833107 142.300793 
L 64.697948 133.970569 
L 60.764081 127.951477 
L 57.94956 124.021169 
L 52.796795 117.366365 
L 50.723523 114.650208 
L 50.723523 114.650208 
" style="fill:none;stroke:#0000ff;stroke-linecap:square;stroke-width:1.5;"/>
   </g>
   <g id="patch_6">
    <path d="M 45.9 320.4 
L 45.9 43.2 
" style="fill:none;stroke:#000000;stroke-linecap:square;stroke-linejoin:miter;stroke-width:0.8;"/>
   </g>
   <g id="patch_7">
    <path d="M 323.1 320.4 
L 323.1 43.2 
" style="fill:none;stroke:#000000;stroke-linecap:square;stroke-linejoin:miter;stroke-width:0.8;"/>
   </g>
   <g id="patch_8">
    <path d="M 45.9 320.4 
L 323.1 320.4 
" style="fill:none;stroke:#000000;stroke-linecap:square;stroke-linejoin:miter;stroke-width:0.8;"/>
   </g>
   <g id="patch_9">
    <path d="M 45.9 43.2 
L 323.1 43.2 
" style="fill:none;stroke:#000000;stroke-linecap:square;stroke-linejoin:miter;stroke-width:0.8;"/>
   </g>
   <g id="text_1">
    <!-- Obstacle -->
    <defs>
     <path d="M 42.484375 60.59375 
Q 33.890625 60.59375 29.15625 54.25 
Q 24.421875 47.90625 24.421875 36.375 
Q 24.421875 24.90625 29.15625 18.546875 
Q 33.890625 12.203125 42.484375 12.203125 
Q 51.125 12.203125 55.859375 18.546875 
Q 60.59375 24.90625 60.59375 36.375 
Q 60.59375 47.90625 55.859375 54.25 
Q 51.125 60.59375 42.484375 60.59375 
z
M 42.484375 74.21875 
Q 60.0625 74.21875 70.015625 64.15625 
Q 79.984375 54.109375 79.984375 36.375 
Q 79.984375 18.703125 70.015625 8.640625 
Q 60.0625 -1.421875 42.484375 -1.421875 
Q 24.953125 -1.421875 14.96875 8.640625 
Q 4.984375 18.703125 4.984375 36.375 
Q 4.984375 54.109375 14.96875 64.15625 
Q 24.953125 74.21875 42.484375 74.21875 
z
" id="DejaVuSans-Bold-4f"/>
     <path d="M 37.5 11.28125 
Q 43.109375 11.28125 46.0625 15.375 
Q 49.03125 19.484375 49.03125 27.296875 
Q 49.03125 35.109375 46.0625 39.203125 
Q 43.109375 43.3125 37.5 43.3125 
Q 31.890625 43.3125 28.875 39.1875 
Q 25.875 35.0625 25.875 27.296875 
Q 25.875 19.53125 28.875 15.40625 
Q 31.890625 11.28125 37.5 11.28125 
z
M 25.875 46.6875 
Q 29.5 51.46875 33.890625 53.734375 
Q 38.28125 56 44 56 
Q 54.109375 56 60.59375 47.96875 
Q 67.09375 39.9375 67.09375 27.296875 
Q 67.09375 14.65625 60.59375 6.609375 
Q 54.109375 -1.421875 44 -1.421875 
Q 38.28125 -1.421875 33.890625 0.84375 
Q 29.5 3.125 25.875 7.90625 
L 25.875 0 
L 8.40625 0 
L 8.40625 75.984375 
L 25.875 75.984375 
z
" id="DejaVuSans-Bold-62"/>
     <path d="M 51.125 52.984375 
L 51.125 39.703125 
Q 45.515625 42.046875 40.28125 43.21875 
Q 35.0625 44.390625 30.421875 44.390625 
Q 25.4375 44.390625 23.015625 43.140625 
Q 20.609375 41.890625 20.609375 39.3125 
Q 20.609375 37.203125 22.4375 36.078125 
Q 24.265625 34.96875 29 34.421875 
L 32.078125 33.984375 
Q 45.515625 32.28125 50.140625 28.375 
Q 54.78125 24.46875 54.78125 16.109375 
Q 54.78125 7.375 48.328125 2.96875 
Q 41.890625 -1.421875 29.109375 -1.421875 
Q 23.6875 -1.421875 17.890625 -0.5625 
Q 12.109375 0.296875 6 2 
L 6 15.28125 
Q 11.234375 12.75 16.71875 11.46875 
Q 22.21875 10.203125 27.875 10.203125 
Q 33.015625 10.203125 35.59375 11.609375 
Q 38.1875 13.03125 38.1875 15.828125 
Q 38.1875 18.171875 36.40625 19.3125 
Q 34.625 20.453125 29.296875 21.09375 
L 26.21875 21.484375 
Q 14.546875 22.953125 9.859375 26.90625 
Q 5.171875 30.859375 5.171875 38.921875 
Q 5.171875 47.609375 11.125 51.796875 
Q 17.09375 56 29.390625 56 
Q 34.234375 56 39.546875 55.265625 
Q 44.875 54.546875 51.125 52.984375 
z
" id="DejaVuSans-Bold-73"/>
     <path d="M 27.484375 70.21875 
L 27.484375 54.6875 
L 45.515625 54.6875 
L 45.515625 42.1875 
L 27.484375 42.1875 
L 27.484375 19 
Q 27.484375 15.1875 29 13.84375 
Q 30.515625 12.5 35.015625 12.5 
L 44 12.5 
L 44 0 
L 29 0 
Q 18.65625 0 14.328125 4.3125 
Q 10.015625 8.640625 10.015625 19 
L 10.015625 42.1875 
L 1.3125 42.1875 
L 1.3125 54.6875 
L 10.015625 54.6875 
L 10.015625 70.21875 
z
" id="DejaVuSans-Bold-74"/>
     <path d="M 32.90625 24.609375 
Q 27.4375 24.609375 24.671875 22.75 
Q 21.921875 20.90625 21.921875 17.28125 
Q 21.921875 13.96875 24.140625 12.078125 
Q 26.375 10.203125 30.328125 10.203125 
Q 35.25 10.203125 38.625 13.734375 
Q 42 17.28125 42 22.609375 
L 42 24.609375 
z
M 59.625 31.203125 
L 59.625 0 
L 42 0 
L 42 8.109375 
Q 38.484375 3.125 34.078125 0.84375 
Q 29.6875 -1.421875 23.390625 -1.421875 
Q 14.890625 -1.421875 9.59375 3.53125 
Q 4.296875 8.5 4.296875 16.40625 
Q 4.296875 26.03125 10.90625 30.515625 
Q 17.53125 35.015625 31.6875 35.015625 
L 42 35.015625 
L 42 36.375 
Q 42 40.53125 38.71875 42.453125 
Q 35.453125 44.390625 28.515625 44.390625 
Q 22.90625 44.390625 18.0625 43.265625 
Q 13.234375 42.140625 9.078125 39.890625 
L 9.078125 53.21875 
Q 14.703125 54.59375 20.359375 55.296875 
Q 26.03125 56 31.6875 56 
Q 46.484375 56 53.046875 50.171875 
Q 59.625 44.34375 59.625 31.203125 
z
" id="DejaVuSans-Bold-61"/>
     <path d="M 52.59375 52.984375 
L 52.59375 38.71875 
Q 49.03125 41.15625 45.4375 42.328125 
Q 41.84375 43.5 37.984375 43.5 
Q 30.671875 43.5 26.59375 39.234375 
Q 22.515625 34.96875 22.515625 27.296875 
Q 22.515625 19.625 26.59375 15.34375 
Q 30.671875 11.078125 37.984375 11.078125 
Q 42.09375 11.078125 45.78125 12.296875 
Q 49.46875 13.53125 52.59375 15.921875 
L 52.59375 1.609375 
Q 48.484375 0.09375 44.265625 -0.65625 
Q 40.046875 -1.421875 35.796875 -1.421875 
Q 21 -1.421875 12.640625 6.171875 
Q 4.296875 13.765625 4.296875 27.296875 
Q 4.296875 40.828125 12.640625 48.40625 
Q 21 56 35.796875 56 
Q 40.09375 56 44.265625 55.25 
Q 48.4375 54.5 52.59375 52.984375 
z
" id="DejaVuSans-Bold-63"/>
     <path d="M 8.40625 75.984375 
L 25.875 75.984375 
L 25.875 0 
L 8.40625 0 
z
" id="DejaVuSans-Bold-6c"/>
     <path d="M 62.984375 27.484375 
L 62.984375 22.515625 
L 22.125 22.515625 
Q 22.75 16.359375 26.5625 13.28125 
Q 30.375 10.203125 37.203125 10.203125 
Q 42.71875 10.203125 48.5 11.84375 
Q 54.296875 13.484375 60.40625 16.796875 
L 60.40625 3.328125 
Q 54.203125 0.984375 48 -0.21875 
Q 41.796875 -1.421875 35.59375 -1.421875 
Q 20.75 -1.421875 12.515625 6.125 
Q 4.296875 13.671875 4.296875 27.296875 
Q 4.296875 40.671875 12.375 48.328125 
Q 20.453125 56 34.625 56 
Q 47.515625 56 55.25 48.234375 
Q 62.984375 40.484375 62.984375 27.484375 
z
M 45.015625 33.296875 
Q 45.015625 38.28125 42.109375 41.328125 
Q 39.203125 44.390625 34.515625 44.390625 
Q 29.4375 44.390625 26.265625 41.53125 
Q 23.09375 38.671875 22.3125 33.296875 
z
" id="DejaVuSans-Bold-65"/>
    </defs>
    <g transform="translate(122.902344 37.2)scale(0.25 -0.25)">
     <use xlink:href="#DejaVuSans-Bold-4f"/>
     <use x="85.009766" xlink:href="#DejaVuSans-Bold-62"/>
     <use x="156.591797" xlink:href="#DejaVuSans-Bold-73"/>
     <use x="216.113281" xlink:href="#DejaVuSans-Bold-74"/>
     <use x="263.916016" xlink:href="#DejaVuSans-Bold-61"/>
     <use x="331.396484" xlink:href="#DejaVuSans-Bold-63"/>
     <use x="390.673828" xlink:href="#DejaVuSans-Bold-6c"/>
     <use x="424.951172" xlink:href="#DejaVuSans-Bold-65"/>
    </g>
   </g>
  </g>
 </g>
 <defs>
  <clipPath id="p52fce89cfb">
   <rect height="277.2" width="277.2" x="45.9" y="43.2"/>
  </clipPath>
 </defs>
</svg>
