<?xml version="1.0" encoding="utf-8" standalone="no"?>
<!DOCTYPE svg PUBLIC "-//W3C//DTD SVG 1.1//EN"
  "http://www.w3.org/Graphics/SVG/1.1/DTD/svg11.dtd">
<!-- Created with matplotlib (http://matplotlib.org/) -->
<svg height="360pt" version="1.1" viewBox="0 0 360 360" width="360pt" xmlns="http://www.w3.org/2000/svg" xmlns:xlink="http://www.w3.org/1999/xlink">
 <defs>
  <style type="text/css">
*{stroke-linecap:butt;stroke-linejoin:round;}
  </style>
 </defs>
 <g id="figure_1">
  <g id="patch_1">
   <path d="M 0 360 
L 360 360 
L 360 0 
L 0 0 
z
" style="fill:#ffffff;"/>
  </g>
  <g id="axes_1">
   <g id="patch_2">
    <path d="M 45.9 320.4 
L 323.1 320.4 
L 323.1 43.2 
L 45.9 43.2 
z
" style="fill:#eaeaf2;"/>
   </g>
   <g id="patch_3">
    <path clip-path="url(#p744ade0714)" d="M 160.1064 -124.2288 
C 163.782115 -124.2288 167.307777 -125.689177 169.9069 -128.2883 
C 172.506023 -130.887423 173.9664 -134.413085 173.9664 -138.0888 
C 173.9664 -141.764515 172.506023 -145.290177 169.9069 -147.8893 
C 167.307777 -150.488423 163.782115 -151.9488 160.1064 -151.9488 
C 156.430685 -151.9488 152.905023 -150.488423 150.3059 -147.8893 
C 147.706777 -145.290177 146.2464 -141.764515 146.2464 -138.0888 
C 146.2464 -134.413085 147.706777 -130.887423 150.3059 -128.2883 
C 152.905023 -125.689177 156.430685 -124.2288 160.1064 -124.2288 
z
" style="fill:#008000;opacity:0.6;stroke:#000000;stroke-linejoin:miter;"/>
   </g>
   <g id="patch_4">
    <path clip-path="url(#p744ade0714)" d="M 184.5 285.75 
C 212.067862 285.75 238.510328 274.797172 258.00375 255.30375 
C 277.497172 235.810328 288.45 209.367862 288.45 181.8 
C 288.45 154.232138 277.497172 127.789672 258.00375 108.29625 
C 238.510328 88.802828 212.067862 77.85 184.5 77.85 
C 156.932138 77.85 130.489672 88.802828 110.99625 108.29625 
C 91.502828 127.789672 80.55 154.232138 80.55 181.8 
C 80.55 209.367862 91.502828 235.810328 110.99625 255.30375 
C 130.489672 274.797172 156.932138 285.75 184.5 285.75 
z
" style="opacity:0.1;stroke:#000000;stroke-linejoin:miter;"/>
   </g>
   <g id="patch_5">
    <path clip-path="url(#p744ade0714)" d="M 184.5 216.45 
C 193.689287 216.45 202.503443 212.799057 209.00125 206.30125 
C 215.499057 199.803443 219.15 190.989287 219.15 181.8 
C 219.15 172.610713 215.499057 163.796557 209.00125 157.29875 
C 202.503443 150.800943 193.689287 147.15 184.5 147.15 
C 175.310713 147.15 166.496557 150.800943 159.99875 157.29875 
C 153.500943 163.796557 149.85 172.610713 149.85 181.8 
C 149.85 190.989287 153.500943 199.803443 159.99875 206.30125 
C 166.496557 212.799057 175.310713 216.45 184.5 216.45 
z
" style="fill:#ff0000;opacity:0.2;stroke:#ff0000;stroke-linejoin:miter;"/>
   </g>
   <g id="line2d_1">
    <path clip-path="url(#p744ade0714)" d="M 106.253018 361 
L 106.740644 353.607358 
L 107.127041 344.550398 
L 107.331988 335.494512 
L 107.348119 323.432831 
L 107.179617 314.387116 
L 106.80074 305.272674 
L 106.052716 293.082501 
L 105.053808 280.925613 
L 104.111109 271.844521 
L 102.951015 262.794671 
L 101.127071 250.847148 
L 99.101405 239.133271 
L 97.387065 230.477747 
L 95.394006 221.853075 
L 92.451174 210.480891 
L 88.702116 196.801888 
L 79.933708 166.567953 
L 72.797404 142.074814 
L 71.286885 135.97603 
L 69.624928 128.222716 
L 68.233621 120.818112 
L 67.164001 113.747705 
L 65.744962 102.049209 
L 64.490325 92.447851 
L 61.019274 68.08662 
L 57.771282 43.646616 
L 57.320429 38.08996 
L 56.990441 31.271071 
L 56.373238 10.278313 
L 56.444242 -1 
L 56.444242 -1 
" style="fill:none;stroke:#000000;stroke-linecap:square;stroke-width:1.5;"/>
   </g>
   <g id="line2d_2">
    <path clip-path="url(#p744ade0714)" d="M 118.891905 361 
L 119.616357 354.394045 
L 120.509146 344.683679 
L 121.148234 335.032646 
L 121.483861 325.397114 
L 121.515943 318.973564 
L 121.388531 312.561753 
L 120.941809 303.015676 
L 120.239143 293.577191 
L 119.314383 284.254068 
L 117.907055 272.170433 
L 116.736526 263.391201 
L 115.355223 254.723668 
L 113.169792 243.194954 
L 108.170101 217.984352 
L 105.635709 207.169911 
L 105.194004 206.934466 
L 105.275866 207.039718 
L 105.176973 207.108843 
L 105.205733 207.154494 
L 105.221765 207.178573 
L 104.985147 207.086091 
L 103.496611 206.25323 
L 98.979252 202.207153 
L 98.028316 201.199567 
L 96.257575 198.823391 
L 94.266626 195.629857 
L 92.941696 193.187355 
L 91.755127 190.621117 
L 90.829769 188.040931 
L 90.151909 185.46974 
L 89.637279 182.863337 
L 88.922572 177.493322 
L 87.643545 167.27905 
L 86.185108 157.69817 
L 85.281452 151.195654 
L 84.621061 147.885896 
L 81.127899 132.755177 
L 80.407812 127.852357 
L 79.436198 119.84273 
L 78.266928 113.415686 
L 76.571276 105.424298 
L 75.259164 99.055407 
L 74.614578 94.380408 
L 74.271323 89.823105 
L 74.230522 85.413672 
L 74.37272 79.721745 
L 74.671999 76.962249 
L 75.407666 72.944085 
L 76.574861 67.714927 
L 77.301261 65.140603 
L 78.197347 62.609388 
L 79.816145 58.917 
L 81.476806 55.327536 
L 82.381887 52.948813 
L 82.984164 50.543211 
L 83.189226 48.07674 
L 83.043592 45.533603 
L 82.462475 41.590875 
L 81.416274 34.795236 
L 81.171895 32.035623 
L 81.105189 29.275255 
L 81.309434 25.161432 
L 81.764418 18.381891 
L 81.728597 14.327301 
L 81.231225 6.256686 
L 80.817867 -1 
L 80.817867 -1 
" style="fill:none;stroke:#ff0000;stroke-linecap:square;stroke-width:1.5;"/>
   </g>
   <g id="line2d_3">
    <path clip-path="url(#p744ade0714)" d="M 109.741562 361 
L 110.466048 350.951857 
L 111.354251 336.187679 
L 111.711243 327.355467 
L 111.887187 318.442731 
L 111.86372 309.410608 
L 111.635477 300.289346 
L 111.162542 291.082371 
L 110.41366 281.798496 
L 109.382779 272.465529 
L 108.109569 263.144063 
L 106.596541 253.885832 
L 104.86789 244.73251 
L 102.954462 235.699677 
L 100.883511 226.805413 
L 98.657677 218.077336 
L 96.194479 209.514218 
L 92.660989 198.287386 
L 88.913183 187.274856 
L 84.074627 173.85238 
L 80.400678 163.545144 
L 77.271307 153.830761 
L 73.792579 142.461647 
L 71.980513 136.045272 
L 70.460236 129.930989 
L 69.344172 124.151353 
L 68.582395 118.673917 
L 68.13633 113.445488 
L 67.972312 108.424468 
L 68.046986 105.194232 
L 68.352536 102.09183 
L 69.13796 97.686568 
L 69.812651 93.444069 
L 70.035673 90.63419 
L 70.078512 87.815936 
L 69.948441 84.975592 
L 69.464507 80.665535 
L 68.678793 76.30268 
L 66.586477 66.011419 
L 65.124134 55.77319 
L 64.061671 51.332665 
L 63.013104 46.890415 
L 62.471722 43.955159 
L 62.117699 41.058751 
L 61.978971 38.215155 
L 62.043889 34.055013 
L 62.21368 27.352207 
L 62.103318 15.601538 
L 62.342157 11.79546 
L 62.657338 9.344607 
L 63.367844 5.859498 
L 64.528906 1.634644 
L 65.452218 -1 
L 65.452218 -1 
" style="fill:none;stroke:#008000;stroke-linecap:square;stroke-width:1.5;"/>
   </g>
   <g id="line2d_4">
    <path clip-path="url(#p744ade0714)" d="M 110.323039 361 
L 111.071384 352.818154 
L 111.741782 343.222214 
L 112.190209 333.584667 
L 112.400577 323.914296 
L 112.374637 314.224198 
L 112.110271 304.522798 
L 111.643296 294.854076 
L 110.976979 285.238565 
L 110.086848 275.672886 
L 108.966614 266.166541 
L 107.640614 256.746075 
L 106.133238 247.437561 
L 104.476884 238.280898 
L 102.581343 229.211388 
L 100.460245 220.240935 
L 97.383857 208.510968 
L 94.974821 199.951842 
L 92.415338 191.546329 
L 88.838138 180.619407 
L 85.201865 170.075175 
L 79.893717 155.054262 
L 76.975383 145.77497 
L 74.398822 137.000944 
L 72.761239 130.761588 
L 71.415281 124.807837 
L 70.395624 119.137434 
L 69.436093 111.968417 
L 68.012742 98.532211 
L 67.79262 95.33652 
L 67.327511 83.203923 
L 66.865819 75.850725 
L 66.752672 70.11751 
L 66.707593 57.60426 
L 66.98483 53.570873 
L 67.421489 48.302354 
L 67.690893 41.824696 
L 68.102017 26.44806 
L 68.52116 20.149982 
L 70.428461 1.000456 
L 70.671322 -1 
L 70.671322 -1 
" style="fill:none;stroke:#0000ff;stroke-linecap:square;stroke-width:1.5;"/>
   </g>
   <g id="patch_6">
    <path d="M 45.9 320.4 
L 45.9 43.2 
" style="fill:none;stroke:#000000;stroke-linecap:square;stroke-linejoin:miter;stroke-width:0.8;"/>
   </g>
   <g id="patch_7">
    <path d="M 323.1 320.4 
L 323.1 43.2 
" style="fill:none;stroke:#000000;stroke-linecap:square;stroke-linejoin:miter;stroke-width:0.8;"/>
   </g>
   <g id="patch_8">
    <path d="M 45.9 320.4 
L 323.1 320.4 
" style="fill:none;stroke:#000000;stroke-linecap:square;stroke-linejoin:miter;stroke-width:0.8;"/>
   </g>
   <g id="patch_9">
    <path d="M 45.9 43.2 
L 323.1 43.2 
" style="fill:none;stroke:#000000;stroke-linecap:square;stroke-linejoin:miter;stroke-width:0.8;"/>
   </g>
   <g id="text_1">
    <!-- Obstacle -->
    <defs>
     <path d="M 42.484375 60.59375 
Q 33.890625 60.59375 29.15625 54.25 
Q 24.421875 47.90625 24.421875 36.375 
Q 24.421875 24.90625 29.15625 18.546875 
Q 33.890625 12.203125 42.484375 12.203125 
Q 51.125 12.203125 55.859375 18.546875 
Q 60.59375 24.90625 60.59375 36.375 
Q 60.59375 47.90625 55.859375 54.25 
Q 51.125 60.59375 42.484375 60.59375 
z
M 42.484375 74.21875 
Q 60.0625 74.21875 70.015625 64.15625 
Q 79.984375 54.109375 79.984375 36.375 
Q 79.984375 18.703125 70.015625 8.640625 
Q 60.0625 -1.421875 42.484375 -1.421875 
Q 24.953125 -1.421875 14.96875 8.640625 
Q 4.984375 18.703125 4.984375 36.375 
Q 4.984375 54.109375 14.96875 64.15625 
Q 24.953125 74.21875 42.484375 74.21875 
z
" id="DejaVuSans-Bold-4f"/>
     <path d="M 37.5 11.28125 
Q 43.109375 11.28125 46.0625 15.375 
Q 49.03125 19.484375 49.03125 27.296875 
Q 49.03125 35.109375 46.0625 39.203125 
Q 43.109375 43.3125 37.5 43.3125 
Q 31.890625 43.3125 28.875 39.1875 
Q 25.875 35.0625 25.875 27.296875 
Q 25.875 19.53125 28.875 15.40625 
Q 31.890625 11.28125 37.5 11.28125 
z
M 25.875 46.6875 
Q 29.5 51.46875 33.890625 53.734375 
Q 38.28125 56 44 56 
Q 54.109375 56 60.59375 47.96875 
Q 67.09375 39.9375 67.09375 27.296875 
Q 67.09375 14.65625 60.59375 6.609375 
Q 54.109375 -1.421875 44 -1.421875 
Q 38.28125 -1.421875 33.890625 0.84375 
Q 29.5 3.125 25.875 7.90625 
L 25.875 0 
L 8.40625 0 
L 8.40625 75.984375 
L 25.875 75.984375 
z
" id="DejaVuSans-Bold-62"/>
     <path d="M 51.125 52.984375 
L 51.125 39.703125 
Q 45.515625 42.046875 40.28125 43.21875 
Q 35.0625 44.390625 30.421875 44.390625 
Q 25.4375 44.390625 23.015625 43.140625 
Q 20.609375 41.890625 20.609375 39.3125 
Q 20.609375 37.203125 22.4375 36.078125 
Q 24.265625 34.96875 29 34.421875 
L 32.078125 33.984375 
Q 45.515625 32.28125 50.140625 28.375 
Q 54.78125 24.46875 54.78125 16.109375 
Q 54.78125 7.375 48.328125 2.96875 
Q 41.890625 -1.421875 29.109375 -1.421875 
Q 23.6875 -1.421875 17.890625 -0.5625 
Q 12.109375 0.296875 6 2 
L 6 15.28125 
Q 11.234375 12.75 16.71875 11.46875 
Q 22.21875 10.203125 27.875 10.203125 
Q 33.015625 10.203125 35.59375 11.609375 
Q 38.1875 13.03125 38.1875 15.828125 
Q 38.1875 18.171875 36.40625 19.3125 
Q 34.625 20.453125 29.296875 21.09375 
L 26.21875 21.484375 
Q 14.546875 22.953125 9.859375 26.90625 
Q 5.171875 30.859375 5.171875 38.921875 
Q 5.171875 47.609375 11.125 51.796875 
Q 17.09375 56 29.390625 56 
Q 34.234375 56 39.546875 55.265625 
Q 44.875 54.546875 51.125 52.984375 
z
" id="DejaVuSans-Bold-73"/>
     <path d="M 27.484375 70.21875 
L 27.484375 54.6875 
L 45.515625 54.6875 
L 45.515625 42.1875 
L 27.484375 42.1875 
L 27.484375 19 
Q 27.484375 15.1875 29 13.84375 
Q 30.515625 12.5 35.015625 12.5 
L 44 12.5 
L 44 0 
L 29 0 
Q 18.65625 0 14.328125 4.3125 
Q 10.015625 8.640625 10.015625 19 
L 10.015625 42.1875 
L 1.3125 42.1875 
L 1.3125 54.6875 
L 10.015625 54.6875 
L 10.015625 70.21875 
z
" id="DejaVuSans-Bold-74"/>
     <path d="M 32.90625 24.609375 
Q 27.4375 24.609375 24.671875 22.75 
Q 21.921875 20.90625 21.921875 17.28125 
Q 21.921875 13.96875 24.140625 12.078125 
Q 26.375 10.203125 30.328125 10.203125 
Q 35.25 10.203125 38.625 13.734375 
Q 42 17.28125 42 22.609375 
L 42 24.609375 
z
M 59.625 31.203125 
L 59.625 0 
L 42 0 
L 42 8.109375 
Q 38.484375 3.125 34.078125 0.84375 
Q 29.6875 -1.421875 23.390625 -1.421875 
Q 14.890625 -1.421875 9.59375 3.53125 
Q 4.296875 8.5 4.296875 16.40625 
Q 4.296875 26.03125 10.90625 30.515625 
Q 17.53125 35.015625 31.6875 35.015625 
L 42 35.015625 
L 42 36.375 
Q 42 40.53125 38.71875 42.453125 
Q 35.453125 44.390625 28.515625 44.390625 
Q 22.90625 44.390625 18.0625 43.265625 
Q 13.234375 42.140625 9.078125 39.890625 
L 9.078125 53.21875 
Q 14.703125 54.59375 20.359375 55.296875 
Q 26.03125 56 31.6875 56 
Q 46.484375 56 53.046875 50.171875 
Q 59.625 44.34375 59.625 31.203125 
z
" id="DejaVuSans-Bold-61"/>
     <path d="M 52.59375 52.984375 
L 52.59375 38.71875 
Q 49.03125 41.15625 45.4375 42.328125 
Q 41.84375 43.5 37.984375 43.5 
Q 30.671875 43.5 26.59375 39.234375 
Q 22.515625 34.96875 22.515625 27.296875 
Q 22.515625 19.625 26.59375 15.34375 
Q 30.671875 11.078125 37.984375 11.078125 
Q 42.09375 11.078125 45.78125 12.296875 
Q 49.46875 13.53125 52.59375 15.921875 
L 52.59375 1.609375 
Q 48.484375 0.09375 44.265625 -0.65625 
Q 40.046875 -1.421875 35.796875 -1.421875 
Q 21 -1.421875 12.640625 6.171875 
Q 4.296875 13.765625 4.296875 27.296875 
Q 4.296875 40.828125 12.640625 48.40625 
Q 21 56 35.796875 56 
Q 40.09375 56 44.265625 55.25 
Q 48.4375 54.5 52.59375 52.984375 
z
" id="DejaVuSans-Bold-63"/>
     <path d="M 8.40625 75.984375 
L 25.875 75.984375 
L 25.875 0 
L 8.40625 0 
z
" id="DejaVuSans-Bold-6c"/>
     <path d="M 62.984375 27.484375 
L 62.984375 22.515625 
L 22.125 22.515625 
Q 22.75 16.359375 26.5625 13.28125 
Q 30.375 10.203125 37.203125 10.203125 
Q 42.71875 10.203125 48.5 11.84375 
Q 54.296875 13.484375 60.40625 16.796875 
L 60.40625 3.328125 
Q 54.203125 0.984375 48 -0.21875 
Q 41.796875 -1.421875 35.59375 -1.421875 
Q 20.75 -1.421875 12.515625 6.125 
Q 4.296875 13.671875 4.296875 27.296875 
Q 4.296875 40.671875 12.375 48.328125 
Q 20.453125 56 34.625 56 
Q 47.515625 56 55.25 48.234375 
Q 62.984375 40.484375 62.984375 27.484375 
z
M 45.015625 33.296875 
Q 45.015625 38.28125 42.109375 41.328125 
Q 39.203125 44.390625 34.515625 44.390625 
Q 29.4375 44.390625 26.265625 41.53125 
Q 23.09375 38.671875 22.3125 33.296875 
z
" id="DejaVuSans-Bold-65"/>
    </defs>
    <g transform="translate(122.902344 37.2)scale(0.25 -0.25)">
     <use xlink:href="#DejaVuSans-Bold-4f"/>
     <use x="85.009766" xlink:href="#DejaVuSans-Bold-62"/>
     <use x="156.591797" xlink:href="#DejaVuSans-Bold-73"/>
     <use x="216.113281" xlink:href="#DejaVuSans-Bold-74"/>
     <use x="263.916016" xlink:href="#DejaVuSans-Bold-61"/>
     <use x="331.396484" xlink:href="#DejaVuSans-Bold-63"/>
     <use x="390.673828" xlink:href="#DejaVuSans-Bold-6c"/>
     <use x="424.951172" xlink:href="#DejaVuSans-Bold-65"/>
    </g>
   </g>
  </g>
 </g>
 <defs>
  <clipPath id="p744ade0714">
   <rect height="277.2" width="277.2" x="45.9" y="43.2"/>
  </clipPath>
 </defs>
</svg>
