<?xml version="1.0" encoding="utf-8" standalone="no"?>
<!DOCTYPE svg PUBLIC "-//W3C//DTD SVG 1.1//EN"
  "http://www.w3.org/Graphics/SVG/1.1/DTD/svg11.dtd">
<!-- Created with matplotlib (http://matplotlib.org/) -->
<svg height="360pt" version="1.1" viewBox="0 0 360 360" width="360pt" xmlns="http://www.w3.org/2000/svg" xmlns:xlink="http://www.w3.org/1999/xlink">
 <defs>
  <style type="text/css">
*{stroke-linecap:butt;stroke-linejoin:round;}
  </style>
 </defs>
 <g id="figure_1">
  <g id="patch_1">
   <path d="M 0 360 
L 360 360 
L 360 0 
L 0 0 
z
" style="fill:#ffffff;"/>
  </g>
  <g id="axes_1">
   <g id="patch_2">
    <path d="M 45.9 320.4 
L 323.1 320.4 
L 323.1 43.2 
L 45.9 43.2 
z
" style="fill:#eaeaf2;"/>
   </g>
   <g id="patch_3">
    <path clip-path="url(#pcd0c7295f4)" d="M 160.1064 -124.2288 
C 163.782115 -124.2288 167.307777 -125.689177 169.9069 -128.2883 
C 172.506023 -130.887423 173.9664 -134.413085 173.9664 -138.0888 
C 173.9664 -141.764515 172.506023 -145.290177 169.9069 -147.8893 
C 167.307777 -150.488423 163.782115 -151.9488 160.1064 -151.9488 
C 156.430685 -151.9488 152.905023 -150.488423 150.3059 -147.8893 
C 147.706777 -145.290177 146.2464 -141.764515 146.2464 -138.0888 
C 146.2464 -134.413085 147.706777 -130.887423 150.3059 -128.2883 
C 152.905023 -125.689177 156.430685 -124.2288 160.1064 -124.2288 
z
" style="fill:#008000;opacity:0.6;stroke:#000000;stroke-linejoin:miter;"/>
   </g>
   <g id="patch_4">
    <path clip-path="url(#pcd0c7295f4)" d="M 184.5 285.75 
C 212.067862 285.75 238.510328 274.797172 258.00375 255.30375 
C 277.497172 235.810328 288.45 209.367862 288.45 181.8 
C 288.45 154.232138 277.497172 127.789672 258.00375 108.29625 
C 238.510328 88.802828 212.067862 77.85 184.5 77.85 
C 156.932138 77.85 130.489672 88.802828 110.99625 108.29625 
C 91.502828 127.789672 80.55 154.232138 80.55 181.8 
C 80.55 209.367862 91.502828 235.810328 110.99625 255.30375 
C 130.489672 274.797172 156.932138 285.75 184.5 285.75 
z
" style="opacity:0.1;stroke:#000000;stroke-linejoin:miter;"/>
   </g>
   <g id="patch_5">
    <path clip-path="url(#pcd0c7295f4)" d="M 184.5 216.45 
C 193.689287 216.45 202.503443 212.799057 209.00125 206.30125 
C 215.499057 199.803443 219.15 190.989287 219.15 181.8 
C 219.15 172.610713 215.499057 163.796557 209.00125 157.29875 
C 202.503443 150.800943 193.689287 147.15 184.5 147.15 
C 175.310713 147.15 166.496557 150.800943 159.99875 157.29875 
C 153.500943 163.796557 149.85 172.610713 149.85 181.8 
C 149.85 190.989287 153.500943 199.803443 159.99875 206.30125 
C 166.496557 212.799057 175.310713 216.45 184.5 216.45 
z
" style="fill:#ff0000;opacity:0.2;stroke:#ff0000;stroke-linejoin:miter;"/>
   </g>
   <g id="line2d_1">
    <path clip-path="url(#pcd0c7295f4)" d="M 101.41121 361 
L 102.288384 353.362583 
L 103.312565 342.403448 
L 103.934143 333.567523 
L 104.412326 323.257231 
L 104.627098 313.239357 
L 104.581057 303.501003 
L 104.296116 294.00857 
L 103.752269 284.665565 
L 102.968084 275.454752 
L 101.953399 266.3167 
L 100.560657 255.784088 
L 99.137777 246.86467 
L 97.75301 239.502295 
L 96.171797 232.210842 
L 93.741095 222.159035 
L 91.121448 212.287036 
L 88.654501 203.909238 
L 85.961077 195.598096 
L 83.067891 187.373068 
L 80.464677 180.597599 
L 76.080364 170.000304 
L 73.222711 163.505702 
L 67.188041 150.791087 
L 55.438194 127.768577 
L 51.626746 120.696729 
L 48.289624 114.908381 
L 41.507679 103.796699 
L 32.233956 89.306931 
L 28.674434 84.310091 
L 25.699287 80.36439 
L 18.792763 71.713089 
L 14.794328 67.085501 
L 11.352885 63.457058 
L -1 50.677095 
L -1 50.677095 
" style="fill:none;stroke:#000000;stroke-linecap:square;stroke-width:1.5;"/>
   </g>
   <g id="line2d_2">
    <path clip-path="url(#pcd0c7295f4)" d="M 102.625444 361 
L 103.46191 349.550668 
L 104.12194 343.481086 
L 105.429561 332.460663 
L 105.811885 327.413565 
L 106.000717 322.3055 
L 105.992197 315.713112 
L 105.737057 299.726722 
L 105.751188 289.756556 
L 105.371653 275.070609 
L 105.021524 267.906854 
L 104.351041 259.325767 
L 103.179353 247.536299 
L 102.534649 242.905138 
L 101.700384 238.186589 
L 100.327472 231.933722 
L 96.343586 215.182332 
L 94.919063 208.783405 
L 93.488798 203.531191 
L 88.282271 186.272299 
L 84.794103 174.738937 
L 82.966737 167.314135 
L 81.851726 163.114686 
L 80.498056 158.95507 
L 78.439268 153.693025 
L 75.907329 147.153333 
L 73.677157 140.674724 
L 68.973093 126.873963 
L 67.74355 124.524685 
L 65.591936 121.144701 
L 61.112175 114.27485 
L 58.538804 109.818396 
L 55.584046 104.141707 
L 47.293951 87.683537 
L 39.831252 74.189328 
L 37.202225 70.296496 
L 32.385014 63.517854 
L 30.675263 60.673503 
L 26.8315 53.962182 
L 24.776876 50.985498 
L 21.617929 46.954636 
L 5.632014 27.246362 
L 2.167164 22.842915 
L -0.287208 19.555942 
L -0.287208 19.555942 
" style="fill:none;stroke:#ff0000;stroke-linecap:square;stroke-width:1.5;"/>
   </g>
   <g id="line2d_3">
    <path clip-path="url(#pcd0c7295f4)" d="M 99.563813 361 
L 99.9343 354.98201 
L 100.06875 349.41594 
L 99.999556 342.378304 
L 99.620534 329.801592 
L 99.443092 321.818653 
L 99.559794 315.389492 
L 99.770757 306.226638 
L 99.69814 297.098635 
L 99.420417 288.313217 
L 98.994645 282.988989 
L 97.070362 263.880798 
L 96.627775 258.023015 
L 96.105533 253.565904 
L 95.17298 247.588595 
L 93.326707 237.46939 
L 89.553051 217.812779 
L 88.05314 211.699482 
L 85.888339 203.882767 
L 82.212257 190.656768 
L 79.957328 181.558007 
L 78.049519 173.17706 
L 77.060135 167.862422 
L 75.507651 158.783891 
L 74.822339 156.125263 
L 73.921272 153.399733 
L 72.408624 149.677521 
L 69.972721 143.892447 
L 68.503604 139.757531 
L 66.106052 132.903381 
L 63.559751 126.638331 
L 59.855511 117.55444 
L 55.293854 105.550643 
L 53.964507 101.328785 
L 52.053552 94.65169 
L 51.008634 91.924425 
L 49.318921 88.32293 
L 44.113215 77.774851 
L 37.224885 61.865853 
L 34.93623 57.384333 
L 31.046313 50.506493 
L 27.277291 43.718526 
L 24.848955 39.3613 
L 22.88905 36.215058 
L 18.813437 30.312525 
L 15.506802 25.728489 
L 12.01822 21.358622 
L 10.489206 19.685316 
L 10.489206 19.685316 
" style="fill:none;stroke:#008000;stroke-linecap:square;stroke-width:1.5;"/>
   </g>
   <g id="line2d_4">
    <path clip-path="url(#pcd0c7295f4)" d="M 103.921019 361 
L 105.039665 351.196823 
L 105.876405 341.588909 
L 106.442082 332.161347 
L 106.746663 322.864282 
L 106.809051 313.675888 
L 106.667179 304.589164 
L 106.31242 295.54377 
L 105.658119 285.046089 
L 104.700021 273.284047 
L 103.892339 265.988581 
L 102.071079 252.851648 
L 100.661938 244.080032 
L 98.015272 229.461671 
L 96.584522 222.37075 
L 93.483117 208.514118 
L 90.892479 197.775856 
L 87.4594 184.712997 
L 84.600773 174.60564 
L 81.871772 165.887587 
L 78.606571 156.185032 
L 74.78963 145.575079 
L 72.088429 138.607435 
L 68.246765 129.437498 
L 63.786964 119.366697 
L 59.664155 110.623295 
L 54.833559 100.955458 
L 50.366538 92.550032 
L 44.101894 81.299884 
L 39.391882 73.260676 
L 35.109005 66.393985 
L 30.07671 58.831011 
L 23.752725 49.701834 
L 19.305078 43.440096 
L 8.880404 29.455078 
L 3.485345 22.752245 
L -1 17.29329 
L -1 17.29329 
" style="fill:none;stroke:#0000ff;stroke-linecap:square;stroke-width:1.5;"/>
   </g>
   <g id="patch_6">
    <path d="M 45.9 320.4 
L 45.9 43.2 
" style="fill:none;stroke:#000000;stroke-linecap:square;stroke-linejoin:miter;stroke-width:0.8;"/>
   </g>
   <g id="patch_7">
    <path d="M 323.1 320.4 
L 323.1 43.2 
" style="fill:none;stroke:#000000;stroke-linecap:square;stroke-linejoin:miter;stroke-width:0.8;"/>
   </g>
   <g id="patch_8">
    <path d="M 45.9 320.4 
L 323.1 320.4 
" style="fill:none;stroke:#000000;stroke-linecap:square;stroke-linejoin:miter;stroke-width:0.8;"/>
   </g>
   <g id="patch_9">
    <path d="M 45.9 43.2 
L 323.1 43.2 
" style="fill:none;stroke:#000000;stroke-linecap:square;stroke-linejoin:miter;stroke-width:0.8;"/>
   </g>
   <g id="text_1">
    <!-- Obstacle -->
    <defs>
     <path d="M 42.484375 60.59375 
Q 33.890625 60.59375 29.15625 54.25 
Q 24.421875 47.90625 24.421875 36.375 
Q 24.421875 24.90625 29.15625 18.546875 
Q 33.890625 12.203125 42.484375 12.203125 
Q 51.125 12.203125 55.859375 18.546875 
Q 60.59375 24.90625 60.59375 36.375 
Q 60.59375 47.90625 55.859375 54.25 
Q 51.125 60.59375 42.484375 60.59375 
z
M 42.484375 74.21875 
Q 60.0625 74.21875 70.015625 64.15625 
Q 79.984375 54.109375 79.984375 36.375 
Q 79.984375 18.703125 70.015625 8.640625 
Q 60.0625 -1.421875 42.484375 -1.421875 
Q 24.953125 -1.421875 14.96875 8.640625 
Q 4.984375 18.703125 4.984375 36.375 
Q 4.984375 54.109375 14.96875 64.15625 
Q 24.953125 74.21875 42.484375 74.21875 
z
" id="DejaVuSans-Bold-4f"/>
     <path d="M 37.5 11.28125 
Q 43.109375 11.28125 46.0625 15.375 
Q 49.03125 19.484375 49.03125 27.296875 
Q 49.03125 35.109375 46.0625 39.203125 
Q 43.109375 43.3125 37.5 43.3125 
Q 31.890625 43.3125 28.875 39.1875 
Q 25.875 35.0625 25.875 27.296875 
Q 25.875 19.53125 28.875 15.40625 
Q 31.890625 11.28125 37.5 11.28125 
z
M 25.875 46.6875 
Q 29.5 51.46875 33.890625 53.734375 
Q 38.28125 56 44 56 
Q 54.109375 56 60.59375 47.96875 
Q 67.09375 39.9375 67.09375 27.296875 
Q 67.09375 14.65625 60.59375 6.609375 
Q 54.109375 -1.421875 44 -1.421875 
Q 38.28125 -1.421875 33.890625 0.84375 
Q 29.5 3.125 25.875 7.90625 
L 25.875 0 
L 8.40625 0 
L 8.40625 75.984375 
L 25.875 75.984375 
z
" id="DejaVuSans-Bold-62"/>
     <path d="M 51.125 52.984375 
L 51.125 39.703125 
Q 45.515625 42.046875 40.28125 43.21875 
Q 35.0625 44.390625 30.421875 44.390625 
Q 25.4375 44.390625 23.015625 43.140625 
Q 20.609375 41.890625 20.609375 39.3125 
Q 20.609375 37.203125 22.4375 36.078125 
Q 24.265625 34.96875 29 34.421875 
L 32.078125 33.984375 
Q 45.515625 32.28125 50.140625 28.375 
Q 54.78125 24.46875 54.78125 16.109375 
Q 54.78125 7.375 48.328125 2.96875 
Q 41.890625 -1.421875 29.109375 -1.421875 
Q 23.6875 -1.421875 17.890625 -0.5625 
Q 12.109375 0.296875 6 2 
L 6 15.28125 
Q 11.234375 12.75 16.71875 11.46875 
Q 22.21875 10.203125 27.875 10.203125 
Q 33.015625 10.203125 35.59375 11.609375 
Q 38.1875 13.03125 38.1875 15.828125 
Q 38.1875 18.171875 36.40625 19.3125 
Q 34.625 20.453125 29.296875 21.09375 
L 26.21875 21.484375 
Q 14.546875 22.953125 9.859375 26.90625 
Q 5.171875 30.859375 5.171875 38.921875 
Q 5.171875 47.609375 11.125 51.796875 
Q 17.09375 56 29.390625 56 
Q 34.234375 56 39.546875 55.265625 
Q 44.875 54.546875 51.125 52.984375 
z
" id="DejaVuSans-Bold-73"/>
     <path d="M 27.484375 70.21875 
L 27.484375 54.6875 
L 45.515625 54.6875 
L 45.515625 42.1875 
L 27.484375 42.1875 
L 27.484375 19 
Q 27.484375 15.1875 29 13.84375 
Q 30.515625 12.5 35.015625 12.5 
L 44 12.5 
L 44 0 
L 29 0 
Q 18.65625 0 14.328125 4.3125 
Q 10.015625 8.640625 10.015625 19 
L 10.015625 42.1875 
L 1.3125 42.1875 
L 1.3125 54.6875 
L 10.015625 54.6875 
L 10.015625 70.21875 
z
" id="DejaVuSans-Bold-74"/>
     <path d="M 32.90625 24.609375 
Q 27.4375 24.609375 24.671875 22.75 
Q 21.921875 20.90625 21.921875 17.28125 
Q 21.921875 13.96875 24.140625 12.078125 
Q 26.375 10.203125 30.328125 10.203125 
Q 35.25 10.203125 38.625 13.734375 
Q 42 17.28125 42 22.609375 
L 42 24.609375 
z
M 59.625 31.203125 
L 59.625 0 
L 42 0 
L 42 8.109375 
Q 38.484375 3.125 34.078125 0.84375 
Q 29.6875 -1.421875 23.390625 -1.421875 
Q 14.890625 -1.421875 9.59375 3.53125 
Q 4.296875 8.5 4.296875 16.40625 
Q 4.296875 26.03125 10.90625 30.515625 
Q 17.53125 35.015625 31.6875 35.015625 
L 42 35.015625 
L 42 36.375 
Q 42 40.53125 38.71875 42.453125 
Q 35.453125 44.390625 28.515625 44.390625 
Q 22.90625 44.390625 18.0625 43.265625 
Q 13.234375 42.140625 9.078125 39.890625 
L 9.078125 53.21875 
Q 14.703125 54.59375 20.359375 55.296875 
Q 26.03125 56 31.6875 56 
Q 46.484375 56 53.046875 50.171875 
Q 59.625 44.34375 59.625 31.203125 
z
" id="DejaVuSans-Bold-61"/>
     <path d="M 52.59375 52.984375 
L 52.59375 38.71875 
Q 49.03125 41.15625 45.4375 42.328125 
Q 41.84375 43.5 37.984375 43.5 
Q 30.671875 43.5 26.59375 39.234375 
Q 22.515625 34.96875 22.515625 27.296875 
Q 22.515625 19.625 26.59375 15.34375 
Q 30.671875 11.078125 37.984375 11.078125 
Q 42.09375 11.078125 45.78125 12.296875 
Q 49.46875 13.53125 52.59375 15.921875 
L 52.59375 1.609375 
Q 48.484375 0.09375 44.265625 -0.65625 
Q 40.046875 -1.421875 35.796875 -1.421875 
Q 21 -1.421875 12.640625 6.171875 
Q 4.296875 13.765625 4.296875 27.296875 
Q 4.296875 40.828125 12.640625 48.40625 
Q 21 56 35.796875 56 
Q 40.09375 56 44.265625 55.25 
Q 48.4375 54.5 52.59375 52.984375 
z
" id="DejaVuSans-Bold-63"/>
     <path d="M 8.40625 75.984375 
L 25.875 75.984375 
L 25.875 0 
L 8.40625 0 
z
" id="DejaVuSans-Bold-6c"/>
     <path d="M 62.984375 27.484375 
L 62.984375 22.515625 
L 22.125 22.515625 
Q 22.75 16.359375 26.5625 13.28125 
Q 30.375 10.203125 37.203125 10.203125 
Q 42.71875 10.203125 48.5 11.84375 
Q 54.296875 13.484375 60.40625 16.796875 
L 60.40625 3.328125 
Q 54.203125 0.984375 48 -0.21875 
Q 41.796875 -1.421875 35.59375 -1.421875 
Q 20.75 -1.421875 12.515625 6.125 
Q 4.296875 13.671875 4.296875 27.296875 
Q 4.296875 40.671875 12.375 48.328125 
Q 20.453125 56 34.625 56 
Q 47.515625 56 55.25 48.234375 
Q 62.984375 40.484375 62.984375 27.484375 
z
M 45.015625 33.296875 
Q 45.015625 38.28125 42.109375 41.328125 
Q 39.203125 44.390625 34.515625 44.390625 
Q 29.4375 44.390625 26.265625 41.53125 
Q 23.09375 38.671875 22.3125 33.296875 
z
" id="DejaVuSans-Bold-65"/>
    </defs>
    <g transform="translate(122.902344 37.2)scale(0.25 -0.25)">
     <use xlink:href="#DejaVuSans-Bold-4f"/>
     <use x="85.009766" xlink:href="#DejaVuSans-Bold-62"/>
     <use x="156.591797" xlink:href="#DejaVuSans-Bold-73"/>
     <use x="216.113281" xlink:href="#DejaVuSans-Bold-74"/>
     <use x="263.916016" xlink:href="#DejaVuSans-Bold-61"/>
     <use x="331.396484" xlink:href="#DejaVuSans-Bold-63"/>
     <use x="390.673828" xlink:href="#DejaVuSans-Bold-6c"/>
     <use x="424.951172" xlink:href="#DejaVuSans-Bold-65"/>
    </g>
   </g>
  </g>
 </g>
 <defs>
  <clipPath id="pcd0c7295f4">
   <rect height="277.2" width="277.2" x="45.9" y="43.2"/>
  </clipPath>
 </defs>
</svg>
