<?xml version="1.0" encoding="utf-8" standalone="no"?>
<!DOCTYPE svg PUBLIC "-//W3C//DTD SVG 1.1//EN"
  "http://www.w3.org/Graphics/SVG/1.1/DTD/svg11.dtd">
<!-- Created with matplotlib (http://matplotlib.org/) -->
<svg height="360pt" version="1.1" viewBox="0 0 360 360" width="360pt" xmlns="http://www.w3.org/2000/svg" xmlns:xlink="http://www.w3.org/1999/xlink">
 <defs>
  <style type="text/css">
*{stroke-linecap:butt;stroke-linejoin:round;}
  </style>
 </defs>
 <g id="figure_1">
  <g id="patch_1">
   <path d="M 0 360 
L 360 360 
L 360 0 
L 0 0 
z
" style="fill:#ffffff;"/>
  </g>
  <g id="axes_1">
   <g id="patch_2">
    <path d="M 45.9 320.4 
L 323.1 320.4 
L 323.1 43.2 
L 45.9 43.2 
z
" style="fill:#eaeaf2;"/>
   </g>
   <g id="patch_3">
    <path clip-path="url(#p600a4f3902)" d="M 160.1064 -124.2288 
C 163.782115 -124.2288 167.307777 -125.689177 169.9069 -128.2883 
C 172.506023 -130.887423 173.9664 -134.413085 173.9664 -138.0888 
C 173.9664 -141.764515 172.506023 -145.290177 169.9069 -147.8893 
C 167.307777 -150.488423 163.782115 -151.9488 160.1064 -151.9488 
C 156.430685 -151.9488 152.905023 -150.488423 150.3059 -147.8893 
C 147.706777 -145.290177 146.2464 -141.764515 146.2464 -138.0888 
C 146.2464 -134.413085 147.706777 -130.887423 150.3059 -128.2883 
C 152.905023 -125.689177 156.430685 -124.2288 160.1064 -124.2288 
z
" style="fill:#008000;opacity:0.6;stroke:#000000;stroke-linejoin:miter;"/>
   </g>
   <g id="patch_4">
    <path clip-path="url(#p600a4f3902)" d="M 184.5 285.75 
C 212.067862 285.75 238.510328 274.797172 258.00375 255.30375 
C 277.497172 235.810328 288.45 209.367862 288.45 181.8 
C 288.45 154.232138 277.497172 127.789672 258.00375 108.29625 
C 238.510328 88.802828 212.067862 77.85 184.5 77.85 
C 156.932138 77.85 130.489672 88.802828 110.99625 108.29625 
C 91.502828 127.789672 80.55 154.232138 80.55 181.8 
C 80.55 209.367862 91.502828 235.810328 110.99625 255.30375 
C 130.489672 274.797172 156.932138 285.75 184.5 285.75 
z
" style="opacity:0.1;stroke:#000000;stroke-linejoin:miter;"/>
   </g>
   <g id="patch_5">
    <path clip-path="url(#p600a4f3902)" d="M 184.5 216.45 
C 193.689287 216.45 202.503443 212.799057 209.00125 206.30125 
C 215.499057 199.803443 219.15 190.989287 219.15 181.8 
C 219.15 172.610713 215.499057 163.796557 209.00125 157.29875 
C 202.503443 150.800943 193.689287 147.15 184.5 147.15 
C 175.310713 147.15 166.496557 150.800943 159.99875 157.29875 
C 153.500943 163.796557 149.85 172.610713 149.85 181.8 
C 149.85 190.989287 153.500943 199.803443 159.99875 206.30125 
C 166.496557 212.799057 175.310713 216.45 184.5 216.45 
z
" style="fill:#ff0000;opacity:0.2;stroke:#ff0000;stroke-linejoin:miter;"/>
   </g>
   <g id="line2d_1">
    <path clip-path="url(#p600a4f3902)" d="M 113.391136 361 
L 114.004595 352.989647 
L 114.48856 343.659443 
L 114.744024 334.36252 
L 114.792694 325.084547 
L 114.64142 315.804214 
L 114.291035 306.506657 
L 113.741074 297.180768 
L 112.979169 287.825261 
L 111.995814 278.447438 
L 110.777035 269.064085 
L 109.316244 259.69637 
L 107.610201 250.365067 
L 105.657604 241.089577 
L 103.458629 231.887833 
L 101.022139 222.779533 
L 98.337675 213.77473 
L 95.412897 204.888749 
L 92.253042 196.135257 
L 87.798929 184.717646 
L 83.302158 173.663193 
L 78.712268 162.9467 
L 74.043185 152.558283 
L 70.395358 144.964135 
L 66.570574 137.530284 
L 59.968905 125.496371 
L 54.614312 116.203808 
L 50.486069 109.421988 
L 39.800726 92.129875 
L 37.526157 88.046214 
L 35.539767 84.079514 
L 33.88712 80.234754 
L 32.601496 76.513611 
L 31.69732 72.914025 
L 31.148443 69.433697 
L 30.902612 66.069113 
L 30.92547 62.814505 
L 31.18766 59.666339 
L 31.640431 56.619864 
L 32.547885 52.223018 
L 33.64179 48.005375 
L 35.318538 42.615665 
L 38.854017 32.381124 
L 41.627757 25.033172 
L 44.140298 19.087289 
L 46.854983 13.289367 
L 51.314087 4.244897 
L 54.115533 -1 
L 54.115533 -1 
" style="fill:none;stroke:#000000;stroke-linecap:square;stroke-width:1.5;"/>
   </g>
   <g id="line2d_2">
    <path clip-path="url(#p600a4f3902)" d="M 120.464502 361 
L 121.389694 352.170453 
L 122.157421 342.152065 
L 122.484627 335.504973 
L 122.701553 325.624551 
L 122.661963 315.862024 
L 122.436822 306.16273 
L 122.012704 296.459923 
L 121.144446 283.554018 
L 120.297841 273.950024 
L 119.190241 264.361585 
L 118.276621 257.965798 
L 116.628104 248.373524 
L 114.708964 238.839361 
L 112.531112 229.387656 
L 110.099229 220.034932 
L 107.441249 210.816936 
L 106.55755 208.26804 
L 105.323493 207.765762 
L 104.064937 207.09603 
L 103.179319 206.563405 
L 97.759497 201.594753 
L 96.384371 199.90944 
L 94.915335 197.799331 
L 92.604841 193.974605 
L 90.168651 189.492865 
L 87.698497 184.502227 
L 84.428453 177.256515 
L 78.368832 163.400169 
L 71.365826 148.582066 
L 68.153744 142.10421 
L 64.686255 135.591215 
L 62.134044 131.244773 
L 59.231308 126.905751 
L 54.419885 120.427989 
L 49.520823 114.013408 
L 46.493741 109.77166 
L 43.8132 105.593887 
L 42.695649 103.551714 
L 41.745333 101.54797 
L 40.953408 99.583981 
L 40.308386 97.659006 
L 39.411219 93.927354 
L 38.974058 90.357317 
L 38.945412 86.953679 
L 39.287442 83.718407 
L 39.958607 80.649079 
L 40.899956 77.739188 
L 42.047074 74.974042 
L 44.010118 71.055534 
L 46.139911 67.358386 
L 49.802691 61.5358 
L 53.379039 55.939358 
L 55.228591 52.579783 
L 56.787845 49.18214 
L 59.00004 43.467215 
L 60.396443 40.052105 
L 61.511316 37.806292 
L 62.843626 35.601657 
L 65.119655 32.383272 
L 70.553496 25.122334 
L 72.47134 21.995587 
L 77.788956 12.528343 
L 79.260982 10.490873 
L 81.759068 7.529892 
L 87.599386 0.974432 
L 89.010449 -1 
L 89.010449 -1 
" style="fill:none;stroke:#ff0000;stroke-linecap:square;stroke-width:1.5;"/>
   </g>
   <g id="line2d_3">
    <path clip-path="url(#p600a4f3902)" d="M 114.532998 361 
L 115.425014 352.45484 
L 116.2246 342.611038 
L 116.809255 332.739804 
L 117.128514 322.816974 
L 117.177282 312.862754 
L 116.961094 302.907381 
L 116.478035 292.970074 
L 115.72122 283.068991 
L 115.035806 276.509635 
L 113.755211 266.775631 
L 112.239729 257.161037 
L 110.493957 247.635305 
L 108.498872 238.196236 
L 105.526174 225.799534 
L 103.158617 216.698289 
L 100.628654 207.749956 
L 98.766066 201.923642 
L 98.102822 201.006767 
L 96.595949 199.359084 
L 94.22927 196.111159 
L 91.487018 192.008614 
L 88.664159 187.292517 
L 77.960552 168.504331 
L 69.180355 153.751006 
L 64.394305 145.17645 
L 55.087024 128.056119 
L 50.173615 119.582907 
L 46.288433 113.299057 
L 42.16723 107.103209 
L 39.193952 103.042187 
L 36.023142 99.045072 
L 28.009374 89.230121 
L 23.627113 83.401696 
L 20.971109 79.567569 
L 18.653574 75.812583 
L 16.747078 72.154887 
L 15.972426 70.367653 
L 15.333805 68.609019 
L 14.842351 66.879177 
L 14.505225 65.17798 
L 14.319833 63.50572 
L 14.276865 61.863133 
L 14.543058 58.674471 
L 15.129204 55.616881 
L 17.484551 45.588896 
L 17.983078 41.502788 
L 18.669653 34.844919 
L 19.33124 30.909771 
L 20.289754 27.029309 
L 21.097634 24.487591 
L 22.061315 21.991677 
L 23.178787 19.548879 
L 24.452835 17.161329 
L 25.908797 14.822518 
L 27.549612 12.532521 
L 30.222126 9.194266 
L 34.854911 3.851306 
L 39.290107 -1 
L 39.290107 -1 
" style="fill:none;stroke:#008000;stroke-linecap:square;stroke-width:1.5;"/>
   </g>
   <g id="line2d_4">
    <path clip-path="url(#p600a4f3902)" d="M 117.73546 361 
L 118.458776 353.191156 
L 119.194027 343.570192 
L 119.724886 333.870536 
L 120.020589 324.103832 
L 120.077276 314.292446 
L 119.888974 304.45274 
L 119.446894 294.602878 
L 118.746038 284.762088 
L 117.783444 274.948801 
L 116.557655 265.180349 
L 115.068486 255.472977 
L 113.316873 245.841916 
L 111.304736 236.30145 
L 109.034878 226.864984 
L 106.510879 217.545105 
L 103.752585 208.359252 
L 102.857827 205.939268 
L 101.409978 204.924216 
L 98.430803 202.100903 
L 96.94396 200.492797 
L 91.279992 191.884125 
L 88.565741 187.063992 
L 84.867911 179.951746 
L 79.120312 168.244369 
L 66.8149 142.948814 
L 62.214767 134.312037 
L 56.167843 123.539202 
L 51.103689 115.010044 
L 47.130134 108.695253 
L 42.85345 102.482098 
L 32.527966 88.332976 
L 29.941841 84.386769 
L 27.772806 80.533002 
L 26.036825 76.787936 
L 24.669255 73.154833 
L 23.625054 69.633125 
L 22.899643 66.216528 
L 22.49007 62.899497 
L 22.375842 59.681747 
L 22.529616 56.565231 
L 22.912725 53.545806 
L 23.76922 49.183353 
L 24.846167 44.997604 
L 26.094658 40.964518 
L 27.488425 37.063643 
L 29.544121 32.039255 
L 32.304496 25.984125 
L 35.794065 18.970066 
L 38.80059 13.283639 
L 43.289774 5.538807 
L 47.021168 -1 
L 47.021168 -1 
" style="fill:none;stroke:#0000ff;stroke-linecap:square;stroke-width:1.5;"/>
   </g>
   <g id="patch_6">
    <path d="M 45.9 320.4 
L 45.9 43.2 
" style="fill:none;stroke:#000000;stroke-linecap:square;stroke-linejoin:miter;stroke-width:0.8;"/>
   </g>
   <g id="patch_7">
    <path d="M 323.1 320.4 
L 323.1 43.2 
" style="fill:none;stroke:#000000;stroke-linecap:square;stroke-linejoin:miter;stroke-width:0.8;"/>
   </g>
   <g id="patch_8">
    <path d="M 45.9 320.4 
L 323.1 320.4 
" style="fill:none;stroke:#000000;stroke-linecap:square;stroke-linejoin:miter;stroke-width:0.8;"/>
   </g>
   <g id="patch_9">
    <path d="M 45.9 43.2 
L 323.1 43.2 
" style="fill:none;stroke:#000000;stroke-linecap:square;stroke-linejoin:miter;stroke-width:0.8;"/>
   </g>
   <g id="text_1">
    <!-- Obstacle -->
    <defs>
     <path d="M 42.484375 60.59375 
Q 33.890625 60.59375 29.15625 54.25 
Q 24.421875 47.90625 24.421875 36.375 
Q 24.421875 24.90625 29.15625 18.546875 
Q 33.890625 12.203125 42.484375 12.203125 
Q 51.125 12.203125 55.859375 18.546875 
Q 60.59375 24.90625 60.59375 36.375 
Q 60.59375 47.90625 55.859375 54.25 
Q 51.125 60.59375 42.484375 60.59375 
z
M 42.484375 74.21875 
Q 60.0625 74.21875 70.015625 64.15625 
Q 79.984375 54.109375 79.984375 36.375 
Q 79.984375 18.703125 70.015625 8.640625 
Q 60.0625 -1.421875 42.484375 -1.421875 
Q 24.953125 -1.421875 14.96875 8.640625 
Q 4.984375 18.703125 4.984375 36.375 
Q 4.984375 54.109375 14.96875 64.15625 
Q 24.953125 74.21875 42.484375 74.21875 
z
" id="DejaVuSans-Bold-4f"/>
     <path d="M 37.5 11.28125 
Q 43.109375 11.28125 46.0625 15.375 
Q 49.03125 19.484375 49.03125 27.296875 
Q 49.03125 35.109375 46.0625 39.203125 
Q 43.109375 43.3125 37.5 43.3125 
Q 31.890625 43.3125 28.875 39.1875 
Q 25.875 35.0625 25.875 27.296875 
Q 25.875 19.53125 28.875 15.40625 
Q 31.890625 11.28125 37.5 11.28125 
z
M 25.875 46.6875 
Q 29.5 51.46875 33.890625 53.734375 
Q 38.28125 56 44 56 
Q 54.109375 56 60.59375 47.96875 
Q 67.09375 39.9375 67.09375 27.296875 
Q 67.09375 14.65625 60.59375 6.609375 
Q 54.109375 -1.421875 44 -1.421875 
Q 38.28125 -1.421875 33.890625 0.84375 
Q 29.5 3.125 25.875 7.90625 
L 25.875 0 
L 8.40625 0 
L 8.40625 75.984375 
L 25.875 75.984375 
z
" id="DejaVuSans-Bold-62"/>
     <path d="M 51.125 52.984375 
L 51.125 39.703125 
Q 45.515625 42.046875 40.28125 43.21875 
Q 35.0625 44.390625 30.421875 44.390625 
Q 25.4375 44.390625 23.015625 43.140625 
Q 20.609375 41.890625 20.609375 39.3125 
Q 20.609375 37.203125 22.4375 36.078125 
Q 24.265625 34.96875 29 34.421875 
L 32.078125 33.984375 
Q 45.515625 32.28125 50.140625 28.375 
Q 54.78125 24.46875 54.78125 16.109375 
Q 54.78125 7.375 48.328125 2.96875 
Q 41.890625 -1.421875 29.109375 -1.421875 
Q 23.6875 -1.421875 17.890625 -0.5625 
Q 12.109375 0.296875 6 2 
L 6 15.28125 
Q 11.234375 12.75 16.71875 11.46875 
Q 22.21875 10.203125 27.875 10.203125 
Q 33.015625 10.203125 35.59375 11.609375 
Q 38.1875 13.03125 38.1875 15.828125 
Q 38.1875 18.171875 36.40625 19.3125 
Q 34.625 20.453125 29.296875 21.09375 
L 26.21875 21.484375 
Q 14.546875 22.953125 9.859375 26.90625 
Q 5.171875 30.859375 5.171875 38.921875 
Q 5.171875 47.609375 11.125 51.796875 
Q 17.09375 56 29.390625 56 
Q 34.234375 56 39.546875 55.265625 
Q 44.875 54.546875 51.125 52.984375 
z
" id="DejaVuSans-Bold-73"/>
     <path d="M 27.484375 70.21875 
L 27.484375 54.6875 
L 45.515625 54.6875 
L 45.515625 42.1875 
L 27.484375 42.1875 
L 27.484375 19 
Q 27.484375 15.1875 29 13.84375 
Q 30.515625 12.5 35.015625 12.5 
L 44 12.5 
L 44 0 
L 29 0 
Q 18.65625 0 14.328125 4.3125 
Q 10.015625 8.640625 10.015625 19 
L 10.015625 42.1875 
L 1.3125 42.1875 
L 1.3125 54.6875 
L 10.015625 54.6875 
L 10.015625 70.21875 
z
" id="DejaVuSans-Bold-74"/>
     <path d="M 32.90625 24.609375 
Q 27.4375 24.609375 24.671875 22.75 
Q 21.921875 20.90625 21.921875 17.28125 
Q 21.921875 13.96875 24.140625 12.078125 
Q 26.375 10.203125 30.328125 10.203125 
Q 35.25 10.203125 38.625 13.734375 
Q 42 17.28125 42 22.609375 
L 42 24.609375 
z
M 59.625 31.203125 
L 59.625 0 
L 42 0 
L 42 8.109375 
Q 38.484375 3.125 34.078125 0.84375 
Q 29.6875 -1.421875 23.390625 -1.421875 
Q 14.890625 -1.421875 9.59375 3.53125 
Q 4.296875 8.5 4.296875 16.40625 
Q 4.296875 26.03125 10.90625 30.515625 
Q 17.53125 35.015625 31.6875 35.015625 
L 42 35.015625 
L 42 36.375 
Q 42 40.53125 38.71875 42.453125 
Q 35.453125 44.390625 28.515625 44.390625 
Q 22.90625 44.390625 18.0625 43.265625 
Q 13.234375 42.140625 9.078125 39.890625 
L 9.078125 53.21875 
Q 14.703125 54.59375 20.359375 55.296875 
Q 26.03125 56 31.6875 56 
Q 46.484375 56 53.046875 50.171875 
Q 59.625 44.34375 59.625 31.203125 
z
" id="DejaVuSans-Bold-61"/>
     <path d="M 52.59375 52.984375 
L 52.59375 38.71875 
Q 49.03125 41.15625 45.4375 42.328125 
Q 41.84375 43.5 37.984375 43.5 
Q 30.671875 43.5 26.59375 39.234375 
Q 22.515625 34.96875 22.515625 27.296875 
Q 22.515625 19.625 26.59375 15.34375 
Q 30.671875 11.078125 37.984375 11.078125 
Q 42.09375 11.078125 45.78125 12.296875 
Q 49.46875 13.53125 52.59375 15.921875 
L 52.59375 1.609375 
Q 48.484375 0.09375 44.265625 -0.65625 
Q 40.046875 -1.421875 35.796875 -1.421875 
Q 21 -1.421875 12.640625 6.171875 
Q 4.296875 13.765625 4.296875 27.296875 
Q 4.296875 40.828125 12.640625 48.40625 
Q 21 56 35.796875 56 
Q 40.09375 56 44.265625 55.25 
Q 48.4375 54.5 52.59375 52.984375 
z
" id="DejaVuSans-Bold-63"/>
     <path d="M 8.40625 75.984375 
L 25.875 75.984375 
L 25.875 0 
L 8.40625 0 
z
" id="DejaVuSans-Bold-6c"/>
     <path d="M 62.984375 27.484375 
L 62.984375 22.515625 
L 22.125 22.515625 
Q 22.75 16.359375 26.5625 13.28125 
Q 30.375 10.203125 37.203125 10.203125 
Q 42.71875 10.203125 48.5 11.84375 
Q 54.296875 13.484375 60.40625 16.796875 
L 60.40625 3.328125 
Q 54.203125 0.984375 48 -0.21875 
Q 41.796875 -1.421875 35.59375 -1.421875 
Q 20.75 -1.421875 12.515625 6.125 
Q 4.296875 13.671875 4.296875 27.296875 
Q 4.296875 40.671875 12.375 48.328125 
Q 20.453125 56 34.625 56 
Q 47.515625 56 55.25 48.234375 
Q 62.984375 40.484375 62.984375 27.484375 
z
M 45.015625 33.296875 
Q 45.015625 38.28125 42.109375 41.328125 
Q 39.203125 44.390625 34.515625 44.390625 
Q 29.4375 44.390625 26.265625 41.53125 
Q 23.09375 38.671875 22.3125 33.296875 
z
" id="DejaVuSans-Bold-65"/>
    </defs>
    <g transform="translate(122.902344 37.2)scale(0.25 -0.25)">
     <use xlink:href="#DejaVuSans-Bold-4f"/>
     <use x="85.009766" xlink:href="#DejaVuSans-Bold-62"/>
     <use x="156.591797" xlink:href="#DejaVuSans-Bold-73"/>
     <use x="216.113281" xlink:href="#DejaVuSans-Bold-74"/>
     <use x="263.916016" xlink:href="#DejaVuSans-Bold-61"/>
     <use x="331.396484" xlink:href="#DejaVuSans-Bold-63"/>
     <use x="390.673828" xlink:href="#DejaVuSans-Bold-6c"/>
     <use x="424.951172" xlink:href="#DejaVuSans-Bold-65"/>
    </g>
   </g>
  </g>
 </g>
 <defs>
  <clipPath id="p600a4f3902">
   <rect height="277.2" width="277.2" x="45.9" y="43.2"/>
  </clipPath>
 </defs>
</svg>
