<?xml version="1.0" encoding="utf-8" standalone="no"?>
<!DOCTYPE svg PUBLIC "-//W3C//DTD SVG 1.1//EN"
  "http://www.w3.org/Graphics/SVG/1.1/DTD/svg11.dtd">
<!-- Created with matplotlib (http://matplotlib.org/) -->
<svg height="360pt" version="1.1" viewBox="0 0 360 360" width="360pt" xmlns="http://www.w3.org/2000/svg" xmlns:xlink="http://www.w3.org/1999/xlink">
 <defs>
  <style type="text/css">
*{stroke-linecap:butt;stroke-linejoin:round;}
  </style>
 </defs>
 <g id="figure_1">
  <g id="patch_1">
   <path d="M 0 360 
L 360 360 
L 360 0 
L 0 0 
z
" style="fill:#ffffff;"/>
  </g>
  <g id="axes_1">
   <g id="patch_2">
    <path d="M 45.9 320.4 
L 323.1 320.4 
L 323.1 43.2 
L 45.9 43.2 
z
" style="fill:#eaeaf2;"/>
   </g>
   <g id="patch_3">
    <path clip-path="url(#p66b9eea404)" d="M 160.1064 -124.2288 
C 163.782115 -124.2288 167.307777 -125.689177 169.9069 -128.2883 
C 172.506023 -130.887423 173.9664 -134.413085 173.9664 -138.0888 
C 173.9664 -141.764515 172.506023 -145.290177 169.9069 -147.8893 
C 167.307777 -150.488423 163.782115 -151.9488 160.1064 -151.9488 
C 156.430685 -151.9488 152.905023 -150.488423 150.3059 -147.8893 
C 147.706777 -145.290177 146.2464 -141.764515 146.2464 -138.0888 
C 146.2464 -134.413085 147.706777 -130.887423 150.3059 -128.2883 
C 152.905023 -125.689177 156.430685 -124.2288 160.1064 -124.2288 
z
" style="fill:#008000;opacity:0.6;stroke:#000000;stroke-linejoin:miter;"/>
   </g>
   <g id="patch_4">
    <path clip-path="url(#p66b9eea404)" d="M 184.5 285.75 
C 212.067862 285.75 238.510328 274.797172 258.00375 255.30375 
C 277.497172 235.810328 288.45 209.367862 288.45 181.8 
C 288.45 154.232138 277.497172 127.789672 258.00375 108.29625 
C 238.510328 88.802828 212.067862 77.85 184.5 77.85 
C 156.932138 77.85 130.489672 88.802828 110.99625 108.29625 
C 91.502828 127.789672 80.55 154.232138 80.55 181.8 
C 80.55 209.367862 91.502828 235.810328 110.99625 255.30375 
C 130.489672 274.797172 156.932138 285.75 184.5 285.75 
z
" style="opacity:0.1;stroke:#000000;stroke-linejoin:miter;"/>
   </g>
   <g id="patch_5">
    <path clip-path="url(#p66b9eea404)" d="M 184.5 216.45 
C 193.689287 216.45 202.503443 212.799057 209.00125 206.30125 
C 215.499057 199.803443 219.15 190.989287 219.15 181.8 
C 219.15 172.610713 215.499057 163.796557 209.00125 157.29875 
C 202.503443 150.800943 193.689287 147.15 184.5 147.15 
C 175.310713 147.15 166.496557 150.800943 159.99875 157.29875 
C 153.500943 163.796557 149.85 172.610713 149.85 181.8 
C 149.85 190.989287 153.500943 199.803443 159.99875 206.30125 
C 166.496557 212.799057 175.310713 216.45 184.5 216.45 
z
" style="fill:#ff0000;opacity:0.2;stroke:#ff0000;stroke-linejoin:miter;"/>
   </g>
   <g id="line2d_1">
    <path clip-path="url(#p66b9eea404)" d="M 110.493788 361 
L 111.066347 353.006469 
L 111.524186 343.937128 
L 111.783651 334.811671 
L 111.847841 325.637095 
L 111.72008 316.412585 
L 111.384655 307.140142 
L 110.827377 297.835638 
L 110.051903 288.512843 
L 109.059489 279.176975 
L 107.83499 269.839412 
L 106.370101 260.519596 
L 104.661664 251.238094 
L 102.72802 242.023993 
L 100.549507 232.885778 
L 95.100508 212.160628 
L 94.249663 209.26615 
L 93.63799 206.462505 
L 92.018979 200.816406 
L 89.264474 192.384624 
L 85.335322 181.345572 
L 81.193483 170.577318 
L 76.883345 160.090397 
L 72.418807 149.883183 
L 67.848117 139.953814 
L 63.194418 130.297285 
L 58.432543 120.901526 
L 52.383801 109.51843 
L 44.345616 94.38594 
L 41.280422 88.221157 
L 38.607636 82.268163 
L 37.073527 78.421606 
L 35.751369 74.673718 
L 34.656343 71.024567 
L 33.831921 67.474135 
L 33.305521 64.027164 
L 33.079329 60.686668 
L 33.097592 57.46319 
L 33.322836 54.351339 
L 33.715086 51.341484 
L 34.555493 47.000878 
L 35.657709 42.850119 
L 36.975437 38.866861 
L 38.465239 35.029891 
L 40.63927 30.104554 
L 42.966225 25.359487 
L 45.463476 20.772072 
L 48.190479 16.33612 
L 51.124185 12.041599 
L 57.140991 3.768869 
L 60.317643 -0.223927 
L 60.96568 -1 
L 60.96568 -1 
" style="fill:none;stroke:#000000;stroke-linecap:square;stroke-width:1.5;"/>
   </g>
   <g id="line2d_2">
    <path clip-path="url(#p66b9eea404)" d="M 113.332868 361 
L 113.781271 353.546666 
L 114.140334 344.669668 
L 114.314582 335.761902 
L 114.282658 323.818514 
L 113.985189 311.747294 
L 113.561717 302.578667 
L 112.931829 293.325402 
L 112.080596 284.014195 
L 110.998384 274.672023 
L 109.678489 265.324115 
L 108.13668 256.005336 
L 105.859784 243.731856 
L 103.391985 231.688598 
L 101.350487 222.786609 
L 99.098994 213.979625 
L 95.690498 202.367957 
L 83.089969 161.695031 
L 80.356421 154.013211 
L 75.559767 141.478632 
L 70.895455 129.35109 
L 68.839661 124.591212 
L 64.395901 115.20038 
L 57.782015 101.511045 
L 54.358381 94.848101 
L 50.713916 88.307368 
L 48.099842 84.017487 
L 43.921557 77.689143 
L 39.50969 71.489525 
L 27.754752 55.505425 
L 23.371795 49.727518 
L 11.669402 34.871546 
L 9.483797 31.232222 
L 8.600142 29.459519 
L 7.904555 27.725304 
L 7.440202 26.0352 
L 7.223537 24.3895 
L 7.236446 22.786182 
L 7.443876 21.223773 
L 7.799898 19.699619 
L 8.818973 16.762557 
L 10.104585 13.96448 
L 11.557635 11.291823 
L 13.93946 7.487283 
L 16.483672 3.88926 
L 20.044261 -0.650548 
L 20.335071 -1 
L 20.335071 -1 
" style="fill:none;stroke:#ff0000;stroke-linecap:square;stroke-width:1.5;"/>
   </g>
   <g id="line2d_3">
    <path clip-path="url(#p66b9eea404)" d="M 108.016674 361 
L 108.865304 350.369866 
L 109.41285 341.096645 
L 109.762208 331.707341 
L 109.896249 322.228325 
L 109.734429 291.911111 
L 109.519898 286.075547 
L 109.033917 280.068739 
L 108.328739 273.945639 
L 106.99891 264.695733 
L 105.403273 255.445725 
L 103.559166 246.233673 
L 101.470355 237.082635 
L 99.138495 228.011216 
L 96.565631 219.035959 
L 93.754665 210.171966 
L 90.729761 201.438874 
L 83.70479 181.857087 
L 81.503874 176.420515 
L 79.115105 171.030375 
L 75.256987 163.052132 
L 67.568287 147.649514 
L 59.534309 130.69682 
L 48.962466 110.112087 
L 45.311782 103.536614 
L 40.282806 94.971003 
L 34.107863 84.55259 
L 30.769099 78.475306 
L 17.848451 53.790868 
L 16.321485 50.319305 
L 15.11848 46.934007 
L 14.333626 43.623598 
L 14.031269 40.406085 
L 14.065561 38.849288 
L 14.247111 37.3318 
L 14.580744 35.853419 
L 15.051743 34.412019 
L 16.295105 31.629589 
L 17.790048 28.969784 
L 20.292089 25.182721 
L 22.972712 21.602242 
L 26.709773 17.087496 
L 31.501979 11.775918 
L 37.162901 5.772046 
L 39.841767 2.843574 
L 42.956385 -1 
L 42.956385 -1 
" style="fill:none;stroke:#008000;stroke-linecap:square;stroke-width:1.5;"/>
   </g>
   <g id="line2d_4">
    <path clip-path="url(#p66b9eea404)" d="M 113.831609 361 
L 114.502485 351.79849 
L 114.959832 342.569928 
L 115.19547 333.332722 
L 115.215288 324.091734 
L 115.025802 314.844867 
L 114.641346 305.583754 
L 114.074322 296.287691 
L 113.300269 286.946864 
L 112.298471 277.57634 
L 111.059659 268.198687 
L 109.578656 258.836451 
L 107.852553 249.510737 
L 105.880137 240.241044 
L 103.672586 231.050211 
L 101.267197 221.970059 
L 98.623847 212.997595 
L 95.763263 204.14741 
L 90.611753 189.729111 
L 87.304569 181.294921 
L 80.452039 164.963004 
L 75.799664 154.492615 
L 71.053279 144.332769 
L 66.19012 134.470033 
L 60.134804 122.544808 
L 57.581458 117.900471 
L 54.81671 113.327682 
L 30.303276 74.85873 
L 22.238869 63.048235 
L 18.415483 57.292088 
L 14.947627 51.665294 
L 12.888934 47.976006 
L 11.10604 44.356847 
L 9.643393 40.818768 
L 8.522948 37.372364 
L 7.721192 34.029784 
L 7.233617 30.792114 
L 7.085639 27.663348 
L 7.160683 26.142457 
L 7.358614 24.653483 
L 7.704232 23.199122 
L 8.754343 20.377194 
L 10.105131 17.665825 
L 11.630948 15.058245 
L 14.114296 11.320146 
L 16.742461 7.75969 
L 20.387716 3.236362 
L 24.062388 -1 
L 24.062388 -1 
" style="fill:none;stroke:#0000ff;stroke-linecap:square;stroke-width:1.5;"/>
   </g>
   <g id="patch_6">
    <path d="M 45.9 320.4 
L 45.9 43.2 
" style="fill:none;stroke:#000000;stroke-linecap:square;stroke-linejoin:miter;stroke-width:0.8;"/>
   </g>
   <g id="patch_7">
    <path d="M 323.1 320.4 
L 323.1 43.2 
" style="fill:none;stroke:#000000;stroke-linecap:square;stroke-linejoin:miter;stroke-width:0.8;"/>
   </g>
   <g id="patch_8">
    <path d="M 45.9 320.4 
L 323.1 320.4 
" style="fill:none;stroke:#000000;stroke-linecap:square;stroke-linejoin:miter;stroke-width:0.8;"/>
   </g>
   <g id="patch_9">
    <path d="M 45.9 43.2 
L 323.1 43.2 
" style="fill:none;stroke:#000000;stroke-linecap:square;stroke-linejoin:miter;stroke-width:0.8;"/>
   </g>
   <g id="text_1">
    <!-- Obstacle -->
    <defs>
     <path d="M 42.484375 60.59375 
Q 33.890625 60.59375 29.15625 54.25 
Q 24.421875 47.90625 24.421875 36.375 
Q 24.421875 24.90625 29.15625 18.546875 
Q 33.890625 12.203125 42.484375 12.203125 
Q 51.125 12.203125 55.859375 18.546875 
Q 60.59375 24.90625 60.59375 36.375 
Q 60.59375 47.90625 55.859375 54.25 
Q 51.125 60.59375 42.484375 60.59375 
z
M 42.484375 74.21875 
Q 60.0625 74.21875 70.015625 64.15625 
Q 79.984375 54.109375 79.984375 36.375 
Q 79.984375 18.703125 70.015625 8.640625 
Q 60.0625 -1.421875 42.484375 -1.421875 
Q 24.953125 -1.421875 14.96875 8.640625 
Q 4.984375 18.703125 4.984375 36.375 
Q 4.984375 54.109375 14.96875 64.15625 
Q 24.953125 74.21875 42.484375 74.21875 
z
" id="DejaVuSans-Bold-4f"/>
     <path d="M 37.5 11.28125 
Q 43.109375 11.28125 46.0625 15.375 
Q 49.03125 19.484375 49.03125 27.296875 
Q 49.03125 35.109375 46.0625 39.203125 
Q 43.109375 43.3125 37.5 43.3125 
Q 31.890625 43.3125 28.875 39.1875 
Q 25.875 35.0625 25.875 27.296875 
Q 25.875 19.53125 28.875 15.40625 
Q 31.890625 11.28125 37.5 11.28125 
z
M 25.875 46.6875 
Q 29.5 51.46875 33.890625 53.734375 
Q 38.28125 56 44 56 
Q 54.109375 56 60.59375 47.96875 
Q 67.09375 39.9375 67.09375 27.296875 
Q 67.09375 14.65625 60.59375 6.609375 
Q 54.109375 -1.421875 44 -1.421875 
Q 38.28125 -1.421875 33.890625 0.84375 
Q 29.5 3.125 25.875 7.90625 
L 25.875 0 
L 8.40625 0 
L 8.40625 75.984375 
L 25.875 75.984375 
z
" id="DejaVuSans-Bold-62"/>
     <path d="M 51.125 52.984375 
L 51.125 39.703125 
Q 45.515625 42.046875 40.28125 43.21875 
Q 35.0625 44.390625 30.421875 44.390625 
Q 25.4375 44.390625 23.015625 43.140625 
Q 20.609375 41.890625 20.609375 39.3125 
Q 20.609375 37.203125 22.4375 36.078125 
Q 24.265625 34.96875 29 34.421875 
L 32.078125 33.984375 
Q 45.515625 32.28125 50.140625 28.375 
Q 54.78125 24.46875 54.78125 16.109375 
Q 54.78125 7.375 48.328125 2.96875 
Q 41.890625 -1.421875 29.109375 -1.421875 
Q 23.6875 -1.421875 17.890625 -0.5625 
Q 12.109375 0.296875 6 2 
L 6 15.28125 
Q 11.234375 12.75 16.71875 11.46875 
Q 22.21875 10.203125 27.875 10.203125 
Q 33.015625 10.203125 35.59375 11.609375 
Q 38.1875 13.03125 38.1875 15.828125 
Q 38.1875 18.171875 36.40625 19.3125 
Q 34.625 20.453125 29.296875 21.09375 
L 26.21875 21.484375 
Q 14.546875 22.953125 9.859375 26.90625 
Q 5.171875 30.859375 5.171875 38.921875 
Q 5.171875 47.609375 11.125 51.796875 
Q 17.09375 56 29.390625 56 
Q 34.234375 56 39.546875 55.265625 
Q 44.875 54.546875 51.125 52.984375 
z
" id="DejaVuSans-Bold-73"/>
     <path d="M 27.484375 70.21875 
L 27.484375 54.6875 
L 45.515625 54.6875 
L 45.515625 42.1875 
L 27.484375 42.1875 
L 27.484375 19 
Q 27.484375 15.1875 29 13.84375 
Q 30.515625 12.5 35.015625 12.5 
L 44 12.5 
L 44 0 
L 29 0 
Q 18.65625 0 14.328125 4.3125 
Q 10.015625 8.640625 10.015625 19 
L 10.015625 42.1875 
L 1.3125 42.1875 
L 1.3125 54.6875 
L 10.015625 54.6875 
L 10.015625 70.21875 
z
" id="DejaVuSans-Bold-74"/>
     <path d="M 32.90625 24.609375 
Q 27.4375 24.609375 24.671875 22.75 
Q 21.921875 20.90625 21.921875 17.28125 
Q 21.921875 13.96875 24.140625 12.078125 
Q 26.375 10.203125 30.328125 10.203125 
Q 35.25 10.203125 38.625 13.734375 
Q 42 17.28125 42 22.609375 
L 42 24.609375 
z
M 59.625 31.203125 
L 59.625 0 
L 42 0 
L 42 8.109375 
Q 38.484375 3.125 34.078125 0.84375 
Q 29.6875 -1.421875 23.390625 -1.421875 
Q 14.890625 -1.421875 9.59375 3.53125 
Q 4.296875 8.5 4.296875 16.40625 
Q 4.296875 26.03125 10.90625 30.515625 
Q 17.53125 35.015625 31.6875 35.015625 
L 42 35.015625 
L 42 36.375 
Q 42 40.53125 38.71875 42.453125 
Q 35.453125 44.390625 28.515625 44.390625 
Q 22.90625 44.390625 18.0625 43.265625 
Q 13.234375 42.140625 9.078125 39.890625 
L 9.078125 53.21875 
Q 14.703125 54.59375 20.359375 55.296875 
Q 26.03125 56 31.6875 56 
Q 46.484375 56 53.046875 50.171875 
Q 59.625 44.34375 59.625 31.203125 
z
" id="DejaVuSans-Bold-61"/>
     <path d="M 52.59375 52.984375 
L 52.59375 38.71875 
Q 49.03125 41.15625 45.4375 42.328125 
Q 41.84375 43.5 37.984375 43.5 
Q 30.671875 43.5 26.59375 39.234375 
Q 22.515625 34.96875 22.515625 27.296875 
Q 22.515625 19.625 26.59375 15.34375 
Q 30.671875 11.078125 37.984375 11.078125 
Q 42.09375 11.078125 45.78125 12.296875 
Q 49.46875 13.53125 52.59375 15.921875 
L 52.59375 1.609375 
Q 48.484375 0.09375 44.265625 -0.65625 
Q 40.046875 -1.421875 35.796875 -1.421875 
Q 21 -1.421875 12.640625 6.171875 
Q 4.296875 13.765625 4.296875 27.296875 
Q 4.296875 40.828125 12.640625 48.40625 
Q 21 56 35.796875 56 
Q 40.09375 56 44.265625 55.25 
Q 48.4375 54.5 52.59375 52.984375 
z
" id="DejaVuSans-Bold-63"/>
     <path d="M 8.40625 75.984375 
L 25.875 75.984375 
L 25.875 0 
L 8.40625 0 
z
" id="DejaVuSans-Bold-6c"/>
     <path d="M 62.984375 27.484375 
L 62.984375 22.515625 
L 22.125 22.515625 
Q 22.75 16.359375 26.5625 13.28125 
Q 30.375 10.203125 37.203125 10.203125 
Q 42.71875 10.203125 48.5 11.84375 
Q 54.296875 13.484375 60.40625 16.796875 
L 60.40625 3.328125 
Q 54.203125 0.984375 48 -0.21875 
Q 41.796875 -1.421875 35.59375 -1.421875 
Q 20.75 -1.421875 12.515625 6.125 
Q 4.296875 13.671875 4.296875 27.296875 
Q 4.296875 40.671875 12.375 48.328125 
Q 20.453125 56 34.625 56 
Q 47.515625 56 55.25 48.234375 
Q 62.984375 40.484375 62.984375 27.484375 
z
M 45.015625 33.296875 
Q 45.015625 38.28125 42.109375 41.328125 
Q 39.203125 44.390625 34.515625 44.390625 
Q 29.4375 44.390625 26.265625 41.53125 
Q 23.09375 38.671875 22.3125 33.296875 
z
" id="DejaVuSans-Bold-65"/>
    </defs>
    <g transform="translate(122.902344 37.2)scale(0.25 -0.25)">
     <use xlink:href="#DejaVuSans-Bold-4f"/>
     <use x="85.009766" xlink:href="#DejaVuSans-Bold-62"/>
     <use x="156.591797" xlink:href="#DejaVuSans-Bold-73"/>
     <use x="216.113281" xlink:href="#DejaVuSans-Bold-74"/>
     <use x="263.916016" xlink:href="#DejaVuSans-Bold-61"/>
     <use x="331.396484" xlink:href="#DejaVuSans-Bold-63"/>
     <use x="390.673828" xlink:href="#DejaVuSans-Bold-6c"/>
     <use x="424.951172" xlink:href="#DejaVuSans-Bold-65"/>
    </g>
   </g>
  </g>
 </g>
 <defs>
  <clipPath id="p66b9eea404">
   <rect height="277.2" width="277.2" x="45.9" y="43.2"/>
  </clipPath>
 </defs>
</svg>
