<?xml version="1.0" encoding="utf-8" standalone="no"?>
<!DOCTYPE svg PUBLIC "-//W3C//DTD SVG 1.1//EN"
  "http://www.w3.org/Graphics/SVG/1.1/DTD/svg11.dtd">
<!-- Created with matplotlib (http://matplotlib.org/) -->
<svg height="360pt" version="1.1" viewBox="0 0 360 360" width="360pt" xmlns="http://www.w3.org/2000/svg" xmlns:xlink="http://www.w3.org/1999/xlink">
 <defs>
  <style type="text/css">
*{stroke-linecap:butt;stroke-linejoin:round;}
  </style>
 </defs>
 <g id="figure_1">
  <g id="patch_1">
   <path d="M 0 360 
L 360 360 
L 360 0 
L 0 0 
z
" style="fill:#ffffff;"/>
  </g>
  <g id="axes_1">
   <g id="patch_2">
    <path d="M 45.9 320.4 
L 323.1 320.4 
L 323.1 43.2 
L 45.9 43.2 
z
" style="fill:#eaeaf2;"/>
   </g>
   <g id="patch_3">
    <path clip-path="url(#p7ed81a8ad6)" d="M 160.1064 -124.2288 
C 163.782115 -124.2288 167.307777 -125.689177 169.9069 -128.2883 
C 172.506023 -130.887423 173.9664 -134.413085 173.9664 -138.0888 
C 173.9664 -141.764515 172.506023 -145.290177 169.9069 -147.8893 
C 167.307777 -150.488423 163.782115 -151.9488 160.1064 -151.9488 
C 156.430685 -151.9488 152.905023 -150.488423 150.3059 -147.8893 
C 147.706777 -145.290177 146.2464 -141.764515 146.2464 -138.0888 
C 146.2464 -134.413085 147.706777 -130.887423 150.3059 -128.2883 
C 152.905023 -125.689177 156.430685 -124.2288 160.1064 -124.2288 
z
" style="fill:#008000;opacity:0.6;stroke:#000000;stroke-linejoin:miter;"/>
   </g>
   <g id="patch_4">
    <path clip-path="url(#p7ed81a8ad6)" d="M 184.5 285.75 
C 212.067862 285.75 238.510328 274.797172 258.00375 255.30375 
C 277.497172 235.810328 288.45 209.367862 288.45 181.8 
C 288.45 154.232138 277.497172 127.789672 258.00375 108.29625 
C 238.510328 88.802828 212.067862 77.85 184.5 77.85 
C 156.932138 77.85 130.489672 88.802828 110.99625 108.29625 
C 91.502828 127.789672 80.55 154.232138 80.55 181.8 
C 80.55 209.367862 91.502828 235.810328 110.99625 255.30375 
C 130.489672 274.797172 156.932138 285.75 184.5 285.75 
z
" style="opacity:0.1;stroke:#000000;stroke-linejoin:miter;"/>
   </g>
   <g id="patch_5">
    <path clip-path="url(#p7ed81a8ad6)" d="M 184.5 216.45 
C 193.689287 216.45 202.503443 212.799057 209.00125 206.30125 
C 215.499057 199.803443 219.15 190.989287 219.15 181.8 
C 219.15 172.610713 215.499057 163.796557 209.00125 157.29875 
C 202.503443 150.800943 193.689287 147.15 184.5 147.15 
C 175.310713 147.15 166.496557 150.800943 159.99875 157.29875 
C 153.500943 163.796557 149.85 172.610713 149.85 181.8 
C 149.85 190.989287 153.500943 199.803443 159.99875 206.30125 
C 166.496557 212.799057 175.310713 216.45 184.5 216.45 
z
" style="fill:#ff0000;opacity:0.2;stroke:#ff0000;stroke-linejoin:miter;"/>
   </g>
   <g id="line2d_1">
    <path clip-path="url(#p7ed81a8ad6)" d="M 113.303107 361 
L 113.956792 352.470425 
L 114.460891 343.230615 
L 114.752424 333.956071 
L 114.836436 324.651355 
L 114.710868 315.317092 
L 114.372983 305.956191 
L 113.827201 296.569169 
L 113.068386 287.154556 
L 112.0784 277.722859 
L 110.84769 268.294046 
L 109.371596 258.889172 
L 107.647808 249.528197 
L 105.675653 240.229651 
L 103.466608 231.015422 
L 101.050372 221.913717 
L 98.449388 212.944057 
L 95.679382 204.11914 
L 92.742844 195.445346 
L 89.632715 186.923805 
L 86.351851 178.559136 
L 81.822388 167.676799 
L 77.177392 157.115313 
L 72.414742 146.866293 
L 67.474812 136.911207 
L 62.457129 127.250486 
L 58.473085 120.192538 
L 54.291127 113.291282 
L 48.491464 104.334632 
L 37.142597 87.185801 
L 33.412316 81.054201 
L 31.243517 77.099888 
L 29.386373 73.255029 
L 27.873114 69.513994 
L 26.673294 65.875445 
L 25.741098 62.339008 
L 25.080597 58.901938 
L 24.672212 55.567592 
L 24.490315 52.333668 
L 24.503124 47.660932 
L 24.839393 41.732385 
L 25.124843 38.858965 
L 25.823637 34.646576 
L 27.023229 29.220531 
L 28.047197 25.273926 
L 29.269897 21.431893 
L 34.014526 7.926495 
L 36.356052 2.008882 
L 37.672868 -1 
L 37.672868 -1 
" style="fill:none;stroke:#000000;stroke-linecap:square;stroke-width:1.5;"/>
   </g>
   <g id="line2d_2">
    <path clip-path="url(#p7ed81a8ad6)" d="M 105.801211 361 
L 105.848803 355.280295 
L 105.704546 327.655517 
L 105.507685 321.955091 
L 105.142502 316.242812 
L 104.336194 307.756388 
L 102.66453 293.819091 
L 101.179569 282.588102 
L 99.416141 271.169663 
L 97.338948 259.638964 
L 92.798646 236.840902 
L 92.181852 234.030726 
L 90.015376 225.815092 
L 87.235655 215.09514 
L 84.121615 204.429785 
L 78.41356 186.14391 
L 69.018063 156.827857 
L 64.909338 145.39827 
L 62.298871 138.64233 
L 52.278383 114.219934 
L 47.838858 103.64039 
L 46.330002 99.6073 
L 45.171129 95.736385 
L 44.77263 93.87176 
L 44.50594 92.058763 
L 44.329366 88.590302 
L 44.494422 85.316806 
L 44.844268 82.202043 
L 45.413555 79.228467 
L 46.26466 76.400136 
L 47.40612 73.712925 
L 48.833009 71.164206 
L 50.480642 68.754837 
L 52.299174 66.470826 
L 55.215276 63.237399 
L 60.169038 58.204542 
L 68.58418 49.847666 
L 69.893514 48.051849 
L 70.908905 46.258239 
L 72.064991 43.587353 
L 72.958823 40.937863 
L 73.927909 37.339236 
L 75.756204 29.296047 
L 76.104646 27.122483 
L 76.316055 23.74085 
L 76.563549 17.916009 
L 77.447732 7.160502 
L 77.29413 3.416817 
L 76.90353 -1 
L 76.90353 -1 
" style="fill:none;stroke:#ff0000;stroke-linecap:square;stroke-width:1.5;"/>
   </g>
   <g id="line2d_3">
    <path clip-path="url(#p7ed81a8ad6)" d="M 105.908005 361 
L 106.129253 357.785439 
L 106.524911 349.051645 
L 106.796395 337.335174 
L 106.852197 328.449698 
L 106.66718 319.478987 
L 106.226489 310.504077 
L 105.405734 298.523605 
L 104.587123 289.475538 
L 103.557155 280.381865 
L 102.303211 271.266393 
L 100.818291 262.153703 
L 99.098203 253.06685 
L 97.150748 244.031443 
L 94.421576 232.197449 
L 87.439929 209.623285 
L 84.521331 201.341151 
L 80.411689 190.473445 
L 64.56115 149.855167 
L 61.533945 142.698961 
L 58.28785 135.659722 
L 54.796004 128.737428 
L 49.954912 119.694762 
L 45.013755 110.877456 
L 39.999299 102.284767 
L 36.064928 96.002381 
L 31.916301 89.876467 
L 27.902955 83.93959 
L 25.515197 80.099278 
L 23.454604 76.361404 
L 21.743928 72.735533 
L 20.382728 69.223114 
L 19.378592 65.818397 
L 18.699727 62.517947 
L 18.353144 59.327269 
L 18.380804 56.248956 
L 18.751405 53.29374 
L 19.380278 50.469552 
L 20.226009 47.765936 
L 21.737673 43.912308 
L 24.939082 36.720056 
L 26.694548 33.29637 
L 28.05964 31.077465 
L 30.430943 27.848323 
L 33.877589 23.704562 
L 38.348097 18.736321 
L 42.958627 13.927055 
L 46.861874 10.141936 
L 57.568081 0.004124 
L 58.496241 -1 
L 58.496241 -1 
" style="fill:none;stroke:#008000;stroke-linecap:square;stroke-width:1.5;"/>
   </g>
   <g id="line2d_4">
    <path clip-path="url(#p7ed81a8ad6)" d="M 109.546895 361 
L 109.98773 354.173098 
L 110.337856 345.22576 
L 110.474427 336.299449 
L 110.396027 324.394745 
L 110.042255 312.406533 
L 109.531356 303.342796 
L 108.768932 294.273278 
L 107.4841 282.171095 
L 106.29153 273.059699 
L 104.875905 263.932684 
L 103.228547 254.812867 
L 101.350976 245.72573 
L 98.605825 233.753083 
L 94.964188 219.134792 
L 93.400688 213.38981 
L 85.496717 191.427109 
L 80.358972 178.171196 
L 76.109415 167.823024 
L 71.688123 157.703065 
L 66.009997 145.389652 
L 61.413949 135.822422 
L 56.716111 126.494236 
L 51.909016 117.403158 
L 46.024858 106.425145 
L 42.926001 100.135852 
L 41.146264 96.101746 
L 39.689732 92.199807 
L 38.614043 88.440438 
L 37.93286 84.825706 
L 37.592619 81.345818 
L 37.509336 77.988499 
L 37.632942 74.744348 
L 37.931802 71.602839 
L 38.645111 67.066388 
L 39.597307 62.730112 
L 40.758412 58.572916 
L 42.870816 51.935863 
L 44.294312 48.115121 
L 45.868603 44.408639 
L 48.163303 39.625129 
L 50.607432 34.994536 
L 55.681156 26.074412 
L 60.163045 18.518624 
L 63.552623 13.265992 
L 67.109485 8.139401 
L 71.319451 2.103971 
L 73.461663 -1 
L 73.461663 -1 
" style="fill:none;stroke:#0000ff;stroke-linecap:square;stroke-width:1.5;"/>
   </g>
   <g id="patch_6">
    <path d="M 45.9 320.4 
L 45.9 43.2 
" style="fill:none;stroke:#000000;stroke-linecap:square;stroke-linejoin:miter;stroke-width:0.8;"/>
   </g>
   <g id="patch_7">
    <path d="M 323.1 320.4 
L 323.1 43.2 
" style="fill:none;stroke:#000000;stroke-linecap:square;stroke-linejoin:miter;stroke-width:0.8;"/>
   </g>
   <g id="patch_8">
    <path d="M 45.9 320.4 
L 323.1 320.4 
" style="fill:none;stroke:#000000;stroke-linecap:square;stroke-linejoin:miter;stroke-width:0.8;"/>
   </g>
   <g id="patch_9">
    <path d="M 45.9 43.2 
L 323.1 43.2 
" style="fill:none;stroke:#000000;stroke-linecap:square;stroke-linejoin:miter;stroke-width:0.8;"/>
   </g>
   <g id="text_1">
    <!-- Obstacle -->
    <defs>
     <path d="M 42.484375 60.59375 
Q 33.890625 60.59375 29.15625 54.25 
Q 24.421875 47.90625 24.421875 36.375 
Q 24.421875 24.90625 29.15625 18.546875 
Q 33.890625 12.203125 42.484375 12.203125 
Q 51.125 12.203125 55.859375 18.546875 
Q 60.59375 24.90625 60.59375 36.375 
Q 60.59375 47.90625 55.859375 54.25 
Q 51.125 60.59375 42.484375 60.59375 
z
M 42.484375 74.21875 
Q 60.0625 74.21875 70.015625 64.15625 
Q 79.984375 54.109375 79.984375 36.375 
Q 79.984375 18.703125 70.015625 8.640625 
Q 60.0625 -1.421875 42.484375 -1.421875 
Q 24.953125 -1.421875 14.96875 8.640625 
Q 4.984375 18.703125 4.984375 36.375 
Q 4.984375 54.109375 14.96875 64.15625 
Q 24.953125 74.21875 42.484375 74.21875 
z
" id="DejaVuSans-Bold-4f"/>
     <path d="M 37.5 11.28125 
Q 43.109375 11.28125 46.0625 15.375 
Q 49.03125 19.484375 49.03125 27.296875 
Q 49.03125 35.109375 46.0625 39.203125 
Q 43.109375 43.3125 37.5 43.3125 
Q 31.890625 43.3125 28.875 39.1875 
Q 25.875 35.0625 25.875 27.296875 
Q 25.875 19.53125 28.875 15.40625 
Q 31.890625 11.28125 37.5 11.28125 
z
M 25.875 46.6875 
Q 29.5 51.46875 33.890625 53.734375 
Q 38.28125 56 44 56 
Q 54.109375 56 60.59375 47.96875 
Q 67.09375 39.9375 67.09375 27.296875 
Q 67.09375 14.65625 60.59375 6.609375 
Q 54.109375 -1.421875 44 -1.421875 
Q 38.28125 -1.421875 33.890625 0.84375 
Q 29.5 3.125 25.875 7.90625 
L 25.875 0 
L 8.40625 0 
L 8.40625 75.984375 
L 25.875 75.984375 
z
" id="DejaVuSans-Bold-62"/>
     <path d="M 51.125 52.984375 
L 51.125 39.703125 
Q 45.515625 42.046875 40.28125 43.21875 
Q 35.0625 44.390625 30.421875 44.390625 
Q 25.4375 44.390625 23.015625 43.140625 
Q 20.609375 41.890625 20.609375 39.3125 
Q 20.609375 37.203125 22.4375 36.078125 
Q 24.265625 34.96875 29 34.421875 
L 32.078125 33.984375 
Q 45.515625 32.28125 50.140625 28.375 
Q 54.78125 24.46875 54.78125 16.109375 
Q 54.78125 7.375 48.328125 2.96875 
Q 41.890625 -1.421875 29.109375 -1.421875 
Q 23.6875 -1.421875 17.890625 -0.5625 
Q 12.109375 0.296875 6 2 
L 6 15.28125 
Q 11.234375 12.75 16.71875 11.46875 
Q 22.21875 10.203125 27.875 10.203125 
Q 33.015625 10.203125 35.59375 11.609375 
Q 38.1875 13.03125 38.1875 15.828125 
Q 38.1875 18.171875 36.40625 19.3125 
Q 34.625 20.453125 29.296875 21.09375 
L 26.21875 21.484375 
Q 14.546875 22.953125 9.859375 26.90625 
Q 5.171875 30.859375 5.171875 38.921875 
Q 5.171875 47.609375 11.125 51.796875 
Q 17.09375 56 29.390625 56 
Q 34.234375 56 39.546875 55.265625 
Q 44.875 54.546875 51.125 52.984375 
z
" id="DejaVuSans-Bold-73"/>
     <path d="M 27.484375 70.21875 
L 27.484375 54.6875 
L 45.515625 54.6875 
L 45.515625 42.1875 
L 27.484375 42.1875 
L 27.484375 19 
Q 27.484375 15.1875 29 13.84375 
Q 30.515625 12.5 35.015625 12.5 
L 44 12.5 
L 44 0 
L 29 0 
Q 18.65625 0 14.328125 4.3125 
Q 10.015625 8.640625 10.015625 19 
L 10.015625 42.1875 
L 1.3125 42.1875 
L 1.3125 54.6875 
L 10.015625 54.6875 
L 10.015625 70.21875 
z
" id="DejaVuSans-Bold-74"/>
     <path d="M 32.90625 24.609375 
Q 27.4375 24.609375 24.671875 22.75 
Q 21.921875 20.90625 21.921875 17.28125 
Q 21.921875 13.96875 24.140625 12.078125 
Q 26.375 10.203125 30.328125 10.203125 
Q 35.25 10.203125 38.625 13.734375 
Q 42 17.28125 42 22.609375 
L 42 24.609375 
z
M 59.625 31.203125 
L 59.625 0 
L 42 0 
L 42 8.109375 
Q 38.484375 3.125 34.078125 0.84375 
Q 29.6875 -1.421875 23.390625 -1.421875 
Q 14.890625 -1.421875 9.59375 3.53125 
Q 4.296875 8.5 4.296875 16.40625 
Q 4.296875 26.03125 10.90625 30.515625 
Q 17.53125 35.015625 31.6875 35.015625 
L 42 35.015625 
L 42 36.375 
Q 42 40.53125 38.71875 42.453125 
Q 35.453125 44.390625 28.515625 44.390625 
Q 22.90625 44.390625 18.0625 43.265625 
Q 13.234375 42.140625 9.078125 39.890625 
L 9.078125 53.21875 
Q 14.703125 54.59375 20.359375 55.296875 
Q 26.03125 56 31.6875 56 
Q 46.484375 56 53.046875 50.171875 
Q 59.625 44.34375 59.625 31.203125 
z
" id="DejaVuSans-Bold-61"/>
     <path d="M 52.59375 52.984375 
L 52.59375 38.71875 
Q 49.03125 41.15625 45.4375 42.328125 
Q 41.84375 43.5 37.984375 43.5 
Q 30.671875 43.5 26.59375 39.234375 
Q 22.515625 34.96875 22.515625 27.296875 
Q 22.515625 19.625 26.59375 15.34375 
Q 30.671875 11.078125 37.984375 11.078125 
Q 42.09375 11.078125 45.78125 12.296875 
Q 49.46875 13.53125 52.59375 15.921875 
L 52.59375 1.609375 
Q 48.484375 0.09375 44.265625 -0.65625 
Q 40.046875 -1.421875 35.796875 -1.421875 
Q 21 -1.421875 12.640625 6.171875 
Q 4.296875 13.765625 4.296875 27.296875 
Q 4.296875 40.828125 12.640625 48.40625 
Q 21 56 35.796875 56 
Q 40.09375 56 44.265625 55.25 
Q 48.4375 54.5 52.59375 52.984375 
z
" id="DejaVuSans-Bold-63"/>
     <path d="M 8.40625 75.984375 
L 25.875 75.984375 
L 25.875 0 
L 8.40625 0 
z
" id="DejaVuSans-Bold-6c"/>
     <path d="M 62.984375 27.484375 
L 62.984375 22.515625 
L 22.125 22.515625 
Q 22.75 16.359375 26.5625 13.28125 
Q 30.375 10.203125 37.203125 10.203125 
Q 42.71875 10.203125 48.5 11.84375 
Q 54.296875 13.484375 60.40625 16.796875 
L 60.40625 3.328125 
Q 54.203125 0.984375 48 -0.21875 
Q 41.796875 -1.421875 35.59375 -1.421875 
Q 20.75 -1.421875 12.515625 6.125 
Q 4.296875 13.671875 4.296875 27.296875 
Q 4.296875 40.671875 12.375 48.328125 
Q 20.453125 56 34.625 56 
Q 47.515625 56 55.25 48.234375 
Q 62.984375 40.484375 62.984375 27.484375 
z
M 45.015625 33.296875 
Q 45.015625 38.28125 42.109375 41.328125 
Q 39.203125 44.390625 34.515625 44.390625 
Q 29.4375 44.390625 26.265625 41.53125 
Q 23.09375 38.671875 22.3125 33.296875 
z
" id="DejaVuSans-Bold-65"/>
    </defs>
    <g transform="translate(122.902344 37.2)scale(0.25 -0.25)">
     <use xlink:href="#DejaVuSans-Bold-4f"/>
     <use x="85.009766" xlink:href="#DejaVuSans-Bold-62"/>
     <use x="156.591797" xlink:href="#DejaVuSans-Bold-73"/>
     <use x="216.113281" xlink:href="#DejaVuSans-Bold-74"/>
     <use x="263.916016" xlink:href="#DejaVuSans-Bold-61"/>
     <use x="331.396484" xlink:href="#DejaVuSans-Bold-63"/>
     <use x="390.673828" xlink:href="#DejaVuSans-Bold-6c"/>
     <use x="424.951172" xlink:href="#DejaVuSans-Bold-65"/>
    </g>
   </g>
  </g>
 </g>
 <defs>
  <clipPath id="p7ed81a8ad6">
   <rect height="277.2" width="277.2" x="45.9" y="43.2"/>
  </clipPath>
 </defs>
</svg>
