<?xml version="1.0" encoding="utf-8" standalone="no"?>
<!DOCTYPE svg PUBLIC "-//W3C//DTD SVG 1.1//EN"
  "http://www.w3.org/Graphics/SVG/1.1/DTD/svg11.dtd">
<!-- Created with matplotlib (http://matplotlib.org/) -->
<svg height="360pt" version="1.1" viewBox="0 0 360 360" width="360pt" xmlns="http://www.w3.org/2000/svg" xmlns:xlink="http://www.w3.org/1999/xlink">
 <defs>
  <style type="text/css">
*{stroke-linecap:butt;stroke-linejoin:round;}
  </style>
 </defs>
 <g id="figure_1">
  <g id="patch_1">
   <path d="M 0 360 
L 360 360 
L 360 0 
L 0 0 
z
" style="fill:#ffffff;"/>
  </g>
  <g id="axes_1">
   <g id="patch_2">
    <path d="M 45.9 320.4 
L 323.1 320.4 
L 323.1 43.2 
L 45.9 43.2 
z
" style="fill:#eaeaf2;"/>
   </g>
   <g id="patch_3">
    <path clip-path="url(#p16d0017eca)" d="M 160.1064 -124.2288 
C 163.782115 -124.2288 167.307777 -125.689177 169.9069 -128.2883 
C 172.506023 -130.887423 173.9664 -134.413085 173.9664 -138.0888 
C 173.9664 -141.764515 172.506023 -145.290177 169.9069 -147.8893 
C 167.307777 -150.488423 163.782115 -151.9488 160.1064 -151.9488 
C 156.430685 -151.9488 152.905023 -150.488423 150.3059 -147.8893 
C 147.706777 -145.290177 146.2464 -141.764515 146.2464 -138.0888 
C 146.2464 -134.413085 147.706777 -130.887423 150.3059 -128.2883 
C 152.905023 -125.689177 156.430685 -124.2288 160.1064 -124.2288 
z
" style="fill:#008000;opacity:0.6;stroke:#000000;stroke-linejoin:miter;"/>
   </g>
   <g id="patch_4">
    <path clip-path="url(#p16d0017eca)" d="M 184.5 285.75 
C 212.067862 285.75 238.510328 274.797172 258.00375 255.30375 
C 277.497172 235.810328 288.45 209.367862 288.45 181.8 
C 288.45 154.232138 277.497172 127.789672 258.00375 108.29625 
C 238.510328 88.802828 212.067862 77.85 184.5 77.85 
C 156.932138 77.85 130.489672 88.802828 110.99625 108.29625 
C 91.502828 127.789672 80.55 154.232138 80.55 181.8 
C 80.55 209.367862 91.502828 235.810328 110.99625 255.30375 
C 130.489672 274.797172 156.932138 285.75 184.5 285.75 
z
" style="opacity:0.1;stroke:#000000;stroke-linejoin:miter;"/>
   </g>
   <g id="patch_5">
    <path clip-path="url(#p16d0017eca)" d="M 184.5 216.45 
C 193.689287 216.45 202.503443 212.799057 209.00125 206.30125 
C 215.499057 199.803443 219.15 190.989287 219.15 181.8 
C 219.15 172.610713 215.499057 163.796557 209.00125 157.29875 
C 202.503443 150.800943 193.689287 147.15 184.5 147.15 
C 175.310713 147.15 166.496557 150.800943 159.99875 157.29875 
C 153.500943 163.796557 149.85 172.610713 149.85 181.8 
C 149.85 190.989287 153.500943 199.803443 159.99875 206.30125 
C 166.496557 212.799057 175.310713 216.45 184.5 216.45 
z
" style="fill:#ff0000;opacity:0.2;stroke:#ff0000;stroke-linejoin:miter;"/>
   </g>
   <g id="line2d_1">
    <path clip-path="url(#p16d0017eca)" d="M 114.220971 361 
L 115.204767 351.295496 
L 115.962609 341.441577 
L 116.476897 331.544298 
L 116.744198 321.616355 
L 116.754939 311.672107 
L 116.495641 301.731192 
L 115.96267 291.820279 
L 115.171133 281.950192 
L 114.114463 272.130326 
L 112.79262 262.375226 
L 111.229672 252.712724 
L 109.469268 243.176943 
L 107.494149 233.766399 
L 105.268402 224.469326 
L 102.008255 212.298445 
L 99.487181 203.404207 
L 98.711255 201.879868 
L 96.860713 199.14479 
L 95.178891 196.181582 
L 93.633014 193.059806 
L 90.653402 186.330545 
L 84.846401 173.0523 
L 79.973306 162.6646 
L 73.633536 149.728445 
L 67.323646 136.818021 
L 62.496941 126.410421 
L 59.945134 120.388959 
L 57.80955 114.585054 
L 56.055464 108.99979 
L 54.646505 103.623026 
L 53.527869 98.435664 
L 52.661816 93.420887 
L 51.814094 86.978168 
L 51.044456 79.251142 
L 50.38422 70.329223 
L 50.253458 65.99586 
L 50.350898 58.94139 
L 50.635376 53.436943 
L 51.124272 48.051689 
L 51.909227 42.801194 
L 54.959075 25.12956 
L 55.755146 21.444272 
L 56.778672 17.8032 
L 60.492443 5.96273 
L 61.292983 2.438036 
L 61.877361 -1 
L 61.877361 -1 
" style="fill:none;stroke:#000000;stroke-linecap:square;stroke-width:1.5;"/>
   </g>
   <g id="line2d_2">
    <path clip-path="url(#p16d0017eca)" d="M 111.506545 361 
L 111.866475 350.500857 
L 112.205925 333.299408 
L 112.188186 321.477351 
L 111.919431 312.448404 
L 111.202849 300.342726 
L 110.472963 291.202049 
L 109.534386 282.005602 
L 108.358627 272.78191 
L 106.930965 263.642702 
L 102.396634 237.416294 
L 100.699682 228.859877 
L 98.775068 220.331777 
L 98.720635 217.800525 
L 97.910059 212.532428 
L 96.897095 207.232705 
L 95.635678 201.884807 
L 93.471931 193.844741 
L 91.050412 185.830735 
L 88.410826 177.876179 
L 84.162563 165.223741 
L 79.642602 151.36427 
L 77.948949 146.870251 
L 75.095625 140.118581 
L 71.330778 131.273413 
L 68.903499 124.903858 
L 67.56933 120.825558 
L 66.495346 116.897675 
L 65.646909 113.114809 
L 65.002021 109.466092 
L 64.607092 105.955019 
L 64.423094 102.571504 
L 64.419721 99.303409 
L 64.73734 93.044315 
L 65.41552 82.778408 
L 65.868218 80.033723 
L 67.793436 70.876494 
L 68.0397 68.246852 
L 68.122778 65.574021 
L 67.998076 62.848035 
L 67.494576 58.657966 
L 66.858774 53.016484 
L 66.598632 48.855048 
L 66.515001 43.455148 
L 66.728292 38.181625 
L 67.128897 32.980869 
L 67.628533 29.120972 
L 68.293475 25.306906 
L 69.671098 19.062953 
L 70.952576 14.150587 
L 71.824072 10.486052 
L 72.36652 6.807849 
L 72.926784 0.649632 
L 73.08733 -1 
L 73.08733 -1 
" style="fill:none;stroke:#ff0000;stroke-linecap:square;stroke-width:1.5;"/>
   </g>
   <g id="line2d_3">
    <path clip-path="url(#p16d0017eca)" d="M 111.942553 361 
L 112.376373 352.104443 
L 112.61878 343.21527 
L 112.674863 334.367512 
L 112.497459 325.546332 
L 112.217235 319.700554 
L 111.780884 313.913067 
L 110.869257 305.402947 
L 108.303855 282.777621 
L 107.077647 274.086694 
L 105.654073 265.310537 
L 104.020179 256.481591 
L 102.16751 247.630502 
L 98.850941 233.031539 
L 96.705226 224.39069 
L 95.889298 221.513183 
L 95.798669 218.975618 
L 94.688021 213.69182 
L 93.260898 208.359112 
L 91.489938 202.933216 
L 88.527008 194.764809 
L 76.193151 161.667244 
L 74.071893 154.938382 
L 65.685821 126.368263 
L 62.376954 116.762228 
L 60.567135 111.182869 
L 58.013413 102.222064 
L 56.060843 95.226643 
L 54.377016 90.041645 
L 50.914079 79.877683 
L 50.091647 76.574728 
L 49.59577 73.334538 
L 49.489629 70.176841 
L 49.779817 67.123993 
L 50.416702 64.194861 
L 51.339665 61.405421 
L 53.031215 57.468595 
L 55.516839 52.559869 
L 57.850579 47.884996 
L 58.846988 45.582243 
L 59.638123 43.272269 
L 60.22702 40.943077 
L 60.847366 37.406736 
L 61.459485 33.843969 
L 62.04689 31.479449 
L 63.229743 27.969618 
L 65.595311 22.202536 
L 68.324786 15.320726 
L 69.057868 13.006711 
L 69.910309 9.487607 
L 70.805852 4.709012 
L 71.575626 -1 
L 71.575626 -1 
" style="fill:none;stroke:#008000;stroke-linecap:square;stroke-width:1.5;"/>
   </g>
   <g id="line2d_4">
    <path clip-path="url(#p16d0017eca)" d="M 109.728085 361 
L 110.370797 353.408964 
L 110.994925 344.006052 
L 111.424386 334.532571 
L 111.624572 324.995148 
L 111.596483 318.622099 
L 111.402946 312.270931 
L 110.725647 299.76049 
L 110.010149 290.393594 
L 109.087308 281.021465 
L 107.939815 271.657669 
L 106.547646 262.311885 
L 104.920315 253.01058 
L 103.058998 243.773527 
L 100.958441 234.614971 
L 98.591579 225.536109 
L 96.000302 216.568406 
L 95.874868 213.946104 
L 94.373604 205.921528 
L 93.143368 200.577458 
L 91.698939 195.221815 
L 89.301328 187.24065 
L 86.75112 179.385564 
L 84.037731 171.654673 
L 80.205082 161.562976 
L 75.283417 149.390396 
L 68.477326 133.253688 
L 64.028849 122.441169 
L 60.899084 114.255085 
L 58.165578 106.464281 
L 57.046945 102.727108 
L 56.14401 99.105971 
L 55.448643 95.598289 
L 54.98202 92.199098 
L 54.5825 87.275736 
L 53.645391 70.413752 
L 53.599296 64.634161 
L 53.789049 60.415455 
L 54.539976 52.260856 
L 55.292486 45.677148 
L 56.28009 39.266399 
L 58.749344 24.231138 
L 60.157476 18.143129 
L 61.790327 10.938865 
L 63.082364 4.971465 
L 64.122277 -1 
L 64.122277 -1 
" style="fill:none;stroke:#0000ff;stroke-linecap:square;stroke-width:1.5;"/>
   </g>
   <g id="patch_6">
    <path d="M 45.9 320.4 
L 45.9 43.2 
" style="fill:none;stroke:#000000;stroke-linecap:square;stroke-linejoin:miter;stroke-width:0.8;"/>
   </g>
   <g id="patch_7">
    <path d="M 323.1 320.4 
L 323.1 43.2 
" style="fill:none;stroke:#000000;stroke-linecap:square;stroke-linejoin:miter;stroke-width:0.8;"/>
   </g>
   <g id="patch_8">
    <path d="M 45.9 320.4 
L 323.1 320.4 
" style="fill:none;stroke:#000000;stroke-linecap:square;stroke-linejoin:miter;stroke-width:0.8;"/>
   </g>
   <g id="patch_9">
    <path d="M 45.9 43.2 
L 323.1 43.2 
" style="fill:none;stroke:#000000;stroke-linecap:square;stroke-linejoin:miter;stroke-width:0.8;"/>
   </g>
   <g id="text_1">
    <!-- Obstacle -->
    <defs>
     <path d="M 42.484375 60.59375 
Q 33.890625 60.59375 29.15625 54.25 
Q 24.421875 47.90625 24.421875 36.375 
Q 24.421875 24.90625 29.15625 18.546875 
Q 33.890625 12.203125 42.484375 12.203125 
Q 51.125 12.203125 55.859375 18.546875 
Q 60.59375 24.90625 60.59375 36.375 
Q 60.59375 47.90625 55.859375 54.25 
Q 51.125 60.59375 42.484375 60.59375 
z
M 42.484375 74.21875 
Q 60.0625 74.21875 70.015625 64.15625 
Q 79.984375 54.109375 79.984375 36.375 
Q 79.984375 18.703125 70.015625 8.640625 
Q 60.0625 -1.421875 42.484375 -1.421875 
Q 24.953125 -1.421875 14.96875 8.640625 
Q 4.984375 18.703125 4.984375 36.375 
Q 4.984375 54.109375 14.96875 64.15625 
Q 24.953125 74.21875 42.484375 74.21875 
z
" id="DejaVuSans-Bold-4f"/>
     <path d="M 37.5 11.28125 
Q 43.109375 11.28125 46.0625 15.375 
Q 49.03125 19.484375 49.03125 27.296875 
Q 49.03125 35.109375 46.0625 39.203125 
Q 43.109375 43.3125 37.5 43.3125 
Q 31.890625 43.3125 28.875 39.1875 
Q 25.875 35.0625 25.875 27.296875 
Q 25.875 19.53125 28.875 15.40625 
Q 31.890625 11.28125 37.5 11.28125 
z
M 25.875 46.6875 
Q 29.5 51.46875 33.890625 53.734375 
Q 38.28125 56 44 56 
Q 54.109375 56 60.59375 47.96875 
Q 67.09375 39.9375 67.09375 27.296875 
Q 67.09375 14.65625 60.59375 6.609375 
Q 54.109375 -1.421875 44 -1.421875 
Q 38.28125 -1.421875 33.890625 0.84375 
Q 29.5 3.125 25.875 7.90625 
L 25.875 0 
L 8.40625 0 
L 8.40625 75.984375 
L 25.875 75.984375 
z
" id="DejaVuSans-Bold-62"/>
     <path d="M 51.125 52.984375 
L 51.125 39.703125 
Q 45.515625 42.046875 40.28125 43.21875 
Q 35.0625 44.390625 30.421875 44.390625 
Q 25.4375 44.390625 23.015625 43.140625 
Q 20.609375 41.890625 20.609375 39.3125 
Q 20.609375 37.203125 22.4375 36.078125 
Q 24.265625 34.96875 29 34.421875 
L 32.078125 33.984375 
Q 45.515625 32.28125 50.140625 28.375 
Q 54.78125 24.46875 54.78125 16.109375 
Q 54.78125 7.375 48.328125 2.96875 
Q 41.890625 -1.421875 29.109375 -1.421875 
Q 23.6875 -1.421875 17.890625 -0.5625 
Q 12.109375 0.296875 6 2 
L 6 15.28125 
Q 11.234375 12.75 16.71875 11.46875 
Q 22.21875 10.203125 27.875 10.203125 
Q 33.015625 10.203125 35.59375 11.609375 
Q 38.1875 13.03125 38.1875 15.828125 
Q 38.1875 18.171875 36.40625 19.3125 
Q 34.625 20.453125 29.296875 21.09375 
L 26.21875 21.484375 
Q 14.546875 22.953125 9.859375 26.90625 
Q 5.171875 30.859375 5.171875 38.921875 
Q 5.171875 47.609375 11.125 51.796875 
Q 17.09375 56 29.390625 56 
Q 34.234375 56 39.546875 55.265625 
Q 44.875 54.546875 51.125 52.984375 
z
" id="DejaVuSans-Bold-73"/>
     <path d="M 27.484375 70.21875 
L 27.484375 54.6875 
L 45.515625 54.6875 
L 45.515625 42.1875 
L 27.484375 42.1875 
L 27.484375 19 
Q 27.484375 15.1875 29 13.84375 
Q 30.515625 12.5 35.015625 12.5 
L 44 12.5 
L 44 0 
L 29 0 
Q 18.65625 0 14.328125 4.3125 
Q 10.015625 8.640625 10.015625 19 
L 10.015625 42.1875 
L 1.3125 42.1875 
L 1.3125 54.6875 
L 10.015625 54.6875 
L 10.015625 70.21875 
z
" id="DejaVuSans-Bold-74"/>
     <path d="M 32.90625 24.609375 
Q 27.4375 24.609375 24.671875 22.75 
Q 21.921875 20.90625 21.921875 17.28125 
Q 21.921875 13.96875 24.140625 12.078125 
Q 26.375 10.203125 30.328125 10.203125 
Q 35.25 10.203125 38.625 13.734375 
Q 42 17.28125 42 22.609375 
L 42 24.609375 
z
M 59.625 31.203125 
L 59.625 0 
L 42 0 
L 42 8.109375 
Q 38.484375 3.125 34.078125 0.84375 
Q 29.6875 -1.421875 23.390625 -1.421875 
Q 14.890625 -1.421875 9.59375 3.53125 
Q 4.296875 8.5 4.296875 16.40625 
Q 4.296875 26.03125 10.90625 30.515625 
Q 17.53125 35.015625 31.6875 35.015625 
L 42 35.015625 
L 42 36.375 
Q 42 40.53125 38.71875 42.453125 
Q 35.453125 44.390625 28.515625 44.390625 
Q 22.90625 44.390625 18.0625 43.265625 
Q 13.234375 42.140625 9.078125 39.890625 
L 9.078125 53.21875 
Q 14.703125 54.59375 20.359375 55.296875 
Q 26.03125 56 31.6875 56 
Q 46.484375 56 53.046875 50.171875 
Q 59.625 44.34375 59.625 31.203125 
z
" id="DejaVuSans-Bold-61"/>
     <path d="M 52.59375 52.984375 
L 52.59375 38.71875 
Q 49.03125 41.15625 45.4375 42.328125 
Q 41.84375 43.5 37.984375 43.5 
Q 30.671875 43.5 26.59375 39.234375 
Q 22.515625 34.96875 22.515625 27.296875 
Q 22.515625 19.625 26.59375 15.34375 
Q 30.671875 11.078125 37.984375 11.078125 
Q 42.09375 11.078125 45.78125 12.296875 
Q 49.46875 13.53125 52.59375 15.921875 
L 52.59375 1.609375 
Q 48.484375 0.09375 44.265625 -0.65625 
Q 40.046875 -1.421875 35.796875 -1.421875 
Q 21 -1.421875 12.640625 6.171875 
Q 4.296875 13.765625 4.296875 27.296875 
Q 4.296875 40.828125 12.640625 48.40625 
Q 21 56 35.796875 56 
Q 40.09375 56 44.265625 55.25 
Q 48.4375 54.5 52.59375 52.984375 
z
" id="DejaVuSans-Bold-63"/>
     <path d="M 8.40625 75.984375 
L 25.875 75.984375 
L 25.875 0 
L 8.40625 0 
z
" id="DejaVuSans-Bold-6c"/>
     <path d="M 62.984375 27.484375 
L 62.984375 22.515625 
L 22.125 22.515625 
Q 22.75 16.359375 26.5625 13.28125 
Q 30.375 10.203125 37.203125 10.203125 
Q 42.71875 10.203125 48.5 11.84375 
Q 54.296875 13.484375 60.40625 16.796875 
L 60.40625 3.328125 
Q 54.203125 0.984375 48 -0.21875 
Q 41.796875 -1.421875 35.59375 -1.421875 
Q 20.75 -1.421875 12.515625 6.125 
Q 4.296875 13.671875 4.296875 27.296875 
Q 4.296875 40.671875 12.375 48.328125 
Q 20.453125 56 34.625 56 
Q 47.515625 56 55.25 48.234375 
Q 62.984375 40.484375 62.984375 27.484375 
z
M 45.015625 33.296875 
Q 45.015625 38.28125 42.109375 41.328125 
Q 39.203125 44.390625 34.515625 44.390625 
Q 29.4375 44.390625 26.265625 41.53125 
Q 23.09375 38.671875 22.3125 33.296875 
z
" id="DejaVuSans-Bold-65"/>
    </defs>
    <g transform="translate(122.902344 37.2)scale(0.25 -0.25)">
     <use xlink:href="#DejaVuSans-Bold-4f"/>
     <use x="85.009766" xlink:href="#DejaVuSans-Bold-62"/>
     <use x="156.591797" xlink:href="#DejaVuSans-Bold-73"/>
     <use x="216.113281" xlink:href="#DejaVuSans-Bold-74"/>
     <use x="263.916016" xlink:href="#DejaVuSans-Bold-61"/>
     <use x="331.396484" xlink:href="#DejaVuSans-Bold-63"/>
     <use x="390.673828" xlink:href="#DejaVuSans-Bold-6c"/>
     <use x="424.951172" xlink:href="#DejaVuSans-Bold-65"/>
    </g>
   </g>
  </g>
 </g>
 <defs>
  <clipPath id="p16d0017eca">
   <rect height="277.2" width="277.2" x="45.9" y="43.2"/>
  </clipPath>
 </defs>
</svg>
