<?xml version="1.0" encoding="utf-8" standalone="no"?>
<!DOCTYPE svg PUBLIC "-//W3C//DTD SVG 1.1//EN"
  "http://www.w3.org/Graphics/SVG/1.1/DTD/svg11.dtd">
<!-- Created with matplotlib (http://matplotlib.org/) -->
<svg height="360pt" version="1.1" viewBox="0 0 360 360" width="360pt" xmlns="http://www.w3.org/2000/svg" xmlns:xlink="http://www.w3.org/1999/xlink">
 <defs>
  <style type="text/css">
*{stroke-linecap:butt;stroke-linejoin:round;}
  </style>
 </defs>
 <g id="figure_1">
  <g id="patch_1">
   <path d="M 0 360 
L 360 360 
L 360 0 
L 0 0 
z
" style="fill:#ffffff;"/>
  </g>
  <g id="axes_1">
   <g id="patch_2">
    <path d="M 45.9 320.4 
L 323.1 320.4 
L 323.1 43.2 
L 45.9 43.2 
z
" style="fill:#eaeaf2;"/>
   </g>
   <g id="patch_3">
    <path clip-path="url(#p833f55558b)" d="M 160.1064 -124.2288 
C 163.782115 -124.2288 167.307777 -125.689177 169.9069 -128.2883 
C 172.506023 -130.887423 173.9664 -134.413085 173.9664 -138.0888 
C 173.9664 -141.764515 172.506023 -145.290177 169.9069 -147.8893 
C 167.307777 -150.488423 163.782115 -151.9488 160.1064 -151.9488 
C 156.430685 -151.9488 152.905023 -150.488423 150.3059 -147.8893 
C 147.706777 -145.290177 146.2464 -141.764515 146.2464 -138.0888 
C 146.2464 -134.413085 147.706777 -130.887423 150.3059 -128.2883 
C 152.905023 -125.689177 156.430685 -124.2288 160.1064 -124.2288 
z
" style="fill:#008000;opacity:0.6;stroke:#000000;stroke-linejoin:miter;"/>
   </g>
   <g id="patch_4">
    <path clip-path="url(#p833f55558b)" d="M 184.5 285.75 
C 212.067862 285.75 238.510328 274.797172 258.00375 255.30375 
C 277.497172 235.810328 288.45 209.367862 288.45 181.8 
C 288.45 154.232138 277.497172 127.789672 258.00375 108.29625 
C 238.510328 88.802828 212.067862 77.85 184.5 77.85 
C 156.932138 77.85 130.489672 88.802828 110.99625 108.29625 
C 91.502828 127.789672 80.55 154.232138 80.55 181.8 
C 80.55 209.367862 91.502828 235.810328 110.99625 255.30375 
C 130.489672 274.797172 156.932138 285.75 184.5 285.75 
z
" style="opacity:0.1;stroke:#000000;stroke-linejoin:miter;"/>
   </g>
   <g id="patch_5">
    <path clip-path="url(#p833f55558b)" d="M 184.5 216.45 
C 193.689287 216.45 202.503443 212.799057 209.00125 206.30125 
C 215.499057 199.803443 219.15 190.989287 219.15 181.8 
C 219.15 172.610713 215.499057 163.796557 209.00125 157.29875 
C 202.503443 150.800943 193.689287 147.15 184.5 147.15 
C 175.310713 147.15 166.496557 150.800943 159.99875 157.29875 
C 153.500943 163.796557 149.85 172.610713 149.85 181.8 
C 149.85 190.989287 153.500943 199.803443 159.99875 206.30125 
C 166.496557 212.799057 175.310713 216.45 184.5 216.45 
z
" style="fill:#ff0000;opacity:0.2;stroke:#ff0000;stroke-linejoin:miter;"/>
   </g>
   <g id="line2d_1">
    <path clip-path="url(#p833f55558b)" d="M 109.728085 361 
L 110.370797 353.408964 
L 110.994925 344.006052 
L 111.424386 334.532571 
L 111.624572 324.995148 
L 111.596483 318.622099 
L 111.402946 312.270931 
L 110.725647 299.76049 
L 110.010149 290.393594 
L 109.087308 281.021465 
L 107.939815 271.657669 
L 106.547646 262.311885 
L 104.920315 253.01058 
L 103.058998 243.773527 
L 100.958441 234.614971 
L 98.591579 225.536109 
L 96.000302 216.568406 
L 95.874868 213.946104 
L 94.373604 205.921528 
L 93.143368 200.577458 
L 91.698939 195.221815 
L 89.301328 187.24065 
L 86.75112 179.385564 
L 84.037731 171.654673 
L 80.205082 161.562976 
L 75.283417 149.390396 
L 68.477326 133.253688 
L 64.028849 122.441169 
L 60.899084 114.255085 
L 58.165578 106.464281 
L 57.046945 102.727108 
L 56.14401 99.105971 
L 55.448643 95.598289 
L 54.98202 92.199098 
L 54.5825 87.275736 
L 53.645391 70.413752 
L 53.599296 64.634161 
L 53.789049 60.415455 
L 54.539976 52.260856 
L 55.292486 45.677148 
L 56.28009 39.266399 
L 58.749344 24.231138 
L 60.157476 18.143129 
L 61.790327 10.938865 
L 63.082364 4.971465 
L 64.122277 -1 
L 64.122277 -1 
" style="fill:none;stroke:#000000;stroke-linecap:square;stroke-width:1.5;"/>
   </g>
   <g id="line2d_2">
    <path clip-path="url(#p833f55558b)" d="M 112.708158 361 
L 113.407593 351.972937 
L 113.943851 342.643873 
L 114.302357 333.261342 
L 114.460603 323.811404 
L 114.390746 314.304833 
L 114.039591 304.782446 
L 113.360972 295.325991 
L 112.435502 285.978252 
L 110.937005 273.637551 
L 109.243219 261.431399 
L 105.988707 238.335757 
L 104.460864 227.57737 
L 102.811532 217.114834 
L 102.451776 212.326917 
L 102.405795 207.890968 
L 102.415308 205.370851 
L 102.092419 205.241882 
L 101.869821 205.290735 
L 101.923072 205.453881 
L 102.158374 205.695247 
L 105.092017 208.163854 
L 106.864373 209.839237 
L 108.339742 211.629285 
L 108.818162 212.432679 
L 109.076392 213.099681 
L 109.115122 213.594761 
L 108.953201 213.891593 
L 108.617146 213.969747 
L 108.13253 213.827916 
L 107.531205 213.47946 
L 106.077932 212.257915 
L 104.443443 210.482958 
L 102.713147 208.262055 
L 100.054304 204.415249 
L 96.019113 200.804403 
L 94.069213 198.699758 
L 92.144736 196.30928 
L 91.326994 195.060268 
L 90.635359 193.797895 
L 89.591231 191.247351 
L 88.861655 188.639378 
L 88.46248 186.014048 
L 88.284541 182.046418 
L 88.393893 178.00224 
L 88.710244 175.334775 
L 89.366316 172.780536 
L 90.385381 170.389571 
L 91.680092 168.187439 
L 94.753069 163.386656 
L 96.148613 160.794446 
L 97.682816 157.403593 
L 99.209852 153.861559 
L 100.153684 152.07633 
L 101.268555 150.352691 
L 103.020183 147.95308 
L 103.465796 147.169756 
L 103.764806 146.359973 
L 103.895815 145.501085 
L 103.86431 144.579499 
L 103.394775 142.540087 
L 102.558148 140.26399 
L 97.793415 128.532489 
L 95.640981 121.950836 
L 93.000606 115.378919 
L 91.24357 110.183347 
L 89.928969 106.06598 
L 89.255644 103.266577 
L 88.800269 100.465391 
L 88.115841 93.43553 
L 87.740943 89.145443 
L 87.647217 84.875218 
L 87.606278 82.027735 
L 87.245809 77.684308 
L 87.000136 74.77324 
L 86.970881 71.896691 
L 87.279644 69.089962 
L 88.092732 64.968825 
L 91.007164 51.504847 
L 91.729636 46.164223 
L 92.971253 37.024149 
L 93.598343 33.210774 
L 94.309097 30.724775 
L 99.987032 13.947195 
L 102.060541 6.849923 
L 102.936896 4.537002 
L 103.969583 2.274166 
L 105.74093 -1 
L 105.74093 -1 
" style="fill:none;stroke:#ff0000;stroke-linecap:square;stroke-width:1.5;"/>
   </g>
   <g id="line2d_3">
    <path clip-path="url(#p833f55558b)" d="M 111.564546 361 
L 112.417185 353.083055 
L 113.255734 343.136827 
L 113.838735 333.151545 
L 114.159754 323.146295 
L 114.214079 313.139149 
L 113.99799 303.147269 
L 113.684522 296.507208 
L 113.213044 289.908701 
L 112.240317 280.130467 
L 111.009267 270.546468 
L 109.543318 261.193779 
L 108.409977 255.075174 
L 106.455767 246.024216 
L 104.309914 237.081955 
L 101.980527 228.201364 
L 97.849256 213.632249 
L 93.839013 199.625289 
L 90.777006 188.938698 
L 88.316335 181.077738 
L 84.766872 170.734115 
L 81.413768 160.797302 
L 79.378218 153.808022 
L 77.750073 147.226587 
L 72.306605 123.10826 
L 71.638986 119.344914 
L 71.18625 115.695634 
L 71.013157 112.192438 
L 71.184518 108.869908 
L 71.414958 107.284491 
L 71.749995 105.752455 
L 72.196286 104.275566 
L 72.755636 102.854444 
L 74.183685 100.173738 
L 75.911765 97.680304 
L 81.093597 90.781708 
L 82.453979 88.529364 
L 83.571173 86.259888 
L 84.424182 83.950067 
L 84.97714 81.572452 
L 85.201876 79.102157 
L 85.106673 76.527502 
L 84.579134 72.506331 
L 84.049191 68.406937 
L 83.871337 65.681223 
L 83.867907 60.280187 
L 83.798588 46.674246 
L 83.668696 43.90558 
L 83.380901 41.091806 
L 82.06321 31.051556 
L 82.020423 28.225793 
L 82.265793 24.062387 
L 83.45825 10.579007 
L 83.369942 6.552882 
L 82.861399 -1 
L 82.861399 -1 
" style="fill:none;stroke:#008000;stroke-linecap:square;stroke-width:1.5;"/>
   </g>
   <g id="line2d_4">
    <path clip-path="url(#p833f55558b)" d="M 113.975194 361 
L 114.878738 351.52445 
L 115.558893 341.803903 
L 116.003854 332.061932 
L 116.216433 322.298151 
L 116.192614 312.516554 
L 115.92734 302.721314 
L 115.405885 292.926072 
L 114.619938 283.154508 
L 113.578618 273.420862 
L 112.277006 263.738368 
L 110.730002 254.131192 
L 108.965289 244.628489 
L 106.972534 235.234576 
L 104.766244 225.963576 
L 102.392096 216.842438 
L 99.853985 207.876117 
L 98.041656 201.976652 
L 97.220847 199.467711 
L 95.847669 197.279936 
L 95.192409 195.675518 
L 94.423417 192.868941 
L 93.057814 187.37599 
L 92.682718 184.968213 
L 92.523566 182.541564 
L 92.589993 180.143487 
L 92.857116 177.799033 
L 93.304098 175.529109 
L 93.910141 173.350834 
L 94.653364 171.277788 
L 95.983723 168.385633 
L 97.005425 166.61558 
L 98.176043 165.005836 
L 99.56283 163.603184 
L 101.920473 161.91491 
L 102.089473 161.189084 
L 102.973053 159.247487 
L 103.862716 156.833699 
L 104.004119 155.423835 
L 103.870485 153.715479 
L 103.437128 151.687083 
L 102.723629 149.357357 
L 101.185176 145.353321 
L 99.844477 142.377463 
L 98.195553 139.175755 
L 92.38114 128.733903 
L 90.902382 125.242396 
L 89.821959 121.828205 
L 89.064347 118.494428 
L 88.553435 115.229383 
L 88.121692 110.447687 
L 87.661346 102.613511 
L 87.674808 99.554557 
L 87.927348 96.582301 
L 88.406515 93.708683 
L 90.358818 84.077541 
L 91.242954 77.274866 
L 92.281567 69.198849 
L 92.79525 66.565701 
L 93.467351 63.990128 
L 95.262162 57.832528 
L 95.686982 55.400284 
L 95.929619 52.938234 
L 96.057416 49.174483 
L 95.913413 44.023411 
L 95.809943 40.107981 
L 95.97141 33.58851 
L 96.139508 28.365931 
L 96.631824 21.913477 
L 96.917731 12.815757 
L 97.514302 7.711314 
L 98.225933 2.673772 
L 98.95014 -1 
L 98.95014 -1 
" style="fill:none;stroke:#0000ff;stroke-linecap:square;stroke-width:1.5;"/>
   </g>
   <g id="patch_6">
    <path d="M 45.9 320.4 
L 45.9 43.2 
" style="fill:none;stroke:#000000;stroke-linecap:square;stroke-linejoin:miter;stroke-width:0.8;"/>
   </g>
   <g id="patch_7">
    <path d="M 323.1 320.4 
L 323.1 43.2 
" style="fill:none;stroke:#000000;stroke-linecap:square;stroke-linejoin:miter;stroke-width:0.8;"/>
   </g>
   <g id="patch_8">
    <path d="M 45.9 320.4 
L 323.1 320.4 
" style="fill:none;stroke:#000000;stroke-linecap:square;stroke-linejoin:miter;stroke-width:0.8;"/>
   </g>
   <g id="patch_9">
    <path d="M 45.9 43.2 
L 323.1 43.2 
" style="fill:none;stroke:#000000;stroke-linecap:square;stroke-linejoin:miter;stroke-width:0.8;"/>
   </g>
   <g id="text_1">
    <!-- Obstacle -->
    <defs>
     <path d="M 42.484375 60.59375 
Q 33.890625 60.59375 29.15625 54.25 
Q 24.421875 47.90625 24.421875 36.375 
Q 24.421875 24.90625 29.15625 18.546875 
Q 33.890625 12.203125 42.484375 12.203125 
Q 51.125 12.203125 55.859375 18.546875 
Q 60.59375 24.90625 60.59375 36.375 
Q 60.59375 47.90625 55.859375 54.25 
Q 51.125 60.59375 42.484375 60.59375 
z
M 42.484375 74.21875 
Q 60.0625 74.21875 70.015625 64.15625 
Q 79.984375 54.109375 79.984375 36.375 
Q 79.984375 18.703125 70.015625 8.640625 
Q 60.0625 -1.421875 42.484375 -1.421875 
Q 24.953125 -1.421875 14.96875 8.640625 
Q 4.984375 18.703125 4.984375 36.375 
Q 4.984375 54.109375 14.96875 64.15625 
Q 24.953125 74.21875 42.484375 74.21875 
z
" id="DejaVuSans-Bold-4f"/>
     <path d="M 37.5 11.28125 
Q 43.109375 11.28125 46.0625 15.375 
Q 49.03125 19.484375 49.03125 27.296875 
Q 49.03125 35.109375 46.0625 39.203125 
Q 43.109375 43.3125 37.5 43.3125 
Q 31.890625 43.3125 28.875 39.1875 
Q 25.875 35.0625 25.875 27.296875 
Q 25.875 19.53125 28.875 15.40625 
Q 31.890625 11.28125 37.5 11.28125 
z
M 25.875 46.6875 
Q 29.5 51.46875 33.890625 53.734375 
Q 38.28125 56 44 56 
Q 54.109375 56 60.59375 47.96875 
Q 67.09375 39.9375 67.09375 27.296875 
Q 67.09375 14.65625 60.59375 6.609375 
Q 54.109375 -1.421875 44 -1.421875 
Q 38.28125 -1.421875 33.890625 0.84375 
Q 29.5 3.125 25.875 7.90625 
L 25.875 0 
L 8.40625 0 
L 8.40625 75.984375 
L 25.875 75.984375 
z
" id="DejaVuSans-Bold-62"/>
     <path d="M 51.125 52.984375 
L 51.125 39.703125 
Q 45.515625 42.046875 40.28125 43.21875 
Q 35.0625 44.390625 30.421875 44.390625 
Q 25.4375 44.390625 23.015625 43.140625 
Q 20.609375 41.890625 20.609375 39.3125 
Q 20.609375 37.203125 22.4375 36.078125 
Q 24.265625 34.96875 29 34.421875 
L 32.078125 33.984375 
Q 45.515625 32.28125 50.140625 28.375 
Q 54.78125 24.46875 54.78125 16.109375 
Q 54.78125 7.375 48.328125 2.96875 
Q 41.890625 -1.421875 29.109375 -1.421875 
Q 23.6875 -1.421875 17.890625 -0.5625 
Q 12.109375 0.296875 6 2 
L 6 15.28125 
Q 11.234375 12.75 16.71875 11.46875 
Q 22.21875 10.203125 27.875 10.203125 
Q 33.015625 10.203125 35.59375 11.609375 
Q 38.1875 13.03125 38.1875 15.828125 
Q 38.1875 18.171875 36.40625 19.3125 
Q 34.625 20.453125 29.296875 21.09375 
L 26.21875 21.484375 
Q 14.546875 22.953125 9.859375 26.90625 
Q 5.171875 30.859375 5.171875 38.921875 
Q 5.171875 47.609375 11.125 51.796875 
Q 17.09375 56 29.390625 56 
Q 34.234375 56 39.546875 55.265625 
Q 44.875 54.546875 51.125 52.984375 
z
" id="DejaVuSans-Bold-73"/>
     <path d="M 27.484375 70.21875 
L 27.484375 54.6875 
L 45.515625 54.6875 
L 45.515625 42.1875 
L 27.484375 42.1875 
L 27.484375 19 
Q 27.484375 15.1875 29 13.84375 
Q 30.515625 12.5 35.015625 12.5 
L 44 12.5 
L 44 0 
L 29 0 
Q 18.65625 0 14.328125 4.3125 
Q 10.015625 8.640625 10.015625 19 
L 10.015625 42.1875 
L 1.3125 42.1875 
L 1.3125 54.6875 
L 10.015625 54.6875 
L 10.015625 70.21875 
z
" id="DejaVuSans-Bold-74"/>
     <path d="M 32.90625 24.609375 
Q 27.4375 24.609375 24.671875 22.75 
Q 21.921875 20.90625 21.921875 17.28125 
Q 21.921875 13.96875 24.140625 12.078125 
Q 26.375 10.203125 30.328125 10.203125 
Q 35.25 10.203125 38.625 13.734375 
Q 42 17.28125 42 22.609375 
L 42 24.609375 
z
M 59.625 31.203125 
L 59.625 0 
L 42 0 
L 42 8.109375 
Q 38.484375 3.125 34.078125 0.84375 
Q 29.6875 -1.421875 23.390625 -1.421875 
Q 14.890625 -1.421875 9.59375 3.53125 
Q 4.296875 8.5 4.296875 16.40625 
Q 4.296875 26.03125 10.90625 30.515625 
Q 17.53125 35.015625 31.6875 35.015625 
L 42 35.015625 
L 42 36.375 
Q 42 40.53125 38.71875 42.453125 
Q 35.453125 44.390625 28.515625 44.390625 
Q 22.90625 44.390625 18.0625 43.265625 
Q 13.234375 42.140625 9.078125 39.890625 
L 9.078125 53.21875 
Q 14.703125 54.59375 20.359375 55.296875 
Q 26.03125 56 31.6875 56 
Q 46.484375 56 53.046875 50.171875 
Q 59.625 44.34375 59.625 31.203125 
z
" id="DejaVuSans-Bold-61"/>
     <path d="M 52.59375 52.984375 
L 52.59375 38.71875 
Q 49.03125 41.15625 45.4375 42.328125 
Q 41.84375 43.5 37.984375 43.5 
Q 30.671875 43.5 26.59375 39.234375 
Q 22.515625 34.96875 22.515625 27.296875 
Q 22.515625 19.625 26.59375 15.34375 
Q 30.671875 11.078125 37.984375 11.078125 
Q 42.09375 11.078125 45.78125 12.296875 
Q 49.46875 13.53125 52.59375 15.921875 
L 52.59375 1.609375 
Q 48.484375 0.09375 44.265625 -0.65625 
Q 40.046875 -1.421875 35.796875 -1.421875 
Q 21 -1.421875 12.640625 6.171875 
Q 4.296875 13.765625 4.296875 27.296875 
Q 4.296875 40.828125 12.640625 48.40625 
Q 21 56 35.796875 56 
Q 40.09375 56 44.265625 55.25 
Q 48.4375 54.5 52.59375 52.984375 
z
" id="DejaVuSans-Bold-63"/>
     <path d="M 8.40625 75.984375 
L 25.875 75.984375 
L 25.875 0 
L 8.40625 0 
z
" id="DejaVuSans-Bold-6c"/>
     <path d="M 62.984375 27.484375 
L 62.984375 22.515625 
L 22.125 22.515625 
Q 22.75 16.359375 26.5625 13.28125 
Q 30.375 10.203125 37.203125 10.203125 
Q 42.71875 10.203125 48.5 11.84375 
Q 54.296875 13.484375 60.40625 16.796875 
L 60.40625 3.328125 
Q 54.203125 0.984375 48 -0.21875 
Q 41.796875 -1.421875 35.59375 -1.421875 
Q 20.75 -1.421875 12.515625 6.125 
Q 4.296875 13.671875 4.296875 27.296875 
Q 4.296875 40.671875 12.375 48.328125 
Q 20.453125 56 34.625 56 
Q 47.515625 56 55.25 48.234375 
Q 62.984375 40.484375 62.984375 27.484375 
z
M 45.015625 33.296875 
Q 45.015625 38.28125 42.109375 41.328125 
Q 39.203125 44.390625 34.515625 44.390625 
Q 29.4375 44.390625 26.265625 41.53125 
Q 23.09375 38.671875 22.3125 33.296875 
z
" id="DejaVuSans-Bold-65"/>
    </defs>
    <g transform="translate(122.902344 37.2)scale(0.25 -0.25)">
     <use xlink:href="#DejaVuSans-Bold-4f"/>
     <use x="85.009766" xlink:href="#DejaVuSans-Bold-62"/>
     <use x="156.591797" xlink:href="#DejaVuSans-Bold-73"/>
     <use x="216.113281" xlink:href="#DejaVuSans-Bold-74"/>
     <use x="263.916016" xlink:href="#DejaVuSans-Bold-61"/>
     <use x="331.396484" xlink:href="#DejaVuSans-Bold-63"/>
     <use x="390.673828" xlink:href="#DejaVuSans-Bold-6c"/>
     <use x="424.951172" xlink:href="#DejaVuSans-Bold-65"/>
    </g>
   </g>
  </g>
 </g>
 <defs>
  <clipPath id="p833f55558b">
   <rect height="277.2" width="277.2" x="45.9" y="43.2"/>
  </clipPath>
 </defs>
</svg>
