<?xml version="1.0" encoding="utf-8" standalone="no"?>
<!DOCTYPE svg PUBLIC "-//W3C//DTD SVG 1.1//EN"
  "http://www.w3.org/Graphics/SVG/1.1/DTD/svg11.dtd">
<!-- Created with matplotlib (http://matplotlib.org/) -->
<svg height="360pt" version="1.1" viewBox="0 0 360 360" width="360pt" xmlns="http://www.w3.org/2000/svg" xmlns:xlink="http://www.w3.org/1999/xlink">
 <defs>
  <style type="text/css">
*{stroke-linecap:butt;stroke-linejoin:round;}
  </style>
 </defs>
 <g id="figure_1">
  <g id="patch_1">
   <path d="M 0 360 
L 360 360 
L 360 0 
L 0 0 
z
" style="fill:#ffffff;"/>
  </g>
  <g id="axes_1">
   <g id="patch_2">
    <path d="M 45.9 320.4 
L 323.1 320.4 
L 323.1 43.2 
L 45.9 43.2 
z
" style="fill:#eaeaf2;"/>
   </g>
   <g id="patch_3">
    <path clip-path="url(#pd9c1cda128)" d="M 160.1064 -124.2288 
C 163.782115 -124.2288 167.307777 -125.689177 169.9069 -128.2883 
C 172.506023 -130.887423 173.9664 -134.413085 173.9664 -138.0888 
C 173.9664 -141.764515 172.506023 -145.290177 169.9069 -147.8893 
C 167.307777 -150.488423 163.782115 -151.9488 160.1064 -151.9488 
C 156.430685 -151.9488 152.905023 -150.488423 150.3059 -147.8893 
C 147.706777 -145.290177 146.2464 -141.764515 146.2464 -138.0888 
C 146.2464 -134.413085 147.706777 -130.887423 150.3059 -128.2883 
C 152.905023 -125.689177 156.430685 -124.2288 160.1064 -124.2288 
z
" style="fill:#008000;opacity:0.6;stroke:#000000;stroke-linejoin:miter;"/>
   </g>
   <g id="patch_4">
    <path clip-path="url(#pd9c1cda128)" d="M 184.5 285.75 
C 212.067862 285.75 238.510328 274.797172 258.00375 255.30375 
C 277.497172 235.810328 288.45 209.367862 288.45 181.8 
C 288.45 154.232138 277.497172 127.789672 258.00375 108.29625 
C 238.510328 88.802828 212.067862 77.85 184.5 77.85 
C 156.932138 77.85 130.489672 88.802828 110.99625 108.29625 
C 91.502828 127.789672 80.55 154.232138 80.55 181.8 
C 80.55 209.367862 91.502828 235.810328 110.99625 255.30375 
C 130.489672 274.797172 156.932138 285.75 184.5 285.75 
z
" style="opacity:0.1;stroke:#000000;stroke-linejoin:miter;"/>
   </g>
   <g id="patch_5">
    <path clip-path="url(#pd9c1cda128)" d="M 184.5 216.45 
C 193.689287 216.45 202.503443 212.799057 209.00125 206.30125 
C 215.499057 199.803443 219.15 190.989287 219.15 181.8 
C 219.15 172.610713 215.499057 163.796557 209.00125 157.29875 
C 202.503443 150.800943 193.689287 147.15 184.5 147.15 
C 175.310713 147.15 166.496557 150.800943 159.99875 157.29875 
C 153.500943 163.796557 149.85 172.610713 149.85 181.8 
C 149.85 190.989287 153.500943 199.803443 159.99875 206.30125 
C 166.496557 212.799057 175.310713 216.45 184.5 216.45 
z
" style="fill:#ff0000;opacity:0.2;stroke:#ff0000;stroke-linejoin:miter;"/>
   </g>
   <g id="line2d_1">
    <path clip-path="url(#pd9c1cda128)" d="M 113.44794 361 
L 114.105248 351.950606 
L 114.573561 342.711964 
L 114.848048 333.45223 
L 114.916507 324.159984 
L 114.771975 314.839132 
L 114.416434 305.493567 
L 113.860172 296.120621 
L 113.091223 286.715095 
L 112.089952 277.290555 
L 110.847932 267.868234 
L 109.36073 258.469522 
L 107.626069 249.114508 
L 105.644847 239.822541 
L 103.435219 230.618955 
L 101.020956 221.527776 
L 98.417157 212.566095 
L 95.644903 203.748088 
L 91.781831 192.255841 
L 87.66442 181.045174 
L 83.367379 170.138146 
L 80.00549 162.150604 
L 75.34381 151.754874 
L 71.719803 144.148481 
L 66.721432 134.25777 
L 60.338533 122.299918 
L 56.439306 115.349411 
L 49.695547 104.086037 
L 45.569438 97.52753 
L 39.97043 89.004796 
L 34.283265 80.731041 
L 27.10811 70.72118 
L 19.692104 61.098388 
L 6.909301 44.50858 
L 4.609459 40.94516 
L 2.763269 37.431985 
L 1.368627 33.985704 
L 0.356812 30.630549 
L -0.331097 27.372487 
L -0.751509 24.207049 
L -0.943566 21.131041 
L -0.921708 18.140428 
L -0.721337 15.228103 
L -0.173804 10.993219 
L 0.626322 6.902755 
L 1.64494 2.938031 
L 2.472607 0.360253 
L 3.003977 -1 
L 3.003977 -1 
" style="fill:none;stroke:#000000;stroke-linecap:square;stroke-width:1.5;"/>
   </g>
   <g id="line2d_2">
    <path clip-path="url(#pd9c1cda128)" d="M 117.03224 361 
L 117.797169 353.333877 
L 118.557887 343.718268 
L 119.095018 334.008934 
L 119.361501 324.242594 
L 119.338476 314.478859 
L 119.150867 307.997226 
L 118.591508 298.366477 
L 117.738712 288.886375 
L 116.624984 279.561762 
L 115.269043 270.381618 
L 113.657006 261.34693 
L 111.583328 249.771773 
L 109.649636 238.534273 
L 107.927306 230.203226 
L 106.594297 224.780486 
L 104.96229 219.320343 
L 102.197484 211.125262 
L 99.202898 203.005699 
L 97.99588 202.029821 
L 96.316388 200.536028 
L 94.511653 198.569787 
L 92.623301 196.207025 
L 89.660378 192.040821 
L 86.546073 187.261676 
L 81.002211 178.26756 
L 73.823003 166.3467 
L 71.53994 162.239531 
L 69.465875 158.150769 
L 67.692696 154.126788 
L 66.252922 150.194016 
L 65.139349 146.359098 
L 64.299005 142.619639 
L 62.679806 133.634983 
L 62.121222 131.807669 
L 60.630956 128.051147 
L 58.785785 124.188088 
L 55.670689 118.272067 
L 46.096247 100.393239 
L 44.545035 96.590256 
L 43.968424 94.73516 
L 43.545183 92.909567 
L 43.273393 91.115346 
L 43.122617 87.62873 
L 43.342417 84.307284 
L 43.947109 81.166925 
L 44.910472 78.201842 
L 46.730049 74.004616 
L 49.094851 68.658199 
L 50.082499 66.025618 
L 50.894468 63.391068 
L 52.632867 56.864897 
L 53.700119 54.379197 
L 55.036454 51.982964 
L 56.545419 49.665766 
L 58.240224 47.439021 
L 61.052227 44.250852 
L 65.631269 39.151822 
L 68.888078 35.133007 
L 71.066121 32.103177 
L 72.337808 30.050496 
L 73.430387 27.967064 
L 75.928101 22.722953 
L 77.231097 20.653407 
L 79.455025 17.61408 
L 87.716604 7.138793 
L 89.825501 4.49799 
L 91.391874 2.823833 
L 93.989905 0.424602 
L 95.646401 -1 
L 95.646401 -1 
" style="fill:none;stroke:#ff0000;stroke-linecap:square;stroke-width:1.5;"/>
   </g>
   <g id="line2d_3">
    <path clip-path="url(#pd9c1cda128)" d="M 108.514112 361 
L 109.150677 352.865662 
L 109.664303 343.546002 
L 109.975538 334.211186 
L 110.060262 324.8541 
L 109.872758 315.504154 
L 109.401622 306.213298 
L 108.689506 297.005748 
L 107.465921 284.804225 
L 106.337471 275.645474 
L 104.988611 266.476494 
L 103.407494 257.316577 
L 101.602902 248.194206 
L 98.349169 233.247986 
L 95.681957 221.618376 
L 92.045076 207.602246 
L 89.474943 199.224202 
L 86.670343 190.933925 
L 76.616049 161.988438 
L 69.500041 140.753634 
L 65.514019 129.766851 
L 63.558993 123.441865 
L 61.042148 115.279998 
L 59.648613 111.293654 
L 58.049314 107.339622 
L 56.168783 103.382948 
L 54.069431 99.442353 
L 51.74937 95.513138 
L 44.67763 83.982607 
L 42.887769 80.379578 
L 41.389193 76.880438 
L 39.473332 71.766317 
L 38.437752 68.448375 
L 38.067531 66.821938 
L 37.871762 65.222635 
L 37.899008 63.658466 
L 38.177289 62.144393 
L 38.646451 60.685855 
L 39.964397 57.904391 
L 41.575495 55.276555 
L 43.344422 52.778572 
L 46.160099 49.236438 
L 51.691159 42.632132 
L 53.143591 40.484797 
L 54.303704 38.341908 
L 55.16895 36.184213 
L 55.76835 33.998883 
L 58.42861 21.461105 
L 59.230268 19.122006 
L 61.964007 12.263349 
L 63.125059 10.054781 
L 64.631647 7.8968 
L 67.176114 4.761197 
L 70.745248 0.750688 
L 72.377758 -1 
L 72.377758 -1 
" style="fill:none;stroke:#008000;stroke-linecap:square;stroke-width:1.5;"/>
   </g>
   <g id="line2d_4">
    <path clip-path="url(#pd9c1cda128)" d="M 112.192139 361 
L 112.722427 354.149825 
L 113.241229 344.952305 
L 113.541214 335.726858 
L 113.63337 326.480288 
L 113.51455 317.212489 
L 113.182473 307.926856 
L 112.643136 298.62445 
L 111.899963 289.299585 
L 110.94002 279.953035 
L 109.748183 270.598389 
L 108.316275 261.256082 
L 106.640471 251.947025 
L 104.719144 242.690905 
L 102.581414 233.519375 
L 100.261567 224.463019 
L 96.919 212.595474 
L 94.410523 204.102077 
L 91.63217 195.625414 
L 87.680437 184.511537 
L 82.613899 171.025159 
L 78.507731 160.571946 
L 75.282687 152.901331 
L 70.784083 142.892743 
L 67.264094 135.554511 
L 59.19187 119.19025 
L 56.291696 112.553842 
L 52.86526 104.077055 
L 50.696748 98.022215 
L 48.858185 92.205461 
L 46.709679 84.824869 
L 45.302259 81.188672 
L 40.623326 70.57205 
L 38.243837 65.421312 
L 34.232902 56.951879 
L 33.642847 55.295705 
L 33.21851 53.661137 
L 33.011113 52.05417 
L 33.034719 50.483265 
L 33.248851 48.959848 
L 33.639766 47.484768 
L 34.175124 46.053052 
L 35.533796 43.30322 
L 37.122558 40.687678 
L 39.73407 36.979012 
L 42.498129 33.486102 
L 46.316551 29.098177 
L 55.459946 18.91314 
L 57.045535 16.924714 
L 58.399864 14.904555 
L 61.383007 9.775445 
L 66.792646 1.63628 
L 68.888366 -1 
L 68.888366 -1 
" style="fill:none;stroke:#0000ff;stroke-linecap:square;stroke-width:1.5;"/>
   </g>
   <g id="patch_6">
    <path d="M 45.9 320.4 
L 45.9 43.2 
" style="fill:none;stroke:#000000;stroke-linecap:square;stroke-linejoin:miter;stroke-width:0.8;"/>
   </g>
   <g id="patch_7">
    <path d="M 323.1 320.4 
L 323.1 43.2 
" style="fill:none;stroke:#000000;stroke-linecap:square;stroke-linejoin:miter;stroke-width:0.8;"/>
   </g>
   <g id="patch_8">
    <path d="M 45.9 320.4 
L 323.1 320.4 
" style="fill:none;stroke:#000000;stroke-linecap:square;stroke-linejoin:miter;stroke-width:0.8;"/>
   </g>
   <g id="patch_9">
    <path d="M 45.9 43.2 
L 323.1 43.2 
" style="fill:none;stroke:#000000;stroke-linecap:square;stroke-linejoin:miter;stroke-width:0.8;"/>
   </g>
   <g id="text_1">
    <!-- Obstacle -->
    <defs>
     <path d="M 42.484375 60.59375 
Q 33.890625 60.59375 29.15625 54.25 
Q 24.421875 47.90625 24.421875 36.375 
Q 24.421875 24.90625 29.15625 18.546875 
Q 33.890625 12.203125 42.484375 12.203125 
Q 51.125 12.203125 55.859375 18.546875 
Q 60.59375 24.90625 60.59375 36.375 
Q 60.59375 47.90625 55.859375 54.25 
Q 51.125 60.59375 42.484375 60.59375 
z
M 42.484375 74.21875 
Q 60.0625 74.21875 70.015625 64.15625 
Q 79.984375 54.109375 79.984375 36.375 
Q 79.984375 18.703125 70.015625 8.640625 
Q 60.0625 -1.421875 42.484375 -1.421875 
Q 24.953125 -1.421875 14.96875 8.640625 
Q 4.984375 18.703125 4.984375 36.375 
Q 4.984375 54.109375 14.96875 64.15625 
Q 24.953125 74.21875 42.484375 74.21875 
z
" id="DejaVuSans-Bold-4f"/>
     <path d="M 37.5 11.28125 
Q 43.109375 11.28125 46.0625 15.375 
Q 49.03125 19.484375 49.03125 27.296875 
Q 49.03125 35.109375 46.0625 39.203125 
Q 43.109375 43.3125 37.5 43.3125 
Q 31.890625 43.3125 28.875 39.1875 
Q 25.875 35.0625 25.875 27.296875 
Q 25.875 19.53125 28.875 15.40625 
Q 31.890625 11.28125 37.5 11.28125 
z
M 25.875 46.6875 
Q 29.5 51.46875 33.890625 53.734375 
Q 38.28125 56 44 56 
Q 54.109375 56 60.59375 47.96875 
Q 67.09375 39.9375 67.09375 27.296875 
Q 67.09375 14.65625 60.59375 6.609375 
Q 54.109375 -1.421875 44 -1.421875 
Q 38.28125 -1.421875 33.890625 0.84375 
Q 29.5 3.125 25.875 7.90625 
L 25.875 0 
L 8.40625 0 
L 8.40625 75.984375 
L 25.875 75.984375 
z
" id="DejaVuSans-Bold-62"/>
     <path d="M 51.125 52.984375 
L 51.125 39.703125 
Q 45.515625 42.046875 40.28125 43.21875 
Q 35.0625 44.390625 30.421875 44.390625 
Q 25.4375 44.390625 23.015625 43.140625 
Q 20.609375 41.890625 20.609375 39.3125 
Q 20.609375 37.203125 22.4375 36.078125 
Q 24.265625 34.96875 29 34.421875 
L 32.078125 33.984375 
Q 45.515625 32.28125 50.140625 28.375 
Q 54.78125 24.46875 54.78125 16.109375 
Q 54.78125 7.375 48.328125 2.96875 
Q 41.890625 -1.421875 29.109375 -1.421875 
Q 23.6875 -1.421875 17.890625 -0.5625 
Q 12.109375 0.296875 6 2 
L 6 15.28125 
Q 11.234375 12.75 16.71875 11.46875 
Q 22.21875 10.203125 27.875 10.203125 
Q 33.015625 10.203125 35.59375 11.609375 
Q 38.1875 13.03125 38.1875 15.828125 
Q 38.1875 18.171875 36.40625 19.3125 
Q 34.625 20.453125 29.296875 21.09375 
L 26.21875 21.484375 
Q 14.546875 22.953125 9.859375 26.90625 
Q 5.171875 30.859375 5.171875 38.921875 
Q 5.171875 47.609375 11.125 51.796875 
Q 17.09375 56 29.390625 56 
Q 34.234375 56 39.546875 55.265625 
Q 44.875 54.546875 51.125 52.984375 
z
" id="DejaVuSans-Bold-73"/>
     <path d="M 27.484375 70.21875 
L 27.484375 54.6875 
L 45.515625 54.6875 
L 45.515625 42.1875 
L 27.484375 42.1875 
L 27.484375 19 
Q 27.484375 15.1875 29 13.84375 
Q 30.515625 12.5 35.015625 12.5 
L 44 12.5 
L 44 0 
L 29 0 
Q 18.65625 0 14.328125 4.3125 
Q 10.015625 8.640625 10.015625 19 
L 10.015625 42.1875 
L 1.3125 42.1875 
L 1.3125 54.6875 
L 10.015625 54.6875 
L 10.015625 70.21875 
z
" id="DejaVuSans-Bold-74"/>
     <path d="M 32.90625 24.609375 
Q 27.4375 24.609375 24.671875 22.75 
Q 21.921875 20.90625 21.921875 17.28125 
Q 21.921875 13.96875 24.140625 12.078125 
Q 26.375 10.203125 30.328125 10.203125 
Q 35.25 10.203125 38.625 13.734375 
Q 42 17.28125 42 22.609375 
L 42 24.609375 
z
M 59.625 31.203125 
L 59.625 0 
L 42 0 
L 42 8.109375 
Q 38.484375 3.125 34.078125 0.84375 
Q 29.6875 -1.421875 23.390625 -1.421875 
Q 14.890625 -1.421875 9.59375 3.53125 
Q 4.296875 8.5 4.296875 16.40625 
Q 4.296875 26.03125 10.90625 30.515625 
Q 17.53125 35.015625 31.6875 35.015625 
L 42 35.015625 
L 42 36.375 
Q 42 40.53125 38.71875 42.453125 
Q 35.453125 44.390625 28.515625 44.390625 
Q 22.90625 44.390625 18.0625 43.265625 
Q 13.234375 42.140625 9.078125 39.890625 
L 9.078125 53.21875 
Q 14.703125 54.59375 20.359375 55.296875 
Q 26.03125 56 31.6875 56 
Q 46.484375 56 53.046875 50.171875 
Q 59.625 44.34375 59.625 31.203125 
z
" id="DejaVuSans-Bold-61"/>
     <path d="M 52.59375 52.984375 
L 52.59375 38.71875 
Q 49.03125 41.15625 45.4375 42.328125 
Q 41.84375 43.5 37.984375 43.5 
Q 30.671875 43.5 26.59375 39.234375 
Q 22.515625 34.96875 22.515625 27.296875 
Q 22.515625 19.625 26.59375 15.34375 
Q 30.671875 11.078125 37.984375 11.078125 
Q 42.09375 11.078125 45.78125 12.296875 
Q 49.46875 13.53125 52.59375 15.921875 
L 52.59375 1.609375 
Q 48.484375 0.09375 44.265625 -0.65625 
Q 40.046875 -1.421875 35.796875 -1.421875 
Q 21 -1.421875 12.640625 6.171875 
Q 4.296875 13.765625 4.296875 27.296875 
Q 4.296875 40.828125 12.640625 48.40625 
Q 21 56 35.796875 56 
Q 40.09375 56 44.265625 55.25 
Q 48.4375 54.5 52.59375 52.984375 
z
" id="DejaVuSans-Bold-63"/>
     <path d="M 8.40625 75.984375 
L 25.875 75.984375 
L 25.875 0 
L 8.40625 0 
z
" id="DejaVuSans-Bold-6c"/>
     <path d="M 62.984375 27.484375 
L 62.984375 22.515625 
L 22.125 22.515625 
Q 22.75 16.359375 26.5625 13.28125 
Q 30.375 10.203125 37.203125 10.203125 
Q 42.71875 10.203125 48.5 11.84375 
Q 54.296875 13.484375 60.40625 16.796875 
L 60.40625 3.328125 
Q 54.203125 0.984375 48 -0.21875 
Q 41.796875 -1.421875 35.59375 -1.421875 
Q 20.75 -1.421875 12.515625 6.125 
Q 4.296875 13.671875 4.296875 27.296875 
Q 4.296875 40.671875 12.375 48.328125 
Q 20.453125 56 34.625 56 
Q 47.515625 56 55.25 48.234375 
Q 62.984375 40.484375 62.984375 27.484375 
z
M 45.015625 33.296875 
Q 45.015625 38.28125 42.109375 41.328125 
Q 39.203125 44.390625 34.515625 44.390625 
Q 29.4375 44.390625 26.265625 41.53125 
Q 23.09375 38.671875 22.3125 33.296875 
z
" id="DejaVuSans-Bold-65"/>
    </defs>
    <g transform="translate(122.902344 37.2)scale(0.25 -0.25)">
     <use xlink:href="#DejaVuSans-Bold-4f"/>
     <use x="85.009766" xlink:href="#DejaVuSans-Bold-62"/>
     <use x="156.591797" xlink:href="#DejaVuSans-Bold-73"/>
     <use x="216.113281" xlink:href="#DejaVuSans-Bold-74"/>
     <use x="263.916016" xlink:href="#DejaVuSans-Bold-61"/>
     <use x="331.396484" xlink:href="#DejaVuSans-Bold-63"/>
     <use x="390.673828" xlink:href="#DejaVuSans-Bold-6c"/>
     <use x="424.951172" xlink:href="#DejaVuSans-Bold-65"/>
    </g>
   </g>
  </g>
 </g>
 <defs>
  <clipPath id="pd9c1cda128">
   <rect height="277.2" width="277.2" x="45.9" y="43.2"/>
  </clipPath>
 </defs>
</svg>
