<?xml version="1.0" encoding="utf-8" standalone="no"?>
<!DOCTYPE svg PUBLIC "-//W3C//DTD SVG 1.1//EN"
  "http://www.w3.org/Graphics/SVG/1.1/DTD/svg11.dtd">
<!-- Created with matplotlib (http://matplotlib.org/) -->
<svg height="360pt" version="1.1" viewBox="0 0 360 360" width="360pt" xmlns="http://www.w3.org/2000/svg" xmlns:xlink="http://www.w3.org/1999/xlink">
 <defs>
  <style type="text/css">
*{stroke-linecap:butt;stroke-linejoin:round;}
  </style>
 </defs>
 <g id="figure_1">
  <g id="patch_1">
   <path d="M 0 360 
L 360 360 
L 360 0 
L 0 0 
z
" style="fill:#ffffff;"/>
  </g>
  <g id="axes_1">
   <g id="patch_2">
    <path d="M 45.9 320.4 
L 323.1 320.4 
L 323.1 43.2 
L 45.9 43.2 
z
" style="fill:#eaeaf2;"/>
   </g>
   <g id="patch_3">
    <path clip-path="url(#p14797782cb)" d="M 160.1064 -124.2288 
C 163.782115 -124.2288 167.307777 -125.689177 169.9069 -128.2883 
C 172.506023 -130.887423 173.9664 -134.413085 173.9664 -138.0888 
C 173.9664 -141.764515 172.506023 -145.290177 169.9069 -147.8893 
C 167.307777 -150.488423 163.782115 -151.9488 160.1064 -151.9488 
C 156.430685 -151.9488 152.905023 -150.488423 150.3059 -147.8893 
C 147.706777 -145.290177 146.2464 -141.764515 146.2464 -138.0888 
C 146.2464 -134.413085 147.706777 -130.887423 150.3059 -128.2883 
C 152.905023 -125.689177 156.430685 -124.2288 160.1064 -124.2288 
z
" style="fill:#008000;opacity:0.6;stroke:#000000;stroke-linejoin:miter;"/>
   </g>
   <g id="patch_4">
    <path clip-path="url(#p14797782cb)" d="M 184.5 285.75 
C 212.067862 285.75 238.510328 274.797172 258.00375 255.30375 
C 277.497172 235.810328 288.45 209.367862 288.45 181.8 
C 288.45 154.232138 277.497172 127.789672 258.00375 108.29625 
C 238.510328 88.802828 212.067862 77.85 184.5 77.85 
C 156.932138 77.85 130.489672 88.802828 110.99625 108.29625 
C 91.502828 127.789672 80.55 154.232138 80.55 181.8 
C 80.55 209.367862 91.502828 235.810328 110.99625 255.30375 
C 130.489672 274.797172 156.932138 285.75 184.5 285.75 
z
" style="opacity:0.1;stroke:#000000;stroke-linejoin:miter;"/>
   </g>
   <g id="patch_5">
    <path clip-path="url(#p14797782cb)" d="M 184.5 216.45 
C 193.689287 216.45 202.503443 212.799057 209.00125 206.30125 
C 215.499057 199.803443 219.15 190.989287 219.15 181.8 
C 219.15 172.610713 215.499057 163.796557 209.00125 157.29875 
C 202.503443 150.800943 193.689287 147.15 184.5 147.15 
C 175.310713 147.15 166.496557 150.800943 159.99875 157.29875 
C 153.500943 163.796557 149.85 172.610713 149.85 181.8 
C 149.85 190.989287 153.500943 199.803443 159.99875 206.30125 
C 166.496557 212.799057 175.310713 216.45 184.5 216.45 
z
" style="fill:#ff0000;opacity:0.2;stroke:#ff0000;stroke-linejoin:miter;"/>
   </g>
   <g id="line2d_1">
    <path clip-path="url(#p14797782cb)" d="M 97.47488 361 
L 98.14853 351.425568 
L 98.615513 341.309058 
L 98.992136 326.620334 
L 99.097861 315.045414 
L 98.985434 306.105169 
L 98.594167 295.23778 
L 97.867472 282.660985 
L 96.809852 268.634626 
L 95.704944 257.108935 
L 94.032409 242.457141 
L 92.498072 230.305744 
L 90.966041 220.144514 
L 89.001014 207.10815 
L 86.735643 191.79514 
L 84.62605 178.640681 
L 79.517254 143.868978 
L 75.586221 120.731607 
L 74.420922 114.120371 
L 72.039781 102.171967 
L 70.600399 95.775724 
L 68.947358 89.551479 
L 66.594372 81.573096 
L 64.433819 74.874994 
L 60.222551 62.864873 
L 54.977397 48.540996 
L 53.24304 43.311121 
L 47.87563 28.651599 
L 43.215774 16.432894 
L 37.961456 2.674695 
L 37.143319 -0.168902 
L 36.940181 -1 
L 36.940181 -1 
" style="fill:none;stroke:#000000;stroke-linecap:square;stroke-width:1.5;"/>
   </g>
   <g id="line2d_2">
    <path clip-path="url(#p14797782cb)" d="M 101.211141 361 
L 101.637621 352.554442 
L 102.040717 338.47015 
L 103.127483 289.990401 
L 102.837569 284.236644 
L 102.021632 274.257377 
L 100.126164 253.646797 
L 98.99611 243.708014 
L 98.162524 238.008827 
L 97.103058 232.46423 
L 95.822765 227.043111 
L 93.864642 219.87374 
L 91.634266 212.49736 
L 89.027281 204.682132 
L 84.244815 190.535398 
L 81.860801 182.706082 
L 78.815227 171.532534 
L 76.703554 164.296646 
L 72.959886 152.461187 
L 69.247572 140.612699 
L 68.1901 136.511375 
L 67.402753 132.547507 
L 66.467144 126.224546 
L 65.870177 122.59359 
L 65.097239 119.068737 
L 64.153549 115.642721 
L 61.101692 105.831161 
L 60.5056 102.64361 
L 60.190321 99.442928 
L 60.112766 96.224691 
L 60.269867 93.050982 
L 60.60814 87.966836 
L 60.564045 84.977609 
L 60.320307 78.012768 
L 60.465117 75.0825 
L 61.106035 67.486876 
L 61.04842 65.592962 
L 60.835269 63.681566 
L 60.237572 60.768742 
L 59.073707 56.764928 
L 56.206001 48.078234 
L 54.897068 44.599592 
L 52.882245 39.999061 
L 50.101747 33.683976 
L 48.742013 29.965304 
L 47.782566 26.551624 
L 47.146942 23.298552 
L 46.740741 20.049302 
L 46.299443 15.969522 
L 45.794839 13.651812 
L 45.048383 11.479885 
L 43.834607 8.770877 
L 41.100396 2.950344 
L 40.136735 0.310431 
L 39.73769 -1 
L 39.73769 -1 
" style="fill:none;stroke:#ff0000;stroke-linecap:square;stroke-width:1.5;"/>
   </g>
   <g id="line2d_3">
    <path clip-path="url(#p14797782cb)" d="M 106.092469 361 
L 106.573289 355.822509 
L 107.080513 347.392696 
L 107.372633 338.864664 
L 107.549038 327.515417 
L 107.525105 316.365065 
L 107.319711 308.184083 
L 106.904137 300.219928 
L 106.287256 292.564246 
L 105.484779 285.21707 
L 104.197264 275.707819 
L 102.33084 263.766148 
L 100.547825 253.967572 
L 98.56578 244.171299 
L 91.136582 209.828789 
L 89.322403 203.352894 
L 87.281186 196.881579 
L 83.547479 186.058471 
L 79.764799 175.211605 
L 77.814222 168.84166 
L 76.233477 162.712283 
L 74.96346 156.887565 
L 71.693093 140.936216 
L 68.859409 129.116343 
L 65.995613 116.557861 
L 64.672567 110.641548 
L 63.918254 106.300383 
L 63.396942 102.043005 
L 62.532667 93.909613 
L 61.823312 90.056853 
L 60.913768 86.332525 
L 59.502345 81.536042 
L 57.545098 75.674625 
L 54.311899 66.66812 
L 53.478649 63.513918 
L 52.927622 60.453679 
L 52.471113 56.445928 
L 52.27341 53.400091 
L 51.945419 43.43847 
L 51.392192 39.938567 
L 50.551823 36.455253 
L 49.487627 33.015728 
L 47.824587 28.510177 
L 45.52332 22.993094 
L 43.492803 18.622467 
L 38.498569 8.302713 
L 34.094379 -1 
L 34.094379 -1 
" style="fill:none;stroke:#008000;stroke-linecap:square;stroke-width:1.5;"/>
   </g>
   <g id="line2d_4">
    <path clip-path="url(#p14797782cb)" d="M 99.882769 361 
L 100.357591 353.84996 
L 100.644294 345.964197 
L 100.726817 338.085083 
L 100.622961 327.714362 
L 100.334594 317.585868 
L 99.743259 305.319161 
L 98.959201 293.493415 
L 98.162032 284.292272 
L 97.148544 275.263082 
L 95.940677 266.370352 
L 93.925561 253.34822 
L 91.469365 238.82027 
L 89.52434 228.811767 
L 87.770486 220.946249 
L 85.846409 213.17446 
L 83.713539 205.404031 
L 81.340759 197.555854 
L 78.372399 187.766015 
L 76.360171 180.199028 
L 74.658484 172.923345 
L 72.91573 164.237418 
L 69.786737 147.685505 
L 65.928122 124.84583 
L 64.067866 113.519819 
L 62.894356 108.015135 
L 61.224109 101.291047 
L 58.51547 90.885966 
L 56.203191 80.853028 
L 53.19699 67.607598 
L 50.268155 56.248543 
L 47.643505 46.607244 
L 43.840457 31.274401 
L 40.764927 18.906619 
L 38.032957 8.329984 
L 36.582529 2.437761 
L 35.943323 -1 
L 35.943323 -1 
" style="fill:none;stroke:#0000ff;stroke-linecap:square;stroke-width:1.5;"/>
   </g>
   <g id="patch_6">
    <path d="M 45.9 320.4 
L 45.9 43.2 
" style="fill:none;stroke:#000000;stroke-linecap:square;stroke-linejoin:miter;stroke-width:0.8;"/>
   </g>
   <g id="patch_7">
    <path d="M 323.1 320.4 
L 323.1 43.2 
" style="fill:none;stroke:#000000;stroke-linecap:square;stroke-linejoin:miter;stroke-width:0.8;"/>
   </g>
   <g id="patch_8">
    <path d="M 45.9 320.4 
L 323.1 320.4 
" style="fill:none;stroke:#000000;stroke-linecap:square;stroke-linejoin:miter;stroke-width:0.8;"/>
   </g>
   <g id="patch_9">
    <path d="M 45.9 43.2 
L 323.1 43.2 
" style="fill:none;stroke:#000000;stroke-linecap:square;stroke-linejoin:miter;stroke-width:0.8;"/>
   </g>
   <g id="text_1">
    <!-- Obstacle -->
    <defs>
     <path d="M 42.484375 60.59375 
Q 33.890625 60.59375 29.15625 54.25 
Q 24.421875 47.90625 24.421875 36.375 
Q 24.421875 24.90625 29.15625 18.546875 
Q 33.890625 12.203125 42.484375 12.203125 
Q 51.125 12.203125 55.859375 18.546875 
Q 60.59375 24.90625 60.59375 36.375 
Q 60.59375 47.90625 55.859375 54.25 
Q 51.125 60.59375 42.484375 60.59375 
z
M 42.484375 74.21875 
Q 60.0625 74.21875 70.015625 64.15625 
Q 79.984375 54.109375 79.984375 36.375 
Q 79.984375 18.703125 70.015625 8.640625 
Q 60.0625 -1.421875 42.484375 -1.421875 
Q 24.953125 -1.421875 14.96875 8.640625 
Q 4.984375 18.703125 4.984375 36.375 
Q 4.984375 54.109375 14.96875 64.15625 
Q 24.953125 74.21875 42.484375 74.21875 
z
" id="DejaVuSans-Bold-4f"/>
     <path d="M 37.5 11.28125 
Q 43.109375 11.28125 46.0625 15.375 
Q 49.03125 19.484375 49.03125 27.296875 
Q 49.03125 35.109375 46.0625 39.203125 
Q 43.109375 43.3125 37.5 43.3125 
Q 31.890625 43.3125 28.875 39.1875 
Q 25.875 35.0625 25.875 27.296875 
Q 25.875 19.53125 28.875 15.40625 
Q 31.890625 11.28125 37.5 11.28125 
z
M 25.875 46.6875 
Q 29.5 51.46875 33.890625 53.734375 
Q 38.28125 56 44 56 
Q 54.109375 56 60.59375 47.96875 
Q 67.09375 39.9375 67.09375 27.296875 
Q 67.09375 14.65625 60.59375 6.609375 
Q 54.109375 -1.421875 44 -1.421875 
Q 38.28125 -1.421875 33.890625 0.84375 
Q 29.5 3.125 25.875 7.90625 
L 25.875 0 
L 8.40625 0 
L 8.40625 75.984375 
L 25.875 75.984375 
z
" id="DejaVuSans-Bold-62"/>
     <path d="M 51.125 52.984375 
L 51.125 39.703125 
Q 45.515625 42.046875 40.28125 43.21875 
Q 35.0625 44.390625 30.421875 44.390625 
Q 25.4375 44.390625 23.015625 43.140625 
Q 20.609375 41.890625 20.609375 39.3125 
Q 20.609375 37.203125 22.4375 36.078125 
Q 24.265625 34.96875 29 34.421875 
L 32.078125 33.984375 
Q 45.515625 32.28125 50.140625 28.375 
Q 54.78125 24.46875 54.78125 16.109375 
Q 54.78125 7.375 48.328125 2.96875 
Q 41.890625 -1.421875 29.109375 -1.421875 
Q 23.6875 -1.421875 17.890625 -0.5625 
Q 12.109375 0.296875 6 2 
L 6 15.28125 
Q 11.234375 12.75 16.71875 11.46875 
Q 22.21875 10.203125 27.875 10.203125 
Q 33.015625 10.203125 35.59375 11.609375 
Q 38.1875 13.03125 38.1875 15.828125 
Q 38.1875 18.171875 36.40625 19.3125 
Q 34.625 20.453125 29.296875 21.09375 
L 26.21875 21.484375 
Q 14.546875 22.953125 9.859375 26.90625 
Q 5.171875 30.859375 5.171875 38.921875 
Q 5.171875 47.609375 11.125 51.796875 
Q 17.09375 56 29.390625 56 
Q 34.234375 56 39.546875 55.265625 
Q 44.875 54.546875 51.125 52.984375 
z
" id="DejaVuSans-Bold-73"/>
     <path d="M 27.484375 70.21875 
L 27.484375 54.6875 
L 45.515625 54.6875 
L 45.515625 42.1875 
L 27.484375 42.1875 
L 27.484375 19 
Q 27.484375 15.1875 29 13.84375 
Q 30.515625 12.5 35.015625 12.5 
L 44 12.5 
L 44 0 
L 29 0 
Q 18.65625 0 14.328125 4.3125 
Q 10.015625 8.640625 10.015625 19 
L 10.015625 42.1875 
L 1.3125 42.1875 
L 1.3125 54.6875 
L 10.015625 54.6875 
L 10.015625 70.21875 
z
" id="DejaVuSans-Bold-74"/>
     <path d="M 32.90625 24.609375 
Q 27.4375 24.609375 24.671875 22.75 
Q 21.921875 20.90625 21.921875 17.28125 
Q 21.921875 13.96875 24.140625 12.078125 
Q 26.375 10.203125 30.328125 10.203125 
Q 35.25 10.203125 38.625 13.734375 
Q 42 17.28125 42 22.609375 
L 42 24.609375 
z
M 59.625 31.203125 
L 59.625 0 
L 42 0 
L 42 8.109375 
Q 38.484375 3.125 34.078125 0.84375 
Q 29.6875 -1.421875 23.390625 -1.421875 
Q 14.890625 -1.421875 9.59375 3.53125 
Q 4.296875 8.5 4.296875 16.40625 
Q 4.296875 26.03125 10.90625 30.515625 
Q 17.53125 35.015625 31.6875 35.015625 
L 42 35.015625 
L 42 36.375 
Q 42 40.53125 38.71875 42.453125 
Q 35.453125 44.390625 28.515625 44.390625 
Q 22.90625 44.390625 18.0625 43.265625 
Q 13.234375 42.140625 9.078125 39.890625 
L 9.078125 53.21875 
Q 14.703125 54.59375 20.359375 55.296875 
Q 26.03125 56 31.6875 56 
Q 46.484375 56 53.046875 50.171875 
Q 59.625 44.34375 59.625 31.203125 
z
" id="DejaVuSans-Bold-61"/>
     <path d="M 52.59375 52.984375 
L 52.59375 38.71875 
Q 49.03125 41.15625 45.4375 42.328125 
Q 41.84375 43.5 37.984375 43.5 
Q 30.671875 43.5 26.59375 39.234375 
Q 22.515625 34.96875 22.515625 27.296875 
Q 22.515625 19.625 26.59375 15.34375 
Q 30.671875 11.078125 37.984375 11.078125 
Q 42.09375 11.078125 45.78125 12.296875 
Q 49.46875 13.53125 52.59375 15.921875 
L 52.59375 1.609375 
Q 48.484375 0.09375 44.265625 -0.65625 
Q 40.046875 -1.421875 35.796875 -1.421875 
Q 21 -1.421875 12.640625 6.171875 
Q 4.296875 13.765625 4.296875 27.296875 
Q 4.296875 40.828125 12.640625 48.40625 
Q 21 56 35.796875 56 
Q 40.09375 56 44.265625 55.25 
Q 48.4375 54.5 52.59375 52.984375 
z
" id="DejaVuSans-Bold-63"/>
     <path d="M 8.40625 75.984375 
L 25.875 75.984375 
L 25.875 0 
L 8.40625 0 
z
" id="DejaVuSans-Bold-6c"/>
     <path d="M 62.984375 27.484375 
L 62.984375 22.515625 
L 22.125 22.515625 
Q 22.75 16.359375 26.5625 13.28125 
Q 30.375 10.203125 37.203125 10.203125 
Q 42.71875 10.203125 48.5 11.84375 
Q 54.296875 13.484375 60.40625 16.796875 
L 60.40625 3.328125 
Q 54.203125 0.984375 48 -0.21875 
Q 41.796875 -1.421875 35.59375 -1.421875 
Q 20.75 -1.421875 12.515625 6.125 
Q 4.296875 13.671875 4.296875 27.296875 
Q 4.296875 40.671875 12.375 48.328125 
Q 20.453125 56 34.625 56 
Q 47.515625 56 55.25 48.234375 
Q 62.984375 40.484375 62.984375 27.484375 
z
M 45.015625 33.296875 
Q 45.015625 38.28125 42.109375 41.328125 
Q 39.203125 44.390625 34.515625 44.390625 
Q 29.4375 44.390625 26.265625 41.53125 
Q 23.09375 38.671875 22.3125 33.296875 
z
" id="DejaVuSans-Bold-65"/>
    </defs>
    <g transform="translate(122.902344 37.2)scale(0.25 -0.25)">
     <use xlink:href="#DejaVuSans-Bold-4f"/>
     <use x="85.009766" xlink:href="#DejaVuSans-Bold-62"/>
     <use x="156.591797" xlink:href="#DejaVuSans-Bold-73"/>
     <use x="216.113281" xlink:href="#DejaVuSans-Bold-74"/>
     <use x="263.916016" xlink:href="#DejaVuSans-Bold-61"/>
     <use x="331.396484" xlink:href="#DejaVuSans-Bold-63"/>
     <use x="390.673828" xlink:href="#DejaVuSans-Bold-6c"/>
     <use x="424.951172" xlink:href="#DejaVuSans-Bold-65"/>
    </g>
   </g>
  </g>
 </g>
 <defs>
  <clipPath id="p14797782cb">
   <rect height="277.2" width="277.2" x="45.9" y="43.2"/>
  </clipPath>
 </defs>
</svg>
