<?xml version="1.0" encoding="utf-8" standalone="no"?>
<!DOCTYPE svg PUBLIC "-//W3C//DTD SVG 1.1//EN"
  "http://www.w3.org/Graphics/SVG/1.1/DTD/svg11.dtd">
<!-- Created with matplotlib (http://matplotlib.org/) -->
<svg height="360pt" version="1.1" viewBox="0 0 360 360" width="360pt" xmlns="http://www.w3.org/2000/svg" xmlns:xlink="http://www.w3.org/1999/xlink">
 <defs>
  <style type="text/css">
*{stroke-linecap:butt;stroke-linejoin:round;}
  </style>
 </defs>
 <g id="figure_1">
  <g id="patch_1">
   <path d="M 0 360 
L 360 360 
L 360 0 
L 0 0 
z
" style="fill:#ffffff;"/>
  </g>
  <g id="axes_1">
   <g id="patch_2">
    <path d="M 45.9 320.4 
L 323.1 320.4 
L 323.1 43.2 
L 45.9 43.2 
z
" style="fill:#eaeaf2;"/>
   </g>
   <g id="patch_3">
    <path clip-path="url(#p291edf88fa)" d="M 160.1064 -124.2288 
C 163.782115 -124.2288 167.307777 -125.689177 169.9069 -128.2883 
C 172.506023 -130.887423 173.9664 -134.413085 173.9664 -138.0888 
C 173.9664 -141.764515 172.506023 -145.290177 169.9069 -147.8893 
C 167.307777 -150.488423 163.782115 -151.9488 160.1064 -151.9488 
C 156.430685 -151.9488 152.905023 -150.488423 150.3059 -147.8893 
C 147.706777 -145.290177 146.2464 -141.764515 146.2464 -138.0888 
C 146.2464 -134.413085 147.706777 -130.887423 150.3059 -128.2883 
C 152.905023 -125.689177 156.430685 -124.2288 160.1064 -124.2288 
z
" style="fill:#008000;opacity:0.6;stroke:#000000;stroke-linejoin:miter;"/>
   </g>
   <g id="patch_4">
    <path clip-path="url(#p291edf88fa)" d="M 184.5 285.75 
C 212.067862 285.75 238.510328 274.797172 258.00375 255.30375 
C 277.497172 235.810328 288.45 209.367862 288.45 181.8 
C 288.45 154.232138 277.497172 127.789672 258.00375 108.29625 
C 238.510328 88.802828 212.067862 77.85 184.5 77.85 
C 156.932138 77.85 130.489672 88.802828 110.99625 108.29625 
C 91.502828 127.789672 80.55 154.232138 80.55 181.8 
C 80.55 209.367862 91.502828 235.810328 110.99625 255.30375 
C 130.489672 274.797172 156.932138 285.75 184.5 285.75 
z
" style="opacity:0.1;stroke:#000000;stroke-linejoin:miter;"/>
   </g>
   <g id="patch_5">
    <path clip-path="url(#p291edf88fa)" d="M 184.5 216.45 
C 193.689287 216.45 202.503443 212.799057 209.00125 206.30125 
C 215.499057 199.803443 219.15 190.989287 219.15 181.8 
C 219.15 172.610713 215.499057 163.796557 209.00125 157.29875 
C 202.503443 150.800943 193.689287 147.15 184.5 147.15 
C 175.310713 147.15 166.496557 150.800943 159.99875 157.29875 
C 153.500943 163.796557 149.85 172.610713 149.85 181.8 
C 149.85 190.989287 153.500943 199.803443 159.99875 206.30125 
C 166.496557 212.799057 175.310713 216.45 184.5 216.45 
z
" style="fill:#ff0000;opacity:0.2;stroke:#ff0000;stroke-linejoin:miter;"/>
   </g>
   <g id="line2d_1">
    <path clip-path="url(#p291edf88fa)" d="M 114.358243 361 
L 114.946243 354.359324 
L 115.566902 344.858156 
L 115.947281 335.369669 
L 116.120367 325.886758 
L 116.106655 316.379491 
L 115.886561 306.825088 
L 115.435483 297.231009 
L 114.742379 287.61742 
L 113.800981 278.005757 
L 112.607417 268.416427 
L 111.151572 258.871479 
L 109.403741 249.41448 
L 106.768798 236.996056 
L 104.492424 227.779959 
L 101.959127 218.65521 
L 98.307274 206.702087 
L 96.423112 200.845922 
L 93.23961 192.125317 
L 89.814813 183.54158 
L 87.628031 178.010965 
L 84.390853 169.856573 
L 80.963164 161.850056 
L 77.370946 153.997683 
L 72.427023 143.784992 
L 60.550173 119.926936 
L 58.694147 115.559908 
L 57.112836 111.351059 
L 55.792144 107.295045 
L 54.206509 101.473271 
L 53.390248 97.753348 
L 52.484497 92.374469 
L 51.649451 85.531596 
L 50.813172 77.413413 
L 50.56607 72.741552 
L 50.598396 69.711429 
L 50.686206 68.222758 
L 51.6289 63.954044 
L 53.133918 58.479807 
L 54.933557 51.893451 
L 57.689414 41.71705 
L 61.728028 27.011621 
L 66.393009 9.073094 
L 68.705276 2.047989 
L 69.783639 -1 
L 69.783639 -1 
" style="fill:none;stroke:#000000;stroke-linecap:square;stroke-width:1.5;"/>
   </g>
   <g id="line2d_2">
    <path clip-path="url(#p291edf88fa)" d="M 111.758647 361 
L 112.793304 348.311498 
L 113.36995 339.052422 
L 113.70795 329.628915 
L 113.818324 320.104427 
L 113.697054 310.515445 
L 113.336476 300.888558 
L 112.729902 291.247012 
L 111.869836 281.612696 
L 110.733056 272.019861 
L 109.355946 262.48239 
L 107.728945 253.005778 
L 105.848889 243.603449 
L 103.717613 234.290573 
L 101.394355 225.111991 
L 99.763609 219.096905 
L 99.53917 216.33193 
L 97.998858 210.54199 
L 95.421664 201.943604 
L 93.657443 196.32359 
L 90.672747 187.899997 
L 87.412081 179.571465 
L 82.846565 168.698715 
L 67.596624 133.713957 
L 64.600465 126.988084 
L 62.490384 122.5725 
L 60.182984 118.160701 
L 56.349071 111.552041 
L 52.294917 105.016556 
L 46.713153 96.471693 
L 41.33028 88.227302 
L 38.933888 84.237789 
L 36.820578 80.337183 
L 35.043499 76.526709 
L 33.643623 72.809052 
L 32.642191 69.187371 
L 32.023374 65.666806 
L 31.776266 62.256397 
L 31.77788 58.96287 
L 32.055935 54.209199 
L 32.840145 43.699889 
L 33.037033 35.103885 
L 33.367705 26.847132 
L 34.103854 14.949185 
L 34.610626 11.09019 
L 35.390534 7.289306 
L 36.467674 3.55208 
L 37.771389 -0.113018 
L 38.118209 -1 
L 38.118209 -1 
" style="fill:none;stroke:#ff0000;stroke-linecap:square;stroke-width:1.5;"/>
   </g>
   <g id="line2d_3">
    <path clip-path="url(#p291edf88fa)" d="M 107.574378 361 
L 108.152186 353.905912 
L 108.652522 344.637171 
L 108.8603 335.39408 
L 108.747393 326.240879 
L 108.391611 317.218966 
L 107.83923 308.284952 
L 107.085854 299.412646 
L 105.792353 287.638262 
L 104.248375 275.821296 
L 102.861554 266.905224 
L 100.229505 252.096765 
L 97.959116 240.430458 
L 97.342686 237.52982 
L 97.275945 234.873024 
L 96.058117 229.195837 
L 94.656611 223.480063 
L 93.248576 217.903995 
L 91.140544 209.673521 
L 83.419804 183.299673 
L 80.931344 175.717604 
L 79.049424 170.652301 
L 75.933841 163.076084 
L 72.574609 155.574044 
L 69.063324 148.178788 
L 65.395096 140.903228 
L 61.535948 133.753061 
L 57.498153 126.735494 
L 45.700972 106.797144 
L 43.520946 102.669156 
L 41.594588 98.670006 
L 39.134588 92.914326 
L 37.050476 87.437067 
L 35.299138 82.217263 
L 34.455086 78.878537 
L 33.955939 75.647271 
L 33.82148 72.519745 
L 34.00724 69.49207 
L 34.416638 66.556358 
L 35.963714 58.173361 
L 36.884505 54.141389 
L 37.678256 51.510189 
L 39.117925 47.665151 
L 41.60429 41.523892 
L 42.779471 37.953204 
L 45.182968 29.787271 
L 46.151598 27.494929 
L 47.328932 25.229963 
L 49.346994 21.885918 
L 52.650446 16.419326 
L 55.494962 11.048335 
L 57.2623 7.889189 
L 59.334094 4.79908 
L 61.684317 1.786457 
L 63.93435 -1 
L 63.93435 -1 
" style="fill:none;stroke:#008000;stroke-linecap:square;stroke-width:1.5;"/>
   </g>
   <g id="line2d_4">
    <path clip-path="url(#p291edf88fa)" d="M 109.636587 361 
L 110.171114 354.22138 
L 110.730425 344.961666 
L 111.074747 335.657962 
L 111.206287 326.320112 
L 111.09038 316.964176 
L 110.769983 307.610087 
L 110.241725 298.234295 
L 109.456301 288.861616 
L 108.382914 279.540713 
L 107.116595 270.278556 
L 105.641277 261.042255 
L 103.932813 251.836689 
L 102.008732 242.690753 
L 99.899742 233.638154 
L 97.5582 224.670778 
L 97.373584 221.940675 
L 95.847183 216.160641 
L 94.140783 210.369367 
L 90.45506 198.98631 
L 87.438548 190.563037 
L 83.219943 179.560969 
L 78.914034 168.873544 
L 74.471796 158.49793 
L 70.972534 150.886349 
L 66.103459 140.970594 
L 59.902137 129.015596 
L 50.592021 111.134652 
L 47.616621 104.892779 
L 45.113548 98.930116 
L 43.062236 93.23451 
L 41.433211 87.789349 
L 40.206022 82.575408 
L 39.350583 77.572271 
L 38.792313 72.756531 
L 38.503885 68.110783 
L 38.452992 63.614693 
L 38.621747 59.252432 
L 38.999355 55.01199 
L 39.703212 49.519644 
L 40.587727 44.182873 
L 41.660341 38.98316 
L 43.246742 32.646475 
L 45.347435 25.230079 
L 47.624443 17.97587 
L 50.488326 9.690028 
L 54.248423 -1 
L 54.248423 -1 
" style="fill:none;stroke:#0000ff;stroke-linecap:square;stroke-width:1.5;"/>
   </g>
   <g id="patch_6">
    <path d="M 45.9 320.4 
L 45.9 43.2 
" style="fill:none;stroke:#000000;stroke-linecap:square;stroke-linejoin:miter;stroke-width:0.8;"/>
   </g>
   <g id="patch_7">
    <path d="M 323.1 320.4 
L 323.1 43.2 
" style="fill:none;stroke:#000000;stroke-linecap:square;stroke-linejoin:miter;stroke-width:0.8;"/>
   </g>
   <g id="patch_8">
    <path d="M 45.9 320.4 
L 323.1 320.4 
" style="fill:none;stroke:#000000;stroke-linecap:square;stroke-linejoin:miter;stroke-width:0.8;"/>
   </g>
   <g id="patch_9">
    <path d="M 45.9 43.2 
L 323.1 43.2 
" style="fill:none;stroke:#000000;stroke-linecap:square;stroke-linejoin:miter;stroke-width:0.8;"/>
   </g>
   <g id="text_1">
    <!-- Obstacle -->
    <defs>
     <path d="M 42.484375 60.59375 
Q 33.890625 60.59375 29.15625 54.25 
Q 24.421875 47.90625 24.421875 36.375 
Q 24.421875 24.90625 29.15625 18.546875 
Q 33.890625 12.203125 42.484375 12.203125 
Q 51.125 12.203125 55.859375 18.546875 
Q 60.59375 24.90625 60.59375 36.375 
Q 60.59375 47.90625 55.859375 54.25 
Q 51.125 60.59375 42.484375 60.59375 
z
M 42.484375 74.21875 
Q 60.0625 74.21875 70.015625 64.15625 
Q 79.984375 54.109375 79.984375 36.375 
Q 79.984375 18.703125 70.015625 8.640625 
Q 60.0625 -1.421875 42.484375 -1.421875 
Q 24.953125 -1.421875 14.96875 8.640625 
Q 4.984375 18.703125 4.984375 36.375 
Q 4.984375 54.109375 14.96875 64.15625 
Q 24.953125 74.21875 42.484375 74.21875 
z
" id="DejaVuSans-Bold-4f"/>
     <path d="M 37.5 11.28125 
Q 43.109375 11.28125 46.0625 15.375 
Q 49.03125 19.484375 49.03125 27.296875 
Q 49.03125 35.109375 46.0625 39.203125 
Q 43.109375 43.3125 37.5 43.3125 
Q 31.890625 43.3125 28.875 39.1875 
Q 25.875 35.0625 25.875 27.296875 
Q 25.875 19.53125 28.875 15.40625 
Q 31.890625 11.28125 37.5 11.28125 
z
M 25.875 46.6875 
Q 29.5 51.46875 33.890625 53.734375 
Q 38.28125 56 44 56 
Q 54.109375 56 60.59375 47.96875 
Q 67.09375 39.9375 67.09375 27.296875 
Q 67.09375 14.65625 60.59375 6.609375 
Q 54.109375 -1.421875 44 -1.421875 
Q 38.28125 -1.421875 33.890625 0.84375 
Q 29.5 3.125 25.875 7.90625 
L 25.875 0 
L 8.40625 0 
L 8.40625 75.984375 
L 25.875 75.984375 
z
" id="DejaVuSans-Bold-62"/>
     <path d="M 51.125 52.984375 
L 51.125 39.703125 
Q 45.515625 42.046875 40.28125 43.21875 
Q 35.0625 44.390625 30.421875 44.390625 
Q 25.4375 44.390625 23.015625 43.140625 
Q 20.609375 41.890625 20.609375 39.3125 
Q 20.609375 37.203125 22.4375 36.078125 
Q 24.265625 34.96875 29 34.421875 
L 32.078125 33.984375 
Q 45.515625 32.28125 50.140625 28.375 
Q 54.78125 24.46875 54.78125 16.109375 
Q 54.78125 7.375 48.328125 2.96875 
Q 41.890625 -1.421875 29.109375 -1.421875 
Q 23.6875 -1.421875 17.890625 -0.5625 
Q 12.109375 0.296875 6 2 
L 6 15.28125 
Q 11.234375 12.75 16.71875 11.46875 
Q 22.21875 10.203125 27.875 10.203125 
Q 33.015625 10.203125 35.59375 11.609375 
Q 38.1875 13.03125 38.1875 15.828125 
Q 38.1875 18.171875 36.40625 19.3125 
Q 34.625 20.453125 29.296875 21.09375 
L 26.21875 21.484375 
Q 14.546875 22.953125 9.859375 26.90625 
Q 5.171875 30.859375 5.171875 38.921875 
Q 5.171875 47.609375 11.125 51.796875 
Q 17.09375 56 29.390625 56 
Q 34.234375 56 39.546875 55.265625 
Q 44.875 54.546875 51.125 52.984375 
z
" id="DejaVuSans-Bold-73"/>
     <path d="M 27.484375 70.21875 
L 27.484375 54.6875 
L 45.515625 54.6875 
L 45.515625 42.1875 
L 27.484375 42.1875 
L 27.484375 19 
Q 27.484375 15.1875 29 13.84375 
Q 30.515625 12.5 35.015625 12.5 
L 44 12.5 
L 44 0 
L 29 0 
Q 18.65625 0 14.328125 4.3125 
Q 10.015625 8.640625 10.015625 19 
L 10.015625 42.1875 
L 1.3125 42.1875 
L 1.3125 54.6875 
L 10.015625 54.6875 
L 10.015625 70.21875 
z
" id="DejaVuSans-Bold-74"/>
     <path d="M 32.90625 24.609375 
Q 27.4375 24.609375 24.671875 22.75 
Q 21.921875 20.90625 21.921875 17.28125 
Q 21.921875 13.96875 24.140625 12.078125 
Q 26.375 10.203125 30.328125 10.203125 
Q 35.25 10.203125 38.625 13.734375 
Q 42 17.28125 42 22.609375 
L 42 24.609375 
z
M 59.625 31.203125 
L 59.625 0 
L 42 0 
L 42 8.109375 
Q 38.484375 3.125 34.078125 0.84375 
Q 29.6875 -1.421875 23.390625 -1.421875 
Q 14.890625 -1.421875 9.59375 3.53125 
Q 4.296875 8.5 4.296875 16.40625 
Q 4.296875 26.03125 10.90625 30.515625 
Q 17.53125 35.015625 31.6875 35.015625 
L 42 35.015625 
L 42 36.375 
Q 42 40.53125 38.71875 42.453125 
Q 35.453125 44.390625 28.515625 44.390625 
Q 22.90625 44.390625 18.0625 43.265625 
Q 13.234375 42.140625 9.078125 39.890625 
L 9.078125 53.21875 
Q 14.703125 54.59375 20.359375 55.296875 
Q 26.03125 56 31.6875 56 
Q 46.484375 56 53.046875 50.171875 
Q 59.625 44.34375 59.625 31.203125 
z
" id="DejaVuSans-Bold-61"/>
     <path d="M 52.59375 52.984375 
L 52.59375 38.71875 
Q 49.03125 41.15625 45.4375 42.328125 
Q 41.84375 43.5 37.984375 43.5 
Q 30.671875 43.5 26.59375 39.234375 
Q 22.515625 34.96875 22.515625 27.296875 
Q 22.515625 19.625 26.59375 15.34375 
Q 30.671875 11.078125 37.984375 11.078125 
Q 42.09375 11.078125 45.78125 12.296875 
Q 49.46875 13.53125 52.59375 15.921875 
L 52.59375 1.609375 
Q 48.484375 0.09375 44.265625 -0.65625 
Q 40.046875 -1.421875 35.796875 -1.421875 
Q 21 -1.421875 12.640625 6.171875 
Q 4.296875 13.765625 4.296875 27.296875 
Q 4.296875 40.828125 12.640625 48.40625 
Q 21 56 35.796875 56 
Q 40.09375 56 44.265625 55.25 
Q 48.4375 54.5 52.59375 52.984375 
z
" id="DejaVuSans-Bold-63"/>
     <path d="M 8.40625 75.984375 
L 25.875 75.984375 
L 25.875 0 
L 8.40625 0 
z
" id="DejaVuSans-Bold-6c"/>
     <path d="M 62.984375 27.484375 
L 62.984375 22.515625 
L 22.125 22.515625 
Q 22.75 16.359375 26.5625 13.28125 
Q 30.375 10.203125 37.203125 10.203125 
Q 42.71875 10.203125 48.5 11.84375 
Q 54.296875 13.484375 60.40625 16.796875 
L 60.40625 3.328125 
Q 54.203125 0.984375 48 -0.21875 
Q 41.796875 -1.421875 35.59375 -1.421875 
Q 20.75 -1.421875 12.515625 6.125 
Q 4.296875 13.671875 4.296875 27.296875 
Q 4.296875 40.671875 12.375 48.328125 
Q 20.453125 56 34.625 56 
Q 47.515625 56 55.25 48.234375 
Q 62.984375 40.484375 62.984375 27.484375 
z
M 45.015625 33.296875 
Q 45.015625 38.28125 42.109375 41.328125 
Q 39.203125 44.390625 34.515625 44.390625 
Q 29.4375 44.390625 26.265625 41.53125 
Q 23.09375 38.671875 22.3125 33.296875 
z
" id="DejaVuSans-Bold-65"/>
    </defs>
    <g transform="translate(122.902344 37.2)scale(0.25 -0.25)">
     <use xlink:href="#DejaVuSans-Bold-4f"/>
     <use x="85.009766" xlink:href="#DejaVuSans-Bold-62"/>
     <use x="156.591797" xlink:href="#DejaVuSans-Bold-73"/>
     <use x="216.113281" xlink:href="#DejaVuSans-Bold-74"/>
     <use x="263.916016" xlink:href="#DejaVuSans-Bold-61"/>
     <use x="331.396484" xlink:href="#DejaVuSans-Bold-63"/>
     <use x="390.673828" xlink:href="#DejaVuSans-Bold-6c"/>
     <use x="424.951172" xlink:href="#DejaVuSans-Bold-65"/>
    </g>
   </g>
  </g>
 </g>
 <defs>
  <clipPath id="p291edf88fa">
   <rect height="277.2" width="277.2" x="45.9" y="43.2"/>
  </clipPath>
 </defs>
</svg>
