<?xml version="1.0" encoding="utf-8" standalone="no"?>
<!DOCTYPE svg PUBLIC "-//W3C//DTD SVG 1.1//EN"
  "http://www.w3.org/Graphics/SVG/1.1/DTD/svg11.dtd">
<!-- Created with matplotlib (http://matplotlib.org/) -->
<svg height="360pt" version="1.1" viewBox="0 0 360 360" width="360pt" xmlns="http://www.w3.org/2000/svg" xmlns:xlink="http://www.w3.org/1999/xlink">
 <defs>
  <style type="text/css">
*{stroke-linecap:butt;stroke-linejoin:round;}
  </style>
 </defs>
 <g id="figure_1">
  <g id="patch_1">
   <path d="M 0 360 
L 360 360 
L 360 0 
L 0 0 
z
" style="fill:#ffffff;"/>
  </g>
  <g id="axes_1">
   <g id="patch_2">
    <path d="M 45.9 320.4 
L 323.1 320.4 
L 323.1 43.2 
L 45.9 43.2 
z
" style="fill:#eaeaf2;"/>
   </g>
   <g id="patch_3">
    <path clip-path="url(#p2acffbf6a4)" d="M 160.1064 -124.2288 
C 163.782115 -124.2288 167.307777 -125.689177 169.9069 -128.2883 
C 172.506023 -130.887423 173.9664 -134.413085 173.9664 -138.0888 
C 173.9664 -141.764515 172.506023 -145.290177 169.9069 -147.8893 
C 167.307777 -150.488423 163.782115 -151.9488 160.1064 -151.9488 
C 156.430685 -151.9488 152.905023 -150.488423 150.3059 -147.8893 
C 147.706777 -145.290177 146.2464 -141.764515 146.2464 -138.0888 
C 146.2464 -134.413085 147.706777 -130.887423 150.3059 -128.2883 
C 152.905023 -125.689177 156.430685 -124.2288 160.1064 -124.2288 
z
" style="fill:#008000;opacity:0.6;stroke:#000000;stroke-linejoin:miter;"/>
   </g>
   <g id="patch_4">
    <path clip-path="url(#p2acffbf6a4)" d="M 184.5 285.75 
C 212.067862 285.75 238.510328 274.797172 258.00375 255.30375 
C 277.497172 235.810328 288.45 209.367862 288.45 181.8 
C 288.45 154.232138 277.497172 127.789672 258.00375 108.29625 
C 238.510328 88.802828 212.067862 77.85 184.5 77.85 
C 156.932138 77.85 130.489672 88.802828 110.99625 108.29625 
C 91.502828 127.789672 80.55 154.232138 80.55 181.8 
C 80.55 209.367862 91.502828 235.810328 110.99625 255.30375 
C 130.489672 274.797172 156.932138 285.75 184.5 285.75 
z
" style="opacity:0.1;stroke:#000000;stroke-linejoin:miter;"/>
   </g>
   <g id="patch_5">
    <path clip-path="url(#p2acffbf6a4)" d="M 184.5 216.45 
C 193.689287 216.45 202.503443 212.799057 209.00125 206.30125 
C 215.499057 199.803443 219.15 190.989287 219.15 181.8 
C 219.15 172.610713 215.499057 163.796557 209.00125 157.29875 
C 202.503443 150.800943 193.689287 147.15 184.5 147.15 
C 175.310713 147.15 166.496557 150.800943 159.99875 157.29875 
C 153.500943 163.796557 149.85 172.610713 149.85 181.8 
C 149.85 190.989287 153.500943 199.803443 159.99875 206.30125 
C 166.496557 212.799057 175.310713 216.45 184.5 216.45 
z
" style="fill:#ff0000;opacity:0.2;stroke:#ff0000;stroke-linejoin:miter;"/>
   </g>
   <g id="line2d_1">
    <path clip-path="url(#p2acffbf6a4)" d="M 113.094277 361 
L 113.686958 353.160736 
L 114.18473 343.973662 
L 114.472869 334.749656 
L 114.533118 325.501928 
L 114.372007 316.248019 
L 113.998715 306.990699 
L 113.443916 297.716513 
L 112.693685 288.402551 
L 111.720378 279.056088 
L 110.512352 269.698325 
L 109.063614 260.351891 
L 107.370817 251.038236 
L 105.432434 241.777224 
L 103.248418 232.58717 
L 100.819999 223.484955 
L 98.14951 214.486146 
L 94.32875 202.708532 
L 91.28545 194.063004 
L 86.108321 180.063487 
L 85.222363 177.358382 
L 82.072387 169.291807 
L 77.747989 158.780184 
L 73.282885 148.556652 
L 68.665219 138.611404 
L 63.923232 128.939518 
L 54.76431 110.568081 
L 51.819545 104.102742 
L 50.139416 99.950831 
L 47.976131 93.957061 
L 46.086183 88.203725 
L 44.547525 82.670725 
L 43.38046 77.355521 
L 42.803083 73.93144 
L 42.415181 70.598642 
L 42.260354 67.35773 
L 42.362036 64.21303 
L 42.71411 61.166326 
L 43.268063 58.216554 
L 44.307542 53.948741 
L 46.866875 44.474721 
L 47.760089 41.89574 
L 48.813198 39.386735 
L 50.014958 36.947348 
L 52.042594 33.411852 
L 56.795678 25.511727 
L 64.955782 11.4471 
L 68.193257 6.194689 
L 70.845076 2.06231 
L 71.955754 -0.022489 
L 72.416572 -1 
L 72.416572 -1 
" style="fill:none;stroke:#000000;stroke-linecap:square;stroke-width:1.5;"/>
   </g>
   <g id="line2d_2">
    <path clip-path="url(#p2acffbf6a4)" d="M 107.824587 361 
L 108.448368 353.644415 
L 109.003484 344.458926 
L 109.363863 335.185119 
L 109.502876 325.842267 
L 109.395541 316.464777 
L 109.028022 307.099223 
L 108.405334 297.795067 
L 107.572281 288.524536 
L 106.54522 279.261442 
L 105.296891 269.998768 
L 103.824572 260.758118 
L 102.156624 251.577669 
L 100.297878 242.477589 
L 97.62691 230.591535 
L 96.153305 224.75184 
L 94.465561 218.884516 
L 91.671672 210.128384 
L 87.638024 198.641585 
L 79.712771 176.753555 
L 77.013225 169.107823 
L 75.501285 164.281101 
L 73.604359 157.344639 
L 71.696306 150.51293 
L 70.1124 145.901703 
L 68.274938 141.272342 
L 66.210334 136.647317 
L 63.924921 132.038964 
L 60.159382 125.178406 
L 57.513935 120.65253 
L 53.275073 113.958291 
L 48.810158 107.385213 
L 31.440684 82.322775 
L 27.709028 76.524112 
L 25.65508 72.859546 
L 24.817443 71.088108 
L 24.126176 69.352548 
L 23.589515 67.65005 
L 23.2112 65.977973 
L 22.990687 64.333509 
L 22.924211 62.712226 
L 23.170286 59.532424 
L 24.023704 53.419153 
L 24.187052 50.415659 
L 24.092106 47.420479 
L 23.432381 38.570956 
L 23.531149 35.718001 
L 23.873411 32.927747 
L 24.714306 28.864902 
L 26.642549 21.134847 
L 27.477707 18.623714 
L 28.504765 16.158056 
L 30.317175 12.551576 
L 31.683335 10.210745 
L 33.204305 7.925453 
L 35.759571 4.601095 
L 39.394138 0.339345 
L 40.539792 -1 
L 40.539792 -1 
" style="fill:none;stroke:#ff0000;stroke-linecap:square;stroke-width:1.5;"/>
   </g>
   <g id="line2d_3">
    <path clip-path="url(#p2acffbf6a4)" d="M 105.443185 361 
L 106.248719 349.268358 
L 106.694447 340.194488 
L 106.957936 330.988773 
L 106.998033 321.683219 
L 106.776041 312.415005 
L 106.351739 303.324481 
L 105.728599 294.231679 
L 104.854524 285.056376 
L 103.740983 275.846487 
L 101.562623 260.626439 
L 99.676064 248.700221 
L 98.181848 239.908905 
L 94.187167 222.389477 
L 91.902885 213.770843 
L 89.393488 205.249214 
L 86.693177 196.843093 
L 82.860673 185.847162 
L 78.860727 175.12421 
L 73.688718 162.11427 
L 70.765747 154.60148 
L 69.132575 149.816164 
L 67.857577 145.256539 
L 66.963834 140.938825 
L 66.39916 136.851483 
L 65.95707 132.930258 
L 65.623846 130.981985 
L 64.637152 127.04188 
L 62.892335 121.138547 
L 61.415551 117.172521 
L 59.523168 113.124625 
L 57.307592 109.023937 
L 52.527406 100.778307 
L 44.122799 86.436996 
L 39.673713 78.364249 
L 37.711512 74.42507 
L 36.004139 70.57303 
L 34.567699 66.815381 
L 33.380088 63.155227 
L 32.386665 59.59574 
L 31.58528 56.132628 
L 31.033465 52.764011 
L 30.788405 49.501545 
L 30.83539 46.359852 
L 31.134186 43.331264 
L 31.870854 38.966402 
L 32.892708 33.371254 
L 33.23181 30.628787 
L 33.342433 27.918686 
L 33.351347 22.539702 
L 33.675658 18.547843 
L 34.217654 14.623441 
L 34.749082 12.056626 
L 35.470637 9.539464 
L 36.425759 7.081516 
L 37.643158 4.691876 
L 39.114093 2.375402 
L 41.609111 -1 
L 41.609111 -1 
" style="fill:none;stroke:#008000;stroke-linecap:square;stroke-width:1.5;"/>
   </g>
   <g id="line2d_4">
    <path clip-path="url(#p2acffbf6a4)" d="M 111.337334 361 
L 111.897892 353.133141 
L 112.332876 344.067627 
L 112.508714 334.991736 
L 112.518243 325.916121 
L 112.346881 316.805268 
L 111.973673 307.653259 
L 111.385109 298.472035 
L 110.581876 289.277818 
L 109.588319 280.061637 
L 108.375109 270.825276 
L 106.929376 261.588192 
L 105.245414 252.37252 
L 103.345569 243.211931 
L 101.279799 234.149679 
L 97.712131 219.491598 
L 96.106079 213.716783 
L 93.46725 205.096224 
L 90.649469 196.589589 
L 86.702004 185.472508 
L 83.617625 177.314115 
L 79.329314 166.672675 
L 74.907634 156.315042 
L 70.345867 146.23491 
L 65.63468 136.426458 
L 60.749535 126.881682 
L 52.136815 110.832564 
L 48.518563 104.242767 
L 44.723277 97.778537 
L 39.447097 89.335875 
L 34.070316 81.104305 
L 27.563462 71.160759 
L 25.241364 67.321982 
L 23.260503 63.578303 
L 22.458634 61.741668 
L 21.80003 59.927712 
L 21.291698 58.13721 
L 20.683155 54.653733 
L 20.557465 52.971721 
L 20.642107 49.726006 
L 21.11064 46.62923 
L 21.869437 43.667238 
L 22.821202 40.823208 
L 24.472015 36.747702 
L 26.292933 32.864641 
L 28.882231 27.927176 
L 32.267727 22.048769 
L 36.153507 15.253416 
L 38.67703 10.822388 
L 40.782885 7.566793 
L 43.820759 3.322401 
L 47.168088 -1 
L 47.168088 -1 
" style="fill:none;stroke:#0000ff;stroke-linecap:square;stroke-width:1.5;"/>
   </g>
   <g id="patch_6">
    <path d="M 45.9 320.4 
L 45.9 43.2 
" style="fill:none;stroke:#000000;stroke-linecap:square;stroke-linejoin:miter;stroke-width:0.8;"/>
   </g>
   <g id="patch_7">
    <path d="M 323.1 320.4 
L 323.1 43.2 
" style="fill:none;stroke:#000000;stroke-linecap:square;stroke-linejoin:miter;stroke-width:0.8;"/>
   </g>
   <g id="patch_8">
    <path d="M 45.9 320.4 
L 323.1 320.4 
" style="fill:none;stroke:#000000;stroke-linecap:square;stroke-linejoin:miter;stroke-width:0.8;"/>
   </g>
   <g id="patch_9">
    <path d="M 45.9 43.2 
L 323.1 43.2 
" style="fill:none;stroke:#000000;stroke-linecap:square;stroke-linejoin:miter;stroke-width:0.8;"/>
   </g>
   <g id="text_1">
    <!-- Obstacle -->
    <defs>
     <path d="M 42.484375 60.59375 
Q 33.890625 60.59375 29.15625 54.25 
Q 24.421875 47.90625 24.421875 36.375 
Q 24.421875 24.90625 29.15625 18.546875 
Q 33.890625 12.203125 42.484375 12.203125 
Q 51.125 12.203125 55.859375 18.546875 
Q 60.59375 24.90625 60.59375 36.375 
Q 60.59375 47.90625 55.859375 54.25 
Q 51.125 60.59375 42.484375 60.59375 
z
M 42.484375 74.21875 
Q 60.0625 74.21875 70.015625 64.15625 
Q 79.984375 54.109375 79.984375 36.375 
Q 79.984375 18.703125 70.015625 8.640625 
Q 60.0625 -1.421875 42.484375 -1.421875 
Q 24.953125 -1.421875 14.96875 8.640625 
Q 4.984375 18.703125 4.984375 36.375 
Q 4.984375 54.109375 14.96875 64.15625 
Q 24.953125 74.21875 42.484375 74.21875 
z
" id="DejaVuSans-Bold-4f"/>
     <path d="M 37.5 11.28125 
Q 43.109375 11.28125 46.0625 15.375 
Q 49.03125 19.484375 49.03125 27.296875 
Q 49.03125 35.109375 46.0625 39.203125 
Q 43.109375 43.3125 37.5 43.3125 
Q 31.890625 43.3125 28.875 39.1875 
Q 25.875 35.0625 25.875 27.296875 
Q 25.875 19.53125 28.875 15.40625 
Q 31.890625 11.28125 37.5 11.28125 
z
M 25.875 46.6875 
Q 29.5 51.46875 33.890625 53.734375 
Q 38.28125 56 44 56 
Q 54.109375 56 60.59375 47.96875 
Q 67.09375 39.9375 67.09375 27.296875 
Q 67.09375 14.65625 60.59375 6.609375 
Q 54.109375 -1.421875 44 -1.421875 
Q 38.28125 -1.421875 33.890625 0.84375 
Q 29.5 3.125 25.875 7.90625 
L 25.875 0 
L 8.40625 0 
L 8.40625 75.984375 
L 25.875 75.984375 
z
" id="DejaVuSans-Bold-62"/>
     <path d="M 51.125 52.984375 
L 51.125 39.703125 
Q 45.515625 42.046875 40.28125 43.21875 
Q 35.0625 44.390625 30.421875 44.390625 
Q 25.4375 44.390625 23.015625 43.140625 
Q 20.609375 41.890625 20.609375 39.3125 
Q 20.609375 37.203125 22.4375 36.078125 
Q 24.265625 34.96875 29 34.421875 
L 32.078125 33.984375 
Q 45.515625 32.28125 50.140625 28.375 
Q 54.78125 24.46875 54.78125 16.109375 
Q 54.78125 7.375 48.328125 2.96875 
Q 41.890625 -1.421875 29.109375 -1.421875 
Q 23.6875 -1.421875 17.890625 -0.5625 
Q 12.109375 0.296875 6 2 
L 6 15.28125 
Q 11.234375 12.75 16.71875 11.46875 
Q 22.21875 10.203125 27.875 10.203125 
Q 33.015625 10.203125 35.59375 11.609375 
Q 38.1875 13.03125 38.1875 15.828125 
Q 38.1875 18.171875 36.40625 19.3125 
Q 34.625 20.453125 29.296875 21.09375 
L 26.21875 21.484375 
Q 14.546875 22.953125 9.859375 26.90625 
Q 5.171875 30.859375 5.171875 38.921875 
Q 5.171875 47.609375 11.125 51.796875 
Q 17.09375 56 29.390625 56 
Q 34.234375 56 39.546875 55.265625 
Q 44.875 54.546875 51.125 52.984375 
z
" id="DejaVuSans-Bold-73"/>
     <path d="M 27.484375 70.21875 
L 27.484375 54.6875 
L 45.515625 54.6875 
L 45.515625 42.1875 
L 27.484375 42.1875 
L 27.484375 19 
Q 27.484375 15.1875 29 13.84375 
Q 30.515625 12.5 35.015625 12.5 
L 44 12.5 
L 44 0 
L 29 0 
Q 18.65625 0 14.328125 4.3125 
Q 10.015625 8.640625 10.015625 19 
L 10.015625 42.1875 
L 1.3125 42.1875 
L 1.3125 54.6875 
L 10.015625 54.6875 
L 10.015625 70.21875 
z
" id="DejaVuSans-Bold-74"/>
     <path d="M 32.90625 24.609375 
Q 27.4375 24.609375 24.671875 22.75 
Q 21.921875 20.90625 21.921875 17.28125 
Q 21.921875 13.96875 24.140625 12.078125 
Q 26.375 10.203125 30.328125 10.203125 
Q 35.25 10.203125 38.625 13.734375 
Q 42 17.28125 42 22.609375 
L 42 24.609375 
z
M 59.625 31.203125 
L 59.625 0 
L 42 0 
L 42 8.109375 
Q 38.484375 3.125 34.078125 0.84375 
Q 29.6875 -1.421875 23.390625 -1.421875 
Q 14.890625 -1.421875 9.59375 3.53125 
Q 4.296875 8.5 4.296875 16.40625 
Q 4.296875 26.03125 10.90625 30.515625 
Q 17.53125 35.015625 31.6875 35.015625 
L 42 35.015625 
L 42 36.375 
Q 42 40.53125 38.71875 42.453125 
Q 35.453125 44.390625 28.515625 44.390625 
Q 22.90625 44.390625 18.0625 43.265625 
Q 13.234375 42.140625 9.078125 39.890625 
L 9.078125 53.21875 
Q 14.703125 54.59375 20.359375 55.296875 
Q 26.03125 56 31.6875 56 
Q 46.484375 56 53.046875 50.171875 
Q 59.625 44.34375 59.625 31.203125 
z
" id="DejaVuSans-Bold-61"/>
     <path d="M 52.59375 52.984375 
L 52.59375 38.71875 
Q 49.03125 41.15625 45.4375 42.328125 
Q 41.84375 43.5 37.984375 43.5 
Q 30.671875 43.5 26.59375 39.234375 
Q 22.515625 34.96875 22.515625 27.296875 
Q 22.515625 19.625 26.59375 15.34375 
Q 30.671875 11.078125 37.984375 11.078125 
Q 42.09375 11.078125 45.78125 12.296875 
Q 49.46875 13.53125 52.59375 15.921875 
L 52.59375 1.609375 
Q 48.484375 0.09375 44.265625 -0.65625 
Q 40.046875 -1.421875 35.796875 -1.421875 
Q 21 -1.421875 12.640625 6.171875 
Q 4.296875 13.765625 4.296875 27.296875 
Q 4.296875 40.828125 12.640625 48.40625 
Q 21 56 35.796875 56 
Q 40.09375 56 44.265625 55.25 
Q 48.4375 54.5 52.59375 52.984375 
z
" id="DejaVuSans-Bold-63"/>
     <path d="M 8.40625 75.984375 
L 25.875 75.984375 
L 25.875 0 
L 8.40625 0 
z
" id="DejaVuSans-Bold-6c"/>
     <path d="M 62.984375 27.484375 
L 62.984375 22.515625 
L 22.125 22.515625 
Q 22.75 16.359375 26.5625 13.28125 
Q 30.375 10.203125 37.203125 10.203125 
Q 42.71875 10.203125 48.5 11.84375 
Q 54.296875 13.484375 60.40625 16.796875 
L 60.40625 3.328125 
Q 54.203125 0.984375 48 -0.21875 
Q 41.796875 -1.421875 35.59375 -1.421875 
Q 20.75 -1.421875 12.515625 6.125 
Q 4.296875 13.671875 4.296875 27.296875 
Q 4.296875 40.671875 12.375 48.328125 
Q 20.453125 56 34.625 56 
Q 47.515625 56 55.25 48.234375 
Q 62.984375 40.484375 62.984375 27.484375 
z
M 45.015625 33.296875 
Q 45.015625 38.28125 42.109375 41.328125 
Q 39.203125 44.390625 34.515625 44.390625 
Q 29.4375 44.390625 26.265625 41.53125 
Q 23.09375 38.671875 22.3125 33.296875 
z
" id="DejaVuSans-Bold-65"/>
    </defs>
    <g transform="translate(122.902344 37.2)scale(0.25 -0.25)">
     <use xlink:href="#DejaVuSans-Bold-4f"/>
     <use x="85.009766" xlink:href="#DejaVuSans-Bold-62"/>
     <use x="156.591797" xlink:href="#DejaVuSans-Bold-73"/>
     <use x="216.113281" xlink:href="#DejaVuSans-Bold-74"/>
     <use x="263.916016" xlink:href="#DejaVuSans-Bold-61"/>
     <use x="331.396484" xlink:href="#DejaVuSans-Bold-63"/>
     <use x="390.673828" xlink:href="#DejaVuSans-Bold-6c"/>
     <use x="424.951172" xlink:href="#DejaVuSans-Bold-65"/>
    </g>
   </g>
  </g>
 </g>
 <defs>
  <clipPath id="p2acffbf6a4">
   <rect height="277.2" width="277.2" x="45.9" y="43.2"/>
  </clipPath>
 </defs>
</svg>
