<?xml version="1.0" encoding="utf-8" standalone="no"?>
<!DOCTYPE svg PUBLIC "-//W3C//DTD SVG 1.1//EN"
  "http://www.w3.org/Graphics/SVG/1.1/DTD/svg11.dtd">
<!-- Created with matplotlib (http://matplotlib.org/) -->
<svg height="360pt" version="1.1" viewBox="0 0 360 360" width="360pt" xmlns="http://www.w3.org/2000/svg" xmlns:xlink="http://www.w3.org/1999/xlink">
 <defs>
  <style type="text/css">
*{stroke-linecap:butt;stroke-linejoin:round;}
  </style>
 </defs>
 <g id="figure_1">
  <g id="patch_1">
   <path d="M 0 360 
L 360 360 
L 360 0 
L 0 0 
z
" style="fill:#ffffff;"/>
  </g>
  <g id="axes_1">
   <g id="patch_2">
    <path d="M 45.9 320.4 
L 323.1 320.4 
L 323.1 43.2 
L 45.9 43.2 
z
" style="fill:#eaeaf2;"/>
   </g>
   <g id="patch_3">
    <path clip-path="url(#p3a35dcd05b)" d="M 160.1064 -124.2288 
C 163.782115 -124.2288 167.307777 -125.689177 169.9069 -128.2883 
C 172.506023 -130.887423 173.9664 -134.413085 173.9664 -138.0888 
C 173.9664 -141.764515 172.506023 -145.290177 169.9069 -147.8893 
C 167.307777 -150.488423 163.782115 -151.9488 160.1064 -151.9488 
C 156.430685 -151.9488 152.905023 -150.488423 150.3059 -147.8893 
C 147.706777 -145.290177 146.2464 -141.764515 146.2464 -138.0888 
C 146.2464 -134.413085 147.706777 -130.887423 150.3059 -128.2883 
C 152.905023 -125.689177 156.430685 -124.2288 160.1064 -124.2288 
z
" style="fill:#008000;opacity:0.6;stroke:#000000;stroke-linejoin:miter;"/>
   </g>
   <g id="patch_4">
    <path clip-path="url(#p3a35dcd05b)" d="M 184.5 285.75 
C 212.067862 285.75 238.510328 274.797172 258.00375 255.30375 
C 277.497172 235.810328 288.45 209.367862 288.45 181.8 
C 288.45 154.232138 277.497172 127.789672 258.00375 108.29625 
C 238.510328 88.802828 212.067862 77.85 184.5 77.85 
C 156.932138 77.85 130.489672 88.802828 110.99625 108.29625 
C 91.502828 127.789672 80.55 154.232138 80.55 181.8 
C 80.55 209.367862 91.502828 235.810328 110.99625 255.30375 
C 130.489672 274.797172 156.932138 285.75 184.5 285.75 
z
" style="opacity:0.1;stroke:#000000;stroke-linejoin:miter;"/>
   </g>
   <g id="patch_5">
    <path clip-path="url(#p3a35dcd05b)" d="M 184.5 216.45 
C 193.689287 216.45 202.503443 212.799057 209.00125 206.30125 
C 215.499057 199.803443 219.15 190.989287 219.15 181.8 
C 219.15 172.610713 215.499057 163.796557 209.00125 157.29875 
C 202.503443 150.800943 193.689287 147.15 184.5 147.15 
C 175.310713 147.15 166.496557 150.800943 159.99875 157.29875 
C 153.500943 163.796557 149.85 172.610713 149.85 181.8 
C 149.85 190.989287 153.500943 199.803443 159.99875 206.30125 
C 166.496557 212.799057 175.310713 216.45 184.5 216.45 
z
" style="fill:#ff0000;opacity:0.2;stroke:#ff0000;stroke-linejoin:miter;"/>
   </g>
   <g id="line2d_1">
    <path clip-path="url(#p3a35dcd05b)" d="M 110.515393 361 
L 111.060012 354.743361 
L 111.680959 345.420358 
L 112.049299 336.047015 
L 112.195817 326.661805 
L 112.1484 317.251218 
L 111.865591 307.814717 
L 111.373175 298.363408 
L 110.658877 288.892534 
L 109.706129 279.415634 
L 108.508033 269.952614 
L 107.061165 260.523397 
L 105.364044 251.146719 
L 103.41665 241.839988 
L 101.220193 232.619336 
L 98.007522 220.566144 
L 95.413956 211.700321 
L 92.63649 202.968279 
L 89.670377 194.378691 
L 85.491895 183.173771 
L 81.14484 172.278895 
L 76.688933 161.701193 
L 73.250195 153.967582 
L 69.694763 146.398133 
L 64.773424 136.551883 
L 59.744217 126.989705 
L 52.441505 113.316045 
L 49.303795 106.876847 
L 46.605446 100.727973 
L 45.09971 96.78777 
L 43.895669 92.978604 
L 43.015746 89.306962 
L 42.459306 85.769602 
L 42.232593 82.361195 
L 42.293446 79.07611 
L 42.582865 75.907924 
L 43.061617 72.848553 
L 44.039033 68.440965 
L 46.605451 58.792992 
L 48.152272 53.551291 
L 50.686976 45.967969 
L 55.029249 33.838757 
L 56.911672 29.111666 
L 59.486037 23.313064 
L 64.098358 13.126365 
L 69.958082 -0.20343 
L 70.336701 -1 
L 70.336701 -1 
" style="fill:none;stroke:#000000;stroke-linecap:square;stroke-width:1.5;"/>
   </g>
   <g id="line2d_2">
    <path clip-path="url(#p3a35dcd05b)" d="M 113.448255 361 
L 113.708613 357.844043 
L 114.109554 351.564245 
L 114.438235 342.250856 
L 114.495767 333.086021 
L 114.327196 324.044514 
L 113.929263 315.096657 
L 113.294232 306.238175 
L 112.439751 297.469592 
L 111.080138 285.8504 
L 109.504449 274.144502 
L 107.185437 259.424196 
L 104.185175 241.985813 
L 102.465045 233.335443 
L 101.086627 227.533716 
L 98.593844 218.762468 
L 95.816615 210.030098 
L 89.432323 190.324836 
L 84.482621 174.333539 
L 81.89449 166.543812 
L 79.129357 158.864714 
L 76.170537 151.292732 
L 69.08425 134.210143 
L 65.913187 127.152466 
L 62.456296 120.178271 
L 58.800522 113.301687 
L 52.535602 102.097659 
L 48.868645 95.575024 
L 46.787874 91.39282 
L 45.940505 89.368924 
L 45.253204 87.395917 
L 44.741306 85.476935 
L 44.411601 83.613832 
L 44.258763 81.80772 
L 44.269291 80.058402 
L 44.41915 78.364737 
L 45.031212 75.133592 
L 46.32148 70.613559 
L 47.112252 67.754321 
L 47.70489 64.969346 
L 48.48877 59.532597 
L 49.174663 55.55445 
L 50.168888 51.665221 
L 52.122898 45.356562 
L 53.408214 41.655856 
L 57.590343 30.858989 
L 59.152935 27.374843 
L 61.484803 22.910858 
L 64.570625 17.668878 
L 72.443123 5.076935 
L 74.500011 2.513593 
L 76.783576 0.031757 
L 77.806766 -1 
L 77.806766 -1 
" style="fill:none;stroke:#ff0000;stroke-linecap:square;stroke-width:1.5;"/>
   </g>
   <g id="line2d_3">
    <path clip-path="url(#p3a35dcd05b)" d="M 115.967963 361 
L 116.806775 351.456744 
L 117.403584 341.761371 
L 117.714466 332.123384 
L 117.730345 322.571389 
L 117.476383 313.124789 
L 116.99854 303.791717 
L 116.302515 294.541719 
L 115.359953 285.341423 
L 113.8214 273.192683 
L 112.493184 264.164161 
L 110.937919 255.150565 
L 109.114568 246.111355 
L 107.05888 237.083864 
L 104.768902 228.092784 
L 102.24377 219.160125 
L 99.483983 210.305829 
L 96.491317 201.548044 
L 93.268677 192.903309 
L 89.819955 184.386715 
L 86.149891 176.012032 
L 80.996252 165.098612 
L 69.861215 141.883203 
L 66.01404 134.503264 
L 55.712909 115.610502 
L 51.834941 108.817637 
L 43.942452 95.657806 
L 38.641809 87.211011 
L 36.142369 83.154277 
L 34.039976 79.256927 
L 33.209634 77.374571 
L 32.56134 75.538248 
L 32.116112 73.748376 
L 31.888714 72.004827 
L 31.88249 70.308098 
L 32.091138 68.658455 
L 32.469677 67.063279 
L 32.982864 65.522754 
L 34.310896 62.587924 
L 35.897418 59.820864 
L 38.47637 55.915085 
L 40.95427 52.204414 
L 42.347475 49.816794 
L 43.474207 47.481832 
L 44.36189 45.182354 
L 47.428997 36.199383 
L 48.576334 34.014002 
L 52.392715 27.487472 
L 53.400569 25.259754 
L 54.16033 22.986315 
L 54.702983 20.672147 
L 56.366111 12.435853 
L 57.538554 8.915333 
L 60.084514 1.89672 
L 60.958603 -1 
L 60.958603 -1 
" style="fill:none;stroke:#008000;stroke-linecap:square;stroke-width:1.5;"/>
   </g>
   <g id="line2d_4">
    <path clip-path="url(#p3a35dcd05b)" d="M 113.391136 361 
L 114.004595 352.989647 
L 114.48856 343.659443 
L 114.744024 334.36252 
L 114.792694 325.084547 
L 114.64142 315.804214 
L 114.291035 306.506657 
L 113.741074 297.180768 
L 112.979169 287.825261 
L 111.995814 278.447438 
L 110.777035 269.064085 
L 109.316244 259.69637 
L 107.610201 250.365067 
L 105.657604 241.089577 
L 103.458629 231.887833 
L 101.022139 222.779533 
L 98.337675 213.77473 
L 95.412897 204.888749 
L 92.253042 196.135257 
L 87.798929 184.717646 
L 83.302158 173.663193 
L 78.712268 162.9467 
L 74.043185 152.558283 
L 70.395358 144.964135 
L 66.570574 137.530284 
L 59.968905 125.496371 
L 54.614312 116.203808 
L 50.486069 109.421988 
L 39.800726 92.129875 
L 37.526157 88.046214 
L 35.539767 84.079514 
L 33.88712 80.234754 
L 32.601496 76.513611 
L 31.69732 72.914025 
L 31.148443 69.433697 
L 30.902612 66.069113 
L 30.92547 62.814505 
L 31.18766 59.666339 
L 31.640431 56.619864 
L 32.547885 52.223018 
L 33.64179 48.005375 
L 35.318538 42.615665 
L 38.854017 32.381124 
L 41.627757 25.033172 
L 44.140298 19.087289 
L 46.854983 13.289367 
L 51.314087 4.244897 
L 54.115533 -1 
L 54.115533 -1 
" style="fill:none;stroke:#0000ff;stroke-linecap:square;stroke-width:1.5;"/>
   </g>
   <g id="patch_6">
    <path d="M 45.9 320.4 
L 45.9 43.2 
" style="fill:none;stroke:#000000;stroke-linecap:square;stroke-linejoin:miter;stroke-width:0.8;"/>
   </g>
   <g id="patch_7">
    <path d="M 323.1 320.4 
L 323.1 43.2 
" style="fill:none;stroke:#000000;stroke-linecap:square;stroke-linejoin:miter;stroke-width:0.8;"/>
   </g>
   <g id="patch_8">
    <path d="M 45.9 320.4 
L 323.1 320.4 
" style="fill:none;stroke:#000000;stroke-linecap:square;stroke-linejoin:miter;stroke-width:0.8;"/>
   </g>
   <g id="patch_9">
    <path d="M 45.9 43.2 
L 323.1 43.2 
" style="fill:none;stroke:#000000;stroke-linecap:square;stroke-linejoin:miter;stroke-width:0.8;"/>
   </g>
   <g id="text_1">
    <!-- Obstacle -->
    <defs>
     <path d="M 42.484375 60.59375 
Q 33.890625 60.59375 29.15625 54.25 
Q 24.421875 47.90625 24.421875 36.375 
Q 24.421875 24.90625 29.15625 18.546875 
Q 33.890625 12.203125 42.484375 12.203125 
Q 51.125 12.203125 55.859375 18.546875 
Q 60.59375 24.90625 60.59375 36.375 
Q 60.59375 47.90625 55.859375 54.25 
Q 51.125 60.59375 42.484375 60.59375 
z
M 42.484375 74.21875 
Q 60.0625 74.21875 70.015625 64.15625 
Q 79.984375 54.109375 79.984375 36.375 
Q 79.984375 18.703125 70.015625 8.640625 
Q 60.0625 -1.421875 42.484375 -1.421875 
Q 24.953125 -1.421875 14.96875 8.640625 
Q 4.984375 18.703125 4.984375 36.375 
Q 4.984375 54.109375 14.96875 64.15625 
Q 24.953125 74.21875 42.484375 74.21875 
z
" id="DejaVuSans-Bold-4f"/>
     <path d="M 37.5 11.28125 
Q 43.109375 11.28125 46.0625 15.375 
Q 49.03125 19.484375 49.03125 27.296875 
Q 49.03125 35.109375 46.0625 39.203125 
Q 43.109375 43.3125 37.5 43.3125 
Q 31.890625 43.3125 28.875 39.1875 
Q 25.875 35.0625 25.875 27.296875 
Q 25.875 19.53125 28.875 15.40625 
Q 31.890625 11.28125 37.5 11.28125 
z
M 25.875 46.6875 
Q 29.5 51.46875 33.890625 53.734375 
Q 38.28125 56 44 56 
Q 54.109375 56 60.59375 47.96875 
Q 67.09375 39.9375 67.09375 27.296875 
Q 67.09375 14.65625 60.59375 6.609375 
Q 54.109375 -1.421875 44 -1.421875 
Q 38.28125 -1.421875 33.890625 0.84375 
Q 29.5 3.125 25.875 7.90625 
L 25.875 0 
L 8.40625 0 
L 8.40625 75.984375 
L 25.875 75.984375 
z
" id="DejaVuSans-Bold-62"/>
     <path d="M 51.125 52.984375 
L 51.125 39.703125 
Q 45.515625 42.046875 40.28125 43.21875 
Q 35.0625 44.390625 30.421875 44.390625 
Q 25.4375 44.390625 23.015625 43.140625 
Q 20.609375 41.890625 20.609375 39.3125 
Q 20.609375 37.203125 22.4375 36.078125 
Q 24.265625 34.96875 29 34.421875 
L 32.078125 33.984375 
Q 45.515625 32.28125 50.140625 28.375 
Q 54.78125 24.46875 54.78125 16.109375 
Q 54.78125 7.375 48.328125 2.96875 
Q 41.890625 -1.421875 29.109375 -1.421875 
Q 23.6875 -1.421875 17.890625 -0.5625 
Q 12.109375 0.296875 6 2 
L 6 15.28125 
Q 11.234375 12.75 16.71875 11.46875 
Q 22.21875 10.203125 27.875 10.203125 
Q 33.015625 10.203125 35.59375 11.609375 
Q 38.1875 13.03125 38.1875 15.828125 
Q 38.1875 18.171875 36.40625 19.3125 
Q 34.625 20.453125 29.296875 21.09375 
L 26.21875 21.484375 
Q 14.546875 22.953125 9.859375 26.90625 
Q 5.171875 30.859375 5.171875 38.921875 
Q 5.171875 47.609375 11.125 51.796875 
Q 17.09375 56 29.390625 56 
Q 34.234375 56 39.546875 55.265625 
Q 44.875 54.546875 51.125 52.984375 
z
" id="DejaVuSans-Bold-73"/>
     <path d="M 27.484375 70.21875 
L 27.484375 54.6875 
L 45.515625 54.6875 
L 45.515625 42.1875 
L 27.484375 42.1875 
L 27.484375 19 
Q 27.484375 15.1875 29 13.84375 
Q 30.515625 12.5 35.015625 12.5 
L 44 12.5 
L 44 0 
L 29 0 
Q 18.65625 0 14.328125 4.3125 
Q 10.015625 8.640625 10.015625 19 
L 10.015625 42.1875 
L 1.3125 42.1875 
L 1.3125 54.6875 
L 10.015625 54.6875 
L 10.015625 70.21875 
z
" id="DejaVuSans-Bold-74"/>
     <path d="M 32.90625 24.609375 
Q 27.4375 24.609375 24.671875 22.75 
Q 21.921875 20.90625 21.921875 17.28125 
Q 21.921875 13.96875 24.140625 12.078125 
Q 26.375 10.203125 30.328125 10.203125 
Q 35.25 10.203125 38.625 13.734375 
Q 42 17.28125 42 22.609375 
L 42 24.609375 
z
M 59.625 31.203125 
L 59.625 0 
L 42 0 
L 42 8.109375 
Q 38.484375 3.125 34.078125 0.84375 
Q 29.6875 -1.421875 23.390625 -1.421875 
Q 14.890625 -1.421875 9.59375 3.53125 
Q 4.296875 8.5 4.296875 16.40625 
Q 4.296875 26.03125 10.90625 30.515625 
Q 17.53125 35.015625 31.6875 35.015625 
L 42 35.015625 
L 42 36.375 
Q 42 40.53125 38.71875 42.453125 
Q 35.453125 44.390625 28.515625 44.390625 
Q 22.90625 44.390625 18.0625 43.265625 
Q 13.234375 42.140625 9.078125 39.890625 
L 9.078125 53.21875 
Q 14.703125 54.59375 20.359375 55.296875 
Q 26.03125 56 31.6875 56 
Q 46.484375 56 53.046875 50.171875 
Q 59.625 44.34375 59.625 31.203125 
z
" id="DejaVuSans-Bold-61"/>
     <path d="M 52.59375 52.984375 
L 52.59375 38.71875 
Q 49.03125 41.15625 45.4375 42.328125 
Q 41.84375 43.5 37.984375 43.5 
Q 30.671875 43.5 26.59375 39.234375 
Q 22.515625 34.96875 22.515625 27.296875 
Q 22.515625 19.625 26.59375 15.34375 
Q 30.671875 11.078125 37.984375 11.078125 
Q 42.09375 11.078125 45.78125 12.296875 
Q 49.46875 13.53125 52.59375 15.921875 
L 52.59375 1.609375 
Q 48.484375 0.09375 44.265625 -0.65625 
Q 40.046875 -1.421875 35.796875 -1.421875 
Q 21 -1.421875 12.640625 6.171875 
Q 4.296875 13.765625 4.296875 27.296875 
Q 4.296875 40.828125 12.640625 48.40625 
Q 21 56 35.796875 56 
Q 40.09375 56 44.265625 55.25 
Q 48.4375 54.5 52.59375 52.984375 
z
" id="DejaVuSans-Bold-63"/>
     <path d="M 8.40625 75.984375 
L 25.875 75.984375 
L 25.875 0 
L 8.40625 0 
z
" id="DejaVuSans-Bold-6c"/>
     <path d="M 62.984375 27.484375 
L 62.984375 22.515625 
L 22.125 22.515625 
Q 22.75 16.359375 26.5625 13.28125 
Q 30.375 10.203125 37.203125 10.203125 
Q 42.71875 10.203125 48.5 11.84375 
Q 54.296875 13.484375 60.40625 16.796875 
L 60.40625 3.328125 
Q 54.203125 0.984375 48 -0.21875 
Q 41.796875 -1.421875 35.59375 -1.421875 
Q 20.75 -1.421875 12.515625 6.125 
Q 4.296875 13.671875 4.296875 27.296875 
Q 4.296875 40.671875 12.375 48.328125 
Q 20.453125 56 34.625 56 
Q 47.515625 56 55.25 48.234375 
Q 62.984375 40.484375 62.984375 27.484375 
z
M 45.015625 33.296875 
Q 45.015625 38.28125 42.109375 41.328125 
Q 39.203125 44.390625 34.515625 44.390625 
Q 29.4375 44.390625 26.265625 41.53125 
Q 23.09375 38.671875 22.3125 33.296875 
z
" id="DejaVuSans-Bold-65"/>
    </defs>
    <g transform="translate(122.902344 37.2)scale(0.25 -0.25)">
     <use xlink:href="#DejaVuSans-Bold-4f"/>
     <use x="85.009766" xlink:href="#DejaVuSans-Bold-62"/>
     <use x="156.591797" xlink:href="#DejaVuSans-Bold-73"/>
     <use x="216.113281" xlink:href="#DejaVuSans-Bold-74"/>
     <use x="263.916016" xlink:href="#DejaVuSans-Bold-61"/>
     <use x="331.396484" xlink:href="#DejaVuSans-Bold-63"/>
     <use x="390.673828" xlink:href="#DejaVuSans-Bold-6c"/>
     <use x="424.951172" xlink:href="#DejaVuSans-Bold-65"/>
    </g>
   </g>
  </g>
 </g>
 <defs>
  <clipPath id="p3a35dcd05b">
   <rect height="277.2" width="277.2" x="45.9" y="43.2"/>
  </clipPath>
 </defs>
</svg>
