<?xml version="1.0" encoding="utf-8" standalone="no"?>
<!DOCTYPE svg PUBLIC "-//W3C//DTD SVG 1.1//EN"
  "http://www.w3.org/Graphics/SVG/1.1/DTD/svg11.dtd">
<!-- Created with matplotlib (http://matplotlib.org/) -->
<svg height="360pt" version="1.1" viewBox="0 0 360 360" width="360pt" xmlns="http://www.w3.org/2000/svg" xmlns:xlink="http://www.w3.org/1999/xlink">
 <defs>
  <style type="text/css">
*{stroke-linecap:butt;stroke-linejoin:round;}
  </style>
 </defs>
 <g id="figure_1">
  <g id="patch_1">
   <path d="M 0 360 
L 360 360 
L 360 0 
L 0 0 
z
" style="fill:#ffffff;"/>
  </g>
  <g id="axes_1">
   <g id="patch_2">
    <path d="M 45.9 320.4 
L 323.1 320.4 
L 323.1 43.2 
L 45.9 43.2 
z
" style="fill:#eaeaf2;"/>
   </g>
   <g id="patch_3">
    <path clip-path="url(#pc7b199cd2b)" d="M 160.1064 -124.2288 
C 163.782115 -124.2288 167.307777 -125.689177 169.9069 -128.2883 
C 172.506023 -130.887423 173.9664 -134.413085 173.9664 -138.0888 
C 173.9664 -141.764515 172.506023 -145.290177 169.9069 -147.8893 
C 167.307777 -150.488423 163.782115 -151.9488 160.1064 -151.9488 
C 156.430685 -151.9488 152.905023 -150.488423 150.3059 -147.8893 
C 147.706777 -145.290177 146.2464 -141.764515 146.2464 -138.0888 
C 146.2464 -134.413085 147.706777 -130.887423 150.3059 -128.2883 
C 152.905023 -125.689177 156.430685 -124.2288 160.1064 -124.2288 
z
" style="fill:#008000;opacity:0.6;stroke:#000000;stroke-linejoin:miter;"/>
   </g>
   <g id="patch_4">
    <path clip-path="url(#pc7b199cd2b)" d="M 184.5 285.75 
C 212.067862 285.75 238.510328 274.797172 258.00375 255.30375 
C 277.497172 235.810328 288.45 209.367862 288.45 181.8 
C 288.45 154.232138 277.497172 127.789672 258.00375 108.29625 
C 238.510328 88.802828 212.067862 77.85 184.5 77.85 
C 156.932138 77.85 130.489672 88.802828 110.99625 108.29625 
C 91.502828 127.789672 80.55 154.232138 80.55 181.8 
C 80.55 209.367862 91.502828 235.810328 110.99625 255.30375 
C 130.489672 274.797172 156.932138 285.75 184.5 285.75 
z
" style="opacity:0.1;stroke:#000000;stroke-linejoin:miter;"/>
   </g>
   <g id="patch_5">
    <path clip-path="url(#pc7b199cd2b)" d="M 184.5 216.45 
C 193.689287 216.45 202.503443 212.799057 209.00125 206.30125 
C 215.499057 199.803443 219.15 190.989287 219.15 181.8 
C 219.15 172.610713 215.499057 163.796557 209.00125 157.29875 
C 202.503443 150.800943 193.689287 147.15 184.5 147.15 
C 175.310713 147.15 166.496557 150.800943 159.99875 157.29875 
C 153.500943 163.796557 149.85 172.610713 149.85 181.8 
C 149.85 190.989287 153.500943 199.803443 159.99875 206.30125 
C 166.496557 212.799057 175.310713 216.45 184.5 216.45 
z
" style="fill:#ff0000;opacity:0.2;stroke:#ff0000;stroke-linejoin:miter;"/>
   </g>
   <g id="line2d_1">
    <path clip-path="url(#pc7b199cd2b)" d="M 117.73546 361 
L 118.458776 353.191156 
L 119.194027 343.570192 
L 119.724886 333.870536 
L 120.020589 324.103832 
L 120.077276 314.292446 
L 119.888974 304.45274 
L 119.446894 294.602878 
L 118.746038 284.762088 
L 117.783444 274.948801 
L 116.557655 265.180349 
L 115.068486 255.472977 
L 113.316873 245.841916 
L 111.304736 236.30145 
L 109.034878 226.864984 
L 106.510879 217.545105 
L 103.752585 208.359252 
L 102.857827 205.939268 
L 101.409978 204.924216 
L 98.430803 202.100903 
L 96.94396 200.492797 
L 91.279992 191.884125 
L 88.565741 187.063992 
L 84.867911 179.951746 
L 79.120312 168.244369 
L 66.8149 142.948814 
L 62.214767 134.312037 
L 56.167843 123.539202 
L 51.103689 115.010044 
L 47.130134 108.695253 
L 42.85345 102.482098 
L 32.527966 88.332976 
L 29.941841 84.386769 
L 27.772806 80.533002 
L 26.036825 76.787936 
L 24.669255 73.154833 
L 23.625054 69.633125 
L 22.899643 66.216528 
L 22.49007 62.899497 
L 22.375842 59.681747 
L 22.529616 56.565231 
L 22.912725 53.545806 
L 23.76922 49.183353 
L 24.846167 44.997604 
L 26.094658 40.964518 
L 27.488425 37.063643 
L 29.544121 32.039255 
L 32.304496 25.984125 
L 35.794065 18.970066 
L 38.80059 13.283639 
L 43.289774 5.538807 
L 47.021168 -1 
L 47.021168 -1 
" style="fill:none;stroke:#000000;stroke-linecap:square;stroke-width:1.5;"/>
   </g>
   <g id="line2d_2">
    <path clip-path="url(#pc7b199cd2b)" d="M 110.988977 361 
L 111.765491 352.272496 
L 112.403419 342.906993 
L 112.832412 333.426877 
L 113.018428 323.870588 
L 112.95411 314.279924 
L 112.64293 304.684682 
L 112.10707 295.091526 
L 111.336675 285.501144 
L 110.324565 275.930722 
L 109.052738 266.388148 
L 107.525847 256.895875 
L 105.744337 247.47124 
L 103.713305 238.134199 
L 102.249946 231.992931 
L 98.063674 217.256207 
L 97.169694 214.346752 
L 96.621382 211.62766 
L 95.033717 206.085033 
L 91.995254 195.13413 
L 89.604923 187.052683 
L 86.888026 179.029697 
L 83.85465 171.073691 
L 80.589018 163.215218 
L 76.044393 152.940197 
L 71.294731 142.914024 
L 66.350449 133.141915 
L 61.238642 123.629301 
L 54.767019 112.100955 
L 50.767015 105.381144 
L 45.2846 96.64195 
L 39.693942 88.174839 
L 35.273574 82.007306 
L 30.606959 75.999843 
L 24.194112 68.215266 
L 10.180129 51.687608 
L 7.173032 48.207705 
L 4.484704 44.783947 
L 2.250206 41.422624 
L 0.497224 38.117393 
L -0.830081 34.864787 
L -1 34.337343 
M -1 7.17067 
L -0.099416 4.305202 
L 1.304632 0.479394 
L 1.938201 -1 
L 1.938201 -1 
" style="fill:none;stroke:#ff0000;stroke-linecap:square;stroke-width:1.5;"/>
   </g>
   <g id="line2d_3">
    <path clip-path="url(#pc7b199cd2b)" d="M 111.620352 361 
L 111.91136 353.839419 
L 112.020485 345.407196 
L 111.89741 337.014461 
L 111.422588 323.071301 
L 110.775152 308.840522 
L 109.982909 297.17693 
L 109.000831 285.508549 
L 107.766842 273.881067 
L 106.673584 265.236432 
L 105.351902 256.592584 
L 103.702556 247.853104 
L 101.887022 239.112534 
L 98.650048 227.792047 
L 97.10795 222.245786 
L 96.666835 219.681089 
L 95.290939 214.462161 
L 93.127371 206.646614 
L 90.155856 196.453868 
L 88.508115 191.392238 
L 86.626029 186.272077 
L 83.458892 178.537134 
L 80.051688 170.834657 
L 76.489468 163.216683 
L 71.534829 153.226988 
L 65.171387 141.062208 
L 61.565368 134.046669 
L 59.524462 129.572744 
L 56.9691 123.156964 
L 52.298244 110.930776 
L 50.574338 106.955218 
L 47.697021 101.068443 
L 39.901636 86.112093 
L 37.475769 80.711188 
L 29.983429 62.92925 
L 28.90703 59.538304 
L 28.558171 57.885911 
L 28.352685 56.265249 
L 28.296109 54.675751 
L 28.37163 53.117624 
L 28.854403 50.088642 
L 29.641673 47.1749 
L 30.609275 44.366404 
L 32.243008 40.320176 
L 35.148101 33.920287 
L 40.873516 21.900226 
L 42.865227 18.470786 
L 44.401744 16.248908 
L 47.009846 13.020308 
L 50.733128 8.884029 
L 55.510808 3.93641 
L 60.514522 -1 
L 60.514522 -1 
" style="fill:none;stroke:#008000;stroke-linecap:square;stroke-width:1.5;"/>
   </g>
   <g id="line2d_4">
    <path clip-path="url(#pc7b199cd2b)" d="M 112.107037 361 
L 112.748765 352.100589 
L 113.199844 342.980456 
L 113.459966 333.811155 
L 113.532252 324.587715 
L 113.42096 315.30269 
L 113.109714 305.952944 
L 112.584163 296.548691 
L 111.829041 287.108663 
L 110.835341 277.655691 
L 109.597574 268.212152 
L 108.112402 258.798957 
L 106.378176 249.43546 
L 104.394685 240.139555 
L 102.162969 230.92779 
L 96.85762 213.342847 
L 96.250303 210.612841 
L 93.602186 202.232958 
L 91.7283 196.674554 
L 88.753243 188.409263 
L 85.544745 180.241103 
L 82.179439 172.197311 
L 77.533824 161.699095 
L 71.608203 148.972504 
L 66.79789 139.108058 
L 61.889855 129.515605 
L 56.82134 120.204423 
L 48.23725 104.731868 
L 42.087138 94.247837 
L 31.630479 76.54091 
L 28.647195 71.007945 
L 26.059334 65.657727 
L 22.116866 57.100522 
L 17.905802 48.832898 
L 16.660914 45.591764 
L 16.209491 43.994008 
L 15.653412 40.844758 
L 15.466267 37.763299 
L 15.568681 34.752826 
L 15.880228 31.821589 
L 16.352355 28.967313 
L 17.311214 24.820454 
L 18.539578 20.822654 
L 19.979591 16.956292 
L 22.114136 11.975975 
L 23.882411 8.357241 
L 26.466141 3.670819 
L 29.335333 -1 
L 29.335333 -1 
" style="fill:none;stroke:#0000ff;stroke-linecap:square;stroke-width:1.5;"/>
   </g>
   <g id="patch_6">
    <path d="M 45.9 320.4 
L 45.9 43.2 
" style="fill:none;stroke:#000000;stroke-linecap:square;stroke-linejoin:miter;stroke-width:0.8;"/>
   </g>
   <g id="patch_7">
    <path d="M 323.1 320.4 
L 323.1 43.2 
" style="fill:none;stroke:#000000;stroke-linecap:square;stroke-linejoin:miter;stroke-width:0.8;"/>
   </g>
   <g id="patch_8">
    <path d="M 45.9 320.4 
L 323.1 320.4 
" style="fill:none;stroke:#000000;stroke-linecap:square;stroke-linejoin:miter;stroke-width:0.8;"/>
   </g>
   <g id="patch_9">
    <path d="M 45.9 43.2 
L 323.1 43.2 
" style="fill:none;stroke:#000000;stroke-linecap:square;stroke-linejoin:miter;stroke-width:0.8;"/>
   </g>
   <g id="text_1">
    <!-- Obstacle -->
    <defs>
     <path d="M 42.484375 60.59375 
Q 33.890625 60.59375 29.15625 54.25 
Q 24.421875 47.90625 24.421875 36.375 
Q 24.421875 24.90625 29.15625 18.546875 
Q 33.890625 12.203125 42.484375 12.203125 
Q 51.125 12.203125 55.859375 18.546875 
Q 60.59375 24.90625 60.59375 36.375 
Q 60.59375 47.90625 55.859375 54.25 
Q 51.125 60.59375 42.484375 60.59375 
z
M 42.484375 74.21875 
Q 60.0625 74.21875 70.015625 64.15625 
Q 79.984375 54.109375 79.984375 36.375 
Q 79.984375 18.703125 70.015625 8.640625 
Q 60.0625 -1.421875 42.484375 -1.421875 
Q 24.953125 -1.421875 14.96875 8.640625 
Q 4.984375 18.703125 4.984375 36.375 
Q 4.984375 54.109375 14.96875 64.15625 
Q 24.953125 74.21875 42.484375 74.21875 
z
" id="DejaVuSans-Bold-4f"/>
     <path d="M 37.5 11.28125 
Q 43.109375 11.28125 46.0625 15.375 
Q 49.03125 19.484375 49.03125 27.296875 
Q 49.03125 35.109375 46.0625 39.203125 
Q 43.109375 43.3125 37.5 43.3125 
Q 31.890625 43.3125 28.875 39.1875 
Q 25.875 35.0625 25.875 27.296875 
Q 25.875 19.53125 28.875 15.40625 
Q 31.890625 11.28125 37.5 11.28125 
z
M 25.875 46.6875 
Q 29.5 51.46875 33.890625 53.734375 
Q 38.28125 56 44 56 
Q 54.109375 56 60.59375 47.96875 
Q 67.09375 39.9375 67.09375 27.296875 
Q 67.09375 14.65625 60.59375 6.609375 
Q 54.109375 -1.421875 44 -1.421875 
Q 38.28125 -1.421875 33.890625 0.84375 
Q 29.5 3.125 25.875 7.90625 
L 25.875 0 
L 8.40625 0 
L 8.40625 75.984375 
L 25.875 75.984375 
z
" id="DejaVuSans-Bold-62"/>
     <path d="M 51.125 52.984375 
L 51.125 39.703125 
Q 45.515625 42.046875 40.28125 43.21875 
Q 35.0625 44.390625 30.421875 44.390625 
Q 25.4375 44.390625 23.015625 43.140625 
Q 20.609375 41.890625 20.609375 39.3125 
Q 20.609375 37.203125 22.4375 36.078125 
Q 24.265625 34.96875 29 34.421875 
L 32.078125 33.984375 
Q 45.515625 32.28125 50.140625 28.375 
Q 54.78125 24.46875 54.78125 16.109375 
Q 54.78125 7.375 48.328125 2.96875 
Q 41.890625 -1.421875 29.109375 -1.421875 
Q 23.6875 -1.421875 17.890625 -0.5625 
Q 12.109375 0.296875 6 2 
L 6 15.28125 
Q 11.234375 12.75 16.71875 11.46875 
Q 22.21875 10.203125 27.875 10.203125 
Q 33.015625 10.203125 35.59375 11.609375 
Q 38.1875 13.03125 38.1875 15.828125 
Q 38.1875 18.171875 36.40625 19.3125 
Q 34.625 20.453125 29.296875 21.09375 
L 26.21875 21.484375 
Q 14.546875 22.953125 9.859375 26.90625 
Q 5.171875 30.859375 5.171875 38.921875 
Q 5.171875 47.609375 11.125 51.796875 
Q 17.09375 56 29.390625 56 
Q 34.234375 56 39.546875 55.265625 
Q 44.875 54.546875 51.125 52.984375 
z
" id="DejaVuSans-Bold-73"/>
     <path d="M 27.484375 70.21875 
L 27.484375 54.6875 
L 45.515625 54.6875 
L 45.515625 42.1875 
L 27.484375 42.1875 
L 27.484375 19 
Q 27.484375 15.1875 29 13.84375 
Q 30.515625 12.5 35.015625 12.5 
L 44 12.5 
L 44 0 
L 29 0 
Q 18.65625 0 14.328125 4.3125 
Q 10.015625 8.640625 10.015625 19 
L 10.015625 42.1875 
L 1.3125 42.1875 
L 1.3125 54.6875 
L 10.015625 54.6875 
L 10.015625 70.21875 
z
" id="DejaVuSans-Bold-74"/>
     <path d="M 32.90625 24.609375 
Q 27.4375 24.609375 24.671875 22.75 
Q 21.921875 20.90625 21.921875 17.28125 
Q 21.921875 13.96875 24.140625 12.078125 
Q 26.375 10.203125 30.328125 10.203125 
Q 35.25 10.203125 38.625 13.734375 
Q 42 17.28125 42 22.609375 
L 42 24.609375 
z
M 59.625 31.203125 
L 59.625 0 
L 42 0 
L 42 8.109375 
Q 38.484375 3.125 34.078125 0.84375 
Q 29.6875 -1.421875 23.390625 -1.421875 
Q 14.890625 -1.421875 9.59375 3.53125 
Q 4.296875 8.5 4.296875 16.40625 
Q 4.296875 26.03125 10.90625 30.515625 
Q 17.53125 35.015625 31.6875 35.015625 
L 42 35.015625 
L 42 36.375 
Q 42 40.53125 38.71875 42.453125 
Q 35.453125 44.390625 28.515625 44.390625 
Q 22.90625 44.390625 18.0625 43.265625 
Q 13.234375 42.140625 9.078125 39.890625 
L 9.078125 53.21875 
Q 14.703125 54.59375 20.359375 55.296875 
Q 26.03125 56 31.6875 56 
Q 46.484375 56 53.046875 50.171875 
Q 59.625 44.34375 59.625 31.203125 
z
" id="DejaVuSans-Bold-61"/>
     <path d="M 52.59375 52.984375 
L 52.59375 38.71875 
Q 49.03125 41.15625 45.4375 42.328125 
Q 41.84375 43.5 37.984375 43.5 
Q 30.671875 43.5 26.59375 39.234375 
Q 22.515625 34.96875 22.515625 27.296875 
Q 22.515625 19.625 26.59375 15.34375 
Q 30.671875 11.078125 37.984375 11.078125 
Q 42.09375 11.078125 45.78125 12.296875 
Q 49.46875 13.53125 52.59375 15.921875 
L 52.59375 1.609375 
Q 48.484375 0.09375 44.265625 -0.65625 
Q 40.046875 -1.421875 35.796875 -1.421875 
Q 21 -1.421875 12.640625 6.171875 
Q 4.296875 13.765625 4.296875 27.296875 
Q 4.296875 40.828125 12.640625 48.40625 
Q 21 56 35.796875 56 
Q 40.09375 56 44.265625 55.25 
Q 48.4375 54.5 52.59375 52.984375 
z
" id="DejaVuSans-Bold-63"/>
     <path d="M 8.40625 75.984375 
L 25.875 75.984375 
L 25.875 0 
L 8.40625 0 
z
" id="DejaVuSans-Bold-6c"/>
     <path d="M 62.984375 27.484375 
L 62.984375 22.515625 
L 22.125 22.515625 
Q 22.75 16.359375 26.5625 13.28125 
Q 30.375 10.203125 37.203125 10.203125 
Q 42.71875 10.203125 48.5 11.84375 
Q 54.296875 13.484375 60.40625 16.796875 
L 60.40625 3.328125 
Q 54.203125 0.984375 48 -0.21875 
Q 41.796875 -1.421875 35.59375 -1.421875 
Q 20.75 -1.421875 12.515625 6.125 
Q 4.296875 13.671875 4.296875 27.296875 
Q 4.296875 40.671875 12.375 48.328125 
Q 20.453125 56 34.625 56 
Q 47.515625 56 55.25 48.234375 
Q 62.984375 40.484375 62.984375 27.484375 
z
M 45.015625 33.296875 
Q 45.015625 38.28125 42.109375 41.328125 
Q 39.203125 44.390625 34.515625 44.390625 
Q 29.4375 44.390625 26.265625 41.53125 
Q 23.09375 38.671875 22.3125 33.296875 
z
" id="DejaVuSans-Bold-65"/>
    </defs>
    <g transform="translate(122.902344 37.2)scale(0.25 -0.25)">
     <use xlink:href="#DejaVuSans-Bold-4f"/>
     <use x="85.009766" xlink:href="#DejaVuSans-Bold-62"/>
     <use x="156.591797" xlink:href="#DejaVuSans-Bold-73"/>
     <use x="216.113281" xlink:href="#DejaVuSans-Bold-74"/>
     <use x="263.916016" xlink:href="#DejaVuSans-Bold-61"/>
     <use x="331.396484" xlink:href="#DejaVuSans-Bold-63"/>
     <use x="390.673828" xlink:href="#DejaVuSans-Bold-6c"/>
     <use x="424.951172" xlink:href="#DejaVuSans-Bold-65"/>
    </g>
   </g>
  </g>
 </g>
 <defs>
  <clipPath id="pc7b199cd2b">
   <rect height="277.2" width="277.2" x="45.9" y="43.2"/>
  </clipPath>
 </defs>
</svg>
